<svg width="120" height="120" viewBox="0 0 120 120" fill="none" xmlns="http://www.w3.org/2000/svg">
<rect width="120" height="120" rx="10" fill="#F3F499" fill-opacity="0.5"/>
<path d="M45.35 91.5C45.35 90.8133 45.5033 90.2 45.81 89.66C46.1233 89.1133 46.5467 88.69 47.08 88.39C47.62 88.0833 48.2233 87.93 48.89 87.93C49.67 87.93 50.3533 88.13 50.94 88.53C51.5267 88.93 51.9367 89.4833 52.17 90.19H50.56C50.4 89.8567 50.1733 89.6067 49.88 89.44C49.5933 89.2733 49.26 89.19 48.88 89.19C48.4733 89.19 48.11 89.2867 47.79 89.48C47.4767 89.6667 47.23 89.9333 47.05 90.28C46.8767 90.6267 46.79 91.0333 46.79 91.5C46.79 91.96 46.8767 92.3667 47.05 92.72C47.23 93.0667 47.4767 93.3367 47.79 93.53C48.11 93.7167 48.4733 93.81 48.88 93.81C49.26 93.81 49.5933 93.7267 49.88 93.56C50.1733 93.3867 50.4 93.1333 50.56 92.8H52.17C51.9367 93.5133 51.5267 94.07 50.94 94.47C50.36 94.8633 49.6767 95.06 48.89 95.06C48.2233 95.06 47.62 94.91 47.08 94.61C46.5467 94.3033 46.1233 93.88 45.81 93.34C45.5033 92.8 45.35 92.1867 45.35 91.5ZM56.0258 95.07C55.5391 95.07 55.0991 94.9867 54.7058 94.82C54.3191 94.6533 54.0124 94.4133 53.7858 94.1C53.5591 93.7867 53.4424 93.4167 53.4358 92.99H54.9358C54.9558 93.2767 55.0558 93.5033 55.2358 93.67C55.4224 93.8367 55.6758 93.92 55.9958 93.92C56.3224 93.92 56.5791 93.8433 56.7658 93.69C56.9524 93.53 57.0458 93.3233 57.0458 93.07C57.0458 92.8633 56.9824 92.6933 56.8558 92.56C56.7291 92.4267 56.5691 92.3233 56.3758 92.25C56.1891 92.17 55.9291 92.0833 55.5958 91.99C55.1424 91.8567 54.7724 91.7267 54.4858 91.6C54.2058 91.4667 53.9624 91.27 53.7558 91.01C53.5558 90.7433 53.4558 90.39 53.4558 89.95C53.4558 89.5367 53.5591 89.1767 53.7658 88.87C53.9724 88.5633 54.2624 88.33 54.6358 88.17C55.0091 88.0033 55.4358 87.92 55.9158 87.92C56.6358 87.92 57.2191 88.0967 57.6658 88.45C58.1191 88.7967 58.3691 89.2833 58.4158 89.91H56.8758C56.8624 89.67 56.7591 89.4733 56.5658 89.32C56.3791 89.16 56.1291 89.08 55.8158 89.08C55.5424 89.08 55.3224 89.15 55.1558 89.29C54.9958 89.43 54.9158 89.6333 54.9158 89.9C54.9158 90.0867 54.9758 90.2433 55.0958 90.37C55.2224 90.49 55.3758 90.59 55.5558 90.67C55.7424 90.7433 56.0024 90.83 56.3358 90.93C56.7891 91.0633 57.1591 91.1967 57.4458 91.33C57.7324 91.4633 57.9791 91.6633 58.1858 91.93C58.3924 92.1967 58.4958 92.5467 58.4958 92.98C58.4958 93.3533 58.3991 93.7 58.2058 94.02C58.0124 94.34 57.7291 94.5967 57.3558 94.79C56.9824 94.9767 56.5391 95.07 56.0258 95.07ZM62.3695 95.07C61.8829 95.07 61.4429 94.9867 61.0495 94.82C60.6629 94.6533 60.3562 94.4133 60.1295 94.1C59.9029 93.7867 59.7862 93.4167 59.7795 92.99H61.2795C61.2995 93.2767 61.3995 93.5033 61.5795 93.67C61.7662 93.8367 62.0195 93.92 62.3395 93.92C62.6662 93.92 62.9229 93.8433 63.1095 93.69C63.2962 93.53 63.3895 93.3233 63.3895 93.07C63.3895 92.8633 63.3262 92.6933 63.1995 92.56C63.0729 92.4267 62.9129 92.3233 62.7195 92.25C62.5329 92.17 62.2729 92.0833 61.9395 91.99C61.4862 91.8567 61.1162 91.7267 60.8295 91.6C60.5495 91.4667 60.3062 91.27 60.0995 91.01C59.8995 90.7433 59.7995 90.39 59.7995 89.95C59.7995 89.5367 59.9029 89.1767 60.1095 88.87C60.3162 88.5633 60.6062 88.33 60.9795 88.17C61.3529 88.0033 61.7795 87.92 62.2595 87.92C62.9795 87.92 63.5629 88.0967 64.0095 88.45C64.4629 88.7967 64.7129 89.2833 64.7595 89.91H63.2195C63.2062 89.67 63.1029 89.4733 62.9095 89.32C62.7229 89.16 62.4729 89.08 62.1595 89.08C61.8862 89.08 61.6662 89.15 61.4995 89.29C61.3395 89.43 61.2595 89.6333 61.2595 89.9C61.2595 90.0867 61.3195 90.2433 61.4395 90.37C61.5662 90.49 61.7195 90.59 61.8995 90.67C62.0862 90.7433 62.3462 90.83 62.6795 90.93C63.1329 91.0633 63.5029 91.1967 63.7895 91.33C64.0762 91.4633 64.3229 91.6633 64.5295 91.93C64.7362 92.1967 64.8395 92.5467 64.8395 92.98C64.8395 93.3533 64.7429 93.7 64.5495 94.02C64.3562 94.34 64.0729 94.5967 63.6995 94.79C63.3262 94.9767 62.8829 95.07 62.3695 95.07ZM68.7961 89.63C68.8294 88.9633 69.0628 88.45 69.4961 88.09C69.9361 87.7233 70.5128 87.54 71.2261 87.54C71.7128 87.54 72.1294 87.6267 72.4761 87.8C72.8228 87.9667 73.0828 88.1967 73.2561 88.49C73.4361 88.7767 73.5261 89.1033 73.5261 89.47C73.5261 89.89 73.4161 90.2467 73.1961 90.54C72.9828 90.8267 72.7261 91.02 72.4261 91.12V91.16C72.8128 91.28 73.1128 91.4933 73.3261 91.8C73.5461 92.1067 73.6561 92.5 73.6561 92.98C73.6561 93.38 73.5628 93.7367 73.3761 94.05C73.1961 94.3633 72.9261 94.61 72.5661 94.79C72.2128 94.9633 71.7861 95.05 71.2861 95.05C70.5328 95.05 69.9194 94.86 69.4461 94.48C68.9728 94.1 68.7228 93.54 68.6961 92.8H70.0561C70.0694 93.1267 70.1794 93.39 70.3861 93.59C70.5994 93.7833 70.8894 93.88 71.2561 93.88C71.5961 93.88 71.8561 93.7867 72.0361 93.6C72.2228 93.4067 72.3161 93.16 72.3161 92.86C72.3161 92.46 72.1894 92.1733 71.9361 92C71.6828 91.8267 71.2894 91.74 70.7561 91.74H70.4661V90.59H70.7561C71.7028 90.59 72.1761 90.2733 72.1761 89.64C72.1761 89.3533 72.0894 89.13 71.9161 88.97C71.7494 88.81 71.5061 88.73 71.1861 88.73C70.8728 88.73 70.6294 88.8167 70.4561 88.99C70.2894 89.1567 70.1928 89.37 70.1661 89.63H68.7961Z" fill="#231F20"/>
<path d="M79.5759 22.6548C78.7729 22.8044 78.1401 23.4243 77.9874 24.211C77.9797 24.2504 77.9245 24.2504 77.917 24.211C77.7643 23.4243 77.1315 22.8044 76.3285 22.6548C76.2883 22.6473 76.2883 22.5933 76.3285 22.5857C77.1315 22.4361 77.7643 21.8163 77.917 21.0296C77.9247 20.9901 77.9799 20.9901 77.9874 21.0296C78.1401 21.8163 78.7729 22.4361 79.5759 22.5857C79.6161 22.5933 79.6161 22.6473 79.5759 22.6548Z" fill="#F5C84C"/>
<path d="M62.0832 78.0543C61.5201 78.1592 61.0761 78.5941 60.9691 79.1458C60.9637 79.1735 60.925 79.1735 60.9197 79.1458C60.8127 78.5941 60.3688 78.1592 59.8056 78.0543C59.7774 78.0491 59.7774 78.0112 59.8056 78.006C60.3688 77.9011 60.8127 77.4662 60.9197 76.9145C60.9252 76.8868 60.9639 76.8868 60.9691 76.9145C61.0761 77.4662 61.5201 77.9011 62.0832 78.006C62.1115 78.0112 62.1115 78.0489 62.0832 78.0543Z" fill="#87D147"/>
<path d="M79.4926 27.8002C79.8536 27.8002 80.1462 27.5076 80.1462 27.1466C80.1462 26.7857 79.8536 26.4931 79.4926 26.4931C79.1317 26.4931 78.8391 26.7857 78.8391 27.1466C78.8391 27.5076 79.1317 27.8002 79.4926 27.8002Z" fill="#FC657E"/>
<path d="M56.6269 76.2854C56.9878 76.2854 57.2804 75.9928 57.2804 75.6319C57.2804 75.2709 56.9878 74.9783 56.6269 74.9783C56.266 74.9783 55.9734 75.2709 55.9734 75.6319C55.9734 75.9928 56.266 76.2854 56.6269 76.2854Z" fill="#70D6F9"/>
<path d="M83.5214 52.3191H83.1684V51.9661C83.1684 51.7017 82.9542 51.4875 82.6898 51.4875C82.4254 51.4875 82.2112 51.7017 82.2112 51.9661V52.3191H81.8582C81.5939 52.3191 81.3796 52.5333 81.3796 52.7976C81.3796 53.062 81.5939 53.2762 81.8582 53.2762H82.2112V53.6292C82.2112 53.8936 82.4254 54.1078 82.6898 54.1078C82.9542 54.1078 83.1684 53.8936 83.1684 53.6292V53.2762H83.5214C83.7857 53.2762 84 53.062 84 52.7976C84 52.5333 83.7855 52.3191 83.5214 52.3191Z" fill="#70D6F9"/>
<path d="M80.7629 48.9836C81.1238 48.9836 81.4164 48.691 81.4164 48.3301C81.4164 47.9692 81.1238 47.6766 80.7629 47.6766C80.402 47.6766 80.1094 47.9692 80.1094 48.3301C80.1094 48.691 80.402 48.9836 80.7629 48.9836Z" fill="#F5C84C"/>
<path d="M42 68.8125V27.8109C42 26.1541 43.3431 24.8109 45 24.8109H68.2551C69.0432 24.8109 69.7996 25.121 70.3609 25.6741L76.6745 31.896C77.2466 32.4598 77.5687 33.2295 77.5687 34.0328V68.8125C77.5687 70.4693 76.2256 71.8125 74.5687 71.8125H45C43.3431 71.8125 42 70.4693 42 68.8125Z" fill="#F3F3DB" stroke="#231F20"/>
<path d="M68.6765 33.5738C67.0597 31.9806 67.2329 24.9724 67.2329 24.9724L70.5819 26.0812L73.7577 29.257L76.2983 31.7976C77.5686 33.0679 77.57 33.3588 76.7602 34.3705C76.7602 34.3705 70.2932 35.1671 68.6765 33.5738Z" fill="#C5C913" stroke="#231F20" stroke-linecap="round" stroke-linejoin="round"/>
<path d="M42 59.1093H77.5687V68.8124C77.5687 70.4693 76.2256 71.8124 74.5687 71.8124H45C43.3431 71.8124 42 70.4693 42 68.8124V59.1093Z" fill="#C5C913" stroke="#231F20"/>
<path d="M51.28 65.2C51.28 64.6507 51.4027 64.16 51.648 63.728C51.8987 63.2907 52.2373 62.952 52.664 62.712C53.096 62.4667 53.5787 62.344 54.112 62.344C54.736 62.344 55.2827 62.504 55.752 62.824C56.2213 63.144 56.5493 63.5867 56.736 64.152H55.448C55.32 63.8853 55.1387 63.6853 54.904 63.552C54.6747 63.4187 54.408 63.352 54.104 63.352C53.7787 63.352 53.488 63.4293 53.232 63.584C52.9813 63.7333 52.784 63.9467 52.64 64.224C52.5013 64.5013 52.432 64.8267 52.432 65.2C52.432 65.568 52.5013 65.8933 52.64 66.176C52.784 66.4533 52.9813 66.6693 53.232 66.824C53.488 66.9733 53.7787 67.048 54.104 67.048C54.408 67.048 54.6747 66.9813 54.904 66.848C55.1387 66.7093 55.32 66.5067 55.448 66.24H56.736C56.5493 66.8107 56.2213 67.256 55.752 67.576C55.288 67.8907 54.7413 68.048 54.112 68.048C53.5787 68.048 53.096 67.928 52.664 67.688C52.2373 67.4427 51.8987 67.104 51.648 66.672C51.4027 66.24 51.28 65.7493 51.28 65.2ZM59.8206 68.056C59.4313 68.056 59.0793 67.9893 58.7646 67.856C58.4553 67.7227 58.21 67.5307 58.0286 67.28C57.8473 67.0293 57.754 66.7333 57.7486 66.392H58.9486C58.9646 66.6213 59.0446 66.8027 59.1886 66.936C59.338 67.0693 59.5406 67.136 59.7966 67.136C60.058 67.136 60.2633 67.0747 60.4126 66.952C60.562 66.824 60.6366 66.6587 60.6366 66.456C60.6366 66.2907 60.586 66.1547 60.4846 66.048C60.3833 65.9413 60.2553 65.8587 60.1006 65.8C59.9513 65.736 59.7433 65.6667 59.4766 65.592C59.114 65.4853 58.818 65.3813 58.5886 65.28C58.3646 65.1733 58.17 65.016 58.0046 64.808C57.8446 64.5947 57.7646 64.312 57.7646 63.96C57.7646 63.6293 57.8473 63.3413 58.0126 63.096C58.178 62.8507 58.41 62.664 58.7086 62.536C59.0073 62.4027 59.3486 62.336 59.7326 62.336C60.3086 62.336 60.7753 62.4773 61.1326 62.76C61.4953 63.0373 61.6953 63.4267 61.7326 63.928H60.5006C60.49 63.736 60.4073 63.5787 60.2526 63.456C60.1033 63.328 59.9033 63.264 59.6526 63.264C59.434 63.264 59.258 63.32 59.1246 63.432C58.9966 63.544 58.9326 63.7067 58.9326 63.92C58.9326 64.0693 58.9806 64.1947 59.0766 64.296C59.178 64.392 59.3006 64.472 59.4446 64.536C59.594 64.5947 59.802 64.664 60.0686 64.744C60.4313 64.8507 60.7273 64.9573 60.9566 65.064C61.186 65.1707 61.3833 65.3307 61.5486 65.544C61.714 65.7573 61.7966 66.0373 61.7966 66.384C61.7966 66.6827 61.7193 66.96 61.5646 67.216C61.41 67.472 61.1833 67.6773 60.8846 67.832C60.586 67.9813 60.2313 68.056 59.8206 68.056ZM64.8956 68.056C64.5063 68.056 64.1543 67.9893 63.8396 67.856C63.5303 67.7227 63.285 67.5307 63.1036 67.28C62.9223 67.0293 62.829 66.7333 62.8236 66.392H64.0236C64.0396 66.6213 64.1196 66.8027 64.2636 66.936C64.413 67.0693 64.6156 67.136 64.8716 67.136C65.133 67.136 65.3383 67.0747 65.4876 66.952C65.637 66.824 65.7116 66.6587 65.7116 66.456C65.7116 66.2907 65.661 66.1547 65.5596 66.048C65.4583 65.9413 65.3303 65.8587 65.1756 65.8C65.0263 65.736 64.8183 65.6667 64.5516 65.592C64.189 65.4853 63.893 65.3813 63.6636 65.28C63.4396 65.1733 63.245 65.016 63.0796 64.808C62.9196 64.5947 62.8396 64.312 62.8396 63.96C62.8396 63.6293 62.9223 63.3413 63.0876 63.096C63.253 62.8507 63.485 62.664 63.7836 62.536C64.0823 62.4027 64.4236 62.336 64.8076 62.336C65.3836 62.336 65.8503 62.4773 66.2076 62.76C66.5703 63.0373 66.7703 63.4267 66.8076 63.928H65.5756C65.565 63.736 65.4823 63.5787 65.3276 63.456C65.1783 63.328 64.9783 63.264 64.7276 63.264C64.509 63.264 64.333 63.32 64.1996 63.432C64.0716 63.544 64.0076 63.7067 64.0076 63.92C64.0076 64.0693 64.0556 64.1947 64.1516 64.296C64.253 64.392 64.3756 64.472 64.5196 64.536C64.669 64.5947 64.877 64.664 65.1436 64.744C65.5063 64.8507 65.8023 64.9573 66.0316 65.064C66.261 65.1707 66.4583 65.3307 66.6236 65.544C66.789 65.7573 66.8716 66.0373 66.8716 66.384C66.8716 66.6827 66.7943 66.96 66.6396 67.216C66.485 67.472 66.2583 67.6773 65.9596 67.832C65.661 67.9813 65.3063 68.056 64.8956 68.056Z" fill="#231F20"/>
<path d="M50.079 47.076L48.553 45.508L50.079 43.94H51.311L49.785 45.508L51.311 47.076H50.079ZM53.1799 48.049C53.0026 48.049 52.8556 47.9953 52.7389 47.888C52.6269 47.776 52.5709 47.6383 52.5709 47.475C52.5709 47.3117 52.6269 47.1763 52.7389 47.069C52.8556 46.957 53.0026 46.901 53.1799 46.901C53.3526 46.901 53.4949 46.957 53.6069 47.069C53.7189 47.1763 53.7749 47.3117 53.7749 47.475C53.7749 47.6383 53.7189 47.776 53.6069 47.888C53.4949 47.9953 53.3526 48.049 53.1799 48.049ZM54.4872 46.061C54.4872 45.6597 54.5689 45.3097 54.7322 45.011C54.8956 44.7077 55.1219 44.4743 55.4112 44.311C55.7006 44.143 56.0319 44.059 56.4052 44.059C56.8859 44.059 57.2826 44.1803 57.5953 44.423C57.9126 44.661 58.1249 44.997 58.2323 45.431H57.1753C57.1193 45.263 57.0236 45.1323 56.8883 45.039C56.7576 44.941 56.5943 44.892 56.3983 44.892C56.1182 44.892 55.8966 44.9947 55.7332 45.2C55.5699 45.4007 55.4883 45.6877 55.4883 46.061C55.4883 46.4297 55.5699 46.7167 55.7332 46.922C55.8966 47.1227 56.1182 47.223 56.3983 47.223C56.7949 47.223 57.0539 47.0457 57.1753 46.691H58.2323C58.1249 47.111 57.9126 47.4447 57.5953 47.692C57.2779 47.9393 56.8812 48.063 56.4052 48.063C56.0319 48.063 55.7006 47.9813 55.4112 47.818C55.1219 47.65 54.8956 47.4167 54.7322 47.118C54.5689 46.8147 54.4872 46.4623 54.4872 46.061ZM60.6092 48.063C60.2919 48.063 60.0072 48.007 59.7552 47.895C59.5032 47.7783 59.3025 47.622 59.1532 47.426C59.0085 47.23 58.9292 47.013 58.9152 46.775H59.9022C59.9209 46.9243 59.9932 47.048 60.1192 47.146C60.2499 47.244 60.4109 47.293 60.6022 47.293C60.7889 47.293 60.9335 47.2557 61.0362 47.181C61.1435 47.1063 61.1972 47.0107 61.1972 46.894C61.1972 46.768 61.1319 46.6747 61.0012 46.614C60.8752 46.5487 60.6722 46.4787 60.3922 46.404C60.1029 46.334 59.8649 46.2617 59.6782 46.187C59.4962 46.1123 59.3375 45.998 59.2022 45.844C59.0715 45.69 59.0062 45.4823 59.0062 45.221C59.0062 45.0063 59.0669 44.8103 59.1882 44.633C59.3142 44.4557 59.4915 44.3157 59.7202 44.213C59.9535 44.1103 60.2265 44.059 60.5392 44.059C61.0012 44.059 61.3699 44.1757 61.6452 44.409C61.9205 44.6377 62.0722 44.948 62.1002 45.34H61.1622C61.1482 45.186 61.0829 45.0647 60.9662 44.976C60.8542 44.8827 60.7025 44.836 60.5112 44.836C60.3339 44.836 60.1962 44.8687 60.0982 44.934C60.0049 44.9993 59.9582 45.0903 59.9582 45.207C59.9582 45.3377 60.0235 45.438 60.1542 45.508C60.2849 45.5733 60.4879 45.641 60.7632 45.711C61.0432 45.781 61.2742 45.8533 61.4562 45.928C61.6382 46.0027 61.7945 46.1193 61.9252 46.278C62.0605 46.432 62.1305 46.6373 62.1352 46.894C62.1352 47.118 62.0722 47.3187 61.9462 47.496C61.8249 47.6733 61.6475 47.8133 61.4142 47.916C61.1855 48.014 60.9172 48.063 60.6092 48.063ZM64.5986 48.063C64.2813 48.063 63.9966 48.007 63.7446 47.895C63.4926 47.7783 63.292 47.622 63.1426 47.426C62.998 47.23 62.9186 47.013 62.9046 46.775H63.8916C63.9103 46.9243 63.9826 47.048 64.1086 47.146C64.2393 47.244 64.4003 47.293 64.5916 47.293C64.7783 47.293 64.923 47.2557 65.0256 47.181C65.133 47.1063 65.1866 47.0107 65.1866 46.894C65.1866 46.768 65.1213 46.6747 64.9906 46.614C64.8646 46.5487 64.6616 46.4787 64.3816 46.404C64.0923 46.334 63.8543 46.2617 63.6676 46.187C63.4856 46.1123 63.327 45.998 63.1916 45.844C63.061 45.69 62.9956 45.4823 62.9956 45.221C62.9956 45.0063 63.0563 44.8103 63.1776 44.633C63.3036 44.4557 63.481 44.3157 63.7096 44.213C63.943 44.1103 64.216 44.059 64.5286 44.059C64.9906 44.059 65.3593 44.1757 65.6346 44.409C65.91 44.6377 66.0616 44.948 66.0896 45.34H65.1516C65.1376 45.186 65.0723 45.0647 64.9556 44.976C64.8436 44.8827 64.692 44.836 64.5006 44.836C64.3233 44.836 64.1856 44.8687 64.0876 44.934C63.9943 44.9993 63.9476 45.0903 63.9476 45.207C63.9476 45.3377 64.013 45.438 64.1436 45.508C64.2743 45.5733 64.4773 45.641 64.7526 45.711C65.0326 45.781 65.2636 45.8533 65.4456 45.928C65.6276 46.0027 65.784 46.1193 65.9146 46.278C66.05 46.432 66.12 46.6373 66.1246 46.894C66.1246 47.118 66.0616 47.3187 65.9356 47.496C65.8143 47.6733 65.637 47.8133 65.4036 47.916C65.175 48.014 64.9066 48.063 64.5986 48.063ZM67.2441 43.94H68.4831L70.0091 45.508L68.4831 47.076H67.2441L68.7771 45.508L67.2441 43.94Z" fill="#231F20"/>
</svg>
