<svg width="120" height="120" viewBox="0 0 120 120" fill="none" xmlns="http://www.w3.org/2000/svg">
<rect width="120" height="120" rx="10" fill="#FCE5E7" fill-opacity="0.5"/>
<path d="M48.48 88.02V95H47.08V92.03H44.09V95H42.69V88.02H44.09V90.89H47.08V88.02H48.48ZM51.738 90.61V93.29C51.738 93.4767 51.7813 93.6133 51.868 93.7C51.9613 93.78 52.1146 93.82 52.328 93.82H52.978V95H52.098C50.918 95 50.328 94.4267 50.328 93.28V90.61H49.668V89.46H50.328V88.09H51.738V89.46H52.978V90.61H51.738ZM61.1149 89.38C61.7949 89.38 62.3416 89.59 62.7549 90.01C63.1749 90.4233 63.3849 91.0033 63.3849 91.75V95H61.9849V91.94C61.9849 91.5067 61.8749 91.1767 61.6549 90.95C61.4349 90.7167 61.1349 90.6 60.7549 90.6C60.3749 90.6 60.0716 90.7167 59.8449 90.95C59.6249 91.1767 59.5149 91.5067 59.5149 91.94V95H58.1149V91.94C58.1149 91.5067 58.0049 91.1767 57.7849 90.95C57.5649 90.7167 57.2649 90.6 56.8849 90.6C56.4983 90.6 56.1916 90.7167 55.9649 90.95C55.7449 91.1767 55.6349 91.5067 55.6349 91.94V95H54.2349V89.46H55.6349V90.13C55.8149 89.8967 56.0449 89.7133 56.3249 89.58C56.6116 89.4467 56.9249 89.38 57.2649 89.38C57.6983 89.38 58.0849 89.4733 58.4249 89.66C58.7649 89.84 59.0283 90.1 59.2149 90.44C59.3949 90.12 59.6549 89.8633 59.9949 89.67C60.3416 89.4767 60.7149 89.38 61.1149 89.38ZM66.3634 87.6V95H64.9634V87.6H66.3634ZM75.3695 88.92H72.1295V90.63C72.2695 90.4567 72.4695 90.3167 72.7295 90.21C72.9895 90.0967 73.2661 90.04 73.5595 90.04C74.0928 90.04 74.5295 90.1567 74.8695 90.39C75.2095 90.6233 75.4561 90.9233 75.6095 91.29C75.7628 91.65 75.8395 92.0367 75.8395 92.45C75.8395 93.2167 75.6195 93.8333 75.1795 94.3C74.7461 94.7667 74.1261 95 73.3195 95C72.5595 95 71.9528 94.81 71.4995 94.43C71.0461 94.05 70.7895 93.5533 70.7295 92.94H72.0895C72.1495 93.2067 72.2828 93.42 72.4895 93.58C72.7028 93.74 72.9728 93.82 73.2995 93.82C73.6928 93.82 73.9895 93.6967 74.1895 93.45C74.3895 93.2033 74.4895 92.8767 74.4895 92.47C74.4895 92.0567 74.3861 91.7433 74.1795 91.53C73.9795 91.31 73.6828 91.2 73.2895 91.2C73.0095 91.2 72.7761 91.27 72.5895 91.41C72.4028 91.55 72.2695 91.7367 72.1895 91.97H70.8495V87.69H75.3695V88.92Z" fill="#231F20"/>
<path d="M79.5759 22.6548C78.7729 22.8044 78.1401 23.4243 77.9874 24.211C77.9797 24.2504 77.9245 24.2504 77.917 24.211C77.7643 23.4243 77.1315 22.8044 76.3285 22.6548C76.2883 22.6473 76.2883 22.5933 76.3285 22.5857C77.1315 22.4361 77.7643 21.8163 77.917 21.0296C77.9247 20.9901 77.9799 20.9901 77.9874 21.0296C78.1401 21.8163 78.7729 22.4361 79.5759 22.5857C79.6161 22.5933 79.6161 22.6473 79.5759 22.6548Z" fill="#F5C84C"/>
<path d="M62.0832 78.0543C61.5201 78.1592 61.0761 78.5941 60.9691 79.1458C60.9637 79.1735 60.925 79.1735 60.9197 79.1458C60.8127 78.5941 60.3688 78.1592 59.8056 78.0543C59.7774 78.0491 59.7774 78.0112 59.8056 78.006C60.3688 77.9011 60.8127 77.4662 60.9197 76.9145C60.9252 76.8868 60.9639 76.8868 60.9691 76.9145C61.0761 77.4662 61.5201 77.9011 62.0832 78.006C62.1115 78.0112 62.1115 78.0489 62.0832 78.0543Z" fill="#87D147"/>
<path d="M79.4926 27.8002C79.8536 27.8002 80.1462 27.5076 80.1462 27.1466C80.1462 26.7857 79.8536 26.4931 79.4926 26.4931C79.1317 26.4931 78.8391 26.7857 78.8391 27.1466C78.8391 27.5076 79.1317 27.8002 79.4926 27.8002Z" fill="#FC657E"/>
<path d="M56.6269 76.2854C56.9878 76.2854 57.2804 75.9928 57.2804 75.6319C57.2804 75.2709 56.9878 74.9783 56.6269 74.9783C56.266 74.9783 55.9734 75.2709 55.9734 75.6319C55.9734 75.9928 56.266 76.2854 56.6269 76.2854Z" fill="#70D6F9"/>
<path d="M83.5214 52.3191H83.1684V51.9661C83.1684 51.7017 82.9542 51.4875 82.6898 51.4875C82.4254 51.4875 82.2112 51.7017 82.2112 51.9661V52.3191H81.8582C81.5939 52.3191 81.3796 52.5333 81.3796 52.7976C81.3796 53.062 81.5939 53.2762 81.8582 53.2762H82.2112V53.6292C82.2112 53.8936 82.4254 54.1078 82.6898 54.1078C82.9542 54.1078 83.1684 53.8936 83.1684 53.6292V53.2762H83.5214C83.7857 53.2762 84 53.062 84 52.7976C84 52.5333 83.7855 52.3191 83.5214 52.3191Z" fill="#70D6F9"/>
<path d="M80.7629 48.9836C81.1238 48.9836 81.4164 48.691 81.4164 48.3301C81.4164 47.9692 81.1238 47.6766 80.7629 47.6766C80.402 47.6766 80.1094 47.9692 80.1094 48.3301C80.1094 48.691 80.402 48.9836 80.7629 48.9836Z" fill="#F5C84C"/>
<path d="M42 68.8125V27.8109C42 26.1541 43.3431 24.8109 45 24.8109H68.2551C69.0432 24.8109 69.7996 25.121 70.3609 25.6741L76.6745 31.896C77.2466 32.4598 77.5687 33.2295 77.5687 34.0328V68.8125C77.5687 70.4693 76.2256 71.8125 74.5687 71.8125H45C43.3431 71.8125 42 70.4693 42 68.8125Z" fill="#F3F3DB" stroke="#231F20"/>
<path d="M68.6765 33.5738C67.0597 31.9806 67.2329 24.9724 67.2329 24.9724L70.5819 26.0812L73.7577 29.257L76.2983 31.7976C77.5686 33.0679 77.57 33.3588 76.7602 34.3705C76.7602 34.3705 70.2932 35.1671 68.6765 33.5738Z" fill="#FD4C5C" stroke="#231F20" stroke-linecap="round" stroke-linejoin="round"/>
<path d="M42 59.1093H77.5687V68.8124C77.5687 70.4693 76.2256 71.8124 74.5687 71.8124H45C43.3431 71.8124 42 70.4693 42 68.8124V59.1093Z" fill="#FD4C5C" stroke="#231F20"/>
<path d="M54.184 62.416V68H53.064V65.624H50.672V68H49.552V62.416H50.672V64.712H53.064V62.416H54.184ZM59.2864 62.416V63.32H57.7984V68H56.6784V63.32H55.1904V62.416H59.2864ZM66.3916 62.416V68H65.2716V64.368L63.7756 68H62.9276L61.4236 64.368V68H60.3036V62.416H61.5756L63.3516 66.568L65.1276 62.416H66.3916ZM68.8189 67.112H70.6589V68H67.6989V62.416H68.8189V67.112Z" fill="white"/>
<path d="M48.079 47.076L46.553 45.508L48.079 43.94H49.311L47.785 45.508L49.311 47.076H48.079ZM51.1799 48.049C51.0026 48.049 50.8556 47.9953 50.7389 47.888C50.6269 47.776 50.5709 47.6383 50.5709 47.475C50.5709 47.3117 50.6269 47.1763 50.7389 47.069C50.8556 46.957 51.0026 46.901 51.1799 46.901C51.3526 46.901 51.4949 46.957 51.6069 47.069C51.7189 47.1763 51.7749 47.3117 51.7749 47.475C51.7749 47.6383 51.7189 47.776 51.6069 47.888C51.4949 47.9953 51.3526 48.049 51.1799 48.049ZM54.9232 44.066C55.2173 44.066 55.4786 44.1313 55.7073 44.262C55.9359 44.388 56.1133 44.577 56.2392 44.829C56.3699 45.0763 56.4352 45.375 56.4352 45.725V48H55.4553V45.858C55.4553 45.55 55.3783 45.3143 55.2243 45.151C55.0703 44.983 54.8603 44.899 54.5943 44.899C54.3236 44.899 54.1089 44.983 53.9502 45.151C53.7962 45.3143 53.7192 45.55 53.7192 45.858V48H52.7392V42.82H53.7192V44.605C53.8452 44.437 54.0133 44.3063 54.2233 44.213C54.4332 44.115 54.6666 44.066 54.9232 44.066ZM58.6832 44.927V46.803C58.6832 46.9337 58.7135 47.0293 58.7742 47.09C58.8395 47.146 58.9468 47.174 59.0962 47.174H59.5512V48H58.9352C58.1092 48 57.6962 47.5987 57.6962 46.796V44.927H57.2342V44.122H57.6962V43.163H58.6832V44.122H59.5512V44.927H58.6832ZM65.247 44.066C65.723 44.066 66.1057 44.213 66.395 44.507C66.689 44.7963 66.836 45.2023 66.836 45.725V48H65.856V45.858C65.856 45.5547 65.779 45.3237 65.625 45.165C65.471 45.0017 65.261 44.92 64.995 44.92C64.729 44.92 64.5167 45.0017 64.358 45.165C64.204 45.3237 64.127 45.5547 64.127 45.858V48H63.147V45.858C63.147 45.5547 63.07 45.3237 62.916 45.165C62.762 45.0017 62.552 44.92 62.286 44.92C62.0154 44.92 61.8007 45.0017 61.642 45.165C61.488 45.3237 61.411 45.5547 61.411 45.858V48H60.431V44.122H61.411V44.591C61.537 44.4277 61.698 44.2993 61.894 44.206C62.0947 44.1127 62.314 44.066 62.552 44.066C62.8554 44.066 63.126 44.1313 63.364 44.262C63.602 44.388 63.7864 44.57 63.917 44.808C64.043 44.584 64.225 44.4043 64.463 44.269C64.7057 44.1337 64.967 44.066 65.247 44.066ZM68.921 42.82V48H67.941V42.82H68.921ZM70.2042 43.94H71.4432L72.9692 45.508L71.4432 47.076H70.2042L71.7372 45.508L70.2042 43.94Z" fill="#FD4C5C"/>
</svg>
