<svg width="120" height="120" viewBox="0 0 120 120" fill="none" xmlns="http://www.w3.org/2000/svg">
<rect width="120" height="120" rx="10" fill="#DFF4AD" fill-opacity="0.5"/>
<path d="M35.76 88.02V92.92C35.76 93.6 35.5633 94.13 35.17 94.51C34.7767 94.8833 34.25 95.07 33.59 95.07C32.9233 95.07 32.3833 94.8767 31.97 94.49C31.5633 94.1033 31.36 93.5633 31.36 92.87H32.76C32.7667 93.17 32.8367 93.4033 32.97 93.57C33.11 93.7367 33.31 93.82 33.57 93.82C33.8233 93.82 34.0167 93.74 34.15 93.58C34.2833 93.42 34.35 93.2 34.35 92.92V88.02H35.76ZM37.2831 92.21C37.2831 91.65 37.3931 91.1533 37.6131 90.72C37.8398 90.2867 38.1431 89.9533 38.5231 89.72C38.9098 89.4867 39.3398 89.37 39.8131 89.37C40.2265 89.37 40.5865 89.4533 40.8931 89.62C41.2065 89.7867 41.4565 89.9967 41.6431 90.25V89.46H43.0531V95H41.6431V94.19C41.4631 94.45 41.2131 94.6667 40.8931 94.84C40.5798 95.0067 40.2165 95.09 39.8031 95.09C39.3365 95.09 38.9098 94.97 38.5231 94.73C38.1431 94.49 37.8398 94.1533 37.6131 93.72C37.3931 93.28 37.2831 92.7767 37.2831 92.21ZM41.6431 92.23C41.6431 91.89 41.5765 91.6 41.4431 91.36C41.3098 91.1133 41.1298 90.9267 40.9031 90.8C40.6765 90.6667 40.4331 90.6 40.1731 90.6C39.9131 90.6 39.6731 90.6633 39.4531 90.79C39.2331 90.9167 39.0531 91.1033 38.9131 91.35C38.7798 91.59 38.7131 91.8767 38.7131 92.21C38.7131 92.5433 38.7798 92.8367 38.9131 93.09C39.0531 93.3367 39.2331 93.5267 39.4531 93.66C39.6798 93.7933 39.9198 93.86 40.1731 93.86C40.4331 93.86 40.6765 93.7967 40.9031 93.67C41.1298 93.5367 41.3098 93.35 41.4431 93.11C41.5765 92.8633 41.6431 92.57 41.6431 92.23ZM46.9805 93.71L48.3805 89.46H49.8705L47.8205 95H46.1205L44.0805 89.46H45.5805L46.9805 93.71ZM50.5468 92.21C50.5468 91.65 50.6568 91.1533 50.8768 90.72C51.1035 90.2867 51.4068 89.9533 51.7868 89.72C52.1735 89.4867 52.6035 89.37 53.0768 89.37C53.4901 89.37 53.8501 89.4533 54.1568 89.62C54.4701 89.7867 54.7201 89.9967 54.9068 90.25V89.46H56.3168V95H54.9068V94.19C54.7268 94.45 54.4768 94.6667 54.1568 94.84C53.8435 95.0067 53.4801 95.09 53.0668 95.09C52.6001 95.09 52.1735 94.97 51.7868 94.73C51.4068 94.49 51.1035 94.1533 50.8768 93.72C50.6568 93.28 50.5468 92.7767 50.5468 92.21ZM54.9068 92.23C54.9068 91.89 54.8401 91.6 54.7068 91.36C54.5735 91.1133 54.3935 90.9267 54.1668 90.8C53.9401 90.6667 53.6968 90.6 53.4368 90.6C53.1768 90.6 52.9368 90.6633 52.7168 90.79C52.4968 90.9167 52.3168 91.1033 52.1768 91.35C52.0435 91.59 51.9768 91.8767 51.9768 92.21C51.9768 92.5433 52.0435 92.8367 52.1768 93.09C52.3168 93.3367 52.4968 93.5267 52.7168 93.66C52.9435 93.7933 53.1835 93.86 53.4368 93.86C53.6968 93.86 53.9401 93.7967 54.1668 93.67C54.3935 93.5367 54.5735 93.35 54.7068 93.11C54.8401 92.8633 54.9068 92.57 54.9068 92.23ZM60.0541 95.09C59.6008 95.09 59.1941 95.01 58.8341 94.85C58.4741 94.6833 58.1875 94.46 57.9741 94.18C57.7675 93.9 57.6541 93.59 57.6341 93.25H59.0441C59.0708 93.4633 59.1741 93.64 59.3541 93.78C59.5408 93.92 59.7708 93.99 60.0441 93.99C60.3108 93.99 60.5175 93.9367 60.6641 93.83C60.8175 93.7233 60.8941 93.5867 60.8941 93.42C60.8941 93.24 60.8008 93.1067 60.6141 93.02C60.4341 92.9267 60.1441 92.8267 59.7441 92.72C59.3308 92.62 58.9908 92.5167 58.7241 92.41C58.4641 92.3033 58.2375 92.14 58.0441 91.92C57.8575 91.7 57.7641 91.4033 57.7641 91.03C57.7641 90.7233 57.8508 90.4433 58.0241 90.19C58.2041 89.9367 58.4575 89.7367 58.7841 89.59C59.1175 89.4433 59.5075 89.37 59.9541 89.37C60.6141 89.37 61.1408 89.5367 61.5341 89.87C61.9275 90.1967 62.1441 90.64 62.1841 91.2H60.8441C60.8241 90.98 60.7308 90.8067 60.5641 90.68C60.4041 90.5467 60.1875 90.48 59.9141 90.48C59.6608 90.48 59.4641 90.5267 59.3241 90.62C59.1908 90.7133 59.1241 90.8433 59.1241 91.01C59.1241 91.1967 59.2175 91.34 59.4041 91.44C59.5908 91.5333 59.8808 91.63 60.2741 91.73C60.6741 91.83 61.0041 91.9333 61.2641 92.04C61.5241 92.1467 61.7475 92.3133 61.9341 92.54C62.1275 92.76 62.2275 93.0533 62.2341 93.42C62.2341 93.74 62.1441 94.0267 61.9641 94.28C61.7908 94.5333 61.5375 94.7333 61.2041 94.88C60.8775 95.02 60.4941 95.09 60.0541 95.09ZM63.2734 92.23C63.2734 91.6567 63.39 91.1567 63.6234 90.73C63.8567 90.2967 64.18 89.9633 64.5934 89.73C65.0067 89.49 65.48 89.37 66.0134 89.37C66.7 89.37 67.2667 89.5433 67.7134 89.89C68.1667 90.23 68.47 90.71 68.6234 91.33H67.1134C67.0334 91.09 66.8967 90.9033 66.7034 90.77C66.5167 90.63 66.2834 90.56 66.0034 90.56C65.6034 90.56 65.2867 90.7067 65.0534 91C64.82 91.2867 64.7034 91.6967 64.7034 92.23C64.7034 92.7567 64.82 93.1667 65.0534 93.46C65.2867 93.7467 65.6034 93.89 66.0034 93.89C66.57 93.89 66.94 93.6367 67.1134 93.13H68.6234C68.47 93.73 68.1667 94.2067 67.7134 94.56C67.26 94.9133 66.6934 95.09 66.0134 95.09C65.48 95.09 65.0067 94.9733 64.5934 94.74C64.18 94.5 63.8567 94.1667 63.6234 93.74C63.39 93.3067 63.2734 92.8033 63.2734 92.23ZM71.299 90.32C71.479 90.0267 71.7123 89.7967 71.999 89.63C72.2923 89.4633 72.6257 89.38 72.999 89.38V90.85H72.629C72.189 90.85 71.8557 90.9533 71.629 91.16C71.409 91.3667 71.299 91.7267 71.299 92.24V95H69.899V89.46H71.299V90.32ZM74.902 88.8C74.6553 88.8 74.4486 88.7233 74.282 88.57C74.122 88.41 74.042 88.2133 74.042 87.98C74.042 87.7467 74.122 87.5533 74.282 87.4C74.4486 87.24 74.6553 87.16 74.902 87.16C75.1486 87.16 75.352 87.24 75.512 87.4C75.6786 87.5533 75.762 87.7467 75.762 87.98C75.762 88.2133 75.6786 88.41 75.512 88.57C75.352 88.7233 75.1486 88.8 74.902 88.8ZM75.592 89.46V95H74.192V89.46H75.592ZM78.6252 90.26C78.8052 90.0067 79.0518 89.7967 79.3652 89.63C79.6852 89.4567 80.0485 89.37 80.4552 89.37C80.9285 89.37 81.3552 89.4867 81.7352 89.72C82.1218 89.9533 82.4252 90.2867 82.6452 90.72C82.8718 91.1467 82.9852 91.6433 82.9852 92.21C82.9852 92.7767 82.8718 93.28 82.6452 93.72C82.4252 94.1533 82.1218 94.49 81.7352 94.73C81.3552 94.97 80.9285 95.09 80.4552 95.09C80.0485 95.09 79.6885 95.0067 79.3752 94.84C79.0685 94.6733 78.8185 94.4633 78.6252 94.21V97.64H77.2252V89.46H78.6252V90.26ZM81.5552 92.21C81.5552 91.8767 81.4852 91.59 81.3452 91.35C81.2118 91.1033 81.0318 90.9167 80.8052 90.79C80.5852 90.6633 80.3452 90.6 80.0852 90.6C79.8318 90.6 79.5918 90.6667 79.3652 90.8C79.1452 90.9267 78.9652 91.1133 78.8252 91.36C78.6918 91.6067 78.6252 91.8967 78.6252 92.23C78.6252 92.5633 78.6918 92.8533 78.8252 93.1C78.9652 93.3467 79.1452 93.5367 79.3652 93.67C79.5918 93.7967 79.8318 93.86 80.0852 93.86C80.3452 93.86 80.5852 93.7933 80.8052 93.66C81.0318 93.5267 81.2118 93.3367 81.3452 93.09C81.4852 92.8433 81.5552 92.55 81.5552 92.21ZM85.8825 90.61V93.29C85.8825 93.4767 85.9258 93.6133 86.0125 93.7C86.1058 93.78 86.2592 93.82 86.4725 93.82H87.1225V95H86.2425C85.0625 95 84.4725 94.4267 84.4725 93.28V90.61H83.8125V89.46H84.4725V88.09H85.8825V89.46H87.1225V90.61H85.8825Z" fill="#231F20"/>
<path d="M79.5759 22.6548C78.7729 22.8044 78.1401 23.4243 77.9874 24.211C77.9797 24.2504 77.9245 24.2504 77.917 24.211C77.7643 23.4243 77.1315 22.8044 76.3285 22.6548C76.2883 22.6473 76.2883 22.5933 76.3285 22.5857C77.1315 22.4361 77.7643 21.8163 77.917 21.0296C77.9247 20.9901 77.9799 20.9901 77.9874 21.0296C78.1401 21.8163 78.7729 22.4361 79.5759 22.5857C79.6161 22.5933 79.6161 22.6473 79.5759 22.6548Z" fill="#F5C84C"/>
<path d="M62.0832 78.0543C61.5201 78.1592 61.0761 78.5941 60.9691 79.1458C60.9637 79.1735 60.925 79.1735 60.9197 79.1458C60.8127 78.5941 60.3688 78.1592 59.8056 78.0543C59.7774 78.0491 59.7774 78.0112 59.8056 78.006C60.3688 77.9011 60.8127 77.4662 60.9197 76.9145C60.9252 76.8868 60.9639 76.8868 60.9691 76.9145C61.0761 77.4662 61.5201 77.9011 62.0832 78.006C62.1115 78.0112 62.1115 78.0489 62.0832 78.0543Z" fill="#87D147"/>
<path d="M79.4926 27.8002C79.8536 27.8002 80.1462 27.5076 80.1462 27.1466C80.1462 26.7857 79.8536 26.4931 79.4926 26.4931C79.1317 26.4931 78.8391 26.7857 78.8391 27.1466C78.8391 27.5076 79.1317 27.8002 79.4926 27.8002Z" fill="#FC657E"/>
<path d="M56.6269 76.2854C56.9878 76.2854 57.2804 75.9928 57.2804 75.6319C57.2804 75.2709 56.9878 74.9783 56.6269 74.9783C56.266 74.9783 55.9734 75.2709 55.9734 75.6319C55.9734 75.9928 56.266 76.2854 56.6269 76.2854Z" fill="#70D6F9"/>
<path d="M83.5214 52.3191H83.1684V51.9661C83.1684 51.7017 82.9542 51.4875 82.6898 51.4875C82.4254 51.4875 82.2112 51.7017 82.2112 51.9661V52.3191H81.8582C81.5939 52.3191 81.3796 52.5333 81.3796 52.7976C81.3796 53.062 81.5939 53.2762 81.8582 53.2762H82.2112V53.6292C82.2112 53.8936 82.4254 54.1078 82.6898 54.1078C82.9542 54.1078 83.1684 53.8936 83.1684 53.6292V53.2762H83.5214C83.7857 53.2762 84 53.062 84 52.7976C84 52.5333 83.7855 52.3191 83.5214 52.3191Z" fill="#70D6F9"/>
<path d="M80.7629 48.9836C81.1238 48.9836 81.4164 48.691 81.4164 48.3301C81.4164 47.9692 81.1238 47.6766 80.7629 47.6766C80.402 47.6766 80.1094 47.9692 80.1094 48.3301C80.1094 48.691 80.402 48.9836 80.7629 48.9836Z" fill="#F5C84C"/>
<path d="M42 68.8125V27.8109C42 26.1541 43.3431 24.8109 45 24.8109H68.2551C69.0432 24.8109 69.7996 25.121 70.3609 25.6741L76.6745 31.896C77.2466 32.4598 77.5687 33.2295 77.5687 34.0328V68.8125C77.5687 70.4693 76.2256 71.8125 74.5687 71.8125H45C43.3431 71.8125 42 70.4693 42 68.8125Z" fill="#F3F3DB" stroke="#231F20"/>
<path d="M68.6765 33.5738C67.0597 31.9806 67.2329 24.9724 67.2329 24.9724L70.5819 26.0812L73.7577 29.257L76.2983 31.7976C77.5686 33.0679 77.57 33.3588 76.7602 34.3705C76.7602 34.3705 70.2932 35.1671 68.6765 33.5738Z" fill="#9BD90E" stroke="#231F20" stroke-linecap="round" stroke-linejoin="round"/>
<path d="M42 59.1093H77.5687V68.8124C77.5687 70.4693 76.2256 71.8124 74.5687 71.8124H45C43.3431 71.8124 42 70.4693 42 68.8124V59.1093Z" fill="#9BD90E" stroke="#231F20"/>
<path d="M58.808 62.416V66.336C58.808 66.88 58.6507 67.304 58.336 67.608C58.0213 67.9067 57.6 68.056 57.072 68.056C56.5387 68.056 56.1067 67.9013 55.776 67.592C55.4507 67.2827 55.288 66.8507 55.288 66.296H56.408C56.4133 66.536 56.4693 66.7227 56.576 66.856C56.688 66.9893 56.848 67.056 57.056 67.056C57.2587 67.056 57.4133 66.992 57.52 66.864C57.6267 66.736 57.68 66.56 57.68 66.336V62.416H58.808ZM62.2425 68.056C61.8532 68.056 61.5012 67.9893 61.1865 67.856C60.8772 67.7227 60.6318 67.5307 60.4505 67.28C60.2692 67.0293 60.1758 66.7333 60.1705 66.392H61.3705C61.3865 66.6213 61.4665 66.8027 61.6105 66.936C61.7598 67.0693 61.9625 67.136 62.2185 67.136C62.4798 67.136 62.6852 67.0747 62.8345 66.952C62.9838 66.824 63.0585 66.6587 63.0585 66.456C63.0585 66.2907 63.0078 66.1547 62.9065 66.048C62.8052 65.9413 62.6772 65.8587 62.5225 65.8C62.3732 65.736 62.1652 65.6667 61.8985 65.592C61.5358 65.4853 61.2398 65.3813 61.0105 65.28C60.7865 65.1733 60.5918 65.016 60.4265 64.808C60.2665 64.5947 60.1865 64.312 60.1865 63.96C60.1865 63.6293 60.2692 63.3413 60.4345 63.096C60.5998 62.8507 60.8318 62.664 61.1305 62.536C61.4292 62.4027 61.7705 62.336 62.1545 62.336C62.7305 62.336 63.1972 62.4773 63.5545 62.76C63.9172 63.0373 64.1172 63.4267 64.1545 63.928H62.9225C62.9118 63.736 62.8292 63.5787 62.6745 63.456C62.5252 63.328 62.3252 63.264 62.0745 63.264C61.8558 63.264 61.6798 63.32 61.5465 63.432C61.4185 63.544 61.3545 63.7067 61.3545 63.92C61.3545 64.0693 61.4025 64.1947 61.4985 64.296C61.5998 64.392 61.7225 64.472 61.8665 64.536C62.0158 64.5947 62.2238 64.664 62.4905 64.744C62.8532 64.8507 63.1492 64.9573 63.3785 65.064C63.6078 65.1707 63.8052 65.3307 63.9705 65.544C64.1358 65.7573 64.2185 66.0373 64.2185 66.384C64.2185 66.6827 64.1412 66.96 63.9865 67.216C63.8318 67.472 63.6052 67.6773 63.3065 67.832C63.0078 67.9813 62.6532 68.056 62.2425 68.056Z" fill="#231F20"/>
<path d="M53.079 47.076L51.553 45.508L53.079 43.94H54.311L52.785 45.508L54.311 47.076H53.079ZM56.1799 48.049C56.0026 48.049 55.8556 47.9953 55.7389 47.888C55.6269 47.776 55.5709 47.6383 55.5709 47.475C55.5709 47.3117 55.6269 47.1763 55.7389 47.069C55.8556 46.957 56.0026 46.901 56.1799 46.901C56.3526 46.901 56.4949 46.957 56.6069 47.069C56.7189 47.1763 56.7749 47.3117 56.7749 47.475C56.7749 47.6383 56.7189 47.776 56.6069 47.888C56.4949 47.9953 56.3526 48.049 56.1799 48.049ZM58.2362 43.66C58.0589 43.66 57.9119 43.6063 57.7952 43.499C57.6832 43.387 57.6272 43.2493 57.6272 43.086C57.6272 42.9227 57.6832 42.7873 57.7952 42.68C57.9119 42.568 58.0589 42.512 58.2362 42.512C58.4089 42.512 58.5512 42.568 58.6632 42.68C58.7752 42.7873 58.8312 42.9227 58.8312 43.086C58.8312 43.2493 58.7752 43.387 58.6632 43.499C58.5512 43.6063 58.4089 43.66 58.2362 43.66ZM58.7192 48.637C58.7192 49.0663 58.6119 49.3743 58.3972 49.561C58.1872 49.7523 57.8839 49.848 57.4872 49.848H57.0532V49.015H57.3332C57.4826 49.015 57.5876 48.9847 57.6482 48.924C57.7089 48.868 57.7392 48.7747 57.7392 48.644V44.122H58.7192V48.637ZM61.3465 48.063C61.0292 48.063 60.7445 48.007 60.4925 47.895C60.2405 47.7783 60.0398 47.622 59.8905 47.426C59.7458 47.23 59.6665 47.013 59.6525 46.775H60.6395C60.6582 46.9243 60.7305 47.048 60.8565 47.146C60.9872 47.244 61.1482 47.293 61.3395 47.293C61.5262 47.293 61.6708 47.2557 61.7735 47.181C61.8808 47.1063 61.9345 47.0107 61.9345 46.894C61.9345 46.768 61.8692 46.6747 61.7385 46.614C61.6125 46.5487 61.4095 46.4787 61.1295 46.404C60.8402 46.334 60.6022 46.2617 60.4155 46.187C60.2335 46.1123 60.0748 45.998 59.9395 45.844C59.8088 45.69 59.7435 45.4823 59.7435 45.221C59.7435 45.0063 59.8042 44.8103 59.9255 44.633C60.0515 44.4557 60.2288 44.3157 60.4575 44.213C60.6908 44.1103 60.9638 44.059 61.2765 44.059C61.7385 44.059 62.1072 44.1757 62.3825 44.409C62.6578 44.6377 62.8095 44.948 62.8375 45.34H61.8995C61.8855 45.186 61.8202 45.0647 61.7035 44.976C61.5915 44.8827 61.4398 44.836 61.2485 44.836C61.0712 44.836 60.9335 44.8687 60.8355 44.934C60.7422 44.9993 60.6955 45.0903 60.6955 45.207C60.6955 45.3377 60.7608 45.438 60.8915 45.508C61.0222 45.5733 61.2252 45.641 61.5005 45.711C61.7805 45.781 62.0115 45.8533 62.1935 45.928C62.3755 46.0027 62.5318 46.1193 62.6625 46.278C62.7978 46.432 62.8678 46.6373 62.8725 46.894C62.8725 47.118 62.8095 47.3187 62.6835 47.496C62.5622 47.6733 62.3848 47.8133 62.1515 47.916C61.9228 48.014 61.6545 48.063 61.3465 48.063ZM63.9919 43.94H65.2309L66.7569 45.508L65.2309 47.076H63.9919L65.5249 45.508L63.9919 43.94Z" fill="#231F20"/>
</svg>
