<svg width="120" height="120" viewBox="0 0 120 120" fill="none" xmlns="http://www.w3.org/2000/svg">
<rect width="120" height="120" rx="10" fill="#A7F5AF" fill-opacity="0.5"/>
<path d="M42.09 93.89H44.39V95H40.69V88.02H42.09V93.89ZM45.1698 92.21C45.1698 91.65 45.2798 91.1533 45.4998 90.72C45.7265 90.2867 46.0298 89.9533 46.4098 89.72C46.7965 89.4867 47.2265 89.37 47.6998 89.37C48.1132 89.37 48.4732 89.4533 48.7798 89.62C49.0932 89.7867 49.3432 89.9967 49.5298 90.25V89.46H50.9398V95H49.5298V94.19C49.3498 94.45 49.0998 94.6667 48.7798 94.84C48.4665 95.0067 48.1032 95.09 47.6898 95.09C47.2232 95.09 46.7965 94.97 46.4098 94.73C46.0298 94.49 45.7265 94.1533 45.4998 93.72C45.2798 93.28 45.1698 92.7767 45.1698 92.21ZM49.5298 92.23C49.5298 91.89 49.4632 91.6 49.3298 91.36C49.1965 91.1133 49.0165 90.9267 48.7898 90.8C48.5632 90.6667 48.3198 90.6 48.0598 90.6C47.7998 90.6 47.5598 90.6633 47.3398 90.79C47.1198 90.9167 46.9398 91.1033 46.7998 91.35C46.6665 91.59 46.5998 91.8767 46.5998 92.21C46.5998 92.5433 46.6665 92.8367 46.7998 93.09C46.9398 93.3367 47.1198 93.5267 47.3398 93.66C47.5665 93.7933 47.8065 93.86 48.0598 93.86C48.3198 93.86 48.5632 93.7967 48.7898 93.67C49.0165 93.5367 49.1965 93.35 49.3298 93.11C49.4632 92.8633 49.5298 92.57 49.5298 92.23ZM53.9572 90.32C54.1372 90.0267 54.3705 89.7967 54.6572 89.63C54.9505 89.4633 55.2839 89.38 55.6572 89.38V90.85H55.2872C54.8472 90.85 54.5139 90.9533 54.2872 91.16C54.0672 91.3667 53.9572 91.7267 53.9572 92.24V95H52.5572V89.46H53.9572V90.32ZM56.4902 92.21C56.4902 91.65 56.6002 91.1533 56.8202 90.72C57.0468 90.2867 57.3502 89.9533 57.7302 89.72C58.1168 89.4867 58.5468 89.37 59.0202 89.37C59.4335 89.37 59.7935 89.4533 60.1002 89.62C60.4135 89.7867 60.6635 89.9967 60.8502 90.25V89.46H62.2602V95H60.8502V94.19C60.6702 94.45 60.4202 94.6667 60.1002 94.84C59.7868 95.0067 59.4235 95.09 59.0102 95.09C58.5435 95.09 58.1168 94.97 57.7302 94.73C57.3502 94.49 57.0468 94.1533 56.8202 93.72C56.6002 93.28 56.4902 92.7767 56.4902 92.21ZM60.8502 92.23C60.8502 91.89 60.7835 91.6 60.6502 91.36C60.5168 91.1133 60.3368 90.9267 60.1102 90.8C59.8835 90.6667 59.6402 90.6 59.3802 90.6C59.1202 90.6 58.8802 90.6633 58.6602 90.79C58.4402 90.9167 58.2602 91.1033 58.1202 91.35C57.9868 91.59 57.9202 91.8767 57.9202 92.21C57.9202 92.5433 57.9868 92.8367 58.1202 93.09C58.2602 93.3367 58.4402 93.5267 58.6602 93.66C58.8868 93.7933 59.1268 93.86 59.3802 93.86C59.6402 93.86 59.8835 93.7967 60.1102 93.67C60.3368 93.5367 60.5168 93.35 60.6502 93.11C60.7835 92.8633 60.8502 92.57 60.8502 92.23ZM66.1875 93.71L67.5875 89.46H69.0775L67.0275 95H65.3275L63.2875 89.46H64.7875L66.1875 93.71ZM75.2638 92.11C75.2638 92.31 75.2505 92.49 75.2238 92.65H71.1738C71.2072 93.05 71.3472 93.3633 71.5938 93.59C71.8405 93.8167 72.1438 93.93 72.5038 93.93C73.0238 93.93 73.3938 93.7067 73.6138 93.26H75.1238C74.9638 93.7933 74.6572 94.2333 74.2038 94.58C73.7505 94.92 73.1938 95.09 72.5338 95.09C72.0005 95.09 71.5205 94.9733 71.0938 94.74C70.6738 94.5 70.3438 94.1633 70.1038 93.73C69.8705 93.2967 69.7538 92.7967 69.7538 92.23C69.7538 91.6567 69.8705 91.1533 70.1038 90.72C70.3372 90.2867 70.6638 89.9533 71.0838 89.72C71.5038 89.4867 71.9872 89.37 72.5338 89.37C73.0605 89.37 73.5305 89.4833 73.9438 89.71C74.3638 89.9367 74.6872 90.26 74.9138 90.68C75.1472 91.0933 75.2638 91.57 75.2638 92.11ZM73.8138 91.71C73.8072 91.35 73.6772 91.0633 73.4238 90.85C73.1705 90.63 72.8605 90.52 72.4938 90.52C72.1472 90.52 71.8538 90.6267 71.6138 90.84C71.3805 91.0467 71.2372 91.3367 71.1838 91.71H73.8138ZM77.9357 87.6V95H76.5357V87.6H77.9357Z" fill="#231F20"/>
<path d="M79.5759 22.6548C78.7729 22.8044 78.1401 23.4243 77.9874 24.211C77.9797 24.2504 77.9245 24.2504 77.917 24.211C77.7643 23.4243 77.1315 22.8044 76.3285 22.6548C76.2883 22.6473 76.2883 22.5933 76.3285 22.5857C77.1315 22.4361 77.7643 21.8163 77.917 21.0296C77.9247 20.9901 77.9799 20.9901 77.9874 21.0296C78.1401 21.8163 78.7729 22.4361 79.5759 22.5857C79.6161 22.5933 79.6161 22.6473 79.5759 22.6548Z" fill="#F5C84C"/>
<path d="M62.0832 78.0544C61.5201 78.1593 61.0761 78.5941 60.9691 79.1459C60.9637 79.1736 60.925 79.1736 60.9197 79.1459C60.8127 78.5941 60.3688 78.1593 59.8056 78.0544C59.7774 78.0492 59.7774 78.0113 59.8056 78.006C60.3688 77.9011 60.8127 77.4663 60.9197 76.9146C60.9252 76.8869 60.9639 76.8869 60.9691 76.9146C61.0761 77.4663 61.5201 77.9011 62.0832 78.006C62.1115 78.0113 62.1115 78.049 62.0832 78.0544Z" fill="#87D147"/>
<path d="M79.4926 27.8002C79.8536 27.8002 80.1462 27.5076 80.1462 27.1466C80.1462 26.7857 79.8536 26.4931 79.4926 26.4931C79.1317 26.4931 78.8391 26.7857 78.8391 27.1466C78.8391 27.5076 79.1317 27.8002 79.4926 27.8002Z" fill="#FC657E"/>
<path d="M56.6269 76.2853C56.9878 76.2853 57.2804 75.9927 57.2804 75.6318C57.2804 75.2709 56.9878 74.9783 56.6269 74.9783C56.266 74.9783 55.9734 75.2709 55.9734 75.6318C55.9734 75.9927 56.266 76.2853 56.6269 76.2853Z" fill="#70D6F9"/>
<path d="M83.5214 52.3191H83.1684V51.9661C83.1684 51.7018 82.9542 51.4875 82.6898 51.4875C82.4254 51.4875 82.2112 51.7018 82.2112 51.9661V52.3191H81.8582C81.5939 52.3191 81.3796 52.5333 81.3796 52.7977C81.3796 53.0621 81.5939 53.2763 81.8582 53.2763H82.2112V53.6293C82.2112 53.8936 82.4254 54.1079 82.6898 54.1079C82.9542 54.1079 83.1684 53.8936 83.1684 53.6293V53.2763H83.5214C83.7857 53.2763 84 53.0621 84 52.7977C84 52.5333 83.7855 52.3191 83.5214 52.3191Z" fill="#70D6F9"/>
<path d="M80.7629 48.9836C81.1238 48.9836 81.4164 48.691 81.4164 48.33C81.4164 47.9691 81.1238 47.6765 80.7629 47.6765C80.402 47.6765 80.1094 47.9691 80.1094 48.33C80.1094 48.691 80.402 48.9836 80.7629 48.9836Z" fill="#F5C84C"/>
<path d="M42 68.8125V27.8109C42 26.1541 43.3431 24.8109 45 24.8109H68.2551C69.0432 24.8109 69.7996 25.121 70.3609 25.6741L76.6745 31.896C77.2466 32.4598 77.5687 33.2295 77.5687 34.0328V68.8125C77.5687 70.4693 76.2256 71.8125 74.5687 71.8125H45C43.3431 71.8125 42 70.4693 42 68.8125Z" fill="#F3F3DB" stroke="#231F20"/>
<path d="M68.6765 33.5738C67.0597 31.9806 67.2329 24.9724 67.2329 24.9724L70.5819 26.0812L73.7577 29.257L76.2983 31.7976C77.5686 33.0679 77.57 33.3588 76.7602 34.3705C76.7602 34.3705 70.2932 35.1671 68.6765 33.5738Z" fill="#6DCA77" stroke="#231F20" stroke-linecap="round" stroke-linejoin="round"/>
<path d="M42 59.1093H77.5687V68.8124C77.5687 70.4693 76.2256 71.8124 74.5687 71.8124H45C43.3431 71.8124 42 70.4693 42 68.8124V59.1093Z" fill="#6DCA77" stroke="#231F20"/>
<path d="M47.254 67.334H48.634V68H46.414V63.812H47.254V67.334ZM51.8859 67.202H50.2179L49.9419 68H49.0599L50.5659 63.806H51.5439L53.0499 68H52.1619L51.8859 67.202ZM51.6579 66.53L51.0519 64.778L50.4459 66.53H51.6579ZM55.9228 68L54.9988 66.368H54.6028V68H53.7628V63.812H55.3348C55.6588 63.812 55.9348 63.87 56.1628 63.986C56.3908 64.098 56.5608 64.252 56.6728 64.448C56.7888 64.64 56.8468 64.856 56.8468 65.096C56.8468 65.372 56.7668 65.622 56.6068 65.846C56.4468 66.066 56.2088 66.218 55.8928 66.302L56.8948 68H55.9228ZM54.6028 65.738H55.3048C55.5328 65.738 55.7028 65.684 55.8148 65.576C55.9268 65.464 55.9828 65.31 55.9828 65.114C55.9828 64.922 55.9268 64.774 55.8148 64.67C55.7028 64.562 55.5328 64.508 55.3048 64.508H54.6028V65.738ZM60.3246 67.202H58.6566L58.3806 68H57.4986L59.0046 63.806H59.9826L61.4886 68H60.6006L60.3246 67.202ZM60.0966 66.53L59.4906 64.778L58.8846 66.53H60.0966ZM65.9635 63.812L64.4275 68H63.4075L61.8715 63.812H62.7715L63.9235 67.142L65.0695 63.812H65.9635ZM67.4571 64.49V65.54H68.8671V66.206H67.4571V67.316H69.0471V68H66.6171V63.806H69.0471V64.49H67.4571ZM70.8005 67.334H72.1805V68H69.9605V63.812H70.8005V67.334Z" fill="#231F20"/>
<path d="M46.782 47.208L45.474 45.864L46.782 44.52H47.838L46.53 45.864L47.838 47.208H46.782ZM49.9079 43.56V48H49.0679V43.56H49.9079ZM50.6718 46.326C50.6718 45.99 50.7378 45.692 50.8698 45.432C51.0058 45.172 51.1878 44.972 51.4158 44.832C51.6478 44.692 51.9058 44.622 52.1898 44.622C52.4378 44.622 52.6538 44.672 52.8378 44.772C53.0258 44.872 53.1758 44.998 53.2878 45.15V44.676H54.1338V48H53.2878V47.514C53.1798 47.67 53.0298 47.8 52.8378 47.904C52.6498 48.004 52.4318 48.054 52.1838 48.054C51.9038 48.054 51.6478 47.982 51.4158 47.838C51.1878 47.694 51.0058 47.492 50.8698 47.232C50.7378 46.968 50.6718 46.666 50.6718 46.326ZM53.2878 46.338C53.2878 46.134 53.2478 45.96 53.1678 45.816C53.0878 45.668 52.9798 45.556 52.8438 45.48C52.7078 45.4 52.5618 45.36 52.4058 45.36C52.2498 45.36 52.1058 45.398 51.9738 45.474C51.8418 45.55 51.7338 45.662 51.6498 45.81C51.5698 45.954 51.5298 46.126 51.5298 46.326C51.5298 46.526 51.5698 46.702 51.6498 46.854C51.7338 47.002 51.8418 47.116 51.9738 47.196C52.1098 47.276 52.2538 47.316 52.4058 47.316C52.5618 47.316 52.7078 47.278 52.8438 47.202C52.9798 47.122 53.0878 47.01 53.1678 46.866C53.2478 46.718 53.2878 46.542 53.2878 46.338ZM55.9442 45.192C56.0522 45.016 56.1922 44.878 56.3642 44.778C56.5402 44.678 56.7402 44.628 56.9642 44.628V45.51H56.7422C56.4782 45.51 56.2782 45.572 56.1422 45.696C56.0102 45.82 55.9442 46.036 55.9442 46.344V48H55.1042V44.676H55.9442V45.192ZM57.464 46.326C57.464 45.99 57.53 45.692 57.662 45.432C57.798 45.172 57.98 44.972 58.208 44.832C58.44 44.692 58.698 44.622 58.982 44.622C59.23 44.622 59.446 44.672 59.63 44.772C59.818 44.872 59.968 44.998 60.08 45.15V44.676H60.926V48H60.08V47.514C59.972 47.67 59.822 47.8 59.63 47.904C59.442 48.004 59.224 48.054 58.976 48.054C58.696 48.054 58.44 47.982 58.208 47.838C57.98 47.694 57.798 47.492 57.662 47.232C57.53 46.968 57.464 46.666 57.464 46.326ZM60.08 46.338C60.08 46.134 60.04 45.96 59.96 45.816C59.88 45.668 59.772 45.556 59.636 45.48C59.5 45.4 59.354 45.36 59.198 45.36C59.042 45.36 58.898 45.398 58.766 45.474C58.634 45.55 58.526 45.662 58.442 45.81C58.362 45.954 58.322 46.126 58.322 46.326C58.322 46.526 58.362 46.702 58.442 46.854C58.526 47.002 58.634 47.116 58.766 47.196C58.902 47.276 59.046 47.316 59.198 47.316C59.354 47.316 59.5 47.278 59.636 47.202C59.772 47.122 59.88 47.01 59.96 46.866C60.04 46.718 60.08 46.542 60.08 46.338ZM63.2824 47.226L64.1224 44.676H65.0164L63.7864 48H62.7664L61.5424 44.676H62.4424L63.2824 47.226ZM68.7282 46.266C68.7282 46.386 68.7202 46.494 68.7042 46.59H66.2742C66.2942 46.83 66.3782 47.018 66.5262 47.154C66.6742 47.29 66.8562 47.358 67.0722 47.358C67.3842 47.358 67.6062 47.224 67.7382 46.956H68.6442C68.5482 47.276 68.3642 47.54 68.0922 47.748C67.8202 47.952 67.4862 48.054 67.0902 48.054C66.7702 48.054 66.4822 47.984 66.2262 47.844C65.9742 47.7 65.7762 47.498 65.6322 47.238C65.4922 46.978 65.4222 46.678 65.4222 46.338C65.4222 45.994 65.4922 45.692 65.6322 45.432C65.7722 45.172 65.9682 44.972 66.2202 44.832C66.4722 44.692 66.7622 44.622 67.0902 44.622C67.4062 44.622 67.6882 44.69 67.9362 44.826C68.1882 44.962 68.3822 45.156 68.5182 45.408C68.6582 45.656 68.7282 45.942 68.7282 46.266ZM67.8582 46.026C67.8542 45.81 67.7762 45.638 67.6242 45.51C67.4722 45.378 67.2862 45.312 67.0662 45.312C66.8582 45.312 66.6822 45.376 66.5382 45.504C66.3982 45.628 66.3122 45.802 66.2802 46.026H67.8582ZM70.3313 43.56V48H69.4913V43.56H70.3313ZM71.4313 44.52H72.4933L73.8013 45.864L72.4933 47.208H71.4313L72.7453 45.864L71.4313 44.52Z" fill="#231F20"/>
</svg>
