<svg width="120" height="120" viewBox="0 0 120 120" fill="none" xmlns="http://www.w3.org/2000/svg">
<rect width="120" height="120" rx="10" fill="#BBDEFF" fill-opacity="0.5"/>
<path d="M55.78 90.18C55.78 90.5533 55.69 90.9033 55.51 91.23C55.3367 91.5567 55.06 91.82 54.68 92.02C54.3067 92.22 53.8333 92.32 53.26 92.32H52.09V95H50.69V88.02H53.26C53.8 88.02 54.26 88.1133 54.64 88.3C55.02 88.4867 55.3033 88.7433 55.49 89.07C55.6833 89.3967 55.78 89.7667 55.78 90.18ZM53.2 91.19C53.5867 91.19 53.8733 91.1033 54.06 90.93C54.2467 90.75 54.34 90.5 54.34 90.18C54.34 89.5 53.96 89.16 53.2 89.16H52.09V91.19H53.2ZM60.144 89.38C60.564 89.38 60.9373 89.4733 61.264 89.66C61.5907 89.84 61.844 90.11 62.024 90.47C62.2107 90.8233 62.304 91.25 62.304 91.75V95H60.904V91.94C60.904 91.5 60.794 91.1633 60.574 90.93C60.354 90.69 60.054 90.57 59.674 90.57C59.2873 90.57 58.9807 90.69 58.754 90.93C58.534 91.1633 58.424 91.5 58.424 91.94V95H57.024V87.6H58.424V90.15C58.604 89.91 58.844 89.7233 59.144 89.59C59.444 89.45 59.7773 89.38 60.144 89.38ZM65.2853 90.26C65.4653 90.0067 65.712 89.7967 66.0253 89.63C66.3453 89.4567 66.7086 89.37 67.1153 89.37C67.5886 89.37 68.0153 89.4867 68.3953 89.72C68.782 89.9533 69.0853 90.2867 69.3053 90.72C69.532 91.1467 69.6453 91.6433 69.6453 92.21C69.6453 92.7767 69.532 93.28 69.3053 93.72C69.0853 94.1533 68.782 94.49 68.3953 94.73C68.0153 94.97 67.5886 95.09 67.1153 95.09C66.7086 95.09 66.3486 95.0067 66.0353 94.84C65.7286 94.6733 65.4786 94.4633 65.2853 94.21V97.64H63.8853V89.46H65.2853V90.26ZM68.2153 92.21C68.2153 91.8767 68.1453 91.59 68.0053 91.35C67.872 91.1033 67.692 90.9167 67.4653 90.79C67.2453 90.6633 67.0053 90.6 66.7453 90.6C66.492 90.6 66.252 90.6667 66.0253 90.8C65.8053 90.9267 65.6253 91.1133 65.4853 91.36C65.352 91.6067 65.2853 91.8967 65.2853 92.23C65.2853 92.5633 65.352 92.8533 65.4853 93.1C65.6253 93.3467 65.8053 93.5367 66.0253 93.67C66.252 93.7967 66.492 93.86 66.7453 93.86C67.0053 93.86 67.2453 93.7933 67.4653 93.66C67.692 93.5267 67.872 93.3367 68.0053 93.09C68.1453 92.8433 68.2153 92.55 68.2153 92.21Z" fill="#231F20"/>
<path d="M79.5759 22.6548C78.7729 22.8044 78.1401 23.4243 77.9874 24.211C77.9797 24.2504 77.9245 24.2504 77.917 24.211C77.7643 23.4243 77.1315 22.8044 76.3285 22.6548C76.2883 22.6473 76.2883 22.5933 76.3285 22.5857C77.1315 22.4361 77.7643 21.8163 77.917 21.0296C77.9247 20.9901 77.9799 20.9901 77.9874 21.0296C78.1401 21.8163 78.7729 22.4361 79.5759 22.5857C79.6161 22.5933 79.6161 22.6473 79.5759 22.6548Z" fill="#F5C84C"/>
<path d="M62.0832 78.0544C61.5201 78.1593 61.0761 78.5941 60.9691 79.1459C60.9637 79.1736 60.925 79.1736 60.9197 79.1459C60.8127 78.5941 60.3688 78.1593 59.8056 78.0544C59.7774 78.0492 59.7774 78.0113 59.8056 78.006C60.3688 77.9011 60.8127 77.4663 60.9197 76.9146C60.9252 76.8869 60.9639 76.8869 60.9691 76.9146C61.0761 77.4663 61.5201 77.9011 62.0832 78.006C62.1115 78.0113 62.1115 78.049 62.0832 78.0544Z" fill="#87D147"/>
<path d="M79.4926 27.8002C79.8536 27.8002 80.1462 27.5076 80.1462 27.1466C80.1462 26.7857 79.8536 26.4931 79.4926 26.4931C79.1317 26.4931 78.8391 26.7857 78.8391 27.1466C78.8391 27.5076 79.1317 27.8002 79.4926 27.8002Z" fill="#FC657E"/>
<path d="M56.6269 76.2853C56.9878 76.2853 57.2804 75.9927 57.2804 75.6318C57.2804 75.2709 56.9878 74.9783 56.6269 74.9783C56.266 74.9783 55.9734 75.2709 55.9734 75.6318C55.9734 75.9927 56.266 76.2853 56.6269 76.2853Z" fill="#70D6F9"/>
<path d="M83.5214 52.3191H83.1684V51.9661C83.1684 51.7017 82.9542 51.4875 82.6898 51.4875C82.4254 51.4875 82.2112 51.7017 82.2112 51.9661V52.3191H81.8582C81.5939 52.3191 81.3796 52.5333 81.3796 52.7976C81.3796 53.062 81.5939 53.2762 81.8582 53.2762H82.2112V53.6292C82.2112 53.8936 82.4254 54.1078 82.6898 54.1078C82.9542 54.1078 83.1684 53.8936 83.1684 53.6292V53.2762H83.5214C83.7857 53.2762 84 53.062 84 52.7976C84 52.5333 83.7855 52.3191 83.5214 52.3191Z" fill="#70D6F9"/>
<path d="M80.7629 48.9836C81.1238 48.9836 81.4164 48.691 81.4164 48.3301C81.4164 47.9692 81.1238 47.6766 80.7629 47.6766C80.402 47.6766 80.1094 47.9692 80.1094 48.3301C80.1094 48.691 80.402 48.9836 80.7629 48.9836Z" fill="#F5C84C"/>
<path d="M42 68.8125V27.8109C42 26.1541 43.3431 24.8109 45 24.8109H68.2551C69.0432 24.8109 69.7996 25.121 70.3609 25.6741L76.6745 31.896C77.2466 32.4598 77.5687 33.2295 77.5687 34.0328V68.8125C77.5687 70.4693 76.2256 71.8125 74.5687 71.8125H45C43.3431 71.8125 42 70.4693 42 68.8125Z" fill="#F3F3DB" stroke="#231F20"/>
<path d="M68.6765 33.5738C67.0597 31.9806 67.2329 24.9724 67.2329 24.9724L70.5819 26.0812L73.7577 29.257L76.2983 31.7976C77.5686 33.0679 77.57 33.3588 76.7602 34.3705C76.7602 34.3705 70.2932 35.1671 68.6765 33.5738Z" fill="#0B65B8" stroke="#231F20" stroke-linecap="round" stroke-linejoin="round"/>
<path d="M42 59.1093H77.5687V68.8124C77.5687 70.4693 76.2256 71.8124 74.5687 71.8124H45C43.3431 71.8124 42 70.4693 42 68.8124V59.1093Z" fill="#0B65B8" stroke="#231F20"/>
<path d="M56.624 64.144C56.624 64.4427 56.552 64.7227 56.408 64.984C56.2693 65.2453 56.048 65.456 55.744 65.616C55.4453 65.776 55.0667 65.856 54.608 65.856H53.672V68H52.552V62.416H54.608C55.04 62.416 55.408 62.4907 55.712 62.64C56.016 62.7893 56.2427 62.9947 56.392 63.256C56.5467 63.5173 56.624 63.8133 56.624 64.144ZM54.56 64.952C54.8693 64.952 55.0987 64.8827 55.248 64.744C55.3973 64.6 55.472 64.4 55.472 64.144C55.472 63.6 55.168 63.328 54.56 63.328H53.672V64.952H54.56ZM62.2512 62.416V68H61.1312V65.624H58.7392V68H57.6192V62.416H58.7392V64.712H61.1312V62.416H62.2512ZM67.6256 64.144C67.6256 64.4427 67.5536 64.7227 67.4096 64.984C67.2709 65.2453 67.0496 65.456 66.7456 65.616C66.4469 65.776 66.0682 65.856 65.6096 65.856H64.6736V68H63.5536V62.416H65.6096C66.0416 62.416 66.4096 62.4907 66.7136 62.64C67.0176 62.7893 67.2442 62.9947 67.3936 63.256C67.5482 63.5173 67.6256 63.8133 67.6256 64.144ZM65.5616 64.952C65.8709 64.952 66.1002 64.8827 66.2496 64.744C66.3989 64.6 66.4736 64.4 66.4736 64.144C66.4736 63.6 66.1696 63.328 65.5616 63.328H64.6736V64.952H65.5616Z" fill="white"/>
<path d="M49.079 47.076L47.553 45.508L49.079 43.94H50.311L48.785 45.508L50.311 47.076H49.079ZM52.1799 48.049C52.0026 48.049 51.8556 47.9953 51.7389 47.888C51.6269 47.776 51.5709 47.6383 51.5709 47.475C51.5709 47.3117 51.6269 47.1763 51.7389 47.069C51.8556 46.957 52.0026 46.901 52.1799 46.901C52.3526 46.901 52.4949 46.957 52.6069 47.069C52.7189 47.1763 52.7749 47.3117 52.7749 47.475C52.7749 47.6383 52.7189 47.776 52.6069 47.888C52.4949 47.9953 52.3526 48.049 52.1799 48.049ZM54.7192 44.682C54.8452 44.5047 55.0179 44.3577 55.2373 44.241C55.4613 44.1197 55.7156 44.059 56.0003 44.059C56.3316 44.059 56.6303 44.1407 56.8963 44.304C57.1669 44.4673 57.3792 44.7007 57.5332 45.004C57.6919 45.3027 57.7713 45.6503 57.7713 46.047C57.7713 46.4437 57.6919 46.796 57.5332 47.104C57.3792 47.4073 57.1669 47.643 56.8963 47.811C56.6303 47.979 56.3316 48.063 56.0003 48.063C55.7156 48.063 55.4636 48.0047 55.2442 47.888C55.0296 47.7713 54.8546 47.6243 54.7192 47.447V49.848H53.7392V44.122H54.7192V44.682ZM56.7703 46.047C56.7703 45.8137 56.7213 45.613 56.6233 45.445C56.5299 45.2723 56.4039 45.1417 56.2453 45.053C56.0913 44.9643 55.9233 44.92 55.7413 44.92C55.5639 44.92 55.3959 44.9667 55.2373 45.06C55.0832 45.1487 54.9572 45.2793 54.8593 45.452C54.7659 45.6247 54.7192 45.8277 54.7192 46.061C54.7192 46.2943 54.7659 46.4973 54.8593 46.67C54.9572 46.8427 55.0832 46.9757 55.2373 47.069C55.3959 47.1577 55.5639 47.202 55.7413 47.202C55.9233 47.202 56.0913 47.1553 56.2453 47.062C56.4039 46.9687 56.5299 46.8357 56.6233 46.663C56.7213 46.4903 56.7703 46.285 56.7703 46.047ZM60.8424 44.066C61.1364 44.066 61.3977 44.1313 61.6264 44.262C61.8551 44.388 62.0324 44.577 62.1584 44.829C62.2891 45.0763 62.3544 45.375 62.3544 45.725V48H61.3744V45.858C61.3744 45.55 61.2974 45.3143 61.1434 45.151C60.9894 44.983 60.7794 44.899 60.5134 44.899C60.2427 44.899 60.0281 44.983 59.8694 45.151C59.7154 45.3143 59.6384 45.55 59.6384 45.858V48H58.6584V42.82H59.6384V44.605C59.7644 44.437 59.9324 44.3063 60.1424 44.213C60.3524 44.115 60.5857 44.066 60.8424 44.066ZM64.4413 44.682C64.5673 44.5047 64.74 44.3577 64.9593 44.241C65.1833 44.1197 65.4377 44.059 65.7223 44.059C66.0537 44.059 66.3523 44.1407 66.6183 44.304C66.889 44.4673 67.1013 44.7007 67.2553 45.004C67.414 45.3027 67.4933 45.6503 67.4933 46.047C67.4933 46.4437 67.414 46.796 67.2553 47.104C67.1013 47.4073 66.889 47.643 66.6183 47.811C66.3523 47.979 66.0537 48.063 65.7223 48.063C65.4377 48.063 65.1857 48.0047 64.9663 47.888C64.7517 47.7713 64.5767 47.6243 64.4413 47.447V49.848H63.4613V44.122H64.4413V44.682ZM66.4923 46.047C66.4923 45.8137 66.4433 45.613 66.3453 45.445C66.252 45.2723 66.126 45.1417 65.9673 45.053C65.8133 44.9643 65.6453 44.92 65.4633 44.92C65.286 44.92 65.118 44.9667 64.9593 45.06C64.8053 45.1487 64.6793 45.2793 64.5813 45.452C64.488 45.6247 64.4413 45.8277 64.4413 46.061C64.4413 46.2943 64.488 46.4973 64.5813 46.67C64.6793 46.8427 64.8053 46.9757 64.9593 47.069C65.118 47.1577 65.286 47.202 65.4633 47.202C65.6453 47.202 65.8133 47.1553 65.9673 47.062C66.126 46.9687 66.252 46.8357 66.3453 46.663C66.4433 46.4903 66.4923 46.285 66.4923 46.047ZM68.5205 43.94H69.7595L71.2855 45.508L69.7595 47.076H68.5205L70.0535 45.508L68.5205 43.94Z" fill="#231F20"/>
</svg>
