<svg width="120" height="120" viewBox="0 0 120 120" fill="none" xmlns="http://www.w3.org/2000/svg">
<rect width="120" height="120" rx="10" fill="#A7F5AF" fill-opacity="0.5"/>
<path d="M46.78 90.18C46.78 90.5533 46.69 90.9033 46.51 91.23C46.3367 91.5567 46.06 91.82 45.68 92.02C45.3067 92.22 44.8333 92.32 44.26 92.32H43.09V95H41.69V88.02H44.26C44.8 88.02 45.26 88.1133 45.64 88.3C46.02 88.4867 46.3033 88.7433 46.49 89.07C46.6833 89.3967 46.78 89.7667 46.78 90.18ZM44.2 91.19C44.5867 91.19 44.8733 91.1033 45.06 90.93C45.2467 90.75 45.34 90.5 45.34 90.18C45.34 89.5 44.96 89.16 44.2 89.16H43.09V91.19H44.2ZM53.324 89.46L49.894 97.62H48.404L49.604 94.86L47.384 89.46H48.954L50.384 93.33L51.834 89.46H53.324ZM55.9587 90.61V93.29C55.9587 93.4767 56.002 93.6133 56.0887 93.7C56.182 93.78 56.3353 93.82 56.5487 93.82H57.1987V95H56.3187C55.1387 95 54.5487 94.4267 54.5487 93.28V90.61H53.8887V89.46H54.5487V88.09H55.9587V89.46H57.1987V90.61H55.9587ZM61.5756 89.38C61.9956 89.38 62.369 89.4733 62.6956 89.66C63.0223 89.84 63.2756 90.11 63.4556 90.47C63.6423 90.8233 63.7356 91.25 63.7356 91.75V95H62.3356V91.94C62.3356 91.5 62.2256 91.1633 62.0056 90.93C61.7856 90.69 61.4856 90.57 61.1056 90.57C60.719 90.57 60.4123 90.69 60.1856 90.93C59.9656 91.1633 59.8556 91.5 59.8556 91.94V95H58.4556V87.6H59.8556V90.15C60.0356 89.91 60.2756 89.7233 60.5756 89.59C60.8756 89.45 61.209 89.38 61.5756 89.38ZM67.777 95.09C67.2436 95.09 66.7636 94.9733 66.337 94.74C65.9103 94.5 65.5736 94.1633 65.327 93.73C65.087 93.2967 64.967 92.7967 64.967 92.23C64.967 91.6633 65.0903 91.1633 65.337 90.73C65.5903 90.2967 65.9336 89.9633 66.367 89.73C66.8003 89.49 67.2836 89.37 67.817 89.37C68.3503 89.37 68.8336 89.49 69.267 89.73C69.7003 89.9633 70.0403 90.2967 70.287 90.73C70.5403 91.1633 70.667 91.6633 70.667 92.23C70.667 92.7967 70.537 93.2967 70.277 93.73C70.0236 94.1633 69.677 94.5 69.237 94.74C68.8036 94.9733 68.317 95.09 67.777 95.09ZM67.777 93.87C68.0303 93.87 68.267 93.81 68.487 93.69C68.7136 93.5633 68.8936 93.3767 69.027 93.13C69.1603 92.8833 69.227 92.5833 69.227 92.23C69.227 91.7033 69.087 91.3 68.807 91.02C68.5336 90.7333 68.197 90.59 67.797 90.59C67.397 90.59 67.0603 90.7333 66.787 91.02C66.5203 91.3 66.387 91.7033 66.387 92.23C66.387 92.7567 66.517 93.1633 66.777 93.45C67.0436 93.73 67.377 93.87 67.777 93.87ZM75.0139 89.38C75.6739 89.38 76.2072 89.59 76.6139 90.01C77.0206 90.4233 77.2239 91.0033 77.2239 91.75V95H75.8239V91.94C75.8239 91.5 75.7139 91.1633 75.4939 90.93C75.2739 90.69 74.9739 90.57 74.5939 90.57C74.2072 90.57 73.9006 90.69 73.6739 90.93C73.4539 91.1633 73.3439 91.5 73.3439 91.94V95H71.9439V89.46H73.3439V90.15C73.5306 89.91 73.7672 89.7233 74.0539 89.59C74.3472 89.45 74.6672 89.38 75.0139 89.38Z" fill="#231F20"/>
<path d="M79.5759 22.6548C78.7729 22.8044 78.1401 23.4243 77.9874 24.211C77.9797 24.2504 77.9245 24.2504 77.917 24.211C77.7643 23.4243 77.1315 22.8044 76.3285 22.6548C76.2883 22.6473 76.2883 22.5933 76.3285 22.5857C77.1315 22.4361 77.7643 21.8163 77.917 21.0296C77.9247 20.9901 77.9799 20.9901 77.9874 21.0296C78.1401 21.8163 78.7729 22.4361 79.5759 22.5857C79.6161 22.5933 79.6161 22.6473 79.5759 22.6548Z" fill="#F5C84C"/>
<path d="M62.0832 78.0544C61.5201 78.1593 61.0761 78.5941 60.9691 79.1459C60.9637 79.1736 60.925 79.1736 60.9197 79.1459C60.8127 78.5941 60.3688 78.1593 59.8056 78.0544C59.7774 78.0492 59.7774 78.0113 59.8056 78.006C60.3688 77.9011 60.8127 77.4663 60.9197 76.9146C60.9252 76.8869 60.9639 76.8869 60.9691 76.9146C61.0761 77.4663 61.5201 77.9011 62.0832 78.006C62.1115 78.0113 62.1115 78.049 62.0832 78.0544Z" fill="#87D147"/>
<path d="M79.4926 27.8002C79.8536 27.8002 80.1462 27.5076 80.1462 27.1466C80.1462 26.7857 79.8536 26.4931 79.4926 26.4931C79.1317 26.4931 78.8391 26.7857 78.8391 27.1466C78.8391 27.5076 79.1317 27.8002 79.4926 27.8002Z" fill="#FC657E"/>
<path d="M56.6269 76.2853C56.9878 76.2853 57.2804 75.9927 57.2804 75.6318C57.2804 75.2709 56.9878 74.9783 56.6269 74.9783C56.266 74.9783 55.9734 75.2709 55.9734 75.6318C55.9734 75.9927 56.266 76.2853 56.6269 76.2853Z" fill="#70D6F9"/>
<path d="M83.5214 52.3191H83.1684V51.9661C83.1684 51.7017 82.9542 51.4875 82.6898 51.4875C82.4254 51.4875 82.2112 51.7017 82.2112 51.9661V52.3191H81.8582C81.5939 52.3191 81.3796 52.5333 81.3796 52.7976C81.3796 53.062 81.5939 53.2762 81.8582 53.2762H82.2112V53.6292C82.2112 53.8936 82.4254 54.1078 82.6898 54.1078C82.9542 54.1078 83.1684 53.8936 83.1684 53.6292V53.2762H83.5214C83.7857 53.2762 84 53.062 84 52.7976C84 52.5333 83.7855 52.3191 83.5214 52.3191Z" fill="#70D6F9"/>
<path d="M80.7629 48.9836C81.1238 48.9836 81.4164 48.691 81.4164 48.3301C81.4164 47.9692 81.1238 47.6766 80.7629 47.6766C80.402 47.6766 80.1094 47.9692 80.1094 48.3301C80.1094 48.691 80.402 48.9836 80.7629 48.9836Z" fill="#F5C84C"/>
<path d="M42 68.8125V27.8109C42 26.1541 43.3431 24.8109 45 24.8109H68.2551C69.0432 24.8109 69.7996 25.121 70.3609 25.6741L76.6745 31.896C77.2466 32.4598 77.5687 33.2295 77.5687 34.0328V68.8125C77.5687 70.4693 76.2256 71.8125 74.5687 71.8125H45C43.3431 71.8125 42 70.4693 42 68.8125Z" fill="#F3F3DB" stroke="#231F20"/>
<path d="M68.6765 33.5738C67.0597 31.9806 67.2329 24.9724 67.2329 24.9724L70.5819 26.0812L73.7577 29.257L76.2983 31.7976C77.5686 33.0679 77.57 33.3588 76.7602 34.3705C76.7602 34.3705 70.2932 35.1671 68.6765 33.5738Z" fill="#6DCA77" stroke="#231F20" stroke-linecap="round" stroke-linejoin="round"/>
<path d="M42 59.1093H77.5687V68.8124C77.5687 70.4693 76.2256 71.8124 74.5687 71.8124H45C43.3431 71.8124 42 70.4693 42 68.8124V59.1093Z" fill="#6DCA77" stroke="#231F20"/>
<path d="M50.468 65.108C50.468 65.332 50.414 65.542 50.306 65.738C50.202 65.934 50.036 66.092 49.808 66.212C49.584 66.332 49.3 66.392 48.956 66.392H48.254V68H47.414V63.812H48.956C49.28 63.812 49.556 63.868 49.784 63.98C50.012 64.092 50.182 64.246 50.294 64.442C50.41 64.638 50.468 64.86 50.468 65.108ZM48.92 65.714C49.152 65.714 49.324 65.662 49.436 65.558C49.548 65.45 49.604 65.3 49.604 65.108C49.604 64.7 49.376 64.496 48.92 64.496H48.254V65.714H48.92ZM54.5444 63.812L53.1284 66.542V68H52.2884V66.542L50.8664 63.812H51.8144L52.7144 65.726L53.6084 63.812H54.5444ZM58.0288 63.812V64.49H56.9128V68H56.0728V64.49H54.9568V63.812H58.0288ZM62.2657 63.812V68H61.4257V66.218H59.6317V68H58.7917V63.812H59.6317V65.534H61.4257V63.812H62.2657ZM65.1865 68.042C64.7945 68.042 64.4345 67.95 64.1065 67.766C63.7785 67.582 63.5185 67.328 63.3265 67.004C63.1345 66.676 63.0385 66.306 63.0385 65.894C63.0385 65.486 63.1345 65.12 63.3265 64.796C63.5185 64.468 63.7785 64.212 64.1065 64.028C64.4345 63.844 64.7945 63.752 65.1865 63.752C65.5825 63.752 65.9425 63.844 66.2665 64.028C66.5945 64.212 66.8525 64.468 67.0405 64.796C67.2325 65.12 67.3285 65.486 67.3285 65.894C67.3285 66.306 67.2325 66.676 67.0405 67.004C66.8525 67.328 66.5945 67.582 66.2665 67.766C65.9385 67.95 65.5785 68.042 65.1865 68.042ZM65.1865 67.292C65.4385 67.292 65.6605 67.236 65.8525 67.124C66.0445 67.008 66.1945 66.844 66.3025 66.632C66.4105 66.42 66.4645 66.174 66.4645 65.894C66.4645 65.614 66.4105 65.37 66.3025 65.162C66.1945 64.95 66.0445 64.788 65.8525 64.676C65.6605 64.564 65.4385 64.508 65.1865 64.508C64.9345 64.508 64.7105 64.564 64.5145 64.676C64.3225 64.788 64.1725 64.95 64.0645 65.162C63.9565 65.37 63.9025 65.614 63.9025 65.894C63.9025 66.174 63.9565 66.42 64.0645 66.632C64.1725 66.844 64.3225 67.008 64.5145 67.124C64.7105 67.236 64.9345 67.292 65.1865 67.292ZM71.6855 68H70.8455L68.9435 65.126V68H68.1035V63.806H68.9435L70.8455 66.686V63.806H71.6855V68Z" fill="#231F20"/>
<path d="M52.079 47.076L50.553 45.508L52.079 43.94H53.311L51.785 45.508L53.311 47.076H52.079ZM55.1799 48.049C55.0026 48.049 54.8556 47.9953 54.7389 47.888C54.6269 47.776 54.5709 47.6383 54.5709 47.475C54.5709 47.3117 54.6269 47.1763 54.7389 47.069C54.8556 46.957 55.0026 46.901 55.1799 46.901C55.3526 46.901 55.4949 46.957 55.6069 47.069C55.7189 47.1763 55.7749 47.3117 55.7749 47.475C55.7749 47.6383 55.7189 47.776 55.6069 47.888C55.4949 47.9953 55.3526 48.049 55.1799 48.049ZM57.7192 44.682C57.8452 44.5047 58.0179 44.3577 58.2373 44.241C58.4613 44.1197 58.7156 44.059 59.0003 44.059C59.3316 44.059 59.6303 44.1407 59.8963 44.304C60.1669 44.4673 60.3792 44.7007 60.5332 45.004C60.6919 45.3027 60.7713 45.6503 60.7713 46.047C60.7713 46.4437 60.6919 46.796 60.5332 47.104C60.3792 47.4073 60.1669 47.643 59.8963 47.811C59.6303 47.979 59.3316 48.063 59.0003 48.063C58.7156 48.063 58.4636 48.0047 58.2442 47.888C58.0296 47.7713 57.8546 47.6243 57.7192 47.447V49.848H56.7392V44.122H57.7192V44.682ZM59.7703 46.047C59.7703 45.8137 59.7213 45.613 59.6233 45.445C59.5299 45.2723 59.4039 45.1417 59.2453 45.053C59.0913 44.9643 58.9233 44.92 58.7413 44.92C58.5639 44.92 58.3959 44.9667 58.2373 45.06C58.0832 45.1487 57.9572 45.2793 57.8593 45.452C57.7659 45.6247 57.7192 45.8277 57.7192 46.061C57.7192 46.2943 57.7659 46.4973 57.8593 46.67C57.9572 46.8427 58.0832 46.9757 58.2373 47.069C58.3959 47.1577 58.5639 47.202 58.7413 47.202C58.9233 47.202 59.0913 47.1553 59.2453 47.062C59.4039 46.9687 59.5299 46.8357 59.6233 46.663C59.7213 46.4903 59.7703 46.285 59.7703 46.047ZM65.3684 44.122L62.9674 49.834H61.9244L62.7644 47.902L61.2104 44.122H62.3094L63.3104 46.831L64.3254 44.122H65.3684ZM66.2117 43.94H67.4507L68.9767 45.508L67.4507 47.076H66.2117L67.7447 45.508L66.2117 43.94Z" fill="#231F20"/>
</svg>
