<svg width="120" height="120" viewBox="0 0 120 120" fill="none" xmlns="http://www.w3.org/2000/svg">
<rect width="120" height="120" rx="10" fill="#E1E363" fill-opacity="0.5"/>
<path d="M41.29 95L39.75 92.28H39.09V95H37.69V88.02H40.31C40.85 88.02 41.31 88.1167 41.69 88.31C42.07 88.4967 42.3533 88.7533 42.54 89.08C42.7333 89.4 42.83 89.76 42.83 90.16C42.83 90.62 42.6967 91.0367 42.43 91.41C42.1633 91.7767 41.7667 92.03 41.24 92.17L42.91 95H41.29ZM39.09 91.23H40.26C40.64 91.23 40.9233 91.14 41.11 90.96C41.2967 90.7733 41.39 90.5167 41.39 90.19C41.39 89.87 41.2967 89.6233 41.11 89.45C40.9233 89.27 40.64 89.18 40.26 89.18H39.09V91.23ZM49.4963 92.11C49.4963 92.31 49.4829 92.49 49.4563 92.65H45.4063C45.4396 93.05 45.5796 93.3633 45.8263 93.59C46.0729 93.8167 46.3763 93.93 46.7363 93.93C47.2563 93.93 47.6263 93.7067 47.8463 93.26H49.3563C49.1963 93.7933 48.8896 94.2333 48.4363 94.58C47.9829 94.92 47.4263 95.09 46.7663 95.09C46.2329 95.09 45.7529 94.9733 45.3263 94.74C44.9063 94.5 44.5763 94.1633 44.3363 93.73C44.1029 93.2967 43.9862 92.7967 43.9862 92.23C43.9862 91.6567 44.1029 91.1533 44.3363 90.72C44.5696 90.2867 44.8963 89.9533 45.3163 89.72C45.7363 89.4867 46.2196 89.37 46.7663 89.37C47.2929 89.37 47.7629 89.4833 48.1763 89.71C48.5963 89.9367 48.9196 90.26 49.1463 90.68C49.3796 91.0933 49.4963 91.57 49.4963 92.11ZM48.0463 91.71C48.0396 91.35 47.9096 91.0633 47.6563 90.85C47.4029 90.63 47.0929 90.52 46.7263 90.52C46.3796 90.52 46.0863 90.6267 45.8463 90.84C45.6129 91.0467 45.4696 91.3367 45.4163 91.71H48.0463ZM50.4081 92.21C50.4081 91.65 50.5181 91.1533 50.7381 90.72C50.9648 90.2867 51.2681 89.9533 51.6481 89.72C52.0348 89.4867 52.4648 89.37 52.9381 89.37C53.3515 89.37 53.7115 89.4533 54.0181 89.62C54.3315 89.7867 54.5815 89.9967 54.7681 90.25V89.46H56.1781V95H54.7681V94.19C54.5881 94.45 54.3381 94.6667 54.0181 94.84C53.7048 95.0067 53.3415 95.09 52.9281 95.09C52.4615 95.09 52.0348 94.97 51.6481 94.73C51.2681 94.49 50.9648 94.1533 50.7381 93.72C50.5181 93.28 50.4081 92.7767 50.4081 92.21ZM54.7681 92.23C54.7681 91.89 54.7015 91.6 54.5681 91.36C54.4348 91.1133 54.2548 90.9267 54.0281 90.8C53.8015 90.6667 53.5581 90.6 53.2981 90.6C53.0381 90.6 52.7981 90.6633 52.5781 90.79C52.3581 90.9167 52.1781 91.1033 52.0381 91.35C51.9048 91.59 51.8381 91.8767 51.8381 92.21C51.8381 92.5433 51.9048 92.8367 52.0381 93.09C52.1781 93.3367 52.3581 93.5267 52.5781 93.66C52.8048 93.7933 53.0448 93.86 53.2981 93.86C53.5581 93.86 53.8015 93.7967 54.0281 93.67C54.2548 93.5367 54.4348 93.35 54.5681 93.11C54.7015 92.8633 54.7681 92.57 54.7681 92.23ZM57.4355 92.23C57.4355 91.6567 57.5521 91.1567 57.7855 90.73C58.0188 90.2967 58.3421 89.9633 58.7555 89.73C59.1688 89.49 59.6421 89.37 60.1755 89.37C60.8621 89.37 61.4288 89.5433 61.8755 89.89C62.3288 90.23 62.6321 90.71 62.7855 91.33H61.2755C61.1955 91.09 61.0588 90.9033 60.8655 90.77C60.6788 90.63 60.4455 90.56 60.1655 90.56C59.7655 90.56 59.4488 90.7067 59.2155 91C58.9821 91.2867 58.8655 91.6967 58.8655 92.23C58.8655 92.7567 58.9821 93.1667 59.2155 93.46C59.4488 93.7467 59.7655 93.89 60.1655 93.89C60.7321 93.89 61.1021 93.6367 61.2755 93.13H62.7855C62.6321 93.73 62.3288 94.2067 61.8755 94.56C61.4221 94.9133 60.8555 95.09 60.1755 95.09C59.6421 95.09 59.1688 94.9733 58.7555 94.74C58.3421 94.5 58.0188 94.1667 57.7855 93.74C57.5521 93.3067 57.4355 92.8033 57.4355 92.23ZM65.6911 90.61V93.29C65.6911 93.4767 65.7344 93.6133 65.8211 93.7C65.9144 93.78 66.0678 93.82 66.2811 93.82H66.9311V95H66.0511C64.8711 95 64.2811 94.4267 64.2811 93.28V90.61H63.6211V89.46H64.2811V88.09H65.6911V89.46H66.9311V90.61H65.6911ZM74.8909 88.02V92.92C74.8909 93.6 74.6942 94.13 74.3009 94.51C73.9075 94.8833 73.3809 95.07 72.7209 95.07C72.0542 95.07 71.5142 94.8767 71.1009 94.49C70.6942 94.1033 70.4909 93.5633 70.4909 92.87H71.8909C71.8975 93.17 71.9675 93.4033 72.1009 93.57C72.2409 93.7367 72.4409 93.82 72.7009 93.82C72.9542 93.82 73.1475 93.74 73.2809 93.58C73.4142 93.42 73.4809 93.2 73.4809 92.92V88.02H74.8909ZM78.894 95.09C78.4407 95.09 78.034 95.01 77.674 94.85C77.314 94.6833 77.0273 94.46 76.814 94.18C76.6073 93.9 76.494 93.59 76.474 93.25H77.884C77.9107 93.4633 78.014 93.64 78.194 93.78C78.3807 93.92 78.6107 93.99 78.884 93.99C79.1507 93.99 79.3573 93.9367 79.504 93.83C79.6573 93.7233 79.734 93.5867 79.734 93.42C79.734 93.24 79.6407 93.1067 79.454 93.02C79.274 92.9267 78.984 92.8267 78.584 92.72C78.1707 92.62 77.8307 92.5167 77.564 92.41C77.304 92.3033 77.0773 92.14 76.884 91.92C76.6973 91.7 76.604 91.4033 76.604 91.03C76.604 90.7233 76.6907 90.4433 76.864 90.19C77.044 89.9367 77.2973 89.7367 77.624 89.59C77.9573 89.4433 78.3473 89.37 78.794 89.37C79.454 89.37 79.9807 89.5367 80.374 89.87C80.7673 90.1967 80.984 90.64 81.024 91.2H79.684C79.664 90.98 79.5707 90.8067 79.404 90.68C79.244 90.5467 79.0273 90.48 78.754 90.48C78.5007 90.48 78.304 90.5267 78.164 90.62C78.0307 90.7133 77.964 90.8433 77.964 91.01C77.964 91.1967 78.0573 91.34 78.244 91.44C78.4307 91.5333 78.7207 91.63 79.114 91.73C79.514 91.83 79.844 91.9333 80.104 92.04C80.364 92.1467 80.5873 92.3133 80.774 92.54C80.9673 92.76 81.0673 93.0533 81.074 93.42C81.074 93.74 80.984 94.0267 80.804 94.28C80.6307 94.5333 80.3773 94.7333 80.044 94.88C79.7173 95.02 79.334 95.09 78.894 95.09Z" fill="#231F20"/>
<path d="M79.5759 22.6548C78.7729 22.8044 78.1401 23.4243 77.9874 24.211C77.9797 24.2504 77.9245 24.2504 77.917 24.211C77.7643 23.4243 77.1315 22.8044 76.3285 22.6548C76.2883 22.6473 76.2883 22.5933 76.3285 22.5857C77.1315 22.4361 77.7643 21.8163 77.917 21.0296C77.9247 20.9901 77.9799 20.9901 77.9874 21.0296C78.1401 21.8163 78.7729 22.4361 79.5759 22.5857C79.6161 22.5933 79.6161 22.6473 79.5759 22.6548Z" fill="#F5C84C"/>
<path d="M62.0832 78.0544C61.5201 78.1593 61.0761 78.5941 60.9691 79.1459C60.9637 79.1736 60.925 79.1736 60.9197 79.1459C60.8127 78.5941 60.3688 78.1593 59.8056 78.0544C59.7774 78.0492 59.7774 78.0113 59.8056 78.006C60.3688 77.9011 60.8127 77.4663 60.9197 76.9146C60.9252 76.8869 60.9639 76.8869 60.9691 76.9146C61.0761 77.4663 61.5201 77.9011 62.0832 78.006C62.1115 78.0113 62.1115 78.049 62.0832 78.0544Z" fill="#87D147"/>
<path d="M79.4926 27.8002C79.8536 27.8002 80.1462 27.5076 80.1462 27.1466C80.1462 26.7857 79.8536 26.4931 79.4926 26.4931C79.1317 26.4931 78.8391 26.7857 78.8391 27.1466C78.8391 27.5076 79.1317 27.8002 79.4926 27.8002Z" fill="#FC657E"/>
<path d="M56.6269 76.2853C56.9878 76.2853 57.2804 75.9927 57.2804 75.6318C57.2804 75.2709 56.9878 74.9783 56.6269 74.9783C56.266 74.9783 55.9734 75.2709 55.9734 75.6318C55.9734 75.9927 56.266 76.2853 56.6269 76.2853Z" fill="#70D6F9"/>
<path d="M83.5214 52.3191H83.1684V51.9661C83.1684 51.7018 82.9542 51.4875 82.6898 51.4875C82.4254 51.4875 82.2112 51.7018 82.2112 51.9661V52.3191H81.8582C81.5939 52.3191 81.3796 52.5333 81.3796 52.7977C81.3796 53.0621 81.5939 53.2763 81.8582 53.2763H82.2112V53.6293C82.2112 53.8936 82.4254 54.1079 82.6898 54.1079C82.9542 54.1079 83.1684 53.8936 83.1684 53.6293V53.2763H83.5214C83.7857 53.2763 84 53.0621 84 52.7977C84 52.5333 83.7855 52.3191 83.5214 52.3191Z" fill="#70D6F9"/>
<path d="M80.7629 48.9836C81.1238 48.9836 81.4164 48.691 81.4164 48.33C81.4164 47.9691 81.1238 47.6765 80.7629 47.6765C80.402 47.6765 80.1094 47.9691 80.1094 48.33C80.1094 48.691 80.402 48.9836 80.7629 48.9836Z" fill="#F5C84C"/>
<path d="M42 68.8125V27.8109C42 26.1541 43.3431 24.8109 45 24.8109H68.2551C69.0432 24.8109 69.7996 25.121 70.3609 25.6741L76.6745 31.896C77.2466 32.4598 77.5687 33.2295 77.5687 34.0328V68.8125C77.5687 70.4693 76.2256 71.8125 74.5687 71.8125H45C43.3431 71.8125 42 70.4693 42 68.8125Z" fill="#F3F3DB" stroke="#231F20"/>
<path d="M68.6765 33.5738C67.0597 31.9806 67.2329 24.9724 67.2329 24.9724L70.5819 26.0812L73.7577 29.257L76.2983 31.7976C77.5686 33.0679 77.57 33.3588 76.7602 34.3705C76.7602 34.3705 70.2932 35.1671 68.6765 33.5738Z" fill="#FAFC6E" stroke="#231F20" stroke-linecap="round" stroke-linejoin="round"/>
<path d="M42 59.1093H77.5687V68.8124C77.5687 70.4693 76.2256 71.8124 74.5687 71.8124H45C43.3431 71.8124 42 70.4693 42 68.8124V59.1093Z" fill="#FAFC6E" stroke="#231F20"/>
<path d="M50.432 68L49.2 65.824H48.672V68H47.552V62.416H49.648C50.08 62.416 50.448 62.4933 50.752 62.648C51.056 62.7973 51.2827 63.0027 51.432 63.264C51.5867 63.52 51.664 63.808 51.664 64.128C51.664 64.496 51.5573 64.8293 51.344 65.128C51.1307 65.4213 50.8133 65.624 50.392 65.736L51.728 68H50.432ZM48.672 64.984H49.608C49.912 64.984 50.1387 64.912 50.288 64.768C50.4373 64.6187 50.512 64.4133 50.512 64.152C50.512 63.896 50.4373 63.6987 50.288 63.56C50.1387 63.416 49.912 63.344 49.608 63.344H48.672V64.984ZM56.997 65.688C56.997 65.848 56.9863 65.992 56.965 66.12H53.725C53.7517 66.44 53.8637 66.6907 54.061 66.872C54.2583 67.0533 54.501 67.144 54.789 67.144C55.205 67.144 55.501 66.9653 55.677 66.608H56.885C56.757 67.0347 56.5117 67.3867 56.149 67.664C55.7863 67.936 55.341 68.072 54.813 68.072C54.3863 68.072 54.0023 67.9787 53.661 67.792C53.325 67.6 53.061 67.3307 52.869 66.984C52.6823 66.6373 52.589 66.2373 52.589 65.784C52.589 65.3253 52.6823 64.9227 52.869 64.576C53.0557 64.2293 53.317 63.9627 53.653 63.776C53.989 63.5893 54.3757 63.496 54.813 63.496C55.2343 63.496 55.6103 63.5867 55.941 63.768C56.277 63.9493 56.5357 64.208 56.717 64.544C56.9037 64.8747 56.997 65.256 56.997 65.688ZM55.837 65.368C55.8317 65.08 55.7277 64.8507 55.525 64.68C55.3223 64.504 55.0743 64.416 54.781 64.416C54.5037 64.416 54.269 64.5013 54.077 64.672C53.8903 64.8373 53.7757 65.0693 53.733 65.368H55.837ZM57.7265 65.768C57.7265 65.32 57.8145 64.9227 57.9905 64.576C58.1718 64.2293 58.4145 63.9627 58.7185 63.776C59.0278 63.5893 59.3718 63.496 59.7505 63.496C60.0812 63.496 60.3692 63.5627 60.6145 63.696C60.8652 63.8293 61.0652 63.9973 61.2145 64.2V63.568H62.3425V68H61.2145V67.352C61.0705 67.56 60.8705 67.7333 60.6145 67.872C60.3638 68.0053 60.0732 68.072 59.7425 68.072C59.3692 68.072 59.0278 67.976 58.7185 67.784C58.4145 67.592 58.1718 67.3227 57.9905 66.976C57.8145 66.624 57.7265 66.2213 57.7265 65.768ZM61.2145 65.784C61.2145 65.512 61.1612 65.28 61.0545 65.088C60.9478 64.8907 60.8038 64.7413 60.6225 64.64C60.4412 64.5333 60.2465 64.48 60.0385 64.48C59.8305 64.48 59.6385 64.5307 59.4625 64.632C59.2865 64.7333 59.1425 64.8827 59.0305 65.08C58.9238 65.272 58.8705 65.5013 58.8705 65.768C58.8705 66.0347 58.9238 66.2693 59.0305 66.472C59.1425 66.6693 59.2865 66.8213 59.4625 66.928C59.6438 67.0347 59.8358 67.088 60.0385 67.088C60.2465 67.088 60.4412 67.0373 60.6225 66.936C60.8038 66.8293 60.9478 66.68 61.0545 66.488C61.1612 66.2907 61.2145 66.056 61.2145 65.784ZM63.3484 65.784C63.3484 65.3253 63.4417 64.9253 63.6284 64.584C63.815 64.2373 64.0737 63.9707 64.4044 63.784C64.735 63.592 65.1137 63.496 65.5404 63.496C66.0897 63.496 66.543 63.6347 66.9004 63.912C67.263 64.184 67.5057 64.568 67.6284 65.064H66.4204C66.3564 64.872 66.247 64.7227 66.0924 64.616C65.943 64.504 65.7564 64.448 65.5324 64.448C65.2124 64.448 64.959 64.5653 64.7724 64.8C64.5857 65.0293 64.4924 65.3573 64.4924 65.784C64.4924 66.2053 64.5857 66.5333 64.7724 66.768C64.959 66.9973 65.2124 67.112 65.5324 67.112C65.9857 67.112 66.2817 66.9093 66.4204 66.504H67.6284C67.5057 66.984 67.263 67.3653 66.9004 67.648C66.5377 67.9307 66.0844 68.072 65.5404 68.072C65.1137 68.072 64.735 67.9787 64.4044 67.792C64.0737 67.6 63.815 67.3333 63.6284 66.992C63.4417 66.6453 63.3484 66.2427 63.3484 65.784ZM69.9529 64.488V66.632C69.9529 66.7813 69.9875 66.8907 70.0569 66.96C70.1315 67.024 70.2542 67.056 70.4249 67.056H70.9449V68H70.2409C69.2969 68 68.8249 67.5413 68.8249 66.624V64.488H68.2969V63.568H68.8249V62.472H69.9529V63.568H70.9449V64.488H69.9529Z" fill="#231F20"/>
<path d="M46.079 47.076L44.553 45.508L46.079 43.94H47.311L45.785 45.508L47.311 47.076H46.079ZM51.3709 41.371L49.4809 49.267H48.5219L50.4119 41.371H51.3709ZM53.3052 44.724C53.4312 44.5187 53.5945 44.3577 53.7952 44.241C54.0005 44.1243 54.2339 44.066 54.4952 44.066V45.095H54.2362C53.9282 45.095 53.6949 45.1673 53.5362 45.312C53.3822 45.4567 53.3052 45.7087 53.3052 46.068V48H52.3252V44.122H53.3052V44.724ZM58.9353 45.977C58.9353 46.117 58.9259 46.243 58.9073 46.355H56.0723C56.0956 46.635 56.1936 46.8543 56.3663 47.013C56.5389 47.1717 56.7513 47.251 57.0033 47.251C57.3673 47.251 57.6263 47.0947 57.7803 46.782H58.8373C58.7253 47.1553 58.5106 47.4633 58.1933 47.706C57.8759 47.944 57.4863 48.063 57.0243 48.063C56.6509 48.063 56.3149 47.9813 56.0163 47.818C55.7223 47.65 55.4913 47.4143 55.3233 47.111C55.1599 46.8077 55.0783 46.4577 55.0783 46.061C55.0783 45.6597 55.1599 45.3073 55.3233 45.004C55.4866 44.7007 55.7153 44.4673 56.0093 44.304C56.3033 44.1407 56.6416 44.059 57.0243 44.059C57.3929 44.059 57.7219 44.1383 58.0113 44.297C58.3053 44.4557 58.5316 44.682 58.6903 44.976C58.8536 45.2653 58.9353 45.599 58.9353 45.977ZM57.9203 45.697C57.9156 45.445 57.8246 45.2443 57.6473 45.095C57.4699 44.941 57.2529 44.864 56.9963 44.864C56.7536 44.864 56.5483 44.9387 56.3803 45.088C56.2169 45.2327 56.1166 45.4357 56.0793 45.697H57.9203ZM59.5736 46.047C59.5736 45.655 59.6506 45.3073 59.8046 45.004C59.9632 44.7007 60.1756 44.4673 60.4416 44.304C60.7122 44.1407 61.0132 44.059 61.3446 44.059C61.6339 44.059 61.8859 44.1173 62.1006 44.234C62.3199 44.3507 62.4949 44.4977 62.6256 44.675V44.122H63.6126V48H62.6256V47.433C62.4996 47.615 62.3246 47.7667 62.1006 47.888C61.8812 48.0047 61.6269 48.063 61.3376 48.063C61.0109 48.063 60.7122 47.979 60.4416 47.811C60.1756 47.643 59.9632 47.4073 59.8046 47.104C59.6506 46.796 59.5736 46.4437 59.5736 46.047ZM62.6256 46.061C62.6256 45.823 62.5789 45.62 62.4856 45.452C62.3922 45.2793 62.2662 45.1487 62.1076 45.06C61.9489 44.9667 61.7786 44.92 61.5966 44.92C61.4146 44.92 61.2466 44.9643 61.0926 45.053C60.9386 45.1417 60.8126 45.2723 60.7146 45.445C60.6212 45.613 60.5746 45.8137 60.5746 46.047C60.5746 46.2803 60.6212 46.4857 60.7146 46.663C60.8126 46.8357 60.9386 46.9687 61.0926 47.062C61.2512 47.1553 61.4192 47.202 61.5966 47.202C61.7786 47.202 61.9489 47.1577 62.1076 47.069C62.2662 46.9757 62.3922 46.845 62.4856 46.677C62.5789 46.5043 62.6256 46.299 62.6256 46.061ZM64.4927 46.061C64.4927 45.6597 64.5744 45.3097 64.7377 45.011C64.9011 44.7077 65.1274 44.4743 65.4167 44.311C65.7061 44.143 66.0374 44.059 66.4107 44.059C66.8914 44.059 67.2881 44.1803 67.6007 44.423C67.9181 44.661 68.1304 44.997 68.2377 45.431H67.1807C67.1247 45.263 67.0291 45.1323 66.8937 45.039C66.7631 44.941 66.5997 44.892 66.4037 44.892C66.1237 44.892 65.9021 44.9947 65.7387 45.2C65.5754 45.4007 65.4937 45.6877 65.4937 46.061C65.4937 46.4297 65.5754 46.7167 65.7387 46.922C65.9021 47.1227 66.1237 47.223 66.4037 47.223C66.8004 47.223 67.0594 47.0457 67.1807 46.691H68.2377C68.1304 47.111 67.9181 47.4447 67.6007 47.692C67.2834 47.9393 66.8867 48.063 66.4107 48.063C66.0374 48.063 65.7061 47.9813 65.4167 47.818C65.1274 47.65 64.9011 47.4167 64.7377 47.118C64.5744 46.8147 64.4927 46.4623 64.4927 46.061ZM70.2717 44.927V46.803C70.2717 46.9337 70.302 47.0293 70.3627 47.09C70.428 47.146 70.5353 47.174 70.6847 47.174H71.1397V48H70.5237C69.6977 48 69.2847 47.5987 69.2847 46.796V44.927H68.8227V44.122H69.2847V43.163H70.2717V44.122H71.1397V44.927H70.2717ZM72.1595 43.94H73.3985L74.9245 45.508L73.3985 47.076H72.1595L73.6925 45.508L72.1595 43.94Z" fill="#231F20"/>
</svg>
