<svg width="120" height="120" viewBox="0 0 120 120" fill="none" xmlns="http://www.w3.org/2000/svg">
<rect width="120" height="120" rx="10" fill="#E3C392" fill-opacity="0.5"/>
<path d="M54.1 95.07C53.6133 95.07 53.1733 94.9867 52.78 94.82C52.3933 94.6533 52.0867 94.4133 51.86 94.1C51.6333 93.7867 51.5167 93.4167 51.51 92.99H53.01C53.03 93.2767 53.13 93.5033 53.31 93.67C53.4967 93.8367 53.75 93.92 54.07 93.92C54.3967 93.92 54.6533 93.8433 54.84 93.69C55.0267 93.53 55.12 93.3233 55.12 93.07C55.12 92.8633 55.0567 92.6933 54.93 92.56C54.8033 92.4267 54.6433 92.3233 54.45 92.25C54.2633 92.17 54.0033 92.0833 53.67 91.99C53.2167 91.8567 52.8467 91.7267 52.56 91.6C52.28 91.4667 52.0367 91.27 51.83 91.01C51.63 90.7433 51.53 90.39 51.53 89.95C51.53 89.5367 51.6333 89.1767 51.84 88.87C52.0467 88.5633 52.3367 88.33 52.71 88.17C53.0833 88.0033 53.51 87.92 53.99 87.92C54.71 87.92 55.2933 88.0967 55.74 88.45C56.1933 88.7967 56.4433 89.2833 56.49 89.91H54.95C54.9367 89.67 54.8333 89.4733 54.64 89.32C54.4533 89.16 54.2033 89.08 53.89 89.08C53.6167 89.08 53.3967 89.15 53.23 89.29C53.07 89.43 52.99 89.6333 52.99 89.9C52.99 90.0867 53.05 90.2433 53.17 90.37C53.2967 90.49 53.45 90.59 53.63 90.67C53.8167 90.7433 54.0767 90.83 54.41 90.93C54.8633 91.0633 55.2333 91.1967 55.52 91.33C55.8067 91.4633 56.0533 91.6633 56.26 91.93C56.4667 92.1967 56.57 92.5467 56.57 92.98C56.57 93.3533 56.4733 93.7 56.28 94.02C56.0867 94.34 55.8033 94.5967 55.43 94.79C55.0567 94.9767 54.6133 95.07 54.1 95.07ZM57.6737 92.22C57.6737 91.6667 57.7871 91.1767 58.0138 90.75C58.2471 90.3167 58.5604 89.98 58.9538 89.74C59.3471 89.5 59.7804 89.38 60.2538 89.38C60.6471 89.38 60.9938 89.4567 61.2938 89.61C61.6004 89.7567 61.8471 89.9467 62.0338 90.18V89.46H63.4438V97.64H62.0338V94.24C61.8471 94.48 61.5971 94.68 61.2838 94.84C60.9704 95 60.6171 95.08 60.2238 95.08C59.7571 95.08 59.3271 94.96 58.9338 94.72C58.5471 94.4733 58.2404 94.1333 58.0138 93.7C57.7871 93.2667 57.6737 92.7733 57.6737 92.22ZM62.0338 92.23C62.0338 91.89 61.9638 91.5967 61.8238 91.35C61.6838 91.1033 61.5004 90.9167 61.2738 90.79C61.0538 90.6633 60.8171 90.6 60.5638 90.6C60.3171 90.6 60.0804 90.6633 59.8538 90.79C59.6338 90.9167 59.4538 91.1033 59.3138 91.35C59.1738 91.59 59.1038 91.88 59.1038 92.22C59.1038 92.56 59.1738 92.8567 59.3138 93.11C59.4538 93.3567 59.6338 93.5433 59.8538 93.67C60.0804 93.7967 60.3171 93.86 60.5638 93.86C60.8171 93.86 61.0538 93.7967 61.2738 93.67C61.5004 93.5433 61.6838 93.3567 61.8238 93.11C61.9638 92.8633 62.0338 92.57 62.0338 92.23ZM66.4611 87.6V95H65.0611V87.6H66.4611Z" fill="#231F20"/>
<path d="M79.5759 22.6548C78.7729 22.8044 78.1401 23.4243 77.9874 24.211C77.9797 24.2504 77.9245 24.2504 77.917 24.211C77.7643 23.4243 77.1315 22.8044 76.3285 22.6548C76.2883 22.6473 76.2883 22.5933 76.3285 22.5857C77.1315 22.4361 77.7643 21.8163 77.917 21.0296C77.9247 20.9901 77.9799 20.9901 77.9874 21.0296C78.1401 21.8163 78.7729 22.4361 79.5759 22.5857C79.6161 22.5933 79.6161 22.6473 79.5759 22.6548Z" fill="#F5C84C"/>
<path d="M62.0832 78.0544C61.5201 78.1593 61.0761 78.5941 60.9691 79.1459C60.9637 79.1736 60.925 79.1736 60.9197 79.1459C60.8127 78.5941 60.3688 78.1593 59.8056 78.0544C59.7774 78.0492 59.7774 78.0113 59.8056 78.006C60.3688 77.9011 60.8127 77.4663 60.9197 76.9146C60.9252 76.8869 60.9639 76.8869 60.9691 76.9146C61.0761 77.4663 61.5201 77.9011 62.0832 78.006C62.1115 78.0113 62.1115 78.049 62.0832 78.0544Z" fill="#87D147"/>
<path d="M79.4926 27.8002C79.8536 27.8002 80.1462 27.5076 80.1462 27.1466C80.1462 26.7857 79.8536 26.4931 79.4926 26.4931C79.1317 26.4931 78.8391 26.7857 78.8391 27.1466C78.8391 27.5076 79.1317 27.8002 79.4926 27.8002Z" fill="#FC657E"/>
<path d="M56.6269 76.2853C56.9878 76.2853 57.2804 75.9927 57.2804 75.6318C57.2804 75.2709 56.9878 74.9783 56.6269 74.9783C56.266 74.9783 55.9734 75.2709 55.9734 75.6318C55.9734 75.9927 56.266 76.2853 56.6269 76.2853Z" fill="#70D6F9"/>
<path d="M83.5214 52.3191H83.1684V51.9661C83.1684 51.7018 82.9542 51.4875 82.6898 51.4875C82.4254 51.4875 82.2112 51.7018 82.2112 51.9661V52.3191H81.8582C81.5939 52.3191 81.3796 52.5333 81.3796 52.7977C81.3796 53.0621 81.5939 53.2763 81.8582 53.2763H82.2112V53.6293C82.2112 53.8936 82.4254 54.1079 82.6898 54.1079C82.9542 54.1079 83.1684 53.8936 83.1684 53.6293V53.2763H83.5214C83.7857 53.2763 84 53.0621 84 52.7977C84 52.5333 83.7855 52.3191 83.5214 52.3191Z" fill="#70D6F9"/>
<path d="M80.7629 48.9836C81.1238 48.9836 81.4164 48.691 81.4164 48.33C81.4164 47.9691 81.1238 47.6765 80.7629 47.6765C80.402 47.6765 80.1094 47.9691 80.1094 48.33C80.1094 48.691 80.402 48.9836 80.7629 48.9836Z" fill="#F5C84C"/>
<path d="M42 68.8125V27.8109C42 26.1541 43.3431 24.8109 45 24.8109H68.2551C69.0432 24.8109 69.7996 25.121 70.3609 25.6741L76.6745 31.896C77.2466 32.4598 77.5687 33.2295 77.5687 34.0328V68.8125C77.5687 70.4693 76.2256 71.8125 74.5687 71.8125H45C43.3431 71.8125 42 70.4693 42 68.8125Z" fill="#F3F3DB" stroke="#231F20"/>
<path d="M68.6765 33.5738C67.0597 31.9806 67.2329 24.9724 67.2329 24.9724L70.5819 26.0812L73.7577 29.257L76.2983 31.7976C77.5686 33.0679 77.57 33.3588 76.7602 34.3705C76.7602 34.3705 70.2932 35.1671 68.6765 33.5738Z" fill="#F3AB39" stroke="#231F20" stroke-linecap="round" stroke-linejoin="round"/>
<path d="M42 59.1093H77.5687V68.8124C77.5687 70.4693 76.2256 71.8124 74.5687 71.8124H45C43.3431 71.8124 42 70.4693 42 68.8124V59.1093Z" fill="#F3AB39" stroke="#231F20"/>
<path d="M54.48 68.056C54.0907 68.056 53.7387 67.9893 53.424 67.856C53.1147 67.7227 52.8693 67.5307 52.688 67.28C52.5067 67.0293 52.4133 66.7333 52.408 66.392H53.608C53.624 66.6213 53.704 66.8027 53.848 66.936C53.9973 67.0693 54.2 67.136 54.456 67.136C54.7173 67.136 54.9227 67.0747 55.072 66.952C55.2213 66.824 55.296 66.6587 55.296 66.456C55.296 66.2907 55.2453 66.1547 55.144 66.048C55.0427 65.9413 54.9147 65.8587 54.76 65.8C54.6107 65.736 54.4027 65.6667 54.136 65.592C53.7733 65.4853 53.4773 65.3813 53.248 65.28C53.024 65.1733 52.8293 65.016 52.664 64.808C52.504 64.5947 52.424 64.312 52.424 63.96C52.424 63.6293 52.5067 63.3413 52.672 63.096C52.8373 62.8507 53.0693 62.664 53.368 62.536C53.6667 62.4027 54.008 62.336 54.392 62.336C54.968 62.336 55.4347 62.4773 55.792 62.76C56.1547 63.0373 56.3547 63.4267 56.392 63.928H55.16C55.1493 63.736 55.0667 63.5787 54.912 63.456C54.7627 63.328 54.5627 63.264 54.312 63.264C54.0933 63.264 53.9173 63.32 53.784 63.432C53.656 63.544 53.592 63.7067 53.592 63.92C53.592 64.0693 53.64 64.1947 53.736 64.296C53.8373 64.392 53.96 64.472 54.104 64.536C54.2533 64.5947 54.4613 64.664 54.728 64.744C55.0907 64.8507 55.3867 64.9573 55.616 65.064C55.8453 65.1707 56.0427 65.3307 56.208 65.544C56.3733 65.7573 56.456 66.0373 56.456 66.384C56.456 66.6827 56.3787 66.96 56.224 67.216C56.0693 67.472 55.8427 67.6773 55.544 67.832C55.2453 67.9813 54.8907 68.056 54.48 68.056ZM61.787 68.984L60.939 67.968C60.7043 68.0267 60.4643 68.056 60.219 68.056C59.6963 68.056 59.2163 67.9333 58.779 67.688C58.3417 67.4427 57.995 67.104 57.739 66.672C57.483 66.2347 57.355 65.7413 57.355 65.192C57.355 64.648 57.483 64.16 57.739 63.728C57.995 63.2907 58.3417 62.9493 58.779 62.704C59.2163 62.4587 59.6963 62.336 60.219 62.336C60.747 62.336 61.227 62.4587 61.659 62.704C62.0963 62.9493 62.4403 63.2907 62.691 63.728C62.947 64.16 63.075 64.648 63.075 65.192C63.075 65.688 62.9683 66.1413 62.755 66.552C62.547 66.9573 62.2617 67.288 61.899 67.544L63.179 68.984H61.787ZM58.507 65.192C58.507 65.5653 58.579 65.8933 58.723 66.176C58.867 66.4587 59.067 66.6773 59.323 66.832C59.5843 66.9813 59.883 67.056 60.219 67.056C60.555 67.056 60.851 66.9813 61.107 66.832C61.363 66.6773 61.563 66.4587 61.707 66.176C61.851 65.8933 61.923 65.5653 61.923 65.192C61.923 64.8187 61.851 64.4933 61.707 64.216C61.563 63.9333 61.363 63.7173 61.107 63.568C60.851 63.4187 60.555 63.344 60.219 63.344C59.883 63.344 59.5843 63.4187 59.323 63.568C59.067 63.7173 58.867 63.9333 58.723 64.216C58.579 64.4933 58.507 64.8187 58.507 65.192ZM65.2439 67.112H67.0839V68H64.1239V62.416H65.2439V67.112Z" fill="white"/>
<path d="M51.079 47.076L49.553 45.508L51.079 43.94H52.311L50.785 45.508L52.311 47.076H51.079ZM54.1799 48.049C54.0026 48.049 53.8556 47.9953 53.7389 47.888C53.6269 47.776 53.5709 47.6383 53.5709 47.475C53.5709 47.3117 53.6269 47.1763 53.7389 47.069C53.8556 46.957 54.0026 46.901 54.1799 46.901C54.3526 46.901 54.4949 46.957 54.6069 47.069C54.7189 47.1763 54.7749 47.3117 54.7749 47.475C54.7749 47.6383 54.7189 47.776 54.6069 47.888C54.4949 47.9953 54.3526 48.049 54.1799 48.049ZM57.2233 48.063C56.9059 48.063 56.6212 48.007 56.3692 47.895C56.1172 47.7783 55.9166 47.622 55.7672 47.426C55.6226 47.23 55.5432 47.013 55.5292 46.775H56.5162C56.5349 46.9243 56.6073 47.048 56.7332 47.146C56.8639 47.244 57.0249 47.293 57.2162 47.293C57.4029 47.293 57.5476 47.2557 57.6502 47.181C57.7576 47.1063 57.8112 47.0107 57.8112 46.894C57.8112 46.768 57.7459 46.6747 57.6152 46.614C57.4892 46.5487 57.2862 46.4787 57.0062 46.404C56.7169 46.334 56.4789 46.2617 56.2922 46.187C56.1102 46.1123 55.9516 45.998 55.8162 45.844C55.6856 45.69 55.6202 45.4823 55.6202 45.221C55.6202 45.0063 55.6809 44.8103 55.8022 44.633C55.9282 44.4557 56.1056 44.3157 56.3343 44.213C56.5676 44.1103 56.8406 44.059 57.1533 44.059C57.6152 44.059 57.9839 44.1757 58.2593 44.409C58.5346 44.6377 58.6863 44.948 58.7143 45.34H57.7763C57.7623 45.186 57.6969 45.0647 57.5803 44.976C57.4683 44.8827 57.3166 44.836 57.1253 44.836C56.9479 44.836 56.8102 44.8687 56.7122 44.934C56.6189 44.9993 56.5722 45.0903 56.5722 45.207C56.5722 45.3377 56.6376 45.438 56.7682 45.508C56.8989 45.5733 57.1019 45.641 57.3772 45.711C57.6572 45.781 57.8882 45.8533 58.0702 45.928C58.2522 46.0027 58.4086 46.1193 58.5392 46.278C58.6746 46.432 58.7446 46.6373 58.7492 46.894C58.7492 47.118 58.6863 47.3187 58.5603 47.496C58.4389 47.6733 58.2616 47.8133 58.0283 47.916C57.7996 48.014 57.5312 48.063 57.2233 48.063ZM59.4767 46.054C59.4767 45.6667 59.556 45.3237 59.7147 45.025C59.878 44.7217 60.0974 44.486 60.3727 44.318C60.648 44.15 60.9514 44.066 61.2827 44.066C61.558 44.066 61.8007 44.1197 62.0107 44.227C62.2254 44.3297 62.398 44.4627 62.5287 44.626V44.122H63.5157V49.848H62.5287V47.468C62.398 47.636 62.223 47.776 62.0037 47.888C61.7844 48 61.537 48.056 61.2617 48.056C60.935 48.056 60.634 47.972 60.3587 47.804C60.088 47.6313 59.8734 47.3933 59.7147 47.09C59.556 46.7867 59.4767 46.4413 59.4767 46.054ZM62.5287 46.061C62.5287 45.823 62.4797 45.6177 62.3817 45.445C62.2837 45.2723 62.1554 45.1417 61.9967 45.053C61.8427 44.9643 61.677 44.92 61.4997 44.92C61.327 44.92 61.1614 44.9643 61.0027 45.053C60.8487 45.1417 60.7227 45.2723 60.6247 45.445C60.5267 45.613 60.4777 45.816 60.4777 46.054C60.4777 46.292 60.5267 46.4997 60.6247 46.677C60.7227 46.8497 60.8487 46.9803 61.0027 47.069C61.1614 47.1577 61.327 47.202 61.4997 47.202C61.677 47.202 61.8427 47.1577 61.9967 47.069C62.1554 46.9803 62.2837 46.8497 62.3817 46.677C62.4797 46.5043 62.5287 46.299 62.5287 46.061ZM65.6278 42.82V48H64.6478V42.82H65.6278ZM66.9111 43.94H68.1501L69.6761 45.508L68.1501 47.076H66.9111L68.4441 45.508L66.9111 43.94Z" fill="#231F20"/>
</svg>
