<svg width="120" height="120" viewBox="0 0 120 120" fill="none" xmlns="http://www.w3.org/2000/svg">
<rect width="120" height="120" rx="10" fill="#F9C1F6" fill-opacity="0.5"/>
<path d="M41.02 88.02L39.07 95H37.42L36.11 90.03L34.74 95L33.1 95.01L31.22 88.02H32.72L33.95 93.44L35.37 88.02H36.93L38.27 93.41L39.51 88.02H41.02ZM44.6441 95.09C44.1108 95.09 43.6308 94.9733 43.2041 94.74C42.7775 94.5 42.4408 94.1633 42.1941 93.73C41.9541 93.2967 41.8341 92.7967 41.8341 92.23C41.8341 91.6633 41.9575 91.1633 42.2041 90.73C42.4575 90.2967 42.8008 89.9633 43.2341 89.73C43.6675 89.49 44.1508 89.37 44.6841 89.37C45.2175 89.37 45.7008 89.49 46.1341 89.73C46.5675 89.9633 46.9075 90.2967 47.1541 90.73C47.4075 91.1633 47.5341 91.6633 47.5341 92.23C47.5341 92.7967 47.4041 93.2967 47.1441 93.73C46.8908 94.1633 46.5441 94.5 46.1041 94.74C45.6708 94.9733 45.1841 95.09 44.6441 95.09ZM44.6441 93.87C44.8975 93.87 45.1341 93.81 45.3541 93.69C45.5808 93.5633 45.7608 93.3767 45.8941 93.13C46.0275 92.8833 46.0941 92.5833 46.0941 92.23C46.0941 91.7033 45.9541 91.3 45.6741 91.02C45.4008 90.7333 45.0641 90.59 44.6641 90.59C44.2641 90.59 43.9275 90.7333 43.6541 91.02C43.3875 91.3 43.2541 91.7033 43.2541 92.23C43.2541 92.7567 43.3841 93.1633 43.6441 93.45C43.9108 93.73 44.2441 93.87 44.6441 93.87ZM50.2111 90.32C50.3911 90.0267 50.6244 89.7967 50.9111 89.63C51.2044 89.4633 51.5378 89.38 51.9111 89.38V90.85H51.5411C51.1011 90.85 50.7678 90.9533 50.5411 91.16C50.3211 91.3667 50.2111 91.7267 50.2111 92.24V95H48.8111V89.46H50.2111V90.32ZM52.7441 92.21C52.7441 91.65 52.8541 91.1533 53.0741 90.72C53.3007 90.2867 53.6074 89.9533 53.9941 89.72C54.3807 89.4867 54.8107 89.37 55.2841 89.37C55.6441 89.37 55.9874 89.45 56.3141 89.61C56.6407 89.7633 56.9007 89.97 57.0941 90.23V87.6H58.5141V95H57.0941V94.18C56.9207 94.4533 56.6774 94.6733 56.3641 94.84C56.0507 95.0067 55.6874 95.09 55.2741 95.09C54.8074 95.09 54.3807 94.97 53.9941 94.73C53.6074 94.49 53.3007 94.1533 53.0741 93.72C52.8541 93.28 52.7441 92.7767 52.7441 92.21ZM57.1041 92.23C57.1041 91.89 57.0374 91.6 56.9041 91.36C56.7707 91.1133 56.5907 90.9267 56.3641 90.8C56.1374 90.6667 55.8941 90.6 55.6341 90.6C55.3741 90.6 55.1341 90.6633 54.9141 90.79C54.6941 90.9167 54.5141 91.1033 54.3741 91.35C54.2407 91.59 54.1741 91.8767 54.1741 92.21C54.1741 92.5433 54.2407 92.8367 54.3741 93.09C54.5141 93.3367 54.6941 93.5267 54.9141 93.66C55.1407 93.7933 55.3807 93.86 55.6341 93.86C55.8941 93.86 56.1374 93.7967 56.3641 93.67C56.5907 93.5367 56.7707 93.35 56.9041 93.11C57.0374 92.8633 57.1041 92.57 57.1041 92.23ZM61.5314 90.26C61.7114 90.0067 61.9581 89.7967 62.2714 89.63C62.5914 89.4567 62.9547 89.37 63.3614 89.37C63.8347 89.37 64.2614 89.4867 64.6414 89.72C65.0281 89.9533 65.3314 90.2867 65.5514 90.72C65.7781 91.1467 65.8914 91.6433 65.8914 92.21C65.8914 92.7767 65.7781 93.28 65.5514 93.72C65.3314 94.1533 65.0281 94.49 64.6414 94.73C64.2614 94.97 63.8347 95.09 63.3614 95.09C62.9547 95.09 62.5947 95.0067 62.2814 94.84C61.9747 94.6733 61.7247 94.4633 61.5314 94.21V97.64H60.1314V89.46H61.5314V90.26ZM64.4614 92.21C64.4614 91.8767 64.3914 91.59 64.2514 91.35C64.1181 91.1033 63.9381 90.9167 63.7114 90.79C63.4914 90.6633 63.2514 90.6 62.9914 90.6C62.7381 90.6 62.4981 90.6667 62.2714 90.8C62.0514 90.9267 61.8714 91.1133 61.7314 91.36C61.5981 91.6067 61.5314 91.8967 61.5314 92.23C61.5314 92.5633 61.5981 92.8533 61.7314 93.1C61.8714 93.3467 62.0514 93.5367 62.2714 93.67C62.4981 93.7967 62.7381 93.86 62.9914 93.86C63.2514 93.86 63.4914 93.7933 63.7114 93.66C63.9381 93.5267 64.1181 93.3367 64.2514 93.09C64.3914 92.8433 64.4614 92.55 64.4614 92.21ZM68.5588 90.32C68.7388 90.0267 68.9721 89.7967 69.2588 89.63C69.5521 89.4633 69.8854 89.38 70.2588 89.38V90.85H69.8888C69.4488 90.85 69.1154 90.9533 68.8888 91.16C68.6688 91.3667 68.5588 91.7267 68.5588 92.24V95H67.1588V89.46H68.5588V90.32ZM76.6017 92.11C76.6017 92.31 76.5884 92.49 76.5617 92.65H72.5117C72.5451 93.05 72.6851 93.3633 72.9317 93.59C73.1784 93.8167 73.4817 93.93 73.8417 93.93C74.3617 93.93 74.7317 93.7067 74.9517 93.26H76.4617C76.3017 93.7933 75.9951 94.2333 75.5417 94.58C75.0884 94.92 74.5317 95.09 73.8717 95.09C73.3384 95.09 72.8584 94.9733 72.4317 94.74C72.0117 94.5 71.6817 94.1633 71.4417 93.73C71.2084 93.2967 71.0917 92.7967 71.0917 92.23C71.0917 91.6567 71.2084 91.1533 71.4417 90.72C71.6751 90.2867 72.0017 89.9533 72.4217 89.72C72.8417 89.4867 73.3251 89.37 73.8717 89.37C74.3984 89.37 74.8684 89.4833 75.2817 89.71C75.7017 89.9367 76.0251 90.26 76.2517 90.68C76.4851 91.0933 76.6017 91.57 76.6017 92.11ZM75.1517 91.71C75.1451 91.35 75.0151 91.0633 74.7617 90.85C74.5084 90.63 74.1984 90.52 73.8317 90.52C73.4851 90.52 73.1917 90.6267 72.9517 90.84C72.7184 91.0467 72.5751 91.3367 72.5217 91.71H75.1517ZM79.9936 95.09C79.5403 95.09 79.1336 95.01 78.7736 94.85C78.4136 94.6833 78.1269 94.46 77.9136 94.18C77.7069 93.9 77.5936 93.59 77.5736 93.25H78.9836C79.0103 93.4633 79.1136 93.64 79.2936 93.78C79.4803 93.92 79.7103 93.99 79.9836 93.99C80.2503 93.99 80.4569 93.9367 80.6036 93.83C80.7569 93.7233 80.8336 93.5867 80.8336 93.42C80.8336 93.24 80.7403 93.1067 80.5536 93.02C80.3736 92.9267 80.0836 92.8267 79.6836 92.72C79.2703 92.62 78.9303 92.5167 78.6636 92.41C78.4036 92.3033 78.1769 92.14 77.9836 91.92C77.7969 91.7 77.7036 91.4033 77.7036 91.03C77.7036 90.7233 77.7903 90.4433 77.9636 90.19C78.1436 89.9367 78.3969 89.7367 78.7236 89.59C79.0569 89.4433 79.4469 89.37 79.8936 89.37C80.5536 89.37 81.0803 89.5367 81.4736 89.87C81.8669 90.1967 82.0836 90.64 82.1236 91.2H80.7836C80.7636 90.98 80.6703 90.8067 80.5036 90.68C80.3436 90.5467 80.1269 90.48 79.8536 90.48C79.6003 90.48 79.4036 90.5267 79.2636 90.62C79.1303 90.7133 79.0636 90.8433 79.0636 91.01C79.0636 91.1967 79.1569 91.34 79.3436 91.44C79.5303 91.5333 79.8203 91.63 80.2136 91.73C80.6136 91.83 80.9436 91.9333 81.2036 92.04C81.4636 92.1467 81.6869 92.3133 81.8736 92.54C82.0669 92.76 82.1669 93.0533 82.1736 93.42C82.1736 93.74 82.0836 94.0267 81.9036 94.28C81.7303 94.5333 81.4769 94.7333 81.1436 94.88C80.8169 95.02 80.4336 95.09 79.9936 95.09ZM85.6928 95.09C85.2395 95.09 84.8328 95.01 84.4728 94.85C84.1128 94.6833 83.8261 94.46 83.6128 94.18C83.4061 93.9 83.2928 93.59 83.2728 93.25H84.6828C84.7095 93.4633 84.8128 93.64 84.9928 93.78C85.1795 93.92 85.4095 93.99 85.6828 93.99C85.9495 93.99 86.1561 93.9367 86.3028 93.83C86.4561 93.7233 86.5328 93.5867 86.5328 93.42C86.5328 93.24 86.4395 93.1067 86.2528 93.02C86.0728 92.9267 85.7828 92.8267 85.3828 92.72C84.9695 92.62 84.6295 92.5167 84.3628 92.41C84.1028 92.3033 83.8761 92.14 83.6828 91.92C83.4961 91.7 83.4028 91.4033 83.4028 91.03C83.4028 90.7233 83.4895 90.4433 83.6628 90.19C83.8428 89.9367 84.0961 89.7367 84.4228 89.59C84.7561 89.4433 85.1461 89.37 85.5928 89.37C86.2528 89.37 86.7795 89.5367 87.1728 89.87C87.5661 90.1967 87.7828 90.64 87.8228 91.2H86.4828C86.4628 90.98 86.3695 90.8067 86.2028 90.68C86.0428 90.5467 85.8261 90.48 85.5528 90.48C85.2995 90.48 85.1028 90.5267 84.9628 90.62C84.8295 90.7133 84.7628 90.8433 84.7628 91.01C84.7628 91.1967 84.8561 91.34 85.0428 91.44C85.2295 91.5333 85.5195 91.63 85.9128 91.73C86.3128 91.83 86.6428 91.9333 86.9028 92.04C87.1628 92.1467 87.3861 92.3133 87.5728 92.54C87.7661 92.76 87.8661 93.0533 87.8728 93.42C87.8728 93.74 87.7828 94.0267 87.6028 94.28C87.4295 94.5333 87.1761 94.7333 86.8428 94.88C86.5161 95.02 86.1328 95.09 85.6928 95.09Z" fill="#231F20"/>
<path d="M79.5759 22.6548C78.7729 22.8044 78.1401 23.4243 77.9874 24.211C77.9797 24.2504 77.9245 24.2504 77.917 24.211C77.7643 23.4243 77.1315 22.8044 76.3285 22.6548C76.2883 22.6473 76.2883 22.5933 76.3285 22.5857C77.1315 22.4361 77.7643 21.8163 77.917 21.0296C77.9247 20.9901 77.9799 20.9901 77.9874 21.0296C78.1401 21.8163 78.7729 22.4361 79.5759 22.5857C79.6161 22.5933 79.6161 22.6473 79.5759 22.6548Z" fill="#F5C84C"/>
<path d="M62.0832 78.0544C61.5201 78.1593 61.0761 78.5941 60.9691 79.1459C60.9637 79.1736 60.925 79.1736 60.9197 79.1459C60.8127 78.5941 60.3688 78.1593 59.8056 78.0544C59.7774 78.0492 59.7774 78.0113 59.8056 78.006C60.3688 77.9011 60.8127 77.4663 60.9197 76.9146C60.9252 76.8869 60.9639 76.8869 60.9691 76.9146C61.0761 77.4663 61.5201 77.9011 62.0832 78.006C62.1115 78.0113 62.1115 78.049 62.0832 78.0544Z" fill="#87D147"/>
<path d="M79.4926 27.8002C79.8536 27.8002 80.1462 27.5076 80.1462 27.1466C80.1462 26.7857 79.8536 26.4931 79.4926 26.4931C79.1317 26.4931 78.8391 26.7857 78.8391 27.1466C78.8391 27.5076 79.1317 27.8002 79.4926 27.8002Z" fill="#FC657E"/>
<path d="M56.6269 76.2853C56.9878 76.2853 57.2804 75.9927 57.2804 75.6318C57.2804 75.2709 56.9878 74.9783 56.6269 74.9783C56.266 74.9783 55.9734 75.2709 55.9734 75.6318C55.9734 75.9927 56.266 76.2853 56.6269 76.2853Z" fill="#70D6F9"/>
<path d="M83.5214 52.3191H83.1684V51.9661C83.1684 51.7018 82.9542 51.4875 82.6898 51.4875C82.4254 51.4875 82.2112 51.7018 82.2112 51.9661V52.3191H81.8582C81.5939 52.3191 81.3796 52.5333 81.3796 52.7977C81.3796 53.0621 81.5939 53.2763 81.8582 53.2763H82.2112V53.6293C82.2112 53.8936 82.4254 54.1079 82.6898 54.1079C82.9542 54.1079 83.1684 53.8936 83.1684 53.6293V53.2763H83.5214C83.7857 53.2763 84 53.0621 84 52.7977C84 52.5333 83.7855 52.3191 83.5214 52.3191Z" fill="#70D6F9"/>
<path d="M80.7629 48.9836C81.1238 48.9836 81.4164 48.691 81.4164 48.33C81.4164 47.9691 81.1238 47.6765 80.7629 47.6765C80.402 47.6765 80.1094 47.9691 80.1094 48.33C80.1094 48.691 80.402 48.9836 80.7629 48.9836Z" fill="#F5C84C"/>
<path d="M42 68.8125V27.8109C42 26.1541 43.3431 24.8109 45 24.8109H68.2551C69.0432 24.8109 69.7996 25.121 70.3609 25.6741L76.6745 31.896C77.2466 32.4598 77.5687 33.2295 77.5687 34.0328V68.8125C77.5687 70.4693 76.2256 71.8125 74.5687 71.8125H45C43.3431 71.8125 42 70.4693 42 68.8125Z" fill="#F3F3DB" stroke="#231F20"/>
<path d="M68.6765 33.5738C67.0597 31.9806 67.2329 24.9724 67.2329 24.9724L70.5819 26.0812L73.7577 29.257L76.2983 31.7976C77.5686 33.0679 77.57 33.3588 76.7602 34.3705C76.7602 34.3705 70.2932 35.1671 68.6765 33.5738Z" fill="#FF93FB" stroke="#231F20" stroke-linecap="round" stroke-linejoin="round"/>
<path d="M42 59.1093H77.5687V68.8124C77.5687 70.4693 76.2256 71.8124 74.5687 71.8124H45C43.3431 71.8124 42 70.4693 42 68.8124V59.1093Z" fill="#FF93FB" stroke="#231F20"/>
<path d="M61.016 62.416L59.456 68H58.136L57.088 64.024L55.992 68L54.68 68.008L53.176 62.416H54.376L55.36 66.752L56.496 62.416H57.744L58.816 66.728L59.808 62.416H61.016ZM66.0193 64.144C66.0193 64.4427 65.9473 64.7227 65.8033 64.984C65.6646 65.2453 65.4433 65.456 65.1393 65.616C64.8406 65.776 64.462 65.856 64.0033 65.856H63.0673V68H61.9473V62.416H64.0033C64.4353 62.416 64.8033 62.4907 65.1073 62.64C65.4113 62.7893 65.638 62.9947 65.7873 63.256C65.942 63.5173 66.0193 63.8133 66.0193 64.144ZM63.9553 64.952C64.2646 64.952 64.494 64.8827 64.6433 64.744C64.7926 64.6 64.8673 64.4 64.8673 64.144C64.8673 63.6 64.5633 63.328 63.9553 63.328H63.0673V64.952H63.9553Z" fill="#231F20"/>
<path d="M50.079 47.076L48.553 45.508L50.079 43.94H51.311L49.785 45.508L51.311 47.076H50.079ZM55.3709 41.371L53.4809 49.267H52.5219L54.4119 41.371H55.3709ZM61.7012 44.122L60.5672 48H59.5102L58.8032 45.291L58.0962 48H57.0322L55.8912 44.122H56.8852L57.5712 47.076L58.3132 44.122H59.3492L60.0772 47.069L60.7632 44.122H61.7012ZM63.3864 44.682C63.5124 44.5047 63.6851 44.3577 63.9044 44.241C64.1284 44.1197 64.3828 44.059 64.6674 44.059C64.9988 44.059 65.2974 44.1407 65.5634 44.304C65.8341 44.4673 66.0464 44.7007 66.2004 45.004C66.3591 45.3027 66.4384 45.6503 66.4384 46.047C66.4384 46.4437 66.3591 46.796 66.2004 47.104C66.0464 47.4073 65.8341 47.643 65.5634 47.811C65.2974 47.979 64.9988 48.063 64.6674 48.063C64.3828 48.063 64.1308 48.0047 63.9114 47.888C63.6968 47.7713 63.5218 47.6243 63.3864 47.447V49.848H62.4064V44.122H63.3864V44.682ZM65.4374 46.047C65.4374 45.8137 65.3884 45.613 65.2904 45.445C65.1971 45.2723 65.0711 45.1417 64.9124 45.053C64.7584 44.9643 64.5904 44.92 64.4084 44.92C64.2311 44.92 64.0631 44.9667 63.9044 45.06C63.7504 45.1487 63.6244 45.2793 63.5264 45.452C63.4331 45.6247 63.3864 45.8277 63.3864 46.061C63.3864 46.2943 63.4331 46.4973 63.5264 46.67C63.6244 46.8427 63.7504 46.9757 63.9044 47.069C64.0631 47.1577 64.2311 47.202 64.4084 47.202C64.5904 47.202 64.7584 47.1553 64.9124 47.062C65.0711 46.9687 65.1971 46.8357 65.2904 46.663C65.3884 46.4903 65.4374 46.285 65.4374 46.047ZM67.4656 43.94H68.7046L70.2306 45.508L68.7046 47.076H67.4656L68.9986 45.508L67.4656 43.94Z" fill="#231F20"/>
</svg>
