<svg width="2205" height="1663" viewBox="0 0 2205 1663" fill="none" xmlns="http://www.w3.org/2000/svg">
<g opacity="0.2">
<path fill-rule="evenodd" clip-rule="evenodd" d="M244.869 174.034H234.639V163.801C234.639 161.701 232.935 160 230.835 160C228.738 160 227.037 161.701 227.037 163.801V174.034H216.804C214.701 174.034 213 175.735 213 177.835C213 179.935 214.701 181.636 216.804 181.636H227.037V191.869C227.037 193.969 228.738 195.67 230.835 195.67C232.935 195.67 234.639 193.969 234.639 191.869V181.636H244.869C246.969 181.636 248.673 179.935 248.673 177.835C248.673 175.735 246.969 174.034 244.869 174.034" fill="#4A90E2"/>
<path fill-rule="evenodd" clip-rule="evenodd" d="M1685.42 35.1746H1660.07V9.81657C1660.07 4.61264 1655.85 0.397461 1650.65 0.397461C1645.45 0.397461 1641.24 4.61264 1641.24 9.81657V35.1746H1615.88C1610.67 35.1746 1606.45 39.3897 1606.45 44.5937C1606.45 49.7976 1610.67 54.0128 1615.88 54.0128H1641.24V79.3708C1641.24 84.5747 1645.45 88.7899 1650.65 88.7899C1655.85 88.7899 1660.07 84.5747 1660.07 79.3708V54.0128H1685.42C1690.63 54.0128 1694.85 49.7976 1694.85 44.5937C1694.85 39.3897 1690.63 35.1746 1685.42 35.1746" fill="#4A90E2"/>
<path fill-rule="evenodd" clip-rule="evenodd" d="M694.973 271.777H669.623V246.419C669.623 241.215 665.4 237 660.196 237C655 237 650.785 241.215 650.785 246.419V271.777H625.427C620.215 271.777 616 275.992 616 281.196C616 286.4 620.215 290.615 625.427 290.615H650.785V315.973C650.785 321.177 655 325.392 660.196 325.392C665.4 325.392 669.623 321.177 669.623 315.973V290.615H694.973C700.177 290.615 704.4 286.4 704.4 281.196C704.4 275.992 700.177 271.777 694.973 271.777" fill="#4A90E2"/>
<path fill-rule="evenodd" clip-rule="evenodd" d="M1172.41 803.918H1160.08V791.582C1160.08 789.051 1158.03 787 1155.5 787C1152.97 787 1150.92 789.051 1150.92 791.582V803.918H1138.59C1136.05 803.918 1134 805.968 1134 808.5C1134 811.032 1136.05 813.082 1138.59 813.082H1150.92V825.418C1150.92 827.949 1152.97 830 1155.5 830C1158.03 830 1160.08 827.949 1160.08 825.418V813.082H1172.41C1174.95 813.082 1177 811.032 1177 808.5C1177 805.968 1174.95 803.918 1172.41 803.918" fill="#4A90E2"/>
<path fill-rule="evenodd" clip-rule="evenodd" d="M177.123 1136.62H169.379V1128.88C169.379 1127.29 168.09 1126 166.5 1126C164.913 1126 163.625 1127.29 163.625 1128.88V1136.62H155.879C154.288 1136.62 153 1137.91 153 1139.5C153 1141.09 154.288 1142.38 155.879 1142.38H163.625V1150.12C163.625 1151.71 164.913 1153 166.5 1153C168.09 1153 169.379 1151.71 169.379 1150.12V1142.38H177.123C178.712 1142.38 180.002 1141.09 180.002 1139.5C180.002 1137.91 178.712 1136.62 177.123 1136.62" fill="#4A90E2"/>
<path fill-rule="evenodd" clip-rule="evenodd" d="M2204.4 690.7C2204.4 695.504 2200.5 699.398 2195.7 699.398C2190.9 699.398 2187 695.504 2187 690.7C2187 685.896 2190.9 682.001 2195.7 682.001C2200.5 682.001 2204.4 685.896 2204.4 690.7" fill="#4A90E2"/>
<path fill-rule="evenodd" clip-rule="evenodd" d="M777.913 89.7721C777.913 95.4001 773.35 99.9631 767.722 99.9631C762.094 99.9631 757.528 95.4001 757.528 89.7721C757.528 84.1441 762.094 79.5811 767.722 79.5811C773.35 79.5811 777.913 84.1441 777.913 89.7721" fill="#4A90E2"/>
<path fill-rule="evenodd" clip-rule="evenodd" d="M1177 699C1177 727.165 1154.17 750 1126.01 750C1097.85 750 1075 727.165 1075 699C1075 670.835 1097.85 648 1126.01 648C1154.17 648 1177 670.835 1177 699" fill="#4A90E2"/>
<path fill-rule="evenodd" clip-rule="evenodd" d="M1967.59 1115.81C1967.59 1121.44 1963.02 1126 1957.4 1126C1951.77 1126 1947.2 1121.44 1947.2 1115.81C1947.2 1110.18 1951.77 1105.62 1957.4 1105.62C1963.02 1105.62 1967.59 1110.18 1967.59 1115.81" fill="#4A90E2"/>
<path fill-rule="evenodd" clip-rule="evenodd" d="M659.999 1658.5C659.999 1660.98 657.984 1662.99 655.5 1662.99C653.015 1662.99 650.999 1660.98 650.999 1658.5C650.999 1656.01 653.015 1654 655.5 1654C657.984 1654 659.999 1656.01 659.999 1658.5" fill="#4A90E2"/>
</g>
<path fill-rule="evenodd" clip-rule="evenodd" d="M342.786 620H342.795C351.68 620 359.989 623.136 366.19 628.827C370.973 633.212 377.329 635.623 384.098 635.623V635.623C390.867 635.623 397.232 633.212 402.015 628.827C408.225 623.136 416.542 620 425.427 620H425.445C434.33 620 442.639 623.136 448.84 628.827C450.216 630.097 450.113 632.064 448.582 633.212C447.068 634.353 444.712 634.267 443.335 633.004C438.562 628.619 432.205 626.208 425.445 626.208H425.427C418.667 626.208 412.302 628.619 407.511 633.004C401.301 638.695 392.983 641.824 384.098 641.824V641.824C375.204 641.824 366.896 638.695 360.686 633.004C355.912 628.619 349.564 626.208 342.795 626.208H342.786C336.017 626.208 329.652 628.619 324.861 633.004C318.651 638.695 310.342 641.824 301.448 641.824H301.44C292.555 641.824 284.237 638.695 278.027 633.004C268.454 624.234 251.759 624.234 242.168 633.004C235.967 638.695 227.641 641.824 218.747 641.824V641.824C209.853 641.824 201.527 638.695 195.317 633.004C190.543 628.619 184.178 626.208 177.401 626.208H177.392C170.623 626.208 164.258 628.619 159.467 633.004C158.073 634.267 155.725 634.367 154.211 633.205C152.698 632.056 152.586 630.09 153.971 628.827C160.189 623.136 168.507 620 177.392 620H177.401C186.294 620 194.612 623.136 200.83 628.827C205.604 633.212 211.969 635.623 218.747 635.623V635.623C225.525 635.623 231.89 633.212 236.681 628.827C249.101 617.452 271.103 617.452 283.523 628.827C288.314 633.212 294.671 635.623 301.44 635.623H301.448C308.218 635.623 314.574 633.212 319.373 628.827C325.584 623.136 333.892 620 342.786 620" fill="#DBE9F9"/>
<path fill-rule="evenodd" clip-rule="evenodd" d="M342.786 670.765H342.795C351.68 670.765 359.989 673.901 366.19 679.592C370.973 683.977 377.329 686.388 384.098 686.388V686.388C390.867 686.388 397.232 683.977 402.015 679.592C408.225 673.901 416.542 670.765 425.427 670.765H425.445C434.33 670.765 442.639 673.901 448.84 679.592C450.216 680.862 450.113 682.829 448.582 683.977C447.068 685.118 444.712 685.032 443.335 683.769C438.562 679.384 432.205 676.973 425.445 676.973H425.427C418.667 676.973 412.302 679.384 407.511 683.769C401.301 689.46 392.983 692.589 384.098 692.589V692.589C375.204 692.589 366.896 689.46 360.686 683.769C355.912 679.384 349.564 676.973 342.795 676.973H342.786C336.017 676.973 329.652 679.384 324.861 683.769C318.651 689.46 310.342 692.589 301.448 692.589H301.44C292.555 692.589 284.237 689.46 278.027 683.769C268.454 674.999 251.759 674.999 242.168 683.769C235.967 689.46 227.641 692.589 218.747 692.589V692.589C209.853 692.589 201.527 689.46 195.317 683.769C190.543 679.384 184.178 676.973 177.401 676.973H177.392C170.623 676.973 164.258 679.384 159.467 683.769C158.073 685.032 155.725 685.132 154.211 683.97C152.698 682.822 152.586 680.855 153.971 679.592C160.189 673.901 168.507 670.765 177.392 670.765H177.401C186.294 670.765 194.612 673.901 200.83 679.592C205.604 683.977 211.969 686.388 218.747 686.388V686.388C225.525 686.388 231.89 683.977 236.681 679.592C249.101 668.218 271.103 668.218 283.523 679.592C288.314 683.977 294.671 686.388 301.44 686.388H301.448C308.218 686.388 314.574 683.977 319.373 679.592C325.584 673.901 333.892 670.765 342.786 670.765" fill="#DBE9F9"/>
<path fill-rule="evenodd" clip-rule="evenodd" d="M342.786 721.347H342.795C351.68 721.347 359.989 724.483 366.19 730.174C370.973 734.558 377.329 736.97 384.098 736.97V736.97C390.867 736.97 397.232 734.558 402.015 730.174C408.225 724.483 416.542 721.347 425.427 721.347H425.445C434.33 721.347 442.639 724.483 448.84 730.174C450.216 731.444 450.113 733.41 448.582 734.558C447.068 735.7 444.712 735.613 443.335 734.35C438.562 729.966 432.205 727.554 425.445 727.554H425.427C418.667 727.554 412.302 729.966 407.511 734.35C401.301 740.041 392.983 743.17 384.098 743.17V743.17C375.204 743.17 366.896 740.041 360.686 734.35C355.912 729.966 349.564 727.554 342.795 727.554H342.786C336.017 727.554 329.652 729.966 324.861 734.35C318.651 740.041 310.342 743.17 301.448 743.17H301.44C292.555 743.17 284.237 740.041 278.027 734.35C268.454 725.581 251.759 725.581 242.168 734.35C235.967 740.041 227.641 743.17 218.747 743.17V743.17C209.853 743.17 201.527 740.041 195.317 734.35C190.543 729.966 184.178 727.554 177.401 727.554H177.392C170.623 727.554 164.258 729.966 159.467 734.35C158.073 735.613 155.725 735.714 154.211 734.551C152.698 733.403 152.586 731.437 153.971 730.174C160.189 724.483 168.507 721.347 177.392 721.347H177.401C186.294 721.347 194.612 724.483 200.83 730.174C205.604 734.558 211.969 736.97 218.747 736.97V736.97C225.525 736.97 231.89 734.558 236.681 730.174C249.101 718.799 271.103 718.799 283.523 730.174C288.314 734.558 294.671 736.97 301.44 736.97H301.448C308.218 736.97 314.574 734.558 319.373 730.174C325.584 724.483 333.892 721.347 342.786 721.347" fill="#DBE9F9"/>
</svg>
