<svg width="2146" height="1610" viewBox="0 0 2146 1610" fill="none" xmlns="http://www.w3.org/2000/svg">
<g clip-path="url(#clip0)">
<g opacity="0.456808">
<path fill-rule="evenodd" clip-rule="evenodd" d="M1794.21 109.431C1796.82 109.431 1798.95 107.307 1798.95 104.695C1798.95 102.076 1796.82 99.9585 1794.21 99.9585C1791.6 99.9585 1789.47 102.076 1789.47 104.695C1789.47 107.307 1791.6 109.431 1794.21 109.431Z" fill="#4A90E2"/>
<path fill-rule="evenodd" clip-rule="evenodd" d="M1841.65 109.431C1844.27 109.431 1846.39 107.307 1846.39 104.695C1846.39 102.076 1844.27 99.9585 1841.65 99.9585C1839.04 99.9585 1836.92 102.076 1836.92 104.695C1836.92 107.307 1839.04 109.431 1841.65 109.431Z" fill="#4A90E2"/>
<path fill-rule="evenodd" clip-rule="evenodd" d="M1889.09 109.431C1891.7 109.431 1893.83 107.307 1893.83 104.695C1893.83 102.076 1891.7 99.9585 1889.09 99.9585C1886.48 99.9585 1884.36 102.076 1884.36 104.695C1884.36 107.307 1886.48 109.431 1889.09 109.431Z" fill="#4A90E2"/>
<path fill-rule="evenodd" clip-rule="evenodd" d="M1936.53 109.431C1939.14 109.431 1941.27 107.307 1941.27 104.695C1941.27 102.076 1939.14 99.9585 1936.53 99.9585C1933.93 99.9585 1931.79 102.076 1931.79 104.695C1931.79 107.307 1933.93 109.431 1936.53 109.431Z" fill="#4A90E2"/>
<path fill-rule="evenodd" clip-rule="evenodd" d="M1983.98 109.431C1986.58 109.431 1988.71 107.307 1988.71 104.695C1988.71 102.076 1986.58 99.9585 1983.98 99.9585C1981.36 99.9585 1979.23 102.076 1979.23 104.695C1979.23 107.307 1981.36 109.431 1983.98 109.431Z" fill="#4A90E2"/>
<path fill-rule="evenodd" clip-rule="evenodd" d="M2031.41 109.431C2034.03 109.431 2036.15 107.307 2036.15 104.695C2036.15 102.076 2034.03 99.9585 2031.41 99.9585C2028.8 99.9585 2026.68 102.076 2026.68 104.695C2026.68 107.307 2028.8 109.431 2031.41 109.431Z" fill="#4A90E2"/>
<path fill-rule="evenodd" clip-rule="evenodd" d="M1794.21 156.863C1796.82 156.863 1798.95 154.746 1798.95 152.127C1798.95 149.515 1796.82 147.39 1794.21 147.39C1791.6 147.39 1789.47 149.515 1789.47 152.127C1789.47 154.746 1791.6 156.863 1794.21 156.863Z" fill="#4A90E2"/>
<path fill-rule="evenodd" clip-rule="evenodd" d="M1841.65 156.863C1844.27 156.863 1846.39 154.746 1846.39 152.127C1846.39 149.515 1844.27 147.39 1841.65 147.39C1839.04 147.39 1836.92 149.515 1836.92 152.127C1836.92 154.746 1839.04 156.863 1841.65 156.863Z" fill="#4A90E2"/>
<path fill-rule="evenodd" clip-rule="evenodd" d="M1889.09 156.863C1891.7 156.863 1893.83 154.746 1893.83 152.127C1893.83 149.515 1891.7 147.39 1889.09 147.39C1886.48 147.39 1884.36 149.515 1884.36 152.127C1884.36 154.746 1886.48 156.863 1889.09 156.863Z" fill="#4A90E2"/>
<path fill-rule="evenodd" clip-rule="evenodd" d="M1936.53 156.863C1939.14 156.863 1941.27 154.746 1941.27 152.127C1941.27 149.515 1939.14 147.39 1936.53 147.39C1933.93 147.39 1931.79 149.515 1931.79 152.127C1931.79 154.746 1933.93 156.863 1936.53 156.863Z" fill="#4A90E2"/>
<path fill-rule="evenodd" clip-rule="evenodd" d="M1983.98 156.863C1986.58 156.863 1988.71 154.746 1988.71 152.127C1988.71 149.515 1986.58 147.39 1983.98 147.39C1981.36 147.39 1979.23 149.515 1979.23 152.127C1979.23 154.746 1981.36 156.863 1983.98 156.863Z" fill="#4A90E2"/>
<path fill-rule="evenodd" clip-rule="evenodd" d="M2031.41 156.863C2034.03 156.863 2036.15 154.746 2036.15 152.127C2036.15 149.515 2034.03 147.39 2031.41 147.39C2028.8 147.39 2026.68 149.515 2026.68 152.127C2026.68 154.746 2028.8 156.863 2031.41 156.863Z" fill="#4A90E2"/>
<path fill-rule="evenodd" clip-rule="evenodd" d="M1794.21 204.309C1796.82 204.309 1798.95 202.192 1798.95 199.572C1798.95 196.953 1796.82 194.836 1794.21 194.836C1791.6 194.836 1789.47 196.953 1789.47 199.572C1789.47 202.192 1791.6 204.309 1794.21 204.309Z" fill="#4A90E2"/>
<path fill-rule="evenodd" clip-rule="evenodd" d="M1841.65 204.309C1844.27 204.309 1846.39 202.192 1846.39 199.572C1846.39 196.953 1844.27 194.836 1841.65 194.836C1839.04 194.836 1836.92 196.953 1836.92 199.572C1836.92 202.192 1839.04 204.309 1841.65 204.309Z" fill="#4A90E2"/>
<path fill-rule="evenodd" clip-rule="evenodd" d="M1889.09 204.309C1891.7 204.309 1893.83 202.192 1893.83 199.572C1893.83 196.953 1891.7 194.836 1889.09 194.836C1886.48 194.836 1884.36 196.953 1884.36 199.572C1884.36 202.192 1886.48 204.309 1889.09 204.309Z" fill="#4A90E2"/>
<path fill-rule="evenodd" clip-rule="evenodd" d="M1936.53 204.309C1939.14 204.309 1941.27 202.192 1941.27 199.572C1941.27 196.953 1939.14 194.836 1936.53 194.836C1933.93 194.836 1931.79 196.953 1931.79 199.572C1931.79 202.192 1933.93 204.309 1936.53 204.309Z" fill="#4A90E2"/>
<path fill-rule="evenodd" clip-rule="evenodd" d="M1983.98 204.309C1986.58 204.309 1988.71 202.192 1988.71 199.572C1988.71 196.953 1986.58 194.836 1983.98 194.836C1981.36 194.836 1979.23 196.953 1979.23 199.572C1979.23 202.192 1981.36 204.309 1983.98 204.309Z" fill="#4A90E2"/>
<path fill-rule="evenodd" clip-rule="evenodd" d="M2031.41 204.309C2034.03 204.309 2036.15 202.192 2036.15 199.572C2036.15 196.953 2034.03 194.836 2031.41 194.836C2028.8 194.836 2026.68 196.953 2026.68 199.572C2026.68 202.192 2028.8 204.309 2031.41 204.309Z" fill="#4A90E2"/>
<path fill-rule="evenodd" clip-rule="evenodd" d="M1794.21 251.748C1796.82 251.748 1798.95 249.624 1798.95 247.011C1798.95 244.399 1796.82 242.282 1794.21 242.282C1791.6 242.282 1789.47 244.399 1789.47 247.011C1789.47 249.624 1791.6 251.748 1794.21 251.748Z" fill="#4A90E2"/>
<path fill-rule="evenodd" clip-rule="evenodd" d="M1841.65 251.748C1844.27 251.748 1846.39 249.624 1846.39 247.011C1846.39 244.399 1844.27 242.282 1841.65 242.282C1839.04 242.282 1836.92 244.399 1836.92 247.011C1836.92 249.624 1839.04 251.748 1841.65 251.748Z" fill="#4A90E2"/>
<path fill-rule="evenodd" clip-rule="evenodd" d="M1889.09 251.748C1891.7 251.748 1893.83 249.624 1893.83 247.011C1893.83 244.399 1891.7 242.282 1889.09 242.282C1886.48 242.282 1884.36 244.399 1884.36 247.011C1884.36 249.624 1886.48 251.748 1889.09 251.748Z" fill="#4A90E2"/>
<path fill-rule="evenodd" clip-rule="evenodd" d="M1936.53 251.748C1939.14 251.748 1941.27 249.624 1941.27 247.011C1941.27 244.399 1939.14 242.282 1936.53 242.282C1933.93 242.282 1931.79 244.399 1931.79 247.011C1931.79 249.624 1933.93 251.748 1936.53 251.748Z" fill="#4A90E2"/>
<path fill-rule="evenodd" clip-rule="evenodd" d="M1983.98 251.748C1986.58 251.748 1988.71 249.624 1988.71 247.011C1988.71 244.399 1986.58 242.282 1983.98 242.282C1981.36 242.282 1979.23 244.399 1979.23 247.011C1979.23 249.624 1981.36 251.748 1983.98 251.748Z" fill="#4A90E2"/>
<path fill-rule="evenodd" clip-rule="evenodd" d="M2031.41 251.748C2034.03 251.748 2036.15 249.624 2036.15 247.011C2036.15 244.399 2034.03 242.282 2031.41 242.282C2028.8 242.282 2026.68 244.399 2026.68 247.011C2026.68 249.624 2028.8 251.748 2031.41 251.748Z" fill="#4A90E2"/>
<path fill-rule="evenodd" clip-rule="evenodd" d="M1794.21 299.186C1796.82 299.186 1798.95 297.069 1798.95 294.45C1798.95 291.838 1796.82 289.713 1794.21 289.713C1791.6 289.713 1789.47 291.838 1789.47 294.45C1789.47 297.069 1791.6 299.186 1794.21 299.186Z" fill="#4A90E2"/>
<path fill-rule="evenodd" clip-rule="evenodd" d="M1841.65 299.186C1844.27 299.186 1846.39 297.069 1846.39 294.45C1846.39 291.838 1844.27 289.713 1841.65 289.713C1839.04 289.713 1836.92 291.838 1836.92 294.45C1836.92 297.069 1839.04 299.186 1841.65 299.186Z" fill="#4A90E2"/>
<path fill-rule="evenodd" clip-rule="evenodd" d="M1889.09 299.186C1891.7 299.186 1893.83 297.069 1893.83 294.45C1893.83 291.838 1891.7 289.713 1889.09 289.713C1886.48 289.713 1884.36 291.838 1884.36 294.45C1884.36 297.069 1886.48 299.186 1889.09 299.186Z" fill="#4A90E2"/>
<path fill-rule="evenodd" clip-rule="evenodd" d="M1936.53 299.186C1939.14 299.186 1941.27 297.069 1941.27 294.45C1941.27 291.838 1939.14 289.713 1936.53 289.713C1933.93 289.713 1931.79 291.838 1931.79 294.45C1931.79 297.069 1933.93 299.186 1936.53 299.186Z" fill="#4A90E2"/>
<path fill-rule="evenodd" clip-rule="evenodd" d="M1983.98 299.186C1986.58 299.186 1988.71 297.069 1988.71 294.45C1988.71 291.838 1986.58 289.713 1983.98 289.713C1981.36 289.713 1979.23 291.838 1979.23 294.45C1979.23 297.069 1981.36 299.186 1983.98 299.186Z" fill="#4A90E2"/>
<path fill-rule="evenodd" clip-rule="evenodd" d="M2031.41 299.186C2034.03 299.186 2036.15 297.069 2036.15 294.45C2036.15 291.838 2034.03 289.713 2031.41 289.713C2028.8 289.713 2026.68 291.838 2026.68 294.45C2026.68 297.069 2028.8 299.186 2031.41 299.186Z" fill="#4A90E2"/>
<path fill-rule="evenodd" clip-rule="evenodd" d="M1794.21 346.632C1796.82 346.632 1798.95 344.515 1798.95 341.895C1798.95 339.276 1796.82 337.159 1794.21 337.159C1791.6 337.159 1789.47 339.276 1789.47 341.895C1789.47 344.515 1791.6 346.632 1794.21 346.632Z" fill="#4A90E2"/>
<path fill-rule="evenodd" clip-rule="evenodd" d="M1841.65 346.632C1844.27 346.632 1846.39 344.515 1846.39 341.895C1846.39 339.276 1844.27 337.159 1841.65 337.159C1839.04 337.159 1836.92 339.276 1836.92 341.895C1836.92 344.515 1839.04 346.632 1841.65 346.632Z" fill="#4A90E2"/>
<path fill-rule="evenodd" clip-rule="evenodd" d="M1889.09 346.632C1891.7 346.632 1893.83 344.515 1893.83 341.895C1893.83 339.276 1891.7 337.159 1889.09 337.159C1886.48 337.159 1884.36 339.276 1884.36 341.895C1884.36 344.515 1886.48 346.632 1889.09 346.632Z" fill="#4A90E2"/>
<path fill-rule="evenodd" clip-rule="evenodd" d="M1936.53 346.632C1939.14 346.632 1941.27 344.515 1941.27 341.895C1941.27 339.276 1939.14 337.159 1936.53 337.159C1933.93 337.159 1931.79 339.276 1931.79 341.895C1931.79 344.515 1933.93 346.632 1936.53 346.632Z" fill="#4A90E2"/>
<path fill-rule="evenodd" clip-rule="evenodd" d="M1983.98 346.632C1986.58 346.632 1988.71 344.515 1988.71 341.895C1988.71 339.276 1986.58 337.159 1983.98 337.159C1981.36 337.159 1979.23 339.276 1979.23 341.895C1979.23 344.515 1981.36 346.632 1983.98 346.632Z" fill="#4A90E2"/>
<path fill-rule="evenodd" clip-rule="evenodd" d="M2031.41 346.632C2034.03 346.632 2036.15 344.515 2036.15 341.895C2036.15 339.276 2034.03 337.159 2031.41 337.159C2028.8 337.159 2026.68 339.276 2026.68 341.895C2026.68 344.515 2028.8 346.632 2031.41 346.632Z" fill="#4A90E2"/>
<path fill-rule="evenodd" clip-rule="evenodd" d="M1794.21 394.071C1796.82 394.071 1798.95 391.947 1798.95 389.334C1798.95 386.722 1796.82 384.598 1794.21 384.598C1791.6 384.598 1789.47 386.722 1789.47 389.334C1789.47 391.947 1791.6 394.071 1794.21 394.071Z" fill="#4A90E2"/>
<path fill-rule="evenodd" clip-rule="evenodd" d="M1841.65 394.071C1844.27 394.071 1846.39 391.947 1846.39 389.334C1846.39 386.722 1844.27 384.598 1841.65 384.598C1839.04 384.598 1836.92 386.722 1836.92 389.334C1836.92 391.947 1839.04 394.071 1841.65 394.071Z" fill="#4A90E2"/>
<path fill-rule="evenodd" clip-rule="evenodd" d="M1889.09 394.071C1891.7 394.071 1893.83 391.947 1893.83 389.334C1893.83 386.722 1891.7 384.598 1889.09 384.598C1886.48 384.598 1884.36 386.722 1884.36 389.334C1884.36 391.947 1886.48 394.071 1889.09 394.071Z" fill="#4A90E2"/>
<path fill-rule="evenodd" clip-rule="evenodd" d="M1936.53 394.071C1939.14 394.071 1941.27 391.947 1941.27 389.334C1941.27 386.722 1939.14 384.598 1936.53 384.598C1933.93 384.598 1931.79 386.722 1931.79 389.334C1931.79 391.947 1933.93 394.071 1936.53 394.071Z" fill="#4A90E2"/>
<path fill-rule="evenodd" clip-rule="evenodd" d="M1983.98 394.071C1986.58 394.071 1988.71 391.947 1988.71 389.334C1988.71 386.722 1986.58 384.598 1983.98 384.598C1981.36 384.598 1979.23 386.722 1979.23 389.334C1979.23 391.947 1981.36 394.071 1983.98 394.071Z" fill="#4A90E2"/>
<path fill-rule="evenodd" clip-rule="evenodd" d="M2031.41 394.071C2034.03 394.071 2036.15 391.947 2036.15 389.334C2036.15 386.722 2034.03 384.598 2031.41 384.598C2028.8 384.598 2026.68 386.722 2026.68 389.334C2026.68 391.947 2028.8 394.071 2031.41 394.071Z" fill="#4A90E2"/>
<path fill-rule="evenodd" clip-rule="evenodd" d="M1794.21 441.509C1796.82 441.509 1798.95 439.392 1798.95 436.773C1798.95 434.153 1796.82 432.036 1794.21 432.036C1791.6 432.036 1789.47 434.153 1789.47 436.773C1789.47 439.392 1791.6 441.509 1794.21 441.509Z" fill="#4A90E2"/>
<path fill-rule="evenodd" clip-rule="evenodd" d="M1841.65 441.509C1844.27 441.509 1846.39 439.392 1846.39 436.773C1846.39 434.153 1844.27 432.036 1841.65 432.036C1839.04 432.036 1836.92 434.153 1836.92 436.773C1836.92 439.392 1839.04 441.509 1841.65 441.509Z" fill="#4A90E2"/>
<path fill-rule="evenodd" clip-rule="evenodd" d="M1889.09 441.509C1891.7 441.509 1893.83 439.392 1893.83 436.773C1893.83 434.153 1891.7 432.036 1889.09 432.036C1886.48 432.036 1884.36 434.153 1884.36 436.773C1884.36 439.392 1886.48 441.509 1889.09 441.509Z" fill="#4A90E2"/>
<path fill-rule="evenodd" clip-rule="evenodd" d="M1936.53 441.509C1939.14 441.509 1941.27 439.392 1941.27 436.773C1941.27 434.153 1939.14 432.036 1936.53 432.036C1933.93 432.036 1931.79 434.153 1931.79 436.773C1931.79 439.392 1933.93 441.509 1936.53 441.509Z" fill="#4A90E2"/>
<path fill-rule="evenodd" clip-rule="evenodd" d="M1983.98 441.509C1986.58 441.509 1988.71 439.392 1988.71 436.773C1988.71 434.153 1986.58 432.036 1983.98 432.036C1981.36 432.036 1979.23 434.153 1979.23 436.773C1979.23 439.392 1981.36 441.509 1983.98 441.509Z" fill="#4A90E2"/>
<path fill-rule="evenodd" clip-rule="evenodd" d="M2031.41 441.509C2034.03 441.509 2036.15 439.392 2036.15 436.773C2036.15 434.153 2034.03 432.036 2031.41 432.036C2028.8 432.036 2026.68 434.153 2026.68 436.773C2026.68 439.392 2028.8 441.509 2031.41 441.509Z" fill="#4A90E2"/>
<path fill-rule="evenodd" clip-rule="evenodd" d="M1794.21 488.956C1796.82 488.956 1798.95 486.831 1798.95 484.219C1798.95 481.6 1796.82 479.483 1794.21 479.483C1791.6 479.483 1789.47 481.6 1789.47 484.219C1789.47 486.831 1791.6 488.956 1794.21 488.956Z" fill="#4A90E2"/>
<path fill-rule="evenodd" clip-rule="evenodd" d="M1841.65 488.956C1844.27 488.956 1846.39 486.831 1846.39 484.219C1846.39 481.6 1844.27 479.483 1841.65 479.483C1839.04 479.483 1836.92 481.6 1836.92 484.219C1836.92 486.831 1839.04 488.956 1841.65 488.956Z" fill="#4A90E2"/>
<path fill-rule="evenodd" clip-rule="evenodd" d="M1889.09 488.956C1891.7 488.956 1893.83 486.831 1893.83 484.219C1893.83 481.6 1891.7 479.483 1889.09 479.483C1886.48 479.483 1884.36 481.6 1884.36 484.219C1884.36 486.831 1886.48 488.956 1889.09 488.956Z" fill="#4A90E2"/>
<path fill-rule="evenodd" clip-rule="evenodd" d="M1936.53 488.956C1939.14 488.956 1941.27 486.831 1941.27 484.219C1941.27 481.6 1939.14 479.483 1936.53 479.483C1933.93 479.483 1931.79 481.6 1931.79 484.219C1931.79 486.831 1933.93 488.956 1936.53 488.956Z" fill="#4A90E2"/>
<path fill-rule="evenodd" clip-rule="evenodd" d="M1983.98 488.956C1986.58 488.956 1988.71 486.831 1988.71 484.219C1988.71 481.6 1986.58 479.483 1983.98 479.483C1981.36 479.483 1979.23 481.6 1979.23 484.219C1979.23 486.831 1981.36 488.956 1983.98 488.956Z" fill="#4A90E2"/>
<path fill-rule="evenodd" clip-rule="evenodd" d="M2031.41 488.956C2034.03 488.956 2036.15 486.831 2036.15 484.219C2036.15 481.6 2034.03 479.483 2031.41 479.483C2028.8 479.483 2026.68 481.6 2026.68 484.219C2026.68 486.831 2028.8 488.956 2031.41 488.956Z" fill="#4A90E2"/>
<path fill-rule="evenodd" clip-rule="evenodd" d="M1794.21 536.387C1796.82 536.387 1798.95 534.27 1798.95 531.651C1798.95 529.046 1796.82 526.915 1794.21 526.915C1791.6 526.915 1789.47 529.046 1789.47 531.651C1789.47 534.27 1791.6 536.387 1794.21 536.387Z" fill="#4A90E2"/>
<path fill-rule="evenodd" clip-rule="evenodd" d="M1841.65 536.387C1844.27 536.387 1846.39 534.27 1846.39 531.651C1846.39 529.046 1844.27 526.915 1841.65 526.915C1839.04 526.915 1836.92 529.046 1836.92 531.651C1836.92 534.27 1839.04 536.387 1841.65 536.387Z" fill="#4A90E2"/>
<path fill-rule="evenodd" clip-rule="evenodd" d="M1889.09 536.387C1891.7 536.387 1893.83 534.27 1893.83 531.651C1893.83 529.046 1891.7 526.915 1889.09 526.915C1886.48 526.915 1884.36 529.046 1884.36 531.651C1884.36 534.27 1886.48 536.387 1889.09 536.387Z" fill="#4A90E2"/>
<path fill-rule="evenodd" clip-rule="evenodd" d="M1936.53 536.387C1939.14 536.387 1941.27 534.27 1941.27 531.651C1941.27 529.046 1939.14 526.915 1936.53 526.915C1933.93 526.915 1931.79 529.046 1931.79 531.651C1931.79 534.27 1933.93 536.387 1936.53 536.387Z" fill="#4A90E2"/>
<path fill-rule="evenodd" clip-rule="evenodd" d="M1983.98 536.387C1986.58 536.387 1988.71 534.27 1988.71 531.651C1988.71 529.046 1986.58 526.915 1983.98 526.915C1981.36 526.915 1979.23 529.046 1979.23 531.651C1979.23 534.27 1981.36 536.387 1983.98 536.387Z" fill="#4A90E2"/>
<path fill-rule="evenodd" clip-rule="evenodd" d="M2031.41 536.387C2034.03 536.387 2036.15 534.27 2036.15 531.651C2036.15 529.046 2034.03 526.915 2031.41 526.915C2028.8 526.915 2026.68 529.046 2026.68 531.651C2026.68 534.27 2028.8 536.387 2031.41 536.387Z" fill="#4A90E2"/>
<path fill-rule="evenodd" clip-rule="evenodd" d="M1794.21 583.833C1796.82 583.833 1798.95 581.716 1798.95 579.096C1798.95 576.477 1796.82 574.36 1794.21 574.36C1791.6 574.36 1789.47 576.477 1789.47 579.096C1789.47 581.716 1791.6 583.833 1794.21 583.833Z" fill="#4A90E2"/>
<path fill-rule="evenodd" clip-rule="evenodd" d="M1841.65 583.833C1844.27 583.833 1846.39 581.716 1846.39 579.096C1846.39 576.477 1844.27 574.36 1841.65 574.36C1839.04 574.36 1836.92 576.477 1836.92 579.096C1836.92 581.716 1839.04 583.833 1841.65 583.833Z" fill="#4A90E2"/>
<path fill-rule="evenodd" clip-rule="evenodd" d="M1889.09 583.833C1891.7 583.833 1893.83 581.716 1893.83 579.096C1893.83 576.477 1891.7 574.36 1889.09 574.36C1886.48 574.36 1884.36 576.477 1884.36 579.096C1884.36 581.716 1886.48 583.833 1889.09 583.833Z" fill="#4A90E2"/>
<path fill-rule="evenodd" clip-rule="evenodd" d="M1936.53 583.833C1939.14 583.833 1941.27 581.716 1941.27 579.096C1941.27 576.477 1939.14 574.36 1936.53 574.36C1933.93 574.36 1931.79 576.477 1931.79 579.096C1931.79 581.716 1933.93 583.833 1936.53 583.833Z" fill="#4A90E2"/>
<path fill-rule="evenodd" clip-rule="evenodd" d="M1983.98 583.833C1986.58 583.833 1988.71 581.716 1988.71 579.096C1988.71 576.477 1986.58 574.36 1983.98 574.36C1981.36 574.36 1979.23 576.477 1979.23 579.096C1979.23 581.716 1981.36 583.833 1983.98 583.833Z" fill="#4A90E2"/>
<path fill-rule="evenodd" clip-rule="evenodd" d="M2031.41 583.833C2034.03 583.833 2036.15 581.716 2036.15 579.096C2036.15 576.477 2034.03 574.36 2031.41 574.36C2028.8 574.36 2026.68 576.477 2026.68 579.096C2026.68 581.716 2028.8 583.833 2031.41 583.833Z" fill="#4A90E2"/>
<path fill-rule="evenodd" clip-rule="evenodd" d="M1794.21 631.271C1796.82 631.271 1798.95 629.147 1798.95 626.542C1798.95 623.923 1796.82 621.806 1794.21 621.806C1791.6 621.806 1789.47 623.923 1789.47 626.542C1789.47 629.147 1791.6 631.271 1794.21 631.271Z" fill="#4A90E2"/>
<path fill-rule="evenodd" clip-rule="evenodd" d="M1841.65 631.271C1844.27 631.271 1846.39 629.147 1846.39 626.542C1846.39 623.923 1844.27 621.806 1841.65 621.806C1839.04 621.806 1836.92 623.923 1836.92 626.542C1836.92 629.147 1839.04 631.271 1841.65 631.271Z" fill="#4A90E2"/>
<path fill-rule="evenodd" clip-rule="evenodd" d="M1889.09 631.271C1891.7 631.271 1893.83 629.147 1893.83 626.542C1893.83 623.923 1891.7 621.806 1889.09 621.806C1886.48 621.806 1884.36 623.923 1884.36 626.542C1884.36 629.147 1886.48 631.271 1889.09 631.271Z" fill="#4A90E2"/>
<path fill-rule="evenodd" clip-rule="evenodd" d="M1936.53 631.271C1939.14 631.271 1941.27 629.147 1941.27 626.542C1941.27 623.923 1939.14 621.806 1936.53 621.806C1933.93 621.806 1931.79 623.923 1931.79 626.542C1931.79 629.147 1933.93 631.271 1936.53 631.271Z" fill="#4A90E2"/>
<path fill-rule="evenodd" clip-rule="evenodd" d="M1983.98 631.271C1986.58 631.271 1988.71 629.147 1988.71 626.542C1988.71 623.923 1986.58 621.806 1983.98 621.806C1981.36 621.806 1979.23 623.923 1979.23 626.542C1979.23 629.147 1981.36 631.271 1983.98 631.271Z" fill="#4A90E2"/>
<path fill-rule="evenodd" clip-rule="evenodd" d="M2031.41 631.271C2034.03 631.271 2036.15 629.147 2036.15 626.542C2036.15 623.923 2034.03 621.806 2031.41 621.806C2028.8 621.806 2026.68 623.923 2026.68 626.542C2026.68 629.147 2028.8 631.271 2031.41 631.271Z" fill="#4A90E2"/>
<path fill-rule="evenodd" clip-rule="evenodd" d="M1794.21 678.71C1796.82 678.71 1798.95 676.593 1798.95 673.974C1798.95 671.362 1796.82 669.237 1794.21 669.237C1791.6 669.237 1789.47 671.362 1789.47 673.974C1789.47 676.593 1791.6 678.71 1794.21 678.71Z" fill="#4A90E2"/>
<path fill-rule="evenodd" clip-rule="evenodd" d="M1841.65 678.71C1844.27 678.71 1846.39 676.593 1846.39 673.974C1846.39 671.362 1844.27 669.237 1841.65 669.237C1839.04 669.237 1836.92 671.362 1836.92 673.974C1836.92 676.593 1839.04 678.71 1841.65 678.71Z" fill="#4A90E2"/>
<path fill-rule="evenodd" clip-rule="evenodd" d="M1889.09 678.71C1891.7 678.71 1893.83 676.593 1893.83 673.974C1893.83 671.362 1891.7 669.237 1889.09 669.237C1886.48 669.237 1884.36 671.362 1884.36 673.974C1884.36 676.593 1886.48 678.71 1889.09 678.71Z" fill="#4A90E2"/>
<path fill-rule="evenodd" clip-rule="evenodd" d="M1936.53 678.71C1939.14 678.71 1941.27 676.593 1941.27 673.974C1941.27 671.362 1939.14 669.237 1936.53 669.237C1933.93 669.237 1931.79 671.362 1931.79 673.974C1931.79 676.593 1933.93 678.71 1936.53 678.71Z" fill="#4A90E2"/>
<path fill-rule="evenodd" clip-rule="evenodd" d="M1983.98 678.71C1986.58 678.71 1988.71 676.593 1988.71 673.974C1988.71 671.362 1986.58 669.237 1983.98 669.237C1981.36 669.237 1979.23 671.362 1979.23 673.974C1979.23 676.593 1981.36 678.71 1983.98 678.71Z" fill="#4A90E2"/>
<path fill-rule="evenodd" clip-rule="evenodd" d="M2031.41 678.71C2034.03 678.71 2036.15 676.593 2036.15 673.974C2036.15 671.362 2034.03 669.237 2031.41 669.237C2028.8 669.237 2026.68 671.362 2026.68 673.974C2026.68 676.593 2028.8 678.71 2031.41 678.71Z" fill="#4A90E2"/>
<path fill-rule="evenodd" clip-rule="evenodd" d="M1794.21 726.156C1796.82 726.156 1798.95 724.039 1798.95 721.42C1798.95 718.8 1796.82 716.683 1794.21 716.683C1791.6 716.683 1789.47 718.8 1789.47 721.42C1789.47 724.039 1791.6 726.156 1794.21 726.156Z" fill="#4A90E2"/>
<path fill-rule="evenodd" clip-rule="evenodd" d="M1841.65 726.156C1844.27 726.156 1846.39 724.039 1846.39 721.42C1846.39 718.8 1844.27 716.683 1841.65 716.683C1839.04 716.683 1836.92 718.8 1836.92 721.42C1836.92 724.039 1839.04 726.156 1841.65 726.156Z" fill="#4A90E2"/>
<path fill-rule="evenodd" clip-rule="evenodd" d="M1889.09 726.156C1891.7 726.156 1893.83 724.039 1893.83 721.42C1893.83 718.8 1891.7 716.683 1889.09 716.683C1886.48 716.683 1884.36 718.8 1884.36 721.42C1884.36 724.039 1886.48 726.156 1889.09 726.156Z" fill="#4A90E2"/>
<path fill-rule="evenodd" clip-rule="evenodd" d="M1936.53 726.156C1939.14 726.156 1941.27 724.039 1941.27 721.42C1941.27 718.8 1939.14 716.683 1936.53 716.683C1933.93 716.683 1931.79 718.8 1931.79 721.42C1931.79 724.039 1933.93 726.156 1936.53 726.156Z" fill="#4A90E2"/>
<path fill-rule="evenodd" clip-rule="evenodd" d="M1983.98 726.156C1986.58 726.156 1988.71 724.039 1988.71 721.42C1988.71 718.8 1986.58 716.683 1983.98 716.683C1981.36 716.683 1979.23 718.8 1979.23 721.42C1979.23 724.039 1981.36 726.156 1983.98 726.156Z" fill="#4A90E2"/>
<path fill-rule="evenodd" clip-rule="evenodd" d="M2031.41 726.156C2034.03 726.156 2036.15 724.039 2036.15 721.42C2036.15 718.8 2034.03 716.683 2031.41 716.683C2028.8 716.683 2026.68 718.8 2026.68 721.42C2026.68 724.039 2028.8 726.156 2031.41 726.156Z" fill="#4A90E2"/>
<path fill-rule="evenodd" clip-rule="evenodd" d="M1794.21 773.595C1796.82 773.595 1798.95 771.471 1798.95 768.859C1798.95 766.246 1796.82 764.122 1794.21 764.122C1791.6 764.122 1789.47 766.246 1789.47 768.859C1789.47 771.471 1791.6 773.595 1794.21 773.595Z" fill="#4A90E2"/>
<path fill-rule="evenodd" clip-rule="evenodd" d="M1841.65 773.595C1844.27 773.595 1846.39 771.471 1846.39 768.859C1846.39 766.246 1844.27 764.122 1841.65 764.122C1839.04 764.122 1836.92 766.246 1836.92 768.859C1836.92 771.471 1839.04 773.595 1841.65 773.595Z" fill="#4A90E2"/>
<path fill-rule="evenodd" clip-rule="evenodd" d="M1889.09 773.595C1891.7 773.595 1893.83 771.471 1893.83 768.859C1893.83 766.246 1891.7 764.122 1889.09 764.122C1886.48 764.122 1884.36 766.246 1884.36 768.859C1884.36 771.471 1886.48 773.595 1889.09 773.595Z" fill="#4A90E2"/>
<path fill-rule="evenodd" clip-rule="evenodd" d="M1936.53 773.595C1939.14 773.595 1941.27 771.471 1941.27 768.859C1941.27 766.246 1939.14 764.122 1936.53 764.122C1933.93 764.122 1931.79 766.246 1931.79 768.859C1931.79 771.471 1933.93 773.595 1936.53 773.595Z" fill="#4A90E2"/>
<path fill-rule="evenodd" clip-rule="evenodd" d="M1983.98 773.595C1986.58 773.595 1988.71 771.471 1988.71 768.859C1988.71 766.246 1986.58 764.122 1983.98 764.122C1981.36 764.122 1979.23 766.246 1979.23 768.859C1979.23 771.471 1981.36 773.595 1983.98 773.595Z" fill="#4A90E2"/>
<path fill-rule="evenodd" clip-rule="evenodd" d="M2031.41 773.595C2034.03 773.595 2036.15 771.471 2036.15 768.859C2036.15 766.246 2034.03 764.122 2031.41 764.122C2028.8 764.122 2026.68 766.246 2026.68 768.859C2026.68 771.471 2028.8 773.595 2031.41 773.595Z" fill="#4A90E2"/>
<path fill-rule="evenodd" clip-rule="evenodd" d="M1794.21 821.033C1796.82 821.033 1798.95 818.916 1798.95 816.297C1798.95 813.677 1796.82 811.56 1794.21 811.56C1791.6 811.56 1789.47 813.677 1789.47 816.297C1789.47 818.916 1791.6 821.033 1794.21 821.033Z" fill="#4A90E2"/>
<path fill-rule="evenodd" clip-rule="evenodd" d="M1841.65 821.033C1844.27 821.033 1846.39 818.916 1846.39 816.297C1846.39 813.677 1844.27 811.56 1841.65 811.56C1839.04 811.56 1836.92 813.677 1836.92 816.297C1836.92 818.916 1839.04 821.033 1841.65 821.033Z" fill="#4A90E2"/>
<path fill-rule="evenodd" clip-rule="evenodd" d="M1889.09 821.033C1891.7 821.033 1893.83 818.916 1893.83 816.297C1893.83 813.677 1891.7 811.56 1889.09 811.56C1886.48 811.56 1884.36 813.677 1884.36 816.297C1884.36 818.916 1886.48 821.033 1889.09 821.033Z" fill="#4A90E2"/>
<path fill-rule="evenodd" clip-rule="evenodd" d="M1936.53 821.033C1939.14 821.033 1941.27 818.916 1941.27 816.297C1941.27 813.677 1939.14 811.56 1936.53 811.56C1933.93 811.56 1931.79 813.677 1931.79 816.297C1931.79 818.916 1933.93 821.033 1936.53 821.033Z" fill="#4A90E2"/>
<path fill-rule="evenodd" clip-rule="evenodd" d="M1983.98 821.033C1986.58 821.033 1988.71 818.916 1988.71 816.297C1988.71 813.677 1986.58 811.56 1983.98 811.56C1981.36 811.56 1979.23 813.677 1979.23 816.297C1979.23 818.916 1981.36 821.033 1983.98 821.033Z" fill="#4A90E2"/>
<path fill-rule="evenodd" clip-rule="evenodd" d="M2031.41 821.033C2034.03 821.033 2036.15 818.916 2036.15 816.297C2036.15 813.677 2034.03 811.56 2031.41 811.56C2028.8 811.56 2026.68 813.677 2026.68 816.297C2026.68 818.916 2028.8 821.033 2031.41 821.033Z" fill="#4A90E2"/>
<path fill-rule="evenodd" clip-rule="evenodd" d="M1794.21 868.479C1796.82 868.479 1798.95 866.355 1798.95 863.743C1798.95 861.124 1796.82 859.007 1794.21 859.007C1791.6 859.007 1789.47 861.124 1789.47 863.743C1789.47 866.355 1791.6 868.479 1794.21 868.479Z" fill="#4A90E2"/>
<path fill-rule="evenodd" clip-rule="evenodd" d="M1841.65 868.479C1844.27 868.479 1846.39 866.355 1846.39 863.743C1846.39 861.124 1844.27 859.007 1841.65 859.007C1839.04 859.007 1836.92 861.124 1836.92 863.743C1836.92 866.355 1839.04 868.479 1841.65 868.479Z" fill="#4A90E2"/>
<path fill-rule="evenodd" clip-rule="evenodd" d="M1889.09 868.479C1891.7 868.479 1893.83 866.355 1893.83 863.743C1893.83 861.124 1891.7 859.007 1889.09 859.007C1886.48 859.007 1884.36 861.124 1884.36 863.743C1884.36 866.355 1886.48 868.479 1889.09 868.479Z" fill="#4A90E2"/>
<path fill-rule="evenodd" clip-rule="evenodd" d="M1936.53 868.479C1939.14 868.479 1941.27 866.355 1941.27 863.743C1941.27 861.124 1939.14 859.007 1936.53 859.007C1933.93 859.007 1931.79 861.124 1931.79 863.743C1931.79 866.355 1933.93 868.479 1936.53 868.479Z" fill="#4A90E2"/>
<path fill-rule="evenodd" clip-rule="evenodd" d="M1983.98 868.479C1986.58 868.479 1988.71 866.355 1988.71 863.743C1988.71 861.124 1986.58 859.007 1983.98 859.007C1981.36 859.007 1979.23 861.124 1979.23 863.743C1979.23 866.355 1981.36 868.479 1983.98 868.479Z" fill="#4A90E2"/>
<path fill-rule="evenodd" clip-rule="evenodd" d="M2031.41 868.479C2034.03 868.479 2036.15 866.355 2036.15 863.743C2036.15 861.124 2034.03 859.007 2031.41 859.007C2028.8 859.007 2026.68 861.124 2026.68 863.743C2026.68 866.355 2028.8 868.479 2031.41 868.479Z" fill="#4A90E2"/>
<path fill-rule="evenodd" clip-rule="evenodd" d="M1794.21 915.911C1796.82 915.911 1798.95 913.794 1798.95 911.174C1798.95 908.569 1796.82 906.438 1794.21 906.438C1791.6 906.438 1789.47 908.569 1789.47 911.174C1789.47 913.794 1791.6 915.911 1794.21 915.911Z" fill="#4A90E2"/>
<path fill-rule="evenodd" clip-rule="evenodd" d="M1841.65 915.911C1844.27 915.911 1846.39 913.794 1846.39 911.174C1846.39 908.569 1844.27 906.438 1841.65 906.438C1839.04 906.438 1836.92 908.569 1836.92 911.174C1836.92 913.794 1839.04 915.911 1841.65 915.911Z" fill="#4A90E2"/>
<path fill-rule="evenodd" clip-rule="evenodd" d="M1889.09 915.911C1891.7 915.911 1893.83 913.794 1893.83 911.174C1893.83 908.569 1891.7 906.438 1889.09 906.438C1886.48 906.438 1884.36 908.569 1884.36 911.174C1884.36 913.794 1886.48 915.911 1889.09 915.911Z" fill="#4A90E2"/>
<path fill-rule="evenodd" clip-rule="evenodd" d="M1936.53 915.911C1939.14 915.911 1941.27 913.794 1941.27 911.174C1941.27 908.569 1939.14 906.438 1936.53 906.438C1933.93 906.438 1931.79 908.569 1931.79 911.174C1931.79 913.794 1933.93 915.911 1936.53 915.911Z" fill="#4A90E2"/>
<path fill-rule="evenodd" clip-rule="evenodd" d="M1983.98 915.911C1986.58 915.911 1988.71 913.794 1988.71 911.174C1988.71 908.569 1986.58 906.438 1983.98 906.438C1981.36 906.438 1979.23 908.569 1979.23 911.174C1979.23 913.794 1981.36 915.911 1983.98 915.911Z" fill="#4A90E2"/>
<path fill-rule="evenodd" clip-rule="evenodd" d="M2031.41 915.911C2034.03 915.911 2036.15 913.794 2036.15 911.174C2036.15 908.569 2034.03 906.438 2031.41 906.438C2028.8 906.438 2026.68 908.569 2026.68 911.174C2026.68 913.794 2028.8 915.911 2031.41 915.911Z" fill="#4A90E2"/>
<path fill-rule="evenodd" clip-rule="evenodd" d="M1794.21 963.357C1796.82 963.357 1798.95 961.24 1798.95 958.62C1798.95 956.001 1796.82 953.884 1794.21 953.884C1791.6 953.884 1789.47 956.001 1789.47 958.62C1789.47 961.24 1791.6 963.357 1794.21 963.357Z" fill="#4A90E2"/>
<path fill-rule="evenodd" clip-rule="evenodd" d="M1841.65 963.357C1844.27 963.357 1846.39 961.24 1846.39 958.62C1846.39 956.001 1844.27 953.884 1841.65 953.884C1839.04 953.884 1836.92 956.001 1836.92 958.62C1836.92 961.24 1839.04 963.357 1841.65 963.357Z" fill="#4A90E2"/>
<path fill-rule="evenodd" clip-rule="evenodd" d="M1889.09 963.357C1891.7 963.357 1893.83 961.24 1893.83 958.62C1893.83 956.001 1891.7 953.884 1889.09 953.884C1886.48 953.884 1884.36 956.001 1884.36 958.62C1884.36 961.24 1886.48 963.357 1889.09 963.357Z" fill="#4A90E2"/>
<path fill-rule="evenodd" clip-rule="evenodd" d="M1936.53 963.357C1939.14 963.357 1941.27 961.24 1941.27 958.62C1941.27 956.001 1939.14 953.884 1936.53 953.884C1933.93 953.884 1931.79 956.001 1931.79 958.62C1931.79 961.24 1933.93 963.357 1936.53 963.357Z" fill="#4A90E2"/>
<path fill-rule="evenodd" clip-rule="evenodd" d="M1983.98 963.357C1986.58 963.357 1988.71 961.24 1988.71 958.62C1988.71 956.001 1986.58 953.884 1983.98 953.884C1981.36 953.884 1979.23 956.001 1979.23 958.62C1979.23 961.24 1981.36 963.357 1983.98 963.357Z" fill="#4A90E2"/>
<path fill-rule="evenodd" clip-rule="evenodd" d="M2031.41 963.357C2034.03 963.357 2036.15 961.24 2036.15 958.62C2036.15 956.001 2034.03 953.884 2031.41 953.884C2028.8 953.884 2026.68 956.001 2026.68 958.62C2026.68 961.24 2028.8 963.357 2031.41 963.357Z" fill="#4A90E2"/>
<mask id="mask0" mask-type="alpha" maskUnits="userSpaceOnUse" x="-35" y="1272" width="298" height="23">
<path fill-rule="evenodd" clip-rule="evenodd" d="M-34.6797 1273H262.125V1294.82H-34.6797V1273Z" fill="white"/>
</mask>
<g mask="url(#mask0)">
<path fill-rule="evenodd" clip-rule="evenodd" d="M155.106 1273H155.115C164 1273 172.309 1276.13 178.51 1281.82C183.292 1286.21 189.649 1288.62 196.418 1288.62C203.187 1288.62 209.552 1286.21 214.335 1281.82C220.545 1276.13 228.862 1273 237.747 1273H237.764C246.65 1273 254.958 1276.13 261.16 1281.82C262.536 1283.09 262.433 1285.06 260.902 1286.21C259.388 1287.35 257.031 1287.26 255.655 1286C250.881 1281.61 244.525 1279.2 237.764 1279.2H237.747C230.987 1279.2 224.622 1281.61 219.831 1286C213.621 1291.69 205.303 1294.82 196.418 1294.82C187.524 1294.82 179.215 1291.69 173.005 1286C168.232 1281.61 161.884 1279.2 155.115 1279.2H155.106C148.337 1279.2 141.972 1281.61 137.181 1286C130.971 1291.69 122.662 1294.82 113.768 1294.82H113.76C104.874 1294.82 96.557 1291.69 90.3469 1286C80.7737 1277.23 64.0785 1277.23 54.4881 1286C48.2866 1291.69 39.9605 1294.82 31.0668 1294.82C22.173 1294.82 13.847 1291.69 7.63684 1286C2.86312 1281.61 -3.50184 1279.2 -10.2797 1279.2H-10.2883C-17.0575 1279.2 -23.4224 1281.61 -28.2134 1286C-29.6068 1287.26 -31.9549 1287.36 -33.4687 1286.2C-34.9826 1285.05 -35.0944 1283.09 -33.7096 1281.82C-27.4908 1276.13 -19.1734 1273 -10.2883 1273H-10.2797C-1.38592 1273 6.93153 1276.13 13.1503 1281.82C17.924 1286.21 24.2889 1288.62 31.0668 1288.62C37.8446 1288.62 44.2095 1286.21 49.0005 1281.82C61.4207 1270.45 83.4229 1270.45 95.8431 1281.82C100.634 1286.21 106.99 1288.62 113.76 1288.62H113.768C120.537 1288.62 126.894 1286.21 131.693 1281.82C137.903 1276.13 146.212 1273 155.106 1273Z" fill="#4A90E2"/>
</g>
<path fill-rule="evenodd" clip-rule="evenodd" d="M155.106 1323.76H155.115C164 1323.76 172.309 1326.9 178.51 1332.59C183.292 1336.97 189.649 1339.38 196.418 1339.38C203.187 1339.38 209.552 1336.97 214.335 1332.59C220.545 1326.9 228.862 1323.76 237.747 1323.76H237.764C246.65 1323.76 254.958 1326.9 261.16 1332.59C262.536 1333.86 262.433 1335.82 260.902 1336.97C259.388 1338.11 257.031 1338.03 255.655 1336.76C250.881 1332.38 244.525 1329.97 237.764 1329.97H237.747C230.987 1329.97 224.622 1332.38 219.831 1336.76C213.621 1342.46 205.303 1345.58 196.418 1345.58C187.524 1345.58 179.215 1342.46 173.005 1336.76C168.232 1332.38 161.884 1329.97 155.115 1329.97H155.106C148.337 1329.97 141.972 1332.38 137.181 1336.76C130.971 1342.46 122.662 1345.58 113.768 1345.58H113.76C104.874 1345.58 96.557 1342.46 90.3469 1336.76C80.7737 1327.99 64.0785 1327.99 54.4881 1336.76C48.2866 1342.46 39.9605 1345.58 31.0668 1345.58C22.173 1345.58 13.847 1342.46 7.63684 1336.76C2.86312 1332.38 -3.50184 1329.97 -10.2797 1329.97H-10.2883C-17.0575 1329.97 -23.4224 1332.38 -28.2134 1336.76C-29.6068 1338.03 -31.9549 1338.13 -33.4687 1336.97C-34.9826 1335.82 -35.0944 1333.85 -33.7096 1332.59C-27.4908 1326.9 -19.1734 1323.76 -10.2883 1323.76H-10.2797C-1.38592 1323.76 6.93153 1326.9 13.1503 1332.59C17.924 1336.97 24.2889 1339.38 31.0668 1339.38C37.8446 1339.38 44.2095 1336.97 49.0005 1332.59C61.4207 1321.21 83.4229 1321.21 95.8431 1332.59C100.634 1336.97 106.99 1339.38 113.76 1339.38H113.768C120.537 1339.38 126.894 1336.97 131.693 1332.59C137.903 1326.9 146.212 1323.76 155.106 1323.76Z" fill="#4A90E2"/>
<path fill-rule="evenodd" clip-rule="evenodd" d="M155.106 1374.34H155.115C164 1374.34 172.309 1377.48 178.51 1383.17C183.292 1387.55 189.649 1389.96 196.418 1389.96C203.187 1389.96 209.552 1387.55 214.335 1383.17C220.545 1377.48 228.862 1374.34 237.747 1374.34H237.764C246.65 1374.34 254.958 1377.48 261.16 1383.17C262.536 1384.44 262.433 1386.41 260.902 1387.55C259.388 1388.69 257.031 1388.61 255.655 1387.35C250.881 1382.96 244.525 1380.55 237.764 1380.55H237.747C230.987 1380.55 224.622 1382.96 219.831 1387.35C213.621 1393.04 205.303 1396.17 196.418 1396.17C187.524 1396.17 179.215 1393.04 173.005 1387.35C168.232 1382.96 161.884 1380.55 155.115 1380.55H155.106C148.337 1380.55 141.972 1382.96 137.181 1387.35C130.971 1393.04 122.662 1396.17 113.768 1396.17H113.76C104.874 1396.17 96.557 1393.04 90.3469 1387.35C80.7737 1378.58 64.0785 1378.58 54.4881 1387.35C48.2866 1393.04 39.9605 1396.17 31.0668 1396.17C22.173 1396.17 13.847 1393.04 7.63684 1387.35C2.86312 1382.96 -3.50184 1380.55 -10.2797 1380.55H-10.2883C-17.0575 1380.55 -23.4224 1382.96 -28.2134 1387.35C-29.6068 1388.61 -31.9549 1388.71 -33.4687 1387.55C-34.9826 1386.4 -35.0944 1384.43 -33.7096 1383.17C-27.4908 1377.48 -19.1734 1374.34 -10.2883 1374.34H-10.2797C-1.38592 1374.34 6.93153 1377.48 13.1503 1383.17C17.924 1387.55 24.2889 1389.96 31.0668 1389.96C37.8446 1389.96 44.2095 1387.55 49.0005 1383.17C61.4207 1371.79 83.4229 1371.79 95.8431 1383.17C100.634 1387.55 106.99 1389.96 113.76 1389.96H113.768C120.537 1389.96 126.894 1387.55 131.693 1383.17C137.903 1377.48 146.212 1374.34 155.106 1374.34Z" fill="#4A90E2"/>
</g>
<g opacity="0.2">
<path fill-rule="evenodd" clip-rule="evenodd" d="M244.869 149.034H234.639V138.801C234.639 136.701 232.935 135 230.835 135C228.738 135 227.037 136.701 227.037 138.801V149.034H216.804C214.701 149.034 213 150.735 213 152.835C213 154.935 214.701 156.636 216.804 156.636H227.037V166.869C227.037 168.969 228.738 170.67 230.835 170.67C232.935 170.67 234.639 168.969 234.639 166.869V156.636H244.869C246.969 156.636 248.673 154.935 248.673 152.835C248.673 150.735 246.969 149.034 244.869 149.034Z" fill="#4A90E2"/>
<path fill-rule="evenodd" clip-rule="evenodd" d="M1685.42 10.1746H1660.07V-15.1834C1660.07 -20.3874 1655.85 -24.6025 1650.65 -24.6025C1645.45 -24.6025 1641.24 -20.3874 1641.24 -15.1834V10.1746H1615.88C1610.67 10.1746 1606.45 14.3897 1606.45 19.5937C1606.45 24.7976 1610.67 29.0128 1615.88 29.0128H1641.24V54.3708C1641.24 59.5747 1645.45 63.7899 1650.65 63.7899C1655.85 63.7899 1660.07 59.5747 1660.07 54.3708V29.0128H1685.42C1690.63 29.0128 1694.85 24.7976 1694.85 19.5937C1694.85 14.3897 1690.63 10.1746 1685.42 10.1746Z" fill="#4A90E2"/>
<path fill-rule="evenodd" clip-rule="evenodd" d="M177.123 1111.62H169.379V1103.88C169.379 1102.29 168.09 1101 166.5 1101C164.913 1101 163.625 1102.29 163.625 1103.88V1111.62H155.879C154.288 1111.62 153 1112.91 153 1114.5C153 1116.09 154.288 1117.38 155.879 1117.38H163.625V1125.12C163.625 1126.71 164.913 1128 166.5 1128C168.09 1128 169.379 1126.71 169.379 1125.12V1117.38H177.123C178.712 1117.38 180.002 1116.09 180.002 1114.5C180.002 1112.91 178.712 1111.62 177.123 1111.62Z" fill="#4A90E2"/>
<path fill-rule="evenodd" clip-rule="evenodd" d="M777.913 64.7721C777.913 70.4001 773.35 74.9631 767.722 74.9631C762.094 74.9631 757.528 70.4001 757.528 64.7721C757.528 59.1441 762.094 54.5811 767.722 54.5811C773.35 54.5811 777.913 59.1441 777.913 64.7721Z" fill="#4A90E2"/>
<path fill-rule="evenodd" clip-rule="evenodd" d="M1967.59 1090.81C1967.59 1096.44 1963.02 1101 1957.4 1101C1951.77 1101 1947.2 1096.44 1947.2 1090.81C1947.2 1085.18 1951.77 1080.62 1957.4 1080.62C1963.02 1080.62 1967.59 1085.18 1967.59 1090.81Z" fill="#4A90E2"/>
</g>
</g>
<defs>
<clipPath id="clip0">
<rect width="2146" height="1610" fill="white"/>
</clipPath>
</defs>
</svg>
