<svg width="459" height="411" viewBox="0 0 459 411" fill="none" xmlns="http://www.w3.org/2000/svg">
<g filter="url(#filter0_d)">
<path fill-rule="evenodd" clip-rule="evenodd" d="M144.715 49.9224C142.492 50.4731 140.267 51.021 138.037 51.5646V327.515C138.722 328.885 139.404 330.256 140.086 331.626L140.091 331.637L140.091 331.637C141.626 334.723 143.157 337.802 144.715 340.838V49.9224ZM149.168 349.189C151.28 352.97 153.484 356.624 155.846 360.073V47.1454C153.618 47.7032 151.393 48.2603 149.168 48.8154V349.189ZM100.194 59.0862C97.9943 59.2515 95.7656 59.3636 93.5161 59.4359V269.239C94.5356 270.237 95.5571 271.233 96.5788 272.229L96.5792 272.229L96.5794 272.23L96.5799 272.23L96.5885 272.238L96.5977 272.247C97.7973 273.417 98.9971 274.587 100.194 275.76V59.0862ZM104.646 280.169C106.902 282.431 109.134 284.725 111.325 287.077V57.6798C109.142 58.089 106.913 58.414 104.646 58.6703V280.169ZM55.6731 59.24C53.4208 59.2802 51.1921 59.3547 48.995 59.4774V215.751C51.1605 218.83 53.3945 221.871 55.6731 224.892V59.24ZM66.7518 239.177L66.7548 239.181L66.757 239.184L66.7571 239.184L66.759 239.187L66.8035 239.243V59.2586C64.5652 59.2239 62.3366 59.2008 60.1252 59.2017V230.708C62.313 233.531 64.5267 236.347 66.7465 239.171L66.7487 239.174L66.7518 239.177ZM316.122 42.4698C318.471 44.9394 320.702 47.5299 322.8 50.2218V147.712C320.415 151.954 318.119 156.232 316.122 160.582V42.4698ZM333.93 127.769C331.865 131.827 329.577 135.866 327.252 139.919V56.3854C329.738 60.1062 331.975 63.9773 333.93 67.9543V127.769ZM11.1521 72.914C9.54222 74.541 8.04889 76.3566 6.68468 78.3819C5.86498 79.5988 5.12955 80.833 4.47375 82.0833V124.522C6.3289 130.018 8.63773 135.573 11.1521 141.123V72.914ZM15.6042 150.596C16.6257 152.712 17.6567 154.822 18.6831 156.922C19.8968 159.407 21.1043 161.878 22.2823 164.33V65.1639C19.9274 66.2644 17.6948 67.5607 15.6042 69.086V150.596ZM271.601 16.6126C273.827 16.9668 276.053 17.4757 278.279 18.1581V358.344C276.124 360.12 273.895 361.855 271.601 363.536V16.6126ZM284.234 353.154C283.738 353.611 283.237 354.066 282.731 354.519V19.7014C284.991 20.5646 287.219 21.5364 289.409 22.6091V347.9C287.78 349.72 286.057 351.474 284.234 353.154ZM133.585 52.6422C131.366 53.1752 129.141 53.7031 126.907 54.2246V307.061C129.26 310.849 131.463 314.795 133.585 318.815V52.6422ZM89.064 59.5306C86.8502 59.5558 84.6217 59.5515 82.3858 59.5301V257.97C84.5757 260.306 86.8084 262.588 89.064 264.842V59.5306ZM44.5429 59.8C42.2721 60.0056 40.0428 60.2751 37.8646 60.6248V198.21C39.9561 201.958 42.194 205.613 44.5429 209.2V59.8ZM304.991 32.3851C307.292 34.1718 309.522 36.07 311.67 38.0672V172.296C310.813 175.244 310.163 178.236 309.778 181.281C308.706 189.768 309.806 198.115 311.67 206.408V304.147C309.831 310.665 307.65 317.02 304.991 323.082V32.3851ZM316.122 285.123V223.405C319.363 235.314 322.186 247.235 320.374 259.431C319.118 267.881 317.795 276.535 316.122 285.123ZM260.47 16.0445C262.697 15.9349 264.923 15.9488 267.148 16.105V366.673C264.97 368.15 262.741 369.575 260.47 370.939V16.0445ZM122.455 55.2522C120.239 55.7575 118.014 56.2557 115.777 56.7455V292.019C116.827 293.229 117.865 294.457 118.885 295.707C120.118 297.216 121.306 298.775 122.455 300.375V55.2522ZM77.9337 59.4686C76.2939 59.4403 74.6528 59.4072 73.0132 59.3741L72.9816 59.3735C72.406 59.3619 71.8306 59.3503 71.2556 59.3389V244.919C71.6133 245.377 71.9709 245.835 72.3282 246.294C74.1406 248.623 76.014 250.873 77.9337 253.065V59.4686ZM33.4125 61.4726C31.1132 61.9848 28.883 62.6061 26.7344 63.3575V173.916C27.8361 176.402 28.8733 178.859 29.8203 181.281C30.9265 184.111 32.1279 186.877 33.4125 189.587V61.4726ZM293.861 24.9559C296.137 26.2421 298.365 27.6367 300.539 29.1303V332.104C298.54 335.709 296.325 339.172 293.861 342.461V24.9559ZM249.34 17.534C251.567 17.0651 253.793 16.6885 256.018 16.4228V373.507C253.824 374.719 251.596 375.873 249.34 376.96V17.534ZM341.672 90.8397C343.451 100.27 341.758 109.2 338.382 117.934V78.5813C339.787 82.6167 340.894 86.7166 341.672 90.8397ZM238.21 20.5565C240.437 19.8333 242.663 19.1711 244.888 18.5885V379.002C242.682 379.964 240.454 380.859 238.21 381.681V20.5565ZM227.079 24.5876C229.308 23.7145 231.533 22.8716 233.758 22.0772V383.207C231.542 383.915 229.314 384.548 227.079 385.101V24.5876ZM216.487 28.8853C218.536 28.0398 220.582 27.1952 222.627 26.3657V386.092C220.403 386.531 218.175 386.887 215.949 387.153V29.1071L216.485 28.8858L216.486 28.8854L216.487 28.8853ZM204.819 33.603C207.048 32.7386 209.274 31.8438 211.497 30.9366V387.564C209.264 387.708 207.036 387.757 204.819 387.704V33.603ZM193.689 37.5754C195.918 36.8648 198.144 36.0946 200.367 35.2824V387.459C198.124 387.263 195.896 386.958 193.689 386.536V37.5754ZM184.971 40.0062C186.394 39.6722 187.816 39.3048 189.237 38.9085V385.518C187.804 385.135 186.381 384.699 184.971 384.209C184.151 383.924 183.348 383.621 182.558 383.3V40.5751C183.361 40.3848 184.165 40.1952 184.971 40.0062ZM171.428 43.2666C173.646 42.7214 175.871 42.1787 178.106 41.6398V381.22C175.746 379.969 173.526 378.546 171.428 376.971V43.2666ZM160.298 46.031C162.519 45.4754 164.745 44.9201 166.976 44.3665V373.247C164.598 371.045 162.383 368.638 160.298 366.066V46.031Z" fill="#80BFF6"/>
<path fill-rule="evenodd" clip-rule="evenodd" d="M206.525 62.4371C222.074 65.2876 237.344 70.4272 253.087 68.9937C280.363 66.51 313.917 30.8795 332.534 50.9634C352.254 72.2375 303.77 108.442 314.596 135.351C324.235 159.308 367.815 151.094 381.603 172.93C393.359 191.55 387.462 217.805 379.658 238.395C371.902 258.858 355.121 274.839 337.869 288.307C322 300.697 302.222 306.009 283.515 313.456C266.867 320.084 250.747 328.708 232.882 330.105C215.512 331.463 198.817 325.12 181.794 321.411C165.113 317.775 146.624 318.214 132.74 308.281C118.875 298.362 117.471 277.251 104.539 266.143C87.7775 251.746 57.4302 253.976 46.9029 234.552C37.2909 216.817 55.9167 195.291 55.2127 175.132C54.4049 152.001 38.6549 130.308 42.4651 107.48C46.3235 84.363 55.8066 57.4539 76.6456 46.7182C99.4466 34.9717 127.378 47.5347 152.842 50.6166C171.189 52.837 188.348 59.1047 206.525 62.4371Z" fill="#4089C9"/>
<path fill-rule="evenodd" clip-rule="evenodd" d="M268.962 63.8826C298.29 74.6824 306.845 114.579 309.873 145.679C312.431 171.955 287.925 192.371 284.012 218.478C279.604 247.892 307.515 285.058 285.917 305.506C264.56 325.727 229.225 293.336 200.159 297.868C167.896 302.898 141.705 344.401 111.199 332.747C81.8422 321.532 81.3605 279.425 72.7689 249.202C65.36 223.139 56.4361 195.986 65.0166 170.291C73.2041 145.773 95.4401 129.377 117.359 115.672C136.362 103.79 159.335 105.3 180.545 98.0548C211.196 87.5841 238.561 52.6878 268.962 63.8826Z" fill="url(#paint0_linear)"/>
<path d="M427.08 227.175L422.75 219.675L418.42 227.175L404.347 251.55L400.016 259.05H408.677H436.823H445.483L441.153 251.55L427.08 227.175Z" stroke="#80BFF7" stroke-width="10"/>
<circle cx="64.5774" cy="155.324" r="17.2606" stroke="#80BFF7" stroke-width="10"/>
<circle cx="46.9915" cy="316.713" r="4.67472" fill="#80BFF7"/>
</g>
<defs>
<filter id="filter0_d" x="0.473749" y="0.835938" width="457.67" height="410.164" filterUnits="userSpaceOnUse" color-interpolation-filters="sRGB">
<feFlood flood-opacity="0" result="BackgroundImageFix"/>
<feColorMatrix in="SourceAlpha" type="matrix" values="0 0 0 0 0 0 0 0 0 0 0 0 0 0 0 0 0 0 127 0"/>
<feOffset dy="4"/>
<feGaussianBlur stdDeviation="2"/>
<feColorMatrix type="matrix" values="0 0 0 0 0 0 0 0 0 0 0 0 0 0 0 0 0 0 0.25 0"/>
<feBlend mode="normal" in2="BackgroundImageFix" result="effect1_dropShadow"/>
<feBlend mode="normal" in="SourceGraphic" in2="effect1_dropShadow" result="shape"/>
</filter>
<linearGradient id="paint0_linear" x1="275.557" y1="66.9827" x2="-28.3778" y2="584.615" gradientUnits="userSpaceOnUse">
<stop offset="0.130208" stop-color="#80BFF7"/>
<stop offset="0.979167" stop-color="#2670B1"/>
</linearGradient>
</defs>
</svg>
