<svg width="433" height="401" viewBox="0 0 433 401" fill="none" xmlns="http://www.w3.org/2000/svg">
<path fill-rule="evenodd" clip-rule="evenodd" d="M188.337 34.599C186.066 35.1603 183.792 35.7187 181.514 36.2727V317.506C182.216 318.906 182.915 320.307 183.613 321.706C185.181 324.851 186.745 327.989 188.337 331.084V34.599ZM192.886 339.595C195.044 343.448 197.296 347.171 199.709 350.687V31.7689C197.433 32.3373 195.16 32.9051 192.886 33.4708V339.595ZM142.851 43.9383C140.603 44.1067 138.326 44.221 136.028 44.2947V258.114C137.069 259.131 138.113 260.146 139.157 261.161L139.165 261.169C140.394 262.365 141.624 263.56 142.851 264.76V43.9383ZM147.399 269.253C149.704 271.559 151.985 273.896 154.222 276.293V42.5049C151.993 42.922 149.715 43.2532 147.399 43.5144V269.253ZM97.3639 44.0951C95.0629 44.136 92.7859 44.212 90.5413 44.3369V203.602C92.7537 206.74 95.036 209.839 97.3639 212.918V44.0951ZM108.687 227.482L108.687 227.482L108.688 227.484L108.688 227.484L108.736 227.544V44.114C106.449 44.0787 104.172 44.0551 101.913 44.056V218.845C104.151 221.726 106.415 224.6 108.686 227.481L108.687 227.482L108.687 227.482ZM363.46 27.0039C365.86 29.5208 368.14 32.1609 370.283 34.9044V134.261C367.847 138.584 365.501 142.944 363.46 147.376V27.0039ZM381.655 113.935C379.545 118.071 377.207 122.187 374.832 126.318V41.186C377.372 44.9782 379.658 48.9235 381.655 52.9769V113.935ZM51.8776 58.0307C50.2328 59.6889 48.7071 61.5392 47.3133 63.6033C46.4758 64.8435 45.7245 66.1012 45.0545 67.3754V110.627C46.9499 116.229 49.3088 121.889 51.8776 127.546V58.0307ZM59.5709 143.645L59.5711 143.646L59.5718 143.647C60.8119 146.179 62.0455 148.698 63.249 151.197V50.1323C60.8432 51.2539 58.5622 52.575 56.4262 54.1295V137.2C57.4696 139.355 58.5226 141.505 59.5709 143.645ZM317.974 0.651767C320.248 1.01275 322.522 1.53141 324.797 2.22679V348.924C322.596 350.734 320.318 352.502 317.974 354.215V0.651767ZM330.881 343.635C330.374 344.101 329.862 344.565 329.345 345.026V3.7997C331.654 4.67943 333.93 5.66983 336.168 6.76295V338.28C334.504 340.136 332.744 341.923 330.881 343.635ZM176.966 37.3709C174.698 37.9141 172.425 38.4521 170.143 38.9835V296.66C172.547 300.521 174.797 304.542 176.966 308.639V37.3709ZM131.479 44.3913C129.217 44.4169 126.941 44.4125 124.656 44.3907V246.63C126.894 249.01 129.175 251.336 131.479 253.633V44.3913ZM85.9927 44.6657C83.6726 44.8752 81.395 45.1499 79.1696 45.5063V185.725C81.3065 189.546 83.5929 193.27 85.9927 196.926V44.6657ZM352.089 16.7264C354.44 18.5472 356.717 20.4817 358.912 22.517V159.315C358.036 162.32 357.372 165.369 356.979 168.473C355.884 177.122 357.008 185.628 358.912 194.081V293.69C357.033 300.332 354.805 306.808 352.089 312.987V16.7264ZM363.46 274.302V211.403C366.772 223.539 369.656 235.689 367.805 248.118C366.521 256.729 365.17 265.549 363.46 274.302ZM40.5059 86.7659C40.5057 86.6942 40.5057 86.6226 40.5059 86.5509V86.7659ZM306.602 0.0727553C308.877 -0.0389661 311.151 -0.024759 313.425 0.134404V357.413C311.199 358.917 308.922 360.37 306.602 361.761V0.0727553ZM165.594 40.0309C163.331 40.5458 161.057 41.0536 158.771 41.5528V281.33C159.844 282.563 160.904 283.814 161.947 285.088C163.207 286.627 164.42 288.215 165.594 289.847V40.0309ZM120.108 44.328C118.433 44.2992 116.757 44.2655 115.083 44.2318L115.08 44.2317C114.481 44.2197 113.883 44.2077 113.285 44.1959V233.328C113.65 233.795 114.015 234.262 114.38 234.73C116.232 237.103 118.146 239.397 120.108 241.63V44.328ZM74.621 46.3703C72.2717 46.8923 69.993 47.5255 67.7977 48.2913V160.966C68.9233 163.5 69.983 166.004 70.9505 168.473C72.0808 171.357 73.3084 174.175 74.621 176.937V46.3703ZM340.717 9.15473C343.042 10.4657 345.319 11.887 347.54 13.4092V322.182C345.498 325.855 343.235 329.385 340.717 332.738V9.15473ZM295.231 1.59073C297.506 1.11287 299.78 0.729049 302.053 0.458236V364.377C299.811 365.613 297.535 366.788 295.231 367.896V1.59073ZM389.564 76.2996C391.382 85.9097 389.653 95.011 386.204 103.912V63.8076C387.638 67.9199 388.769 72.0979 389.564 76.2996ZM283.859 4.67113C286.135 3.93398 288.409 3.2591 290.682 2.66535V369.978C288.428 370.958 286.152 371.87 283.859 372.708V4.67113ZM272.487 8.77929C274.764 7.88954 277.038 7.0305 279.31 6.2209V374.263C277.046 374.984 274.77 375.63 272.487 376.193V8.77929ZM261.665 13.1594C263.758 12.2977 265.849 11.4369 267.939 10.5914V377.203C265.666 377.651 263.39 378.014 261.116 378.285V13.3852L261.664 13.1595L261.665 13.1594ZM249.744 17.9673C252.021 17.0863 254.296 16.1744 256.567 15.2498V378.703C254.285 378.85 252.009 378.9 249.744 378.846V17.9673ZM238.372 22.0157C240.65 21.2915 242.924 20.5065 245.195 19.6788V378.596C242.904 378.397 240.628 378.086 238.372 377.656V22.0157ZM229.465 24.4931C230.92 24.1527 232.372 23.7782 233.824 23.3743V376.619C232.36 376.228 230.906 375.784 229.465 375.284C228.628 374.994 227.807 374.685 227.001 374.358V25.0728C227.821 24.879 228.642 24.6857 229.465 24.4931ZM215.629 27.8159C217.895 27.2602 220.168 26.7071 222.452 26.1579V372.238C220.041 370.964 217.773 369.513 215.629 367.908V27.8159ZM204.257 30.6332C206.527 30.067 208.801 29.501 211.081 28.9368V364.113C208.651 361.869 206.388 359.416 204.257 356.794V30.6332Z" fill="#5B9F20"/>
<path fill-rule="evenodd" clip-rule="evenodd" d="M223.47 1.05417C261.075 9.34266 166.163 181.09 296.174 87.6495C327.737 108.387 189.687 289.098 402.752 118.845C429.093 147.293 439.801 193.034 427.895 229.904C416.128 266.344 374.707 282.411 342.984 303.933C318.641 320.448 292.808 331.997 264.676 340.639C236.183 349.391 220.769 261.075 192.111 252.877C163.399 244.664 129.492 321.138 112.008 296.968C95.6682 274.378 93.0367 246.317 81.5148 220.939C64.3459 183.122 17.1029 151.485 27.736 111.346C37.8552 73.1465 92.2459 69.7245 126.718 50.3002C158.895 32.1692 187.389 -6.89838 223.47 1.05417Z" fill="#87D147"/>
<path fill-rule="evenodd" clip-rule="evenodd" d="M221.55 73.298C238.938 77.2054 256.56 79.9991 271.97 88.9376C286.826 97.5548 296.533 111.996 308.861 123.943C322.769 137.421 338.026 148.794 349.686 164.251C365.724 185.514 390.961 205.279 390.284 231.887C389.64 257.213 369.223 281.725 346.415 292.839C322.829 304.332 293.223 281.847 268.684 291.14C247.209 299.271 241.965 329.615 221.55 340.121C197.605 352.445 169.284 362.704 143.278 355.682C117.399 348.694 90.7436 328.859 83.9597 302.97C76.5302 274.617 106.413 248.696 107.571 219.412C108.356 199.547 88.5728 183.215 89.4802 163.355C90.4217 142.745 100.933 123.76 112.715 106.809C124.901 89.2758 138.44 69.811 158.869 63.521C179.333 57.2199 200.657 68.6028 221.55 73.298Z" fill="url(#paint0_linear)"/>
<rect y="239.344" width="26.1945" height="26.1293" fill="#87D147"/>
<path d="M401.006 60.7151L408.895 47.0849L416.784 60.7151H401.006Z" stroke="#87D147" stroke-width="10"/>
<path d="M379.558 314.596L416.988 379.266H342.127L379.558 314.596Z" fill="#87D147"/>
<defs>
<linearGradient id="paint0_linear" x1="236.536" y1="61.665" x2="236.536" y2="357.971" gradientUnits="userSpaceOnUse">
<stop stop-color="#87D147"/>
<stop offset="1" stop-color="#3E7D07"/>
</linearGradient>
</defs>
</svg>
