<svg width="447" height="399" viewBox="0 0 447 399" fill="none" xmlns="http://www.w3.org/2000/svg">
<path fill-rule="evenodd" clip-rule="evenodd" d="M139.138 48.6999C136.933 49.2464 134.725 49.7899 132.513 50.3292V324.109C133.194 325.472 133.873 326.836 134.55 328.198L134.551 328.199L134.551 328.2C136.074 331.261 137.593 334.315 139.138 337.327V48.6999ZM143.555 345.612C145.651 349.363 147.838 352.988 150.181 356.411V45.9448C147.971 46.4982 145.763 47.0509 143.555 47.6017V345.612ZM94.9674 57.7916C92.7848 57.9556 90.5736 58.0669 88.3418 58.1387V266.291C89.3533 267.281 90.3667 268.269 91.3803 269.257L91.3804 269.258L91.3809 269.258L91.3896 269.266C92.5829 270.43 93.7765 271.593 94.9674 272.761V57.7916ZM99.3845 277.135C101.622 279.38 103.837 281.655 106.01 283.989V56.3963C103.845 56.8023 101.634 57.1248 99.3845 57.3791V277.135ZM50.7965 57.9443C48.5619 57.9841 46.3507 58.0581 44.1709 58.1798V213.224C46.3194 216.279 48.5358 219.296 50.7965 222.293V57.9443ZM61.7914 236.47L61.7916 236.471L61.7933 236.473L61.8393 236.531V57.9627C59.6186 57.9283 57.4076 57.9054 55.2136 57.9062V228.063C57.3869 230.868 59.5859 233.665 61.791 236.47L61.7912 236.47L61.7914 236.47ZM309.196 41.306C311.527 43.7562 313.74 46.3263 315.822 48.997V145.72C313.456 149.929 311.178 154.173 309.196 158.489V41.306ZM326.864 125.934C324.815 129.96 322.545 133.967 320.239 137.988V55.1121C322.705 58.8037 324.925 62.6443 326.864 66.5901V125.934ZM6.62572 71.5107C5.02856 73.1249 3.54698 74.9262 2.19351 76.9356C1.38028 78.1429 0.650641 79.3673 7.62939e-06 80.6078V122.713C1.84055 128.166 4.13119 133.676 6.62572 139.183V71.5107ZM11.0428 148.581C12.0563 150.68 13.0792 152.774 14.0975 154.858L14.098 154.859L14.0983 154.86C15.3023 157.324 16.5 159.775 17.6685 162.208V63.8215C15.3321 64.9133 13.1171 66.1995 11.0428 67.7128V148.581ZM265.025 15.6523C267.234 16.0037 269.442 16.5086 271.651 17.1856V354.695C269.513 356.457 267.302 358.178 265.025 359.846V15.6523ZM277.559 349.546C277.067 349.999 276.57 350.451 276.068 350.9V18.7168C278.31 19.5732 280.52 20.5373 282.693 21.6015V344.333C281.077 346.139 279.368 347.879 277.559 349.546ZM128.096 51.3984C125.894 51.9271 123.686 52.4509 121.47 52.9683V303.816C123.804 307.574 125.99 311.489 128.096 315.477V51.3984ZM83.9248 58.2326C81.7284 58.2576 79.5174 58.2533 77.299 58.2321V255.111C79.4717 257.428 81.6869 259.692 83.9248 261.929V58.2326ZM39.7538 58.4999C37.5009 58.7038 35.2892 58.9712 33.1283 59.3181V195.821C35.2033 199.54 37.4235 203.166 39.7538 206.725V58.4999ZM298.153 31.3006C300.436 33.0733 302.648 34.9566 304.779 36.938V170.111C303.929 173.036 303.284 176.004 302.902 179.026C301.839 187.446 302.93 195.726 304.779 203.955V300.925C302.955 307.391 300.791 313.696 298.153 319.711V31.3006ZM309.196 282.05V220.818C312.412 232.633 315.213 244.46 313.415 256.56C312.169 264.943 310.856 273.529 309.196 282.05ZM253.982 15.0886C256.191 14.9799 258.4 14.9937 260.608 15.1486V362.959C258.446 364.423 256.236 365.837 253.982 367.191V15.0886ZM117.053 53.9878C114.855 54.4891 112.647 54.9834 110.427 55.4694V288.892C111.47 290.092 112.499 291.311 113.511 292.551C114.735 294.048 115.913 295.595 117.053 297.183V53.9878ZM68.0003 58.0773H68.0002H68.0002H67.9999H67.9996H67.9994H67.9991H67.9989H67.9986H67.9983H67.998L67.9978 58.0773C67.4171 58.0656 66.8366 58.0539 66.2564 58.0424V242.162C66.6113 242.616 66.9661 243.071 67.3206 243.527C69.1187 245.837 70.9774 248.07 72.8819 250.244V58.171C71.2555 58.143 69.6277 58.1101 68.0014 58.0773H68.0013H68.0013H68.0012H68.0011H68.001H68.001H68.0009H68.0008H68.0008H68.0007H68.0006H68.0006H68.0005H68.0004H68.0004H68.0003ZM28.7112 60.1593C26.43 60.6674 24.2173 61.2838 22.0856 62.0293V171.719C23.1786 174.185 24.2076 176.622 25.1471 179.026C26.2447 181.833 27.4366 184.577 28.7112 187.266V60.1593ZM287.11 23.9299C289.368 25.206 291.579 26.5896 293.736 28.0714V328.662C291.753 332.238 289.555 335.674 287.11 338.938V23.9299ZM242.94 16.5664C245.149 16.1012 247.358 15.7276 249.565 15.4639V369.738C247.388 370.941 245.178 372.086 242.94 373.164V16.5664ZM334.545 89.2954C336.31 98.6511 334.631 107.511 331.281 116.177V77.1335C332.675 81.1371 333.773 85.2047 334.545 89.2954ZM231.897 19.5651C234.107 18.8476 236.316 18.1906 238.523 17.6126V375.191C236.334 376.145 234.123 377.032 231.897 377.848V19.5651ZM220.854 23.5645C223.065 22.6983 225.273 21.862 227.48 21.0738V379.362C225.281 380.065 223.071 380.693 220.854 381.241V23.5645ZM210.345 27.8283C212.378 26.9895 214.409 26.1516 216.437 25.3286V382.224C214.23 382.661 212.02 383.014 209.812 383.278V28.0484L210.345 27.8284L210.345 27.8283ZM198.769 32.509C200.98 31.6514 203.189 30.7636 205.395 29.8635V383.685C203.179 383.828 200.969 383.876 198.769 383.824V32.509ZM187.726 36.4501C189.938 35.7451 192.147 34.9809 194.352 34.1751V383.581C192.127 383.387 189.916 383.084 187.726 382.666V36.4501ZM179.077 38.8618C180.489 38.5304 181.9 38.1659 183.309 37.7727V381.655C181.887 381.275 180.476 380.843 179.077 380.356C178.264 380.074 177.466 379.773 176.683 379.454V39.4262C177.48 39.2375 178.277 39.0493 179.077 38.8618ZM165.641 42.0966C167.841 41.5556 170.049 41.0172 172.266 40.4825V377.391C169.925 376.15 167.723 374.738 165.641 373.175V42.0966ZM154.598 44.8392C156.802 44.288 159.01 43.7371 161.224 43.1878V369.481C158.864 367.296 156.667 364.908 154.598 362.356V44.8392Z" fill="#F44F6D"/>
<path fill-rule="evenodd" clip-rule="evenodd" d="M200.462 61.1164C215.888 63.9445 231.038 69.0437 246.657 67.6215C273.719 65.1574 307.008 29.8072 325.479 49.7331C345.043 70.8398 296.942 106.759 307.683 133.457C317.245 157.226 360.483 149.076 374.162 170.74C385.825 189.213 379.975 215.262 372.232 235.69C364.537 255.992 347.888 271.847 330.773 285.209C315.027 297.502 295.406 302.772 276.846 310.161C260.329 316.737 244.336 325.292 226.611 326.678C209.378 328.026 192.814 321.733 175.925 318.052C159.376 314.446 141.032 314.881 127.257 305.026C113.501 295.185 112.108 274.241 99.2776 263.22C82.6482 248.936 52.5398 251.149 42.0953 231.877C32.5588 214.282 51.0381 192.925 50.3396 172.924C49.5382 149.976 33.9122 128.454 37.6924 105.805C41.5204 82.8698 50.9289 56.1725 71.6039 45.5213C94.2256 33.8672 121.937 46.3313 147.201 49.389C165.403 51.5919 182.427 57.8103 200.462 61.1164Z" fill="#DA3150"/>
<path fill-rule="evenodd" clip-rule="evenodd" d="M262.407 62.5506C291.504 73.2654 299.992 112.849 302.996 143.703C305.534 169.773 281.221 190.028 277.339 215.93C272.965 245.112 300.657 281.986 279.229 302.273C258.04 322.334 222.983 290.199 194.146 294.695C162.136 299.686 136.152 340.862 105.885 329.299C76.7597 318.173 76.2817 276.397 67.7577 246.412C60.4072 220.554 51.5534 193.615 60.0665 168.122C68.1895 143.796 90.2505 127.529 111.997 113.932C130.85 102.144 153.643 103.642 174.685 96.4539C205.095 86.0657 232.245 51.4439 262.407 62.5506Z" fill="url(#paint0_linear)"/>
<path d="M419.315 224.538L414.985 217.038L410.655 224.538L396.692 248.722L392.362 256.222H401.023H428.947H437.608L433.277 248.722L419.315 224.538Z" stroke="#F91D45" stroke-width="10"/>
<circle cx="59.6307" cy="153.273" r="17.0854" stroke="#F91D45" stroke-width="10"/>
<circle cx="42.1832" cy="313.392" r="4.63794" fill="#F91D45"/>
<defs>
<linearGradient id="paint0_linear" x1="268.95" y1="65.6263" x2="-32.5932" y2="579.186" gradientUnits="userSpaceOnUse">
<stop offset="0.130208" stop-color="#F44F6D"/>
<stop offset="0.979167" stop-color="#B9A729"/>
</linearGradient>
</defs>
</svg>
