<svg width="297" height="124" viewBox="0 0 297 124" fill="none" xmlns="http://www.w3.org/2000/svg">
<path fill-rule="evenodd" clip-rule="evenodd" d="M189.786 0H189.795C198.68 0 206.989 3.1361 213.19 8.82701C217.973 13.2118 224.329 15.6231 231.098 15.6231V15.6231C237.867 15.6231 244.232 13.2118 249.015 8.82701C255.225 3.1361 263.542 0 272.427 0H272.445C281.33 0 289.639 3.1361 295.84 8.82701C297.216 10.0972 297.113 12.0636 295.582 13.2118C294.068 14.3529 291.712 14.2667 290.335 13.0037C285.562 8.61889 279.205 6.20761 272.445 6.20761H272.427C265.667 6.20761 259.302 8.61889 254.511 13.0037C248.301 18.6946 239.983 21.8235 231.098 21.8235V21.8235C222.204 21.8235 213.896 18.6946 207.686 13.0037C202.912 8.61889 196.564 6.20761 189.795 6.20761H189.786C183.017 6.20761 176.652 8.61889 171.861 13.0037C165.651 18.6946 157.342 21.8235 148.448 21.8235H148.44C139.555 21.8235 131.237 18.6946 125.027 13.0037C115.454 4.23409 98.7587 4.23409 89.1683 13.0037C82.9667 18.6946 74.6407 21.8235 65.7469 21.8235V21.8235C56.8532 21.8235 48.5272 18.6946 42.317 13.0037C37.5433 8.61889 31.1783 6.20761 24.4005 6.20761H24.3919C17.6227 6.20761 11.2577 8.61889 6.46682 13.0037C5.07341 14.2667 2.72525 14.3672 1.21143 13.2046C-0.302402 12.0564 -0.414218 10.0901 0.97059 8.82701C7.18933 3.1361 15.5068 0 24.3919 0H24.4005C33.2943 0 41.6117 3.1361 47.8304 8.82701C52.6042 13.2118 58.9691 15.6231 65.7469 15.6231V15.6231C72.5248 15.6231 78.8897 13.2118 83.6806 8.82701C96.1009 -2.54763 118.103 -2.54763 130.523 8.82701C135.314 13.2118 141.671 15.6231 148.44 15.6231H148.448C155.218 15.6231 161.574 13.2118 166.373 8.82701C172.584 3.1361 180.892 0 189.786 0" fill="#DBE9F9"/>
<path fill-rule="evenodd" clip-rule="evenodd" d="M189.786 50.7651H189.795C198.68 50.7651 206.989 53.9012 213.19 59.5921C217.973 63.9769 224.329 66.3882 231.098 66.3882V66.3882C237.867 66.3882 244.232 63.9769 249.015 59.5921C255.225 53.9012 263.542 50.7651 272.427 50.7651H272.445C281.33 50.7651 289.639 53.9012 295.84 59.5921C297.216 60.8624 297.113 62.8287 295.582 63.9769C294.068 65.118 291.712 65.0319 290.335 63.7688C285.562 59.384 279.205 56.9727 272.445 56.9727H272.427C265.667 56.9727 259.302 59.384 254.511 63.7688C248.301 69.4597 239.983 72.5887 231.098 72.5887V72.5887C222.204 72.5887 213.896 69.4597 207.686 63.7688C202.912 59.384 196.564 56.9727 189.795 56.9727H189.786C183.017 56.9727 176.652 59.384 171.861 63.7688C165.651 69.4597 157.342 72.5887 148.448 72.5887H148.44C139.555 72.5887 131.237 69.4597 125.027 63.7688C115.454 54.9992 98.7587 54.9992 89.1683 63.7688C82.9667 69.4597 74.6407 72.5887 65.7469 72.5887V72.5887C56.8532 72.5887 48.5272 69.4597 42.317 63.7688C37.5433 59.384 31.1783 56.9727 24.4005 56.9727H24.3919C17.6227 56.9727 11.2577 59.384 6.46682 63.7688C5.07341 65.0319 2.72525 65.1324 1.21143 63.9698C-0.302402 62.8215 -0.414218 60.8552 0.97059 59.5921C7.18933 53.9012 15.5068 50.7651 24.3919 50.7651H24.4005C33.2943 50.7651 41.6117 53.9012 47.8304 59.5921C52.6042 63.9769 58.9691 66.3882 65.7469 66.3882V66.3882C72.5248 66.3882 78.8897 63.9769 83.6806 59.5921C96.1009 48.2175 118.103 48.2175 130.523 59.5921C135.314 63.9769 141.671 66.3882 148.44 66.3882H148.448C155.218 66.3882 161.574 63.9769 166.373 59.5921C172.584 53.9012 180.892 50.7651 189.786 50.7651" fill="#DBE9F9"/>
<path fill-rule="evenodd" clip-rule="evenodd" d="M189.786 101.347H189.795C198.68 101.347 206.989 104.483 213.19 110.174C217.973 114.558 224.329 116.97 231.098 116.97V116.97C237.867 116.97 244.232 114.558 249.015 110.174C255.225 104.483 263.542 101.347 272.427 101.347H272.445C281.33 101.347 289.639 104.483 295.84 110.174C297.216 111.444 297.113 113.41 295.582 114.558C294.068 115.7 291.712 115.613 290.335 114.35C285.562 109.966 279.205 107.554 272.445 107.554H272.427C265.667 107.554 259.302 109.966 254.511 114.35C248.301 120.041 239.983 123.17 231.098 123.17V123.17C222.204 123.17 213.896 120.041 207.686 114.35C202.912 109.966 196.564 107.554 189.795 107.554H189.786C183.017 107.554 176.652 109.966 171.861 114.35C165.651 120.041 157.342 123.17 148.448 123.17H148.44C139.555 123.17 131.237 120.041 125.027 114.35C115.454 105.581 98.7587 105.581 89.1683 114.35C82.9667 120.041 74.6407 123.17 65.7469 123.17V123.17C56.8532 123.17 48.5272 120.041 42.317 114.35C37.5433 109.966 31.1783 107.554 24.4005 107.554H24.3919C17.6227 107.554 11.2577 109.966 6.46682 114.35C5.07341 115.613 2.72525 115.714 1.21143 114.551C-0.302402 113.403 -0.414218 111.437 0.97059 110.174C7.18933 104.483 15.5068 101.347 24.3919 101.347H24.4005C33.2943 101.347 41.6117 104.483 47.8304 110.174C52.6042 114.558 58.9691 116.97 65.7469 116.97V116.97C72.5248 116.97 78.8897 114.558 83.6806 110.174C96.1009 98.799 118.103 98.799 130.523 110.174C135.314 114.558 141.671 116.97 148.44 116.97H148.448C155.218 116.97 161.574 114.558 166.373 110.174C172.584 104.483 180.892 101.347 189.786 101.347" fill="#DBE9F9"/>
</svg>
