<svg width="442" height="383" viewBox="0 0 442 383" fill="none" xmlns="http://www.w3.org/2000/svg">
<path fill-rule="evenodd" clip-rule="evenodd" d="M134.964 49.466C132.891 49.9797 130.815 50.4907 128.735 50.9978V308.394C129.376 309.674 130.014 310.957 130.651 312.238L130.651 312.238C132.083 315.117 133.511 317.988 134.964 320.82V49.466ZM139.117 328.61C141.087 332.137 143.143 335.545 145.346 338.762V46.8758C143.269 47.396 141.193 47.9157 139.117 48.4335V328.61ZM93.4371 58.0136C91.385 58.1678 89.3061 58.2724 87.2078 58.3399V254.036C88.1588 254.967 89.1116 255.895 90.0646 256.825L90.0648 256.825C91.1896 257.921 92.3146 259.018 93.4371 260.119V58.0136ZM97.5899 264.231C99.6934 266.341 101.776 268.481 103.819 270.674V56.7018C101.783 57.0835 99.7042 57.3867 97.5899 57.6257V264.231ZM51.9095 58.1571C49.8087 58.1946 47.7298 58.2641 45.6804 58.3785V204.144C47.7004 207.017 49.7841 209.853 51.9095 212.67V58.1571ZM56.0623 218.096C58.1052 220.732 60.1723 223.361 62.2451 225.998L62.2474 226.001L62.2476 226.001L62.248 226.002L62.2481 226.002L62.2494 226.003L62.2913 226.057V58.1744C60.2036 58.1421 58.1249 58.1205 56.0623 58.1213V218.096ZM294.845 42.5146C297.036 44.8181 299.117 47.2344 301.074 49.7453V140.68C298.85 144.637 296.709 148.628 294.845 152.684V42.5146ZM311.456 122.078C309.529 125.863 307.395 129.631 305.227 133.411V55.4944C307.546 58.965 309.632 62.5757 311.456 66.2853V122.078ZM10.3821 70.9115C8.88049 72.4291 7.48753 74.1227 6.21501 76.0119C5.45052 77.1469 4.76461 78.2979 4.15296 79.464V119.051C5.88337 124.177 8.03691 129.358 10.3821 134.535V70.9115ZM14.5349 143.37C15.4872 145.343 16.4482 147.31 17.4051 149.268L17.4066 149.271C18.5387 151.588 19.6649 153.893 20.7636 156.181V63.6828C18.5672 64.7092 16.4849 65.9183 14.5349 67.341V143.37ZM253.318 18.396C255.394 18.7264 257.47 19.2011 259.547 19.8376V337.149C257.537 338.806 255.458 340.423 253.318 341.991V18.396ZM265.101 332.308C264.639 332.734 264.172 333.159 263.7 333.581V21.2772C265.807 22.0824 267.886 22.9888 269.929 23.9893V327.407C268.409 329.105 266.802 330.741 265.101 332.308ZM124.583 52.0029C122.513 52.5001 120.437 52.9925 118.353 53.4789V289.315C120.548 292.848 122.603 296.528 124.583 300.278V52.0029ZM83.0551 58.4282C80.9902 58.4517 78.9116 58.4477 76.8261 58.4277V243.525C78.8687 245.703 80.9512 247.832 83.0551 249.934V58.4282ZM41.5277 58.6795C39.4096 58.8712 37.3302 59.1226 35.2985 59.4488V187.782C37.2494 191.279 39.3368 194.688 41.5277 198.034V58.6795ZM284.463 33.108C286.61 34.7746 288.689 36.5452 290.693 38.408V163.611C289.893 166.361 289.287 169.152 288.928 171.992C287.928 179.909 288.954 187.694 290.693 195.43V286.597C288.977 292.676 286.943 298.603 284.463 304.258V33.108ZM294.845 268.852V211.284C297.869 222.391 300.502 233.511 298.811 244.887C297.64 252.768 296.406 260.841 294.845 268.852ZM0.000212897 97.2531C-7.06878e-05 97.1596 -7.12433e-05 97.0661 0.000212897 96.9726V97.2531ZM242.936 17.8661C245.013 17.7639 247.089 17.7769 249.165 17.9226V344.918C247.133 346.295 245.054 347.624 242.936 348.898V17.8661ZM114.201 54.4374C112.134 54.9088 110.059 55.3735 107.972 55.8303V275.284C108.952 276.412 109.919 277.558 110.871 278.724C112.021 280.132 113.129 281.586 114.201 283.079V54.4374ZM72.6734 58.3703C71.1438 58.3439 69.6129 58.3131 68.0835 58.2822L68.0537 58.2816C67.517 58.2708 66.9804 58.26 66.4441 58.2494V231.351C66.7778 231.778 67.1113 232.205 67.4446 232.634C69.1352 234.806 70.8827 236.905 72.6734 238.949V58.3703ZM31.1458 60.2395C29.001 60.7173 26.9206 61.2969 24.9164 61.9978V165.122C25.9441 167.441 26.9116 169.733 27.7949 171.992C28.8268 174.632 29.9475 177.211 31.1458 179.739V60.2395ZM274.081 26.1783C276.204 27.3781 278.283 28.6789 280.311 30.0721V312.674C278.446 316.036 276.38 319.266 274.081 322.335V26.1783ZM232.554 19.2555C234.631 18.8181 236.708 18.4668 238.783 18.219V351.292C236.736 352.423 234.658 353.499 232.554 354.513V19.2555ZM318.677 87.632C320.337 96.428 318.758 104.758 315.609 112.905V76.1976C316.919 79.9617 317.951 83.786 318.677 87.632ZM222.172 22.0748C224.25 21.4001 226.326 20.7825 228.401 20.239V356.418C226.343 357.315 224.265 358.15 222.172 358.916V22.0748ZM211.79 25.8348C213.868 25.0204 215.945 24.2342 218.019 23.4932V360.34C215.952 361 213.874 361.591 211.79 362.107V25.8348ZM201.911 29.843L201.912 29.8425L201.913 29.842L201.915 29.8414L201.916 29.8409L201.917 29.8404C203.826 29.0528 205.733 28.266 207.638 27.4933V363.031C205.562 363.441 203.485 363.773 201.408 364.021V30.0503L201.909 29.8438L201.91 29.8435L201.911 29.843ZM191.027 34.244C193.106 33.4377 195.182 32.6031 197.256 31.7569V364.404C195.173 364.538 193.095 364.584 191.027 364.535V34.244ZM180.645 37.9492C182.724 37.2864 184.801 36.568 186.874 35.8104V364.306C184.782 364.124 182.704 363.839 180.645 363.446V37.9492ZM172.513 40.2166C173.841 39.9051 175.167 39.5623 176.492 39.1927V362.496C175.155 362.138 173.828 361.732 172.513 361.275C171.749 361.009 170.999 360.727 170.263 360.427V40.7472C171.011 40.5698 171.761 40.3929 172.513 40.2166ZM159.881 43.2578C161.949 42.7492 164.025 42.243 166.11 41.7403V358.487C163.909 357.32 161.838 355.992 159.881 354.523V43.2578ZM149.499 45.8363C151.571 45.3181 153.647 44.8001 155.728 44.2837V351.05C153.51 348.996 151.444 346.751 149.499 344.352V45.8363Z" fill="#F7B80C"/>
<path fill-rule="evenodd" clip-rule="evenodd" d="M215.055 49.9593C243.2 45.0587 255.575 3.28381 283.982 0.254072C307.513 -2.25562 335.865 14.1269 344.534 36.1498C355.03 62.8106 325.346 92.2989 331.255 120.336C335.354 139.785 363.679 145.407 371.419 163.715C379.287 182.325 383.623 205.458 374.958 223.711C365.951 242.681 334.878 242.734 325.083 261.31C312.844 284.523 337.653 326.535 314.367 338.628C289.854 351.358 266.459 308.496 238.948 306.042C220.214 304.371 205.682 323.836 187.193 327.284C165.801 331.273 138.544 307.286 119.362 297.01C100.48 286.894 124.579 259.228 111.335 242.389C97.839 225.229 48.7618 248.222 43.2871 227.087C37.7796 205.825 55.3993 185.374 59.4314 163.783C63.139 143.931 63.0018 124.032 66.2554 104.1C70.2841 79.4197 62.6562 48.1228 81.0722 31.2086C99.4586 14.3216 130.116 19.2813 154.838 22.741C176.84 25.8202 193.168 53.7704 215.055 49.9593Z" fill="#F5C84C"/>
<path fill-rule="evenodd" clip-rule="evenodd" d="M186.576 56.4445C215.042 51.8955 245.244 44.0221 270.938 57.1093C298.328 71.0609 325.564 97.0462 326.654 127.795C327.746 158.607 287.5 173.848 276.089 202.485C265.963 227.898 283.002 260.997 265.28 281.824C246.924 303.393 214.316 313.296 186.576 307.674C159.999 302.288 150.803 268.785 128.054 254.011C103.124 237.82 63.2962 244.155 48.7883 218.189C34.3366 192.325 46.3502 158.489 59.9833 132.183C72.3323 108.354 96.7299 95.0403 119.746 81.27C140.654 68.7612 162.524 60.2881 186.576 56.4445Z" fill="url(#paint0_linear)"/>
<path d="M21.6387 249.544L36.7514 275.72H6.52605L21.6387 249.544Z" fill="#D9A310"/>
<circle cx="392.639" cy="191.259" r="44.0894" stroke="#D6A51E" stroke-width="10"/>
<circle cx="310.97" cy="369.255" r="13.2625" fill="#F5C84C"/>
<defs>
<linearGradient id="paint0_linear" x1="184.453" y1="49.9087" x2="184.453" y2="309.225" gradientUnits="userSpaceOnUse">
<stop stop-color="#F5C84C"/>
<stop offset="1" stop-color="#BF941B"/>
</linearGradient>
</defs>
</svg>
