<svg width="25" height="24" viewBox="0 0 25 24" fill="none" xmlns="http://www.w3.org/2000/svg">
<path d="M6.94444 21C5.83333 21 4.72222 19.95 4.16667 19.5C1.38889 17.4 0.555556 16.65 0 16.2V22.5C0 23.3283 0.621962 24 1.38889 24H12.5C13.2669 24 13.8889 23.3283 13.8889 22.5V16.2C13.3333 16.65 12.5 17.4 9.72222 19.5C9.16667 19.95 8.05556 21 6.94444 21ZM12.5 12H1.38889C0.621962 12 0 12.6717 0 13.5V14.25C1.11111 15.15 0.972222 15.15 5 18.3C5.41667 18.6 6.25 19.5 6.94444 19.5C7.63889 19.5 8.47222 18.6 8.88889 18.45C12.9167 15.3 12.7778 15.3 13.8889 14.4V13.5C13.8889 12.6717 13.2669 12 12.5 12ZM23.6111 7.5H9.72222C8.95529 7.5 8.33333 8.17172 8.33333 9V10.5H12.5C13.9414 10.5 15.1298 11.6916 15.2652 13.2103L15.2778 13.2V19.5H23.6111C24.378 19.5 25 18.8283 25 18V9C25 8.17172 24.378 7.5 23.6111 7.5ZM22.2222 13.5H19.4444V10.5H22.2222V13.5ZM6.94444 9C6.94444 7.34578 8.19054 6 9.72222 6H19.4444V1.5C19.4444 0.671719 18.8225 0 18.0556 0H4.16667C3.39974 0 2.77778 0.671719 2.77778 1.5V10.5H6.94444V9Z" fill="#333333"/>
</svg>
