<svg width="319" height="149" viewBox="0 0 319 149" fill="none" xmlns="http://www.w3.org/2000/svg">
<path d="M80.4457 148.09C117.631 148.09 147.776 146.962 147.776 145.57C147.776 144.178 117.631 143.05 80.4457 143.05C43.2604 143.05 13.1157 144.178 13.1157 145.57C13.1157 146.962 43.2604 148.09 80.4457 148.09Z" fill="#D1D3D4"/>
<path d="M234.616 148.09C267.073 148.09 293.386 146.962 293.386 145.57C293.386 144.178 267.073 143.05 234.616 143.05C202.158 143.05 175.846 144.178 175.846 145.57C175.846 146.962 202.158 148.09 234.616 148.09Z" fill="#D1D3D4"/>
<path d="M270.586 132.2C270.586 132.2 266.416 139.63 266.826 139.63H275.496L280.776 132.2H270.586Z" fill="white"/>
<path d="M275.496 140.13H266.876C266.785 140.128 266.696 140.103 266.617 140.058C266.539 140.012 266.473 139.948 266.426 139.87C266.256 139.59 266.086 139.29 270.196 131.96C270.237 131.882 270.299 131.816 270.375 131.771C270.451 131.725 270.537 131.7 270.626 131.7H280.776C280.866 131.703 280.954 131.729 281.032 131.776C281.109 131.824 281.172 131.891 281.216 131.97C281.264 132.048 281.29 132.138 281.29 132.23C281.29 132.322 281.264 132.412 281.216 132.49L275.936 139.92C275.887 139.99 275.821 140.047 275.744 140.084C275.666 140.12 275.581 140.136 275.496 140.13ZM267.496 139.13H275.196L279.766 132.7H270.886C269.496 135.24 267.996 138.04 267.496 139.13Z" fill="#231F20"/>
<path d="M249.046 94.3L284.426 102.3L267.866 135.6L279.356 136.46C279.356 136.46 305.306 103.54 301.786 98.17C298.266 92.8 275.576 80.04 275.576 80.04L253.636 85.59L249.046 94.3Z" fill="#231F20"/>
<path d="M279.356 136.96L267.856 136.1C267.774 136.095 267.694 136.069 267.624 136.025C267.555 135.982 267.497 135.921 267.456 135.85C267.419 135.777 267.4 135.697 267.4 135.615C267.4 135.533 267.419 135.453 267.456 135.38L283.736 102.65L248.976 94.7901C248.9 94.7741 248.83 94.7409 248.769 94.6931C248.709 94.6453 248.66 94.5841 248.627 94.5144C248.594 94.4447 248.578 94.3683 248.579 94.2912C248.581 94.2141 248.6 94.1384 248.636 94.0701L253.236 85.3601C253.269 85.2983 253.314 85.2442 253.369 85.2011C253.424 85.1581 253.488 85.127 253.556 85.1101L275.496 79.5501C275.621 79.5213 275.753 79.5391 275.866 79.6001C276.796 80.1301 298.706 92.4901 302.246 97.9001C305.786 103.31 282.466 133.37 279.786 136.77C279.736 136.835 279.67 136.887 279.595 136.92C279.52 136.953 279.438 136.967 279.356 136.96ZM268.646 135.16L279.126 135.94C289.456 122.81 303.796 102.14 301.376 98.4401C298.116 93.4401 277.616 81.7701 275.506 80.5701L253.976 86.0401L249.786 93.9801L284.496 101.81C284.57 101.828 284.639 101.863 284.698 101.911C284.756 101.96 284.804 102.021 284.836 102.09C284.87 102.157 284.888 102.23 284.888 102.305C284.888 102.38 284.87 102.454 284.836 102.52L268.646 135.16Z" fill="#231F20"/>
<path d="M266.826 139.63L263.076 145.15C263.076 145.15 284.166 145.24 284.176 144.5C284.186 143.76 275.446 139.63 275.446 139.63H266.826Z" fill="#231F20"/>
<path d="M266.806 145.66H263.076C262.985 145.659 262.897 145.634 262.82 145.587C262.743 145.54 262.68 145.473 262.638 145.393C262.595 145.313 262.576 145.223 262.581 145.132C262.586 145.042 262.615 144.955 262.666 144.88L266.416 139.36C266.461 139.292 266.522 139.237 266.593 139.198C266.665 139.16 266.745 139.14 266.826 139.14H275.496C275.565 139.126 275.637 139.126 275.706 139.14C284.706 143.4 284.706 144.14 284.706 144.47C284.666 145.04 284.656 145.66 266.806 145.66ZM264.026 144.66C270.716 144.66 280.456 144.57 283.206 144.25C280.656 142.735 278.025 141.36 275.326 140.13H267.096L264.026 144.66Z" fill="#231F20"/>
<path d="M223.936 53.3999L206.996 61.5499C206.996 61.5499 198.456 62.6499 197.366 64.1099C196.276 65.5699 195.786 68.4099 197.426 69.3499C199.066 70.2899 204.706 69.0299 204.706 69.0299L231.586 58.8799L223.936 53.3999Z" fill="white"/>
<path d="M199.496 70.1899C198.701 70.2432 197.905 70.1025 197.176 69.78C196.853 69.5884 196.577 69.3292 196.364 69.0201C196.152 68.711 196.009 68.3596 195.946 67.9899C195.713 66.5192 196.073 65.0162 196.946 63.81C198.086 62.28 205.206 61.28 206.836 61.07L223.696 52.95C223.777 52.9104 223.868 52.8941 223.958 52.903C224.048 52.9118 224.134 52.9454 224.206 53L231.856 58.4699C231.929 58.5233 231.986 58.5947 232.023 58.6771C232.06 58.7596 232.075 58.8501 232.066 58.9399C232.053 59.0304 232.017 59.1159 231.961 59.1878C231.905 59.2598 231.83 59.3157 231.746 59.3499L204.856 69.5C203.095 69.8963 201.3 70.1273 199.496 70.1899ZM223.886 53.98L207.216 61.98H207.056C203.606 62.42 198.436 63.45 197.776 64.34C197.07 65.3125 196.766 66.5192 196.926 67.7099C196.96 67.9419 197.045 68.1636 197.174 68.3589C197.304 68.5543 197.475 68.7186 197.676 68.84C198.746 69.46 202.486 68.9399 204.596 68.4699L230.496 58.7399L223.886 53.98Z" fill="#231F20"/>
<path d="M216.496 65.0401L210.576 56.6501C210.576 56.6501 261.576 33.0601 262.356 33.9101C263.136 34.7601 262.356 54.4601 262.356 54.4601L216.496 65.0401Z" fill="#87D147"/>
<path d="M111.626 135.15L116.966 140.01L122.316 136.54L115.186 128.41L111.626 135.15Z" fill="white"/>
<path d="M116.966 140.51C116.905 140.511 116.845 140.5 116.788 140.478C116.731 140.456 116.68 140.422 116.636 140.38L111.286 135.52C111.204 135.446 111.149 135.347 111.129 135.239C111.109 135.13 111.125 135.018 111.176 134.92L114.746 128.18C114.783 128.107 114.836 128.045 114.903 127.998C114.969 127.951 115.045 127.921 115.126 127.91C115.207 127.902 115.29 127.913 115.366 127.942C115.443 127.972 115.511 128.019 115.566 128.08L122.696 136.21C122.742 136.265 122.776 136.329 122.797 136.398C122.818 136.466 122.824 136.539 122.816 136.61C122.806 136.68 122.781 136.748 122.743 136.808C122.705 136.869 122.655 136.92 122.596 136.96L117.246 140.43C117.163 140.485 117.065 140.513 116.966 140.51ZM112.246 135.04L117.026 139.38L121.566 136.44L115.286 129.29L112.246 135.04Z" fill="#231F20"/>
<path d="M27.1557 130.29C27.0157 130.71 22.5757 135.01 22.5757 135.01L28.7757 139.18L33.1357 134.73L27.1557 130.29Z" fill="white"/>
<path d="M28.7759 139.68C28.6774 139.677 28.5813 139.649 28.4959 139.6L22.2959 135.43C22.2335 135.389 22.1812 135.334 22.1431 135.27C22.105 135.206 22.082 135.134 22.0759 135.06C22.0704 134.985 22.0809 134.909 22.1067 134.839C22.1326 134.768 22.1732 134.704 22.2259 134.65C24.2259 132.65 26.4959 130.42 26.7059 130.08C26.7281 130.009 26.7683 129.945 26.8226 129.894C26.877 129.843 26.9436 129.807 27.0159 129.79C27.0917 129.768 27.1718 129.766 27.2487 129.784C27.3256 129.801 27.3968 129.838 27.4559 129.89L33.4559 134.33C33.5113 134.375 33.5568 134.431 33.5895 134.495C33.6222 134.559 33.6414 134.628 33.6459 134.7C33.6459 134.764 33.6326 134.827 33.6068 134.886C33.5809 134.944 33.5432 134.997 33.4959 135.04L29.1459 139.49C29.101 139.546 29.0449 139.592 28.9812 139.624C28.9174 139.657 28.8475 139.676 28.7759 139.68ZM23.3659 134.94L28.7159 138.53L32.3759 134.79L27.2559 130.98C26.7959 131.52 25.7559 132.62 23.3659 134.94Z" fill="#231F20"/>
<path d="M39.3857 80.8399L45.9957 105.1L24.8057 130.84L32.6657 137.14C32.6657 137.14 65.8257 111.59 65.6657 108.99C65.5057 106.39 62.6657 95.0699 62.6657 95.0699L111.446 137.14L119.046 131.59L68.9957 71.3999L39.3857 80.8399Z" fill="#231F20"/>
<path d="M111.386 137.64C111.268 137.64 111.155 137.597 111.066 137.52L63.4658 96.52C64.2558 99.72 65.9958 106.94 66.1358 109C66.3258 111.66 40.7958 131.55 32.9758 137.58C32.8875 137.65 32.7783 137.688 32.6658 137.688C32.5533 137.688 32.4441 137.65 32.3558 137.58L24.4958 131.23C24.4437 131.19 24.4001 131.141 24.3675 131.084C24.3348 131.028 24.3139 130.965 24.3058 130.9C24.2947 130.767 24.3339 130.635 24.4158 130.53L45.4158 104.98L38.8758 80.98C38.8438 80.8555 38.86 80.7234 38.9212 80.6103C38.9824 80.4972 39.084 80.4114 39.2058 80.37L68.7658 70.92C68.8616 70.8907 68.9639 70.8903 69.0599 70.9187C69.1559 70.9472 69.2415 71.0033 69.3058 71.08L119.306 131.27C119.35 131.322 119.384 131.383 119.404 131.448C119.425 131.513 119.432 131.582 119.426 131.65C119.416 131.718 119.392 131.783 119.356 131.842C119.32 131.9 119.272 131.951 119.216 131.99L111.626 137.55C111.554 137.599 111.472 137.63 111.386 137.64ZM25.4958 130.77L32.6558 136.51C45.1858 126.85 64.8158 111.04 65.1458 109.04C64.9558 106.54 62.1458 95.35 62.1458 95.24C62.12 95.1358 62.1285 95.0261 62.1699 94.927C62.2113 94.8279 62.2835 94.7448 62.3758 94.69C62.4601 94.6243 62.5639 94.5887 62.6708 94.5887C62.7777 94.5887 62.8815 94.6243 62.9658 94.69L111.446 136.49L118.286 131.49L68.7958 71.97L39.9958 81.17L46.4958 104.97C46.5141 105.048 46.5146 105.129 46.4973 105.206C46.48 105.284 46.4453 105.357 46.3958 105.42L25.4958 130.77Z" fill="#231F20"/>
<path d="M68.8457 58.04L88.7057 63.74C88.7057 63.74 95.7057 61.39 97.1257 62.57C98.5457 63.75 101.306 67.43 99.9157 68.72C98.5257 70.01 91.3557 69.97 91.3557 69.97L62.6057 65.04L68.8457 58.04Z" fill="white"/>
<path d="M91.4958 70.4599H91.3858L62.4959 65.5699C62.4076 65.554 62.325 65.5152 62.2565 65.4573C62.1881 65.3993 62.1361 65.3243 62.1059 65.2399C62.075 65.1554 62.068 65.0641 62.0857 64.9759C62.1033 64.8877 62.1449 64.806 62.2058 64.7399L68.4359 57.7399C68.5011 57.6705 68.5838 57.6199 68.6753 57.5935C68.7668 57.5671 68.8637 57.5659 68.9558 57.5899L88.6658 63.2499C90.1758 62.7499 95.9458 60.9599 97.4258 62.2499C98.5358 63.2499 100.726 65.8699 100.766 67.7599C100.781 68.0153 100.74 68.2709 100.647 68.5091C100.554 68.7474 100.41 68.9626 100.226 69.1399C98.8158 70.3999 92.5958 70.4599 91.4958 70.4599ZM63.6059 64.7299L91.4958 69.4699C94.1158 69.4699 98.6858 69.1699 99.5858 68.3399C99.6646 68.2562 99.7249 68.1568 99.7628 68.0483C99.8007 67.9398 99.8154 67.8245 99.8058 67.7099C99.8058 66.3499 97.9858 63.9399 96.8058 62.9399C96.0758 62.3299 92.1158 63.1199 88.8658 64.1999C88.7724 64.2352 88.6693 64.2352 88.5759 64.1999L69.0059 58.5899L63.6059 64.7299Z" fill="#231F20"/>
<path d="M60.5757 50.1602C60.5757 50.1602 74.4957 57.3402 74.4957 58.0402C74.4957 58.7402 68.9657 66.4902 68.9657 66.4902L60.9657 63.6202L60.5757 50.1602Z" fill="#87D147"/>
<path d="M38.5957 33.54C36.4857 33.71 34.2057 33.79 32.5957 34.61C27.8457 36.99 28.5957 43.61 29.4757 47.82C31.7857 58.98 36.0257 69.93 39.4757 80.82C39.4757 80.82 64.4057 79.47 69.0257 71.38C69.0257 71.38 62.3957 38.49 59.3357 34.97C56.2757 31.45 46.3357 32.27 40.9557 33.26C40.1746 33.3955 39.3868 33.489 38.5957 33.54Z" fill="#87D147"/>
<path d="M68.4959 69.04C67.6859 62.76 59.2959 35.04 59.2959 35.04L68.4959 69.04Z" fill="#231F20"/>
<path d="M68.4959 69.4899C68.3745 69.4911 68.2569 69.4482 68.1649 69.3691C68.0729 69.2899 68.0128 69.1801 67.9959 69.0599C67.2059 62.8799 58.9059 35.4099 58.8159 35.1299C58.7787 34.9973 58.7958 34.8554 58.8633 34.7354C58.9308 34.6154 59.0433 34.5271 59.1759 34.4899C59.3085 34.4528 59.4504 34.4699 59.5704 34.5374C59.6904 34.6049 59.7787 34.7173 59.8159 34.8499C60.1559 35.9799 68.2259 62.6699 69.0259 68.9299C69.0429 69.0612 69.0072 69.1938 68.9266 69.2988C68.846 69.4038 68.7271 69.4725 68.5959 69.4899H68.4959Z" fill="#231F20"/>
<path d="M31.0957 36.5801C31.0957 36.5801 11.1857 63.0501 12.0157 65.5801C12.8457 68.1101 28.7757 71.0001 28.7757 71.0001L33.2857 62.1901L27.7157 59.4701L37.6157 43.6301L31.0957 36.5801Z" fill="#87D147"/>
<path d="M27.7159 59.94C27.6198 59.9415 27.5256 59.9136 27.4459 59.86C27.335 59.7881 27.2564 59.676 27.2266 59.5473C27.1967 59.4186 27.218 59.2833 27.2859 59.17L37.1959 43.34C37.2296 43.283 37.2746 43.2335 37.328 43.1944C37.3814 43.1553 37.4422 43.1275 37.5067 43.1125C37.5712 43.0976 37.638 43.0958 37.7032 43.1074C37.7684 43.119 37.8305 43.1437 37.8859 43.18C37.9967 43.2519 38.0754 43.364 38.1052 43.4927C38.1351 43.6214 38.1138 43.7566 38.0459 43.87L28.1359 59.7C28.0934 59.7736 28.0321 59.8346 27.9583 59.8767C27.8845 59.9189 27.8009 59.9407 27.7159 59.94Z" fill="#231F20"/>
<path d="M41.2558 31.42C35.7258 33.5 31.9658 24 30.9858 19.79C30.7336 18.8726 30.6589 17.9154 30.7658 16.97C30.9673 16.0817 31.3549 15.2463 31.9031 14.5188C32.4513 13.7914 33.1475 13.1885 33.9458 12.75C35.5606 11.8896 37.2309 11.1379 38.9458 10.5C42.6839 8.82814 45.9357 6.23358 48.3958 2.96001C49.2258 1.85001 50.1758 0.55001 51.5558 0.51001C51.9994 0.529574 52.4332 0.647365 52.8257 0.854881C53.2183 1.0624 53.5598 1.35446 53.8258 1.71001C54.4741 2.55109 54.8948 3.54504 55.0471 4.59599C55.1995 5.64694 55.0785 6.71943 54.6958 7.71001C53.9558 9.78001 52.4058 11.09 50.8358 12.49C51.9558 13.7 52.4658 13.98 52.4058 15.63C52.2491 17.1604 51.8296 18.6522 51.1658 20.04C50.4408 21.4933 49.6085 22.8905 48.6758 24.22C46.7958 27.15 44.9058 29.89 41.5258 31.32L41.2558 31.42Z" fill="white"/>
<path d="M39.6958 32.22C38.8875 32.2091 38.0942 31.9997 37.3858 31.61C33.6258 29.61 31.2359 23.07 30.4959 19.9C30.2355 18.9226 30.1575 17.9056 30.2658 16.9C30.4842 15.9426 30.9015 15.0418 31.4907 14.2561C32.0799 13.4705 32.8278 12.8177 33.6859 12.34C34.7846 11.6943 35.9393 11.1488 37.1358 10.71L38.6958 10.04C42.3602 8.40335 45.5471 5.86001 47.9559 2.65C48.8458 1.45 49.9559 0.04 51.5059 0C52.0233 0.0208184 52.5299 0.15524 52.9896 0.39373C53.4493 0.63222 53.8508 0.968934 54.1658 1.38C54.8686 2.27675 55.3295 3.33878 55.5046 4.46455C55.6797 5.59032 55.5631 6.74218 55.1658 7.81C54.3711 9.65753 53.1056 11.2643 51.4959 12.47C51.9537 12.833 52.3127 13.3054 52.5399 13.8437C52.7671 14.3819 52.8551 14.9688 52.7959 15.55C52.6498 17.1528 52.2304 18.7187 51.5558 20.18C50.9956 21.3497 50.3435 22.4732 49.6059 23.54C49.4059 23.83 49.2159 24.13 49.0259 24.43C47.0259 27.56 45.0759 30.27 41.6459 31.72L41.3559 31.84C40.8295 32.0642 40.2673 32.1929 39.6958 32.22ZM51.5659 1.04C50.4559 1.04 49.5658 2.21 48.8458 3.22C46.3289 6.59567 42.9895 9.27061 39.1459 10.99C38.6125 11.2233 38.0825 11.4433 37.5558 11.65C36.41 12.0746 35.3027 12.5965 34.2459 13.21C33.5053 13.6011 32.8559 14.1446 32.3406 14.8047C31.8252 15.4648 31.4555 16.2267 31.2559 17.04C31.167 17.9273 31.2484 18.8233 31.4959 19.68C32.3059 23.18 34.6758 29.02 37.8758 30.68C38.3608 30.9582 38.9027 31.1226 39.4605 31.1607C40.0183 31.1988 40.5775 31.1097 41.0958 30.9L41.3458 30.8C44.5258 29.46 46.2858 26.99 48.2658 23.89C48.4658 23.59 48.6659 23.29 48.8559 22.99C49.5717 21.9731 50.1974 20.8957 50.7259 19.77C51.3562 18.4278 51.7487 16.9864 51.8859 15.51C51.9461 15.066 51.8849 14.614 51.7089 14.202C51.5328 13.7899 51.2484 13.4333 50.8859 13.17L50.4759 12.73C50.3899 12.6345 50.3439 12.5095 50.3477 12.381C50.3514 12.2525 50.4045 12.1304 50.4959 12.04L50.7459 11.82C52.2568 10.6903 53.4489 9.18804 54.2059 7.46C54.5422 6.56272 54.6453 5.59473 54.5053 4.64675C54.3654 3.69877 53.9871 2.80184 53.4059 2.04C53.1879 1.7521 52.911 1.51398 52.5937 1.34155C52.2764 1.16911 51.926 1.06631 51.5659 1.04Z" fill="#231F20"/>
<path d="M52.5459 20.49C52.5459 20.49 55.5459 24.26 55.0559 25.13C54.5659 26 52.7159 25.62 52.7159 25.62" fill="white"/>
<path d="M53.6058 26.2101C53.27 26.2096 52.9351 26.1761 52.6058 26.1101C52.5413 26.096 52.4803 26.0692 52.4262 26.0313C52.3721 25.9934 52.3261 25.9451 52.2908 25.8893C52.2554 25.8336 52.2315 25.7713 52.2203 25.7062C52.2092 25.6412 52.211 25.5745 52.2258 25.5101C52.2388 25.4461 52.2645 25.3852 52.3014 25.3312C52.3383 25.2772 52.3857 25.2311 52.4407 25.1957C52.4956 25.1603 52.5572 25.1363 52.6216 25.125C52.686 25.1137 52.7521 25.1155 52.8158 25.1301C53.4458 25.2601 54.4158 25.2501 54.6058 24.8901C54.7958 24.5301 53.5358 22.5601 52.1458 20.8001C52.104 20.7494 52.0729 20.6907 52.0543 20.6277C52.0356 20.5646 52.0299 20.4985 52.0373 20.4332C52.0448 20.3679 52.0653 20.3047 52.0977 20.2475C52.1301 20.1903 52.1737 20.1402 52.2258 20.1001C52.3294 20.0184 52.4611 19.9809 52.5923 19.9959C52.7234 20.0109 52.8433 20.0771 52.9258 20.1801C54.1158 21.6801 56.0358 24.3501 55.4858 25.3701C55.278 25.6675 54.9934 25.9027 54.6622 26.0507C54.331 26.1986 53.9659 26.2538 53.6058 26.2101Z" fill="#231F20"/>
<path d="M50.9558 11.7601C52.7558 12.9901 53.0858 19.4301 53.2358 21.3201C53.4492 23.9868 53.5992 26.6534 53.6859 29.3201C53.7459 31.0001 49.3859 31.4201 48.5759 30.9801L49.8358 37.5701C49.8358 37.5701 47.8358 38.3301 44.1358 37.0101C40.4358 35.6901 40.3758 34.8601 40.3758 34.8601L39.9958 27.1601C39.9958 27.1601 42.8759 26.9301 44.2859 23.3501C45.6959 19.7701 45.1559 14.5101 45.1559 14.5101C45.1559 14.5101 49.1958 10.5701 50.9558 11.7601Z" fill="white"/>
<path d="M48.1558 38.27C46.7233 38.2402 45.3063 37.9663 43.9658 37.46C40.5358 36.22 39.9658 35.32 39.8758 34.9L39.4958 27.16C39.4902 27.0307 39.5351 26.9042 39.6209 26.8072C39.7067 26.7102 39.8267 26.6503 39.9558 26.64C40.0658 26.64 42.5558 26.37 43.8158 23.15C45.1558 19.73 44.6658 14.59 44.6558 14.54C44.6503 14.465 44.6608 14.3896 44.6867 14.3189C44.7125 14.2482 44.7531 14.1838 44.8058 14.13C45.2458 13.7 49.2058 9.96003 51.2358 11.35C52.8758 12.47 53.4058 16.74 53.6958 20.77V21.28C53.9058 23.92 54.0558 26.61 54.1458 29.28C54.1384 29.6004 54.0406 29.9121 53.8636 30.1793C53.6867 30.4464 53.4379 30.6582 53.1458 30.79C51.9111 31.4198 50.5288 31.7031 49.1458 31.61L50.2658 37.46C50.2893 37.5763 50.2698 37.6971 50.211 37.8001C50.1521 37.9031 50.0579 37.9812 49.9458 38.02C49.3669 38.201 48.7622 38.2854 48.1558 38.27ZM40.8758 34.72C40.9858 34.87 41.6058 35.54 44.3058 36.52C45.8873 37.1689 47.6101 37.3963 49.3058 37.18L48.0858 31.04C48.0681 30.9473 48.0765 30.8514 48.11 30.7631C48.1436 30.6748 48.201 30.5976 48.2758 30.54C48.3572 30.4906 48.4506 30.4644 48.5458 30.4644C48.6411 30.4644 48.7344 30.4906 48.8158 30.54C50.1412 30.7591 51.502 30.5562 52.7058 29.96C53.0392 29.76 53.1992 29.55 53.1858 29.33C53.0958 26.68 52.9458 24 52.7358 21.33V20.82C52.5958 18.93 52.1758 13.15 50.7358 12.16C49.7358 11.52 47.3058 13.16 45.7358 14.67C45.8258 15.77 46.0758 20.25 44.8058 23.5C44.4836 24.463 43.9291 25.3317 43.1913 26.0293C42.4536 26.727 41.5553 27.2321 40.5758 27.5L40.8758 34.72Z" fill="#231F20"/>
<path d="M53.4958 27.3199C52.1839 26.5932 50.6702 26.3157 49.1858 26.5299L53.4958 27.3199Z" fill="white"/>
<path d="M53.4958 27.8201C53.4076 27.8207 53.3209 27.7964 53.2458 27.7501C52.0256 27.0832 50.623 26.8272 49.2458 27.0201C49.1162 27.044 48.9823 27.0167 48.8723 26.944C48.7623 26.8713 48.6847 26.7588 48.6558 26.6301C48.6413 26.5656 48.6399 26.4989 48.6518 26.4339C48.6637 26.3689 48.6886 26.307 48.725 26.2519C48.7615 26.1968 48.8087 26.1496 48.8638 26.1132C48.9189 26.0768 48.9808 26.0519 49.0458 26.0401C50.6505 25.7983 52.2899 26.0974 53.7058 26.8901C53.7997 26.9458 53.8728 27.0306 53.9139 27.1317C53.955 27.2328 53.9619 27.3445 53.9336 27.4499C53.9053 27.5553 53.8432 27.6485 53.757 27.7154C53.6707 27.7822 53.565 27.819 53.4558 27.8201H53.4958Z" fill="#231F20"/>
<path d="M47.6059 22.6299C47.4709 21.9734 47.1558 21.3674 46.6959 20.8799C46.4038 20.453 46.046 20.075 45.6359 19.7599C45.4288 19.603 45.19 19.4932 44.9361 19.4379C44.6823 19.3827 44.4195 19.3833 44.1659 19.4399C43.9437 19.514 43.7398 19.6343 43.5674 19.7929C43.3951 19.9514 43.2582 20.1447 43.1659 20.3599C42.9938 20.7846 42.9186 21.2424 42.9459 21.6999C42.9904 22.7032 43.2973 23.6772 43.836 24.5248C44.3747 25.3723 45.1264 26.0637 46.0159 26.5299L45.8559 26.3799" fill="white"/>
<path d="M46.0459 27.0401C45.9655 27.0392 45.8865 27.0186 45.8159 26.9801C44.8462 26.4759 44.0279 25.7232 43.4446 24.799C42.8612 23.8749 42.5339 22.8123 42.4959 21.7201C42.4631 21.1871 42.552 20.6536 42.7559 20.1601C42.8724 19.8804 43.048 19.6292 43.2706 19.4238C43.4933 19.2184 43.7578 19.0636 44.0459 18.9701C44.369 18.885 44.7074 18.8751 45.035 18.9409C45.3626 19.0068 45.6707 19.1467 45.9359 19.3501C46.3909 19.6922 46.7891 20.104 47.1159 20.5701C47.6326 21.1281 47.9795 21.8219 48.1159 22.5701C48.13 22.7012 48.0916 22.8327 48.0092 22.9357C47.9268 23.0387 47.807 23.105 47.6759 23.1201C47.6102 23.127 47.5437 23.1208 47.4804 23.1019C47.4171 23.0829 47.3582 23.0516 47.307 23.0098C47.2559 22.9679 47.2136 22.9164 47.1825 22.8581C47.1514 22.7998 47.1321 22.7359 47.1259 22.6701C46.9989 22.1073 46.7225 21.5891 46.3259 21.1701C46.0457 20.7875 45.7085 20.4502 45.3259 20.1701C45.1869 20.0591 45.0256 19.9794 44.8531 19.9362C44.6806 19.8931 44.5008 19.8876 44.3259 19.9201C44.1781 19.974 44.0436 20.0591 43.9314 20.1695C43.8193 20.2799 43.7322 20.4131 43.6759 20.5601C43.5304 20.918 43.4688 21.3046 43.4959 21.6901C43.5358 22.5332 43.7785 23.3542 44.2032 24.0836C44.628 24.813 45.2223 25.4292 45.9359 25.8801C46.048 25.887 46.1542 25.933 46.2359 26.0101L46.4059 26.1601C46.4936 26.242 46.549 26.3527 46.5618 26.472C46.5747 26.5914 46.5442 26.7114 46.4759 26.8101C46.4305 26.8826 46.367 26.942 46.2915 26.9824C46.2161 27.0227 46.1314 27.0426 46.0459 27.0401Z" fill="#231F20"/>
<path d="M48.5759 30.96C47.2367 30.6478 46.0172 29.9529 45.0659 28.96C45.0659 28.96 45.5759 32.96 49.1359 33.86L48.5759 30.96Z" fill="#231F20"/>
<path d="M49.1358 34.3999H49.0158C45.1658 33.4599 44.5958 29.2499 44.5758 29.0799C44.563 28.973 44.5852 28.8647 44.6389 28.7713C44.6927 28.678 44.7751 28.6044 44.874 28.5617C44.973 28.519 45.083 28.5094 45.1879 28.5343C45.2927 28.5592 45.3867 28.6173 45.4558 28.7C46.3425 29.5887 47.4621 30.2092 48.6858 30.4899C48.7806 30.5101 48.8673 30.5579 48.9349 30.6273C49.0026 30.6967 49.0481 30.7846 49.0658 30.8799L49.6258 33.8199C49.6409 33.9015 49.6351 33.9856 49.6089 34.0643C49.5826 34.143 49.5368 34.2138 49.4758 34.27C49.3839 34.3562 49.2618 34.4029 49.1358 34.3999ZM45.9858 30.3999C46.4435 31.5888 47.3377 32.5581 48.4858 33.1099L48.1458 31.3299C47.3898 31.1294 46.6636 30.8301 45.9858 30.44V30.3999Z" fill="#231F20"/>
<path d="M51.2355 18.798C51.2778 18.275 51.1469 17.8377 50.9432 17.8213C50.7396 17.8048 50.5402 18.2154 50.4979 18.7384C50.4557 19.2614 50.5865 19.6986 50.7902 19.7151C50.9939 19.7316 51.1932 19.321 51.2355 18.798Z" fill="#231F20"/>
<path d="M51.6059 18.4599C51.5496 18.4695 51.4922 18.4695 51.4359 18.4599L49.4959 17.7399C49.4324 17.719 49.3738 17.6855 49.3234 17.6415C49.2731 17.5975 49.2321 17.5439 49.2029 17.4837C49.1737 17.4236 49.1568 17.3582 49.1533 17.2915C49.1498 17.2247 49.1597 17.1579 49.1824 17.0951C49.2051 17.0322 49.2403 16.9745 49.2857 16.9255C49.3311 16.8764 49.3859 16.837 49.4468 16.8094C49.5077 16.7819 49.5735 16.7669 49.6404 16.7653C49.7072 16.7637 49.7737 16.7754 49.8359 16.7999L51.7659 17.4899C51.8905 17.5351 51.9921 17.6278 52.0484 17.7478C52.1046 17.8679 52.1109 18.0053 52.0659 18.1299C52.0328 18.2258 51.9708 18.309 51.8884 18.3681C51.806 18.4272 51.7073 18.4593 51.6059 18.4599Z" fill="#231F20"/>
<path d="M44.2657 91.0401C44.1805 91.0407 44.0965 91.02 44.0214 90.9798C43.9463 90.9396 43.8825 90.8813 43.8357 90.8101C43.7582 90.6971 43.7283 90.5582 43.7527 90.4234C43.777 90.2885 43.8536 90.1688 43.9657 90.0901C45.153 89.2524 46.0764 88.0931 46.6274 86.7485C47.1783 85.404 47.3338 83.93 47.0757 82.5001C47.0612 82.4343 47.0601 82.3663 47.0725 82.3001C47.0849 82.2339 47.1106 82.1709 47.1479 82.1149C47.1853 82.0588 47.2336 82.0109 47.2899 81.974C47.3462 81.9371 47.4094 81.912 47.4757 81.9001C47.5421 81.8855 47.6107 81.8843 47.6775 81.8966C47.7444 81.9089 47.8081 81.9344 47.8649 81.9717C47.9217 82.009 47.9705 82.0572 48.0084 82.1136C48.0464 82.17 48.0726 82.2334 48.0857 82.3001C48.3809 83.9283 48.2055 85.607 47.5803 87.1391C46.955 88.6712 45.9058 89.9933 44.5557 90.9501C44.4701 91.0083 44.3692 91.0396 44.2657 91.0401Z" fill="white"/>
<path d="M47.3058 37.7298L45.3058 40.7298L46.7858 41.4698C46.7858 41.4698 45.8658 50.4698 36.0958 49.0798C25.9758 47.6698 19.4958 36.5798 19.4958 36.5798L11.9658 35.8198L14.3558 45.3598C14.3558 45.3598 27.1458 53.8298 36.9458 54.4398C44.4958 54.8998 48.4958 45.0398 48.1658 41.6098L49.6158 40.0998L47.3058 37.7298Z" fill="#231F20"/>
<path d="M30.2657 138.3L22.8057 133.81L18.1257 138.49L22.4957 141.96L25.8257 144.74L40.9257 145.57C40.9257 145.57 39.0657 141.77 35.2757 141.68C34.2018 141.667 33.1552 141.34 32.2649 140.74C31.3746 140.139 30.6796 139.291 30.2657 138.3Z" fill="#231F20"/>
<path d="M40.9158 146.04L25.8158 145.21C25.7092 145.2 25.6081 145.158 25.5258 145.09L22.1958 142.31L17.8458 138.85C17.7904 138.805 17.7449 138.748 17.7122 138.685C17.6795 138.621 17.6603 138.551 17.6558 138.48C17.6541 138.339 17.708 138.202 17.8058 138.1L22.4958 133.46C22.573 133.379 22.6757 133.327 22.7867 133.312C22.8977 133.298 23.0103 133.322 23.1058 133.38L30.4958 137.87C30.5966 137.926 30.6718 138.02 30.7058 138.13C31.0927 139.017 31.7285 139.772 32.5361 140.304C33.3437 140.837 34.2885 141.124 35.2558 141.13C39.2558 141.23 41.2558 145.13 41.3458 145.3C41.3878 145.377 41.4098 145.463 41.4098 145.55C41.4098 145.637 41.3878 145.723 41.3458 145.8C41.3017 145.874 41.2387 145.936 41.1631 145.978C41.0876 146.02 41.0023 146.041 40.9158 146.04ZM26.0058 144.22L40.0058 144.99C39.4885 144.183 38.7914 143.506 37.9691 143.014C37.1467 142.521 36.2215 142.225 35.2658 142.15C34.1233 142.141 33.0078 141.802 32.0534 141.174C31.0989 140.546 30.3462 139.656 29.8858 138.61L22.8858 134.41L18.8858 138.41L22.8058 141.54L26.0058 144.22Z" fill="#231F20"/>
<path d="M116.966 140.04L120.556 145.18C120.556 145.18 143.336 145.79 143.106 145.18C142.876 144.57 122.316 136.57 122.316 136.57L116.966 140.04Z" fill="#231F20"/>
<path d="M136.596 145.93C133.216 145.93 128.146 145.85 120.596 145.65C120.517 145.65 120.44 145.63 120.37 145.594C120.301 145.557 120.241 145.505 120.196 145.44L116.606 140.3C116.535 140.187 116.506 140.052 116.526 139.92C116.555 139.786 116.633 139.668 116.746 139.59L122.096 136.12C122.154 136.08 122.219 136.053 122.288 136.039C122.356 136.025 122.427 136.026 122.496 136.04C143.266 144.14 143.496 144.68 143.576 144.94C143.604 145.023 143.612 145.112 143.6 145.198C143.588 145.285 143.556 145.368 143.506 145.44C143.386 145.65 143.186 145.93 136.596 145.93ZM120.826 144.66C127.616 144.84 137.826 145.01 141.516 144.87C138.136 143.33 128.706 139.57 122.376 137.1L117.676 140.15L120.826 144.66Z" fill="#231F20"/>
<path d="M205.866 135.15L200.516 140.01L195.166 136.54L202.296 128.41L205.866 135.15Z" fill="white"/>
<path d="M200.496 140.51C200.396 140.513 200.299 140.485 200.216 140.43L194.876 136.96C194.814 136.922 194.761 136.871 194.721 136.811C194.682 136.75 194.656 136.682 194.646 136.61C194.638 136.539 194.644 136.466 194.665 136.398C194.685 136.329 194.72 136.265 194.766 136.21L201.896 128.08C201.951 128.02 202.019 127.973 202.096 127.943C202.172 127.914 202.254 127.902 202.336 127.91C202.417 127.92 202.494 127.95 202.56 127.997C202.626 128.044 202.68 128.107 202.716 128.18L206.286 134.92C206.336 135.018 206.353 135.13 206.333 135.239C206.313 135.347 206.258 135.446 206.176 135.52L200.826 140.38C200.782 140.422 200.73 140.456 200.674 140.478C200.617 140.5 200.557 140.511 200.496 140.51ZM195.906 136.44L200.446 139.38L205.216 135.04L202.216 129.29L195.906 136.44Z" fill="#231F20"/>
<path d="M275.576 80.0399L266.196 88.5999L206.096 137.14L198.496 131.59L248.546 71.3999L275.576 80.0399Z" fill="#231F20"/>
<path d="M206.096 137.64C205.989 137.641 205.884 137.609 205.796 137.55L198.206 132.04C198.151 132 198.104 131.949 198.07 131.891C198.036 131.832 198.014 131.767 198.006 131.7C197.995 131.632 198 131.563 198.019 131.498C198.038 131.432 198.071 131.371 198.116 131.32L248.166 71.0399C248.228 70.9629 248.311 70.9064 248.406 70.8778C248.501 70.8493 248.602 70.85 248.696 70.8799L275.696 79.5199C275.778 79.5484 275.851 79.5973 275.909 79.6621C275.966 79.7268 276.007 79.8052 276.026 79.8899C276.045 79.976 276.042 80.0658 276.015 80.1501C275.989 80.2344 275.941 80.3102 275.876 80.3699L266.496 88.9699L206.376 137.53C206.298 137.598 206.199 137.636 206.096 137.64ZM199.226 131.5L206.076 136.5L265.876 88.1999L274.606 80.1999L248.716 71.9299L199.226 131.5Z" fill="#231F20"/>
<path d="M278.886 33.54C280.996 33.71 283.276 33.79 284.886 34.61C289.636 36.99 288.886 43.61 288.016 47.82C285.696 58.98 281.456 69.93 278.016 80.82C278.016 80.82 253.086 79.47 248.466 71.38C248.466 71.38 255.096 38.49 258.156 34.97C261.216 31.45 271.206 32.27 276.546 33.26C277.32 33.3958 278.101 33.4893 278.886 33.54Z" fill="#87D147"/>
<path d="M1.0058 138.15C0.874192 138.151 0.743732 138.126 0.621895 138.076C0.500057 138.026 0.389239 137.953 0.295799 137.86C0.202071 137.767 0.127677 137.657 0.0769081 137.535C0.0261394 137.413 0 137.282 0 137.15C0 137.018 0.0261394 136.887 0.0769081 136.766C0.127677 136.644 0.202071 136.533 0.295799 136.44C9.2058 127.51 12.9658 117.87 16.9558 107.66C19.0191 102.068 21.4099 96.6015 24.1158 91.2901C27.3221 85.5397 31.2989 80.2542 35.9358 75.5801C40.0458 71.4701 46.2658 66.3801 52.5958 65.4901C62.4858 64.0901 194.656 65.4201 200.276 65.4901C258.746 65.2601 262.436 65.3701 262.996 65.7101C266.216 68.2901 274.246 68.9201 281.336 69.4801C286.896 69.9101 292.156 70.3301 295.566 71.5601C311.496 77.3501 318.626 96.9501 318.616 113.81C318.487 121.305 317.288 128.744 315.056 135.9C314.98 136.155 314.807 136.369 314.573 136.495C314.34 136.622 314.065 136.651 313.811 136.575C313.556 136.5 313.342 136.326 313.215 136.092C313.089 135.859 313.06 135.585 313.136 135.33C315.316 128.359 316.488 121.113 316.616 113.81C316.616 97.6501 309.906 78.9001 294.886 73.4401C291.726 72.3001 286.606 71.9001 281.176 71.4401C273.616 70.8401 265.796 70.2301 261.996 67.4401C258.276 67.2801 216.496 67.4401 200.266 67.4401C198.876 67.4401 62.6158 66.0501 52.8758 67.4401C42.6658 68.8801 30.7358 83.0701 25.8758 92.2001C23.2035 97.4397 20.8427 102.832 18.8058 108.35C14.7458 118.77 10.9058 128.6 1.7058 137.82C1.6169 137.919 1.5092 137.999 1.38902 138.056C1.26883 138.112 1.13855 138.144 1.0058 138.15Z" fill="#231F20"/>
<path d="M249.046 69.04C249.846 62.76 258.236 35.04 258.236 35.04L249.046 69.04Z" fill="#231F20"/>
<path d="M249.046 69.4899H248.976C248.844 69.4725 248.726 69.4038 248.645 69.2988C248.564 69.1938 248.529 69.0612 248.546 68.9299C249.346 62.6699 257.416 35.9799 257.756 34.8499C257.774 34.7843 257.805 34.7229 257.847 34.6693C257.889 34.6156 257.942 34.5708 258.001 34.5374C258.061 34.504 258.126 34.4826 258.194 34.4744C258.261 34.4663 258.33 34.4715 258.396 34.4899C258.461 34.5083 258.523 34.5395 258.576 34.5816C258.63 34.6237 258.675 34.6759 258.708 34.7354C258.742 34.7948 258.763 34.8602 258.771 34.9279C258.779 34.9956 258.774 35.0643 258.756 35.1299C258.666 35.4099 250.376 62.8799 249.576 69.0599C249.558 69.1854 249.494 69.2996 249.395 69.3794C249.297 69.4592 249.172 69.4987 249.046 69.4899Z" fill="#231F20"/>
<path d="M276.236 31.4198C281.756 33.4998 285.496 24.0398 286.496 19.7898C287.886 13.7898 280.816 10.3199 276.106 8.58985C273.696 7.69985 270.986 6.85985 268.626 7.87985C267.579 8.28351 266.713 9.05023 266.186 10.0398C265.836 11.0398 266.436 11.1398 266.366 11.7798C266.236 12.9298 265.056 14.0298 265.126 15.5698C265.254 17.1187 265.657 18.6325 266.316 20.0398C267.044 21.4933 267.88 22.8905 268.816 24.2198C270.686 27.1498 272.576 29.8898 275.956 31.3198L276.236 31.4198Z" fill="white"/>
<path d="M277.786 32.22C277.194 32.2163 276.607 32.1045 276.056 31.89L275.766 31.77C272.336 30.32 270.396 27.61 268.386 24.48C268.196 24.17 267.996 23.87 267.806 23.58C267.064 22.519 266.412 21.3985 265.856 20.23C265.185 18.7679 264.769 17.2021 264.626 15.6C264.636 14.6955 264.892 13.8107 265.366 13.04C265.603 12.637 265.772 12.1978 265.866 11.74C265.872 11.62 265.841 11.501 265.776 11.4C265.651 11.1677 265.581 10.9102 265.571 10.6469C265.56 10.3836 265.61 10.1214 265.716 9.88001C266.287 8.75585 267.252 7.88053 268.426 7.42001C270.966 6.33001 273.806 7.21002 276.276 8.12002C284.496 11.12 288.096 15.12 286.986 19.9C286.246 23.07 283.866 29.59 280.096 31.61C279.387 31.9997 278.594 32.2092 277.786 32.22ZM271.016 7.92001C270.265 7.90729 269.519 8.0503 268.826 8.34002C267.907 8.69201 267.14 9.35327 266.656 10.21C266.591 10.328 266.557 10.4604 266.557 10.595C266.557 10.7296 266.591 10.862 266.656 10.98C266.799 11.2461 266.859 11.5495 266.826 11.85C266.725 12.4281 266.522 12.9835 266.226 13.49C265.838 14.113 265.621 14.8268 265.596 15.56C265.726 17.0366 266.115 18.4787 266.746 19.82C267.275 20.9403 267.897 22.0141 268.606 23.03L269.206 23.94C271.206 27.04 272.946 29.51 276.126 30.85L276.376 30.95C276.894 31.1597 277.453 31.2488 278.011 31.2107C278.569 31.1726 279.111 31.0082 279.596 30.73C282.796 29.02 285.166 23.18 285.976 19.73C286.976 15.5 283.566 11.93 275.906 9.10001C274.354 8.43422 272.701 8.03528 271.016 7.92001Z" fill="#231F20"/>
<path d="M264.936 20.49C264.936 20.49 261.936 24.26 262.426 25.13C262.916 26 264.766 25.62 264.766 25.62" fill="white"/>
<path d="M263.876 26.2099C263.514 26.2554 263.147 26.2012 262.814 26.0532C262.481 25.9051 262.194 25.6689 261.986 25.3699C261.436 24.3699 263.356 21.6799 264.546 20.1799C264.628 20.0752 264.748 20.0073 264.881 19.9914C265.013 19.9755 265.146 20.0127 265.251 20.0949C265.356 20.1771 265.423 20.2976 265.439 20.4298C265.455 20.562 265.418 20.6952 265.336 20.7999C263.936 22.5599 262.786 24.4899 262.876 24.9199C262.966 25.3499 264.136 25.2399 264.656 25.1299C264.72 25.1152 264.787 25.1133 264.852 25.1245C264.917 25.1356 264.979 25.1595 265.035 25.1949C265.091 25.2302 265.139 25.2762 265.177 25.3303C265.215 25.3844 265.242 25.4454 265.256 25.5099C265.28 25.6408 265.253 25.776 265.18 25.8877C265.108 25.9993 264.995 26.0788 264.866 26.1099C264.54 26.1752 264.208 26.2087 263.876 26.2099Z" fill="#231F20"/>
<path d="M266.496 11.7601C264.696 12.9901 264.366 19.4301 264.216 21.3201C264.009 23.9868 263.859 26.6534 263.766 29.3201C263.716 31.0001 268.066 31.4201 268.876 30.9801L267.616 37.5701C267.616 37.5701 269.616 38.3301 273.316 37.0101C277.016 35.6901 277.076 34.8601 277.076 34.8601L277.456 27.1601C277.456 27.1601 274.576 26.9301 273.176 23.3501C271.776 19.7701 272.296 14.5101 272.296 14.5101C272.296 14.5101 268.286 10.5701 266.496 11.7601Z" fill="white"/>
<path d="M269.326 38.2701C268.707 38.2951 268.089 38.2173 267.496 38.04C267.385 37.9995 267.292 37.921 267.233 37.8185C267.175 37.7161 267.154 37.5961 267.176 37.48L268.296 31.63C266.913 31.7242 265.53 31.4407 264.296 30.81C264.013 30.6711 263.774 30.4563 263.607 30.1897C263.439 29.923 263.349 29.615 263.346 29.3C263.436 26.65 263.586 23.96 263.796 21.3V20.78C264.096 16.78 264.616 12.49 266.256 11.37C268.256 9.98005 272.256 13.72 272.686 14.15C272.741 14.2021 272.783 14.2663 272.809 14.3374C272.835 14.4086 272.844 14.4848 272.836 14.56C272.836 14.56 272.336 19.75 273.676 23.17C274.956 26.42 277.506 26.66 277.536 26.66C277.665 26.6703 277.785 26.7302 277.871 26.8272C277.956 26.9242 278.001 27.0507 277.996 27.18L277.616 34.88C277.556 35.34 276.956 36.24 273.526 37.48C272.181 37.9816 270.761 38.2488 269.326 38.2701ZM268.226 37.18C269.905 37.3875 271.609 37.1603 273.176 36.5201C275.886 35.5201 276.496 34.87 276.616 34.72L276.966 27.55C275.986 27.2821 275.088 26.777 274.35 26.0793C273.612 25.3817 273.058 24.513 272.736 23.55C271.466 20.3 271.736 15.82 271.806 14.72C270.236 13.24 267.756 11.56 266.806 12.21C265.346 13.21 264.926 18.97 264.806 20.87V21.38C264.596 24.03 264.446 26.71 264.356 29.38C264.356 29.6 264.516 29.81 264.836 30.01C266.043 30.6064 267.407 30.8092 268.736 30.59C268.819 30.547 268.913 30.5283 269.007 30.5361C269.1 30.544 269.19 30.578 269.265 30.6344C269.34 30.6908 269.398 30.7671 269.432 30.8548C269.465 30.9425 269.474 31.0378 269.456 31.13L268.226 37.18Z" fill="#231F20"/>
<path d="M264.036 27.32C265.348 26.5954 266.861 26.318 268.346 26.53L264.036 27.32Z" fill="white"/>
<path d="M264.036 27.82C263.927 27.8189 263.821 27.7821 263.735 27.7153C263.649 27.6485 263.586 27.5552 263.558 27.4499C263.53 27.3445 263.537 27.2327 263.578 27.1316C263.619 27.0305 263.692 26.9457 263.786 26.89C265.214 26.0809 266.875 25.7812 268.496 26.04C268.56 26.053 268.621 26.0788 268.675 26.1157C268.729 26.1526 268.775 26.1999 268.81 26.2549C268.846 26.3099 268.87 26.3714 268.881 26.4358C268.892 26.5003 268.891 26.5663 268.876 26.63C268.847 26.7587 268.769 26.8712 268.659 26.9439C268.549 27.0166 268.416 27.0439 268.286 27.02C266.909 26.8213 265.504 27.0777 264.286 27.75C264.211 27.7964 264.124 27.8206 264.036 27.82Z" fill="#231F20"/>
<path d="M269.886 22.6299C270.013 21.9726 270.325 21.3654 270.786 20.8799C271.081 20.4553 271.438 20.0778 271.846 19.7599C272.053 19.603 272.292 19.4932 272.545 19.4379C272.799 19.3827 273.062 19.3833 273.316 19.4399C273.539 19.5123 273.744 19.6319 273.916 19.7907C274.089 19.9495 274.225 20.1436 274.316 20.3599C274.488 20.7846 274.563 21.2424 274.536 21.6999C274.493 22.7036 274.187 23.6785 273.648 24.5264C273.109 25.3743 272.357 26.0653 271.466 26.5299L271.626 26.3799" fill="white"/>
<path d="M271.436 27.0399C271.335 27.0386 271.238 27.0072 271.155 26.9497C271.073 26.8921 271.01 26.8111 270.974 26.7173C270.939 26.6234 270.932 26.521 270.956 26.4234C270.979 26.3257 271.031 26.2374 271.106 26.1699L271.256 26.0199C271.342 25.9441 271.451 25.8984 271.566 25.8899C272.279 25.4391 272.874 24.8228 273.298 24.0934C273.723 23.3641 273.966 22.543 274.006 21.6999C274.033 21.3144 273.971 20.9279 273.826 20.5699C273.769 20.4229 273.682 20.2898 273.57 20.1793C273.458 20.0689 273.323 19.9839 273.176 19.9299C273.001 19.8981 272.821 19.9039 272.649 19.947C272.476 19.9901 272.315 20.0695 272.176 20.1799C271.793 20.4601 271.456 20.7973 271.176 21.1799C270.777 21.6011 270.5 22.1232 270.376 22.6899C270.356 22.8189 270.288 22.9357 270.186 23.0172C270.085 23.0987 269.956 23.1389 269.826 23.1299C269.695 23.1148 269.575 23.0485 269.492 22.9455C269.41 22.8425 269.372 22.7111 269.386 22.5799C269.522 21.8317 269.869 21.1379 270.386 20.5799C270.715 20.1161 271.113 19.7048 271.566 19.3599C271.832 19.1557 272.142 19.0153 272.472 18.9495C272.801 18.8836 273.141 18.894 273.466 18.9799C273.753 19.0735 274.016 19.2284 274.237 19.4339C274.458 19.6394 274.631 19.8906 274.746 20.1699C274.95 20.6634 275.038 21.1969 275.006 21.7299C274.955 22.8202 274.62 23.8783 274.034 24.7993C273.448 25.7202 272.632 26.4719 271.666 26.9799C271.595 27.0185 271.516 27.0391 271.436 27.0399Z" fill="#231F20"/>
<path d="M268.906 30.96C270.245 30.6478 271.464 29.9529 272.416 28.96C272.416 28.96 271.916 32.96 268.346 33.86L268.906 30.96Z" fill="#231F20"/>
<path d="M268.346 34.3999C268.219 34.3991 268.097 34.3489 268.006 34.2599C267.945 34.2037 267.899 34.1329 267.873 34.0542C267.847 33.9755 267.841 33.8914 267.856 33.8099L268.416 30.8699C268.434 30.7732 268.481 30.6844 268.551 30.6148C268.62 30.5452 268.709 30.4982 268.806 30.4799C270.025 30.1958 271.141 29.5757 272.026 28.6899C272.095 28.6048 272.19 28.5442 272.296 28.5172C272.402 28.4902 272.514 28.4981 272.616 28.5399C272.715 28.5855 272.798 28.6612 272.852 28.7564C272.905 28.8515 272.928 28.9612 272.916 29.0699C272.916 29.2399 272.326 33.4499 268.466 34.3899L268.346 34.3999ZM269.346 31.3999L269.006 33.1799C270.156 32.6188 271.047 31.6382 271.496 30.4399C270.82 30.8443 270.094 31.157 269.336 31.3699L269.346 31.3999Z" fill="#231F20"/>
<path d="M266.686 19.7466C266.89 19.7301 267.021 19.2928 266.979 18.7699C266.936 18.2469 266.737 17.8363 266.533 17.8528C266.33 17.8692 266.199 18.3065 266.241 18.8295C266.283 19.3524 266.483 19.7631 266.686 19.7466Z" fill="#231F20"/>
<path d="M265.876 18.4601C265.743 18.4826 265.607 18.4515 265.497 18.3737C265.388 18.2959 265.313 18.1777 265.291 18.0451C265.268 17.9125 265.299 17.7763 265.377 17.6666C265.455 17.5569 265.573 17.4826 265.706 17.4601L267.636 16.7701C267.759 16.7293 267.894 16.7383 268.011 16.7952C268.128 16.8521 268.218 16.9524 268.263 17.0748C268.307 17.1972 268.302 17.332 268.248 17.4507C268.195 17.5693 268.097 17.6623 267.976 17.7101L266.046 18.4001C265.994 18.4308 265.936 18.4512 265.876 18.4601Z" fill="#231F20"/>
<path d="M279.646 61.9399L260.916 65.2699C260.916 65.2699 257.556 62.9099 255.916 62.7699C254.276 62.6299 247.586 64.8599 248.556 66.9399C249.526 69.0199 254.246 70.2699 255.916 69.5799C256.791 69.1707 257.751 68.9786 258.716 69.0199C258.716 69.0199 267.196 70.8299 281.836 68.1899" fill="white"/>
<path d="M254.696 70.2601C252.416 70.2601 248.956 69.0401 248.076 67.1501C247.95 66.8835 247.903 66.5867 247.941 66.2945C247.978 66.0023 248.098 65.7267 248.286 65.5001C249.616 63.5801 254.506 62.15 255.926 62.27C257.516 62.41 260.256 64.27 261.026 64.74L279.556 61.4501C279.62 61.4371 279.687 61.4372 279.751 61.4505C279.815 61.4637 279.876 61.4897 279.931 61.5271C279.985 61.5644 280.031 61.6122 280.066 61.6677C280.101 61.7232 280.125 61.7852 280.136 61.85C280.159 61.9799 280.13 62.1138 280.055 62.2225C279.98 62.3311 279.865 62.4057 279.736 62.4301L260.996 65.7601C260.932 65.7744 260.866 65.7747 260.802 65.7608C260.738 65.747 260.678 65.7195 260.626 65.6801C259.716 65.0501 257.106 63.37 255.846 63.27C254.586 63.17 250.106 64.6201 249.106 66.0701C248.876 66.4001 248.916 66.5901 248.976 66.7301C249.826 68.5501 254.266 69.7301 255.696 69.1201C256.649 68.6771 257.696 68.4745 258.746 68.5301C258.876 68.5301 267.366 70.2901 281.746 67.7001C281.811 67.6882 281.879 67.6895 281.944 67.7037C282.009 67.7179 282.071 67.7448 282.126 67.7829C282.18 67.8209 282.227 67.8694 282.263 67.9256C282.299 67.9817 282.324 68.0444 282.336 68.1101C282.347 68.1757 282.346 68.2431 282.332 68.3082C282.318 68.3734 282.291 68.4352 282.253 68.49C282.215 68.5448 282.166 68.5915 282.11 68.6275C282.054 68.6636 281.991 68.6882 281.926 68.7001C267.366 71.3301 258.976 69.6101 258.616 69.5301H258.496C257.679 69.5529 256.874 69.7328 256.126 70.0601C255.667 70.2218 255.181 70.2898 254.696 70.2601Z" fill="#231F20"/>
<path d="M200.496 140.04V144.94C200.496 144.94 175.596 146.2 175.826 145.6C176.056 145 195.146 136.6 195.146 136.6L200.496 140.04Z" fill="#231F20"/>
<path d="M178.876 146.22C175.686 146.22 175.546 146.03 175.446 145.89C175.396 145.818 175.364 145.735 175.351 145.648C175.339 145.562 175.348 145.473 175.376 145.39C175.466 145.15 175.686 144.59 194.966 136.08C195.039 136.043 195.119 136.024 195.201 136.024C195.283 136.024 195.363 136.043 195.436 136.08L200.786 139.55C200.855 139.597 200.912 139.659 200.952 139.732C200.992 139.805 201.014 139.887 201.016 139.97V144.87C201.016 144.999 200.966 145.124 200.877 145.217C200.787 145.31 200.665 145.365 200.536 145.37C188.286 146.04 182.066 146.22 178.876 146.22ZM177.386 145.22C181.266 145.28 192.466 144.8 200.016 144.42V140.28L195.116 137.1C189.266 139.69 180.556 143.62 177.386 145.23V145.22Z" fill="#231F20"/>
<path d="M268.746 37.98L265.516 38.98L266.386 40.72C266.386 40.72 250.276 47 239.296 40.72L231.936 41.97C231.936 41.97 238.156 48.08 238.296 48.5C238.436 48.92 257.216 49.61 267.536 41.24L269.886 40.41L268.746 37.98Z" fill="#231F20"/>
<path d="M200.356 63.77C199.266 65.6 198.146 67.67 198.606 69.77C198.62 69.8911 198.66 70.0078 198.722 70.1128C198.784 70.2178 198.867 70.3088 198.966 70.38C199.346 70.59 199.776 70.24 200.056 69.92C201.419 68.3462 202.572 66.6015 203.486 64.73" fill="white"/>
<path d="M199.206 70.92C199.038 70.9209 198.873 70.8796 198.726 70.8C198.564 70.6927 198.426 70.5528 198.321 70.3892C198.216 70.2257 198.146 70.042 198.116 69.85C197.626 67.65 198.736 65.51 199.926 63.51C199.995 63.3984 200.104 63.3183 200.232 63.287C200.359 63.2556 200.494 63.2755 200.606 63.3424C200.719 63.4093 200.801 63.5178 200.835 63.6445C200.868 63.7713 200.851 63.9061 200.786 64.02C199.656 65.92 198.676 67.78 199.096 69.64C199.196 70.09 199.206 69.92 199.216 69.92C199.226 69.92 199.426 69.86 199.676 69.57C201.014 68.0317 202.144 66.3236 203.036 64.49C203.096 64.3724 203.199 64.2826 203.324 64.2397C203.449 64.1968 203.586 64.2041 203.706 64.26C203.765 64.2888 203.818 64.329 203.861 64.3783C203.905 64.4276 203.939 64.485 203.96 64.5473C203.981 64.6095 203.99 64.6754 203.986 64.741C203.982 64.8067 203.965 64.8709 203.936 64.93C203.003 66.8406 201.827 68.6221 200.436 70.23C200.292 70.4259 200.107 70.5887 199.895 70.7077C199.683 70.8267 199.448 70.8991 199.206 70.92Z" fill="#231F20"/>
<path d="M287.976 37.98C287.976 37.98 299.976 64.75 299.176 67.26C298.376 69.77 264.936 71.4 264.936 71.4L265.876 63.25L283.176 60.49L279.866 43.6L287.976 37.98Z" fill="#87D147"/>
<path d="M266.196 62.44C266.07 62.4404 265.948 62.3933 265.856 62.308C265.763 62.2227 265.706 62.1056 265.696 61.98C265.689 61.9148 265.695 61.849 265.714 61.7862C265.733 61.7235 265.765 61.6653 265.807 61.6149C265.849 61.5646 265.9 61.5231 265.959 61.4931C266.017 61.4631 266.08 61.445 266.146 61.44L282.496 60.04L276.896 40.72C276.859 40.5874 276.876 40.4455 276.943 40.3255C277.011 40.2054 277.123 40.1172 277.256 40.08C277.388 40.0429 277.53 40.06 277.65 40.1275C277.77 40.195 277.859 40.3074 277.896 40.44L283.666 60.35C283.689 60.4199 283.695 60.4942 283.685 60.567C283.674 60.6398 283.647 60.7093 283.606 60.77C283.565 60.8324 283.51 60.8847 283.446 60.9228C283.382 60.961 283.31 60.9839 283.236 60.99L266.236 62.44H266.196Z" fill="#231F20"/>
<path d="M264.976 71.9C264.844 71.8974 264.718 71.8439 264.625 71.7507C264.532 71.6575 264.478 71.5318 264.476 71.4C264.476 71.2674 264.528 71.1402 264.622 71.0464C264.716 70.9527 264.843 70.9 264.976 70.9C265.366 70.9 289.706 70.9 297.036 67.76C297.157 67.7142 297.291 67.717 297.409 67.7678C297.528 67.8185 297.623 67.9134 297.673 68.0324C297.724 68.1514 297.726 68.2853 297.68 68.4061C297.634 68.5268 297.543 68.625 297.426 68.68C289.926 71.85 266.386 71.9 264.976 71.9Z" fill="#231F20"/>
<path d="M29.7359 62.5601L48.4959 65.9001C48.4959 65.9001 51.8559 63.5301 53.4959 63.4001C55.1359 63.2701 61.8259 65.4801 60.8559 67.5601C59.8859 69.6401 55.1559 70.9001 53.4959 70.2001C52.6193 69.7976 51.6596 69.6091 50.6959 69.6501C50.6959 69.6501 42.2159 71.4501 27.5659 68.8101" fill="white"/>
<path d="M54.6857 70.8801C54.2126 70.8959 53.7408 70.8212 53.2957 70.6601C52.4954 70.2978 51.6239 70.1201 50.7457 70.1401C50.4457 70.2101 42.0557 71.9301 27.4857 69.3101C27.4206 69.2992 27.3582 69.2755 27.3023 69.2404C27.2464 69.2053 27.1979 69.1595 27.1598 69.1056C27.1217 69.0516 27.0946 68.9907 27.0802 68.9262C27.0658 68.8618 27.0642 68.7951 27.0757 68.7301C27.0866 68.665 27.1103 68.6026 27.1454 68.5467C27.1805 68.4908 27.2263 68.4423 27.2803 68.4042C27.3342 68.3661 27.3951 68.339 27.4596 68.3246C27.524 68.3102 27.5907 68.3086 27.6557 68.3201C42.0157 70.9101 50.5057 69.1801 50.5857 69.1601C51.6515 69.0879 52.7181 69.2875 53.6857 69.7401C55.1157 70.3401 59.5557 69.1701 60.4057 67.3501C60.4657 67.2201 60.5057 67.0201 60.2757 66.6901C59.2757 65.2501 54.8057 63.7901 53.5357 63.8901C52.2657 63.9901 49.6557 65.6701 48.7557 66.3101C48.6461 66.3805 48.5147 66.409 48.3857 66.3901L29.6457 63.0401C29.5813 63.0305 29.5194 63.008 29.464 62.9737C29.4086 62.9395 29.3607 62.8943 29.3233 62.841C29.2859 62.7877 29.2597 62.7273 29.2463 62.6635C29.233 62.5998 29.2328 62.5339 29.2457 62.4701C29.2553 62.4044 29.2781 62.3413 29.3129 62.2846C29.3476 62.228 29.3935 62.179 29.4477 62.1407C29.502 62.1023 29.5635 62.0754 29.6284 62.0615C29.6934 62.0477 29.7605 62.0472 29.8257 62.0601L48.3557 65.3601C49.1257 64.8301 51.8657 63.0201 53.4557 62.8901C54.8857 62.7601 59.7657 64.2001 61.0957 66.1101C61.2839 66.3368 61.4036 66.6123 61.4408 66.9045C61.478 67.1968 61.4311 67.4935 61.3057 67.7601C60.4257 69.6601 56.9557 70.8801 54.6857 70.8801Z" fill="#231F20"/>
<path d="M97.0958 62.5801C98.5658 64.1301 100.096 65.9001 100.096 68.0301C100.106 68.1524 100.092 68.2755 100.055 68.3923C100.017 68.5091 99.956 68.6171 99.8758 68.7101C99.5558 68.9901 99.0558 68.7101 98.7058 68.5001C97.0296 67.2669 95.5203 65.8215 94.2158 64.2001" fill="white"/>
<path d="M99.5657 69.33C99.1592 69.3093 98.7701 69.1585 98.4557 68.9C96.7418 67.6458 95.1987 66.1734 93.8657 64.52C93.7822 64.4166 93.7431 64.2842 93.7572 64.152C93.7713 64.0198 93.8373 63.8985 93.9407 63.815C94.0442 63.7315 94.1765 63.6924 94.3088 63.7065C94.441 63.7206 94.5622 63.7866 94.6457 63.89C95.9229 65.476 97.4021 66.8879 99.0457 68.09C99.3657 68.33 99.5557 68.34 99.5857 68.33C99.6157 68.32 99.5857 68.33 99.5857 68.03C99.5857 66.13 98.2057 64.53 96.6857 62.93C96.5942 62.8332 96.5449 62.704 96.5487 62.5709C96.5524 62.4377 96.6089 62.3115 96.7057 62.22C96.8025 62.1285 96.9317 62.0792 97.0649 62.083C97.198 62.0867 97.3242 62.1432 97.4157 62.24C99.0057 63.93 100.576 65.76 100.586 68.02C100.599 68.2142 100.571 68.409 100.504 68.5917C100.437 68.7744 100.332 68.9408 100.196 69.08C100.021 69.2341 99.7984 69.3225 99.5657 69.33Z" fill="#231F20"/>
<path d="M245.606 80.72C245.054 80.7178 244.505 80.6575 243.966 80.54C243.899 80.5269 243.836 80.5006 243.779 80.4627C243.723 80.4248 243.675 80.376 243.637 80.3191C243.6 80.2623 243.575 80.1986 243.562 80.1318C243.55 80.065 243.551 79.9963 243.566 79.93C243.595 79.7966 243.675 79.6799 243.789 79.6051C243.903 79.5302 244.042 79.5033 244.176 79.53C248.176 80.38 251.376 77.28 251.406 77.25C251.454 77.2027 251.511 77.1653 251.573 77.14C251.635 77.1146 251.702 77.1018 251.769 77.1023C251.837 77.1028 251.903 77.1165 251.965 77.1427C252.027 77.1689 252.084 77.207 252.131 77.255C252.178 77.3029 252.216 77.3597 252.241 77.422C252.266 77.4844 252.279 77.5512 252.279 77.6185C252.278 77.6858 252.264 77.7524 252.238 77.8144C252.212 77.8764 252.174 77.9327 252.126 77.98C250.353 79.6485 248.038 80.6214 245.606 80.72Z" fill="white"/>
<path d="M279.376 85.8701C278.365 85.8586 277.371 85.6047 276.478 85.1297C275.586 84.6546 274.82 83.9724 274.246 83.1401C274.193 83.0246 274.184 82.8936 274.221 82.772C274.258 82.6504 274.338 82.5466 274.447 82.4801C274.555 82.4136 274.684 82.3891 274.809 82.4112C274.934 82.4334 275.047 82.5005 275.126 82.6001C275.756 83.5074 276.659 84.1904 277.704 84.55C278.748 84.9096 279.881 84.9272 280.936 84.6001C281.001 84.5819 281.069 84.5769 281.136 84.5852C281.203 84.5935 281.267 84.615 281.326 84.6485C281.385 84.682 281.436 84.7268 281.477 84.7803C281.518 84.8337 281.548 84.8949 281.566 84.9601C281.584 85.0258 281.588 85.0944 281.58 85.1619C281.571 85.2294 281.548 85.2944 281.514 85.3531C281.479 85.4119 281.433 85.4631 281.379 85.5038C281.324 85.5445 281.262 85.5738 281.196 85.5901C280.605 85.7656 279.992 85.8598 279.376 85.8701Z" fill="white"/>
</svg>
