<svg width="225" height="233" viewBox="0 0 225 233" fill="none" xmlns="http://www.w3.org/2000/svg">
<path d="M138.77 178.4L140.07 154.25L105.77 152.57L84.29 153.82C84.29 153.82 88.29 177.61 90.55 179.43C92.81 181.25 138.77 178.4 138.77 178.4Z" fill="#231F20"/>
<path d="M99.1799 180.53C94.33 180.53 90.8599 180.34 90.1799 179.82C87.86 177.93 84.1799 156.35 83.7399 153.9C83.7266 153.83 83.7286 153.758 83.7458 153.689C83.7631 153.62 83.7952 153.555 83.84 153.5C83.8829 153.445 83.9375 153.401 83.9997 153.37C84.062 153.338 84.1304 153.322 84.2 153.32L105.74 152.04L140.1 153.72C140.165 153.721 140.228 153.736 140.287 153.764C140.346 153.791 140.398 153.831 140.44 153.88C140.485 153.93 140.52 153.988 140.543 154.052C140.565 154.115 140.574 154.183 140.57 154.25L139.27 178.4C139.261 178.522 139.208 178.636 139.122 178.722C139.036 178.808 138.922 178.861 138.8 178.87C133.25 179.25 111.68 180.53 99.1799 180.53ZM84.8499 154.28C86.4199 163.45 89.3499 177.83 90.8499 179.04C92.5699 180.26 120.65 179.04 138.27 177.93L139.53 154.72L105.74 153.04L84.8499 154.28Z" fill="#231F20"/>
<path d="M62.18 203.77C61.7479 203.771 61.327 203.632 60.9805 203.374C60.6339 203.116 60.3803 202.752 60.2575 202.338C60.1348 201.924 60.1496 201.481 60.2996 201.075C60.4497 200.67 60.727 200.324 61.09 200.09C65.56 197.17 70.7 193.26 71.64 191.8C71.08 189.57 65.57 181.15 60.57 174.32C60.4144 174.108 60.3021 173.867 60.2395 173.612C60.1768 173.356 60.1652 173.091 60.2051 172.831C60.245 172.571 60.3358 172.321 60.4722 172.096C60.6086 171.871 60.7879 171.676 61 171.52C61.2121 171.364 61.4528 171.252 61.7083 171.189C61.9637 171.127 62.2291 171.115 62.4891 171.155C62.7491 171.195 62.9987 171.286 63.2236 171.422C63.4485 171.559 63.6444 171.738 63.8 171.95C76.45 189.24 75.8 191.82 75.59 192.67C74.88 195.52 67.59 200.67 63.27 203.44C62.9463 203.653 62.5676 203.768 62.18 203.77Z" fill="#231F20"/>
<path d="M55.16 199.79C55.16 202.656 57.4814 204.98 60.345 204.98C63.2086 204.98 65.53 202.656 65.53 199.79V170.42C65.53 167.554 63.2086 165.23 60.345 165.23C57.4814 165.23 55.16 167.554 55.16 170.42V199.79Z" fill="#231F20"/>
<path d="M60.34 205.48C58.8327 205.477 57.388 204.877 56.3231 203.81C55.2581 202.743 54.66 201.297 54.66 199.79V170.42C54.6279 169.653 54.7511 168.888 55.0223 168.17C55.2935 167.453 55.7071 166.797 56.2381 166.243C56.7692 165.689 57.4068 165.249 58.1126 164.948C58.8184 164.647 59.5777 164.491 60.345 164.491C61.1123 164.491 61.8717 164.647 62.5775 164.948C63.2833 165.249 63.9209 165.689 64.4519 166.243C64.983 166.797 65.3966 167.453 65.6678 168.17C65.939 168.888 66.0622 169.653 66.03 170.42V199.79C66.03 201.299 65.4306 202.746 64.3635 203.813C63.2964 204.88 61.8491 205.48 60.34 205.48ZM60.34 165.73C59.0979 165.733 57.9075 166.228 57.0302 167.107C56.1528 167.986 55.66 169.178 55.66 170.42V199.79C55.6308 200.423 55.7303 201.056 55.9525 201.65C56.1747 202.244 56.5151 202.787 56.953 203.245C57.3909 203.704 57.9173 204.069 58.5003 204.318C59.0834 204.568 59.7109 204.696 60.345 204.696C60.9792 204.696 61.6067 204.568 62.1897 204.318C62.7727 204.069 63.2991 203.704 63.737 203.245C64.175 202.787 64.5153 202.244 64.7376 201.65C64.9598 201.056 65.0593 200.423 65.03 199.79V170.42C65.03 169.176 64.5359 167.983 63.6564 167.104C62.7768 166.224 61.5839 165.73 60.34 165.73Z" fill="#231F20"/>
<path d="M162.18 203.77C161.792 203.768 161.414 203.653 161.09 203.44C156.79 200.64 149.48 195.52 148.77 192.67C148.55 191.82 147.91 189.24 160.56 171.95C160.874 171.522 161.346 171.236 161.871 171.155C162.396 171.074 162.932 171.206 163.36 171.52C163.788 171.834 164.074 172.306 164.155 172.831C164.236 173.356 164.104 173.892 163.79 174.32C158.79 181.18 153.24 189.64 152.71 191.82C153.55 193.17 158.71 197.14 163.27 200.09C163.633 200.324 163.91 200.67 164.06 201.075C164.211 201.481 164.225 201.924 164.103 202.338C163.98 202.752 163.726 203.116 163.38 203.374C163.033 203.632 162.612 203.771 162.18 203.77Z" fill="#231F20"/>
<path d="M169.2 170.42C169.2 167.554 166.879 165.23 164.015 165.23C161.151 165.23 158.83 167.554 158.83 170.42V199.79C158.83 202.656 161.151 204.98 164.015 204.98C166.879 204.98 169.2 202.656 169.2 199.79V170.42Z" fill="#231F20"/>
<path d="M164.02 205.48C162.511 205.48 161.064 204.88 159.997 203.813C158.929 202.746 158.33 201.299 158.33 199.79V170.42C158.298 169.653 158.421 168.888 158.692 168.17C158.963 167.453 159.377 166.797 159.908 166.243C160.439 165.689 161.077 165.249 161.783 164.948C162.488 164.647 163.248 164.491 164.015 164.491C164.782 164.491 165.542 164.647 166.247 164.948C166.953 165.249 167.591 165.689 168.122 166.243C168.653 166.797 169.067 167.453 169.338 168.17C169.609 168.888 169.732 169.653 169.7 170.42V199.79C169.7 201.297 169.102 202.743 168.037 203.81C166.972 204.877 165.527 205.477 164.02 205.48ZM164.02 165.73C162.776 165.73 161.583 166.224 160.704 167.104C159.824 167.983 159.33 169.176 159.33 170.42V199.79C159.301 200.423 159.4 201.056 159.622 201.65C159.845 202.244 160.185 202.787 160.623 203.245C161.061 203.704 161.587 204.069 162.17 204.318C162.753 204.568 163.381 204.696 164.015 204.696C164.649 204.696 165.277 204.568 165.86 204.318C166.443 204.069 166.969 203.704 167.407 203.245C167.845 202.787 168.185 202.244 168.407 201.65C168.63 201.056 168.729 200.423 168.7 199.79V170.42C168.7 169.178 168.207 167.986 167.33 167.107C166.452 166.228 165.262 165.733 164.02 165.73Z" fill="#231F20"/>
<path d="M152.34 208.31L150.25 187.09H74.11L72.02 208.31C71.7311 211.255 72.0618 214.227 72.9907 217.036C73.9196 219.845 75.4262 222.429 77.4137 224.621C79.4011 226.812 81.8253 228.564 84.5303 229.763C87.2354 230.961 90.1613 231.58 93.12 231.58H131.24C134.199 231.58 137.125 230.961 139.83 229.763C142.535 228.564 144.959 226.812 146.946 224.621C148.934 222.429 150.44 219.845 151.369 217.036C152.298 214.227 152.629 211.255 152.34 208.31Z" fill="#231F20"/>
<path d="M131.24 232.04H93.12C90.0916 232.041 87.0966 231.407 84.3279 230.18C81.5591 228.953 79.078 227.16 77.0442 224.916C75.0104 222.673 73.469 220.028 72.5193 217.152C71.5696 214.276 71.2326 211.234 71.53 208.22L73.61 187.04C73.6245 186.917 73.6833 186.804 73.7753 186.721C73.8673 186.638 73.9862 186.592 74.11 186.59H150.25C150.374 186.592 150.493 186.638 150.585 186.721C150.677 186.804 150.735 186.917 150.75 187.04L152.83 208.26C153.121 211.271 152.78 214.309 151.828 217.18C150.875 220.051 149.333 222.691 147.3 224.93C145.267 227.169 142.787 228.959 140.022 230.183C137.256 231.408 134.265 232.04 131.24 232.04ZM74.56 187.55L72.56 208.32C72.2785 211.192 72.6003 214.09 73.5049 216.83C74.4094 219.57 75.8768 222.09 77.8127 224.229C79.7486 226.369 82.1104 228.08 84.7465 229.253C87.3826 230.426 90.2348 231.034 93.12 231.04H131.24C134.129 231.04 136.985 230.435 139.626 229.265C142.267 228.094 144.634 226.384 146.574 224.244C148.514 222.104 149.985 219.582 150.892 216.839C151.799 214.097 152.122 211.195 151.84 208.32L149.84 187.55H74.56Z" fill="#231F20"/>
<path d="M223.86 88.3301H0.5V162.68H223.86V88.3301Z" fill="white"/>
<path d="M223.86 163.19H0.5C0.367392 163.19 0.240214 163.137 0.146446 163.044C0.052678 162.95 0 162.823 0 162.69V88.3301C0 88.1975 0.052678 88.0703 0.146446 87.9765C0.240214 87.8828 0.367392 87.8301 0.5 87.8301H223.86C223.993 87.8301 224.12 87.8828 224.214 87.9765C224.307 88.0703 224.36 88.1975 224.36 88.3301V162.69C224.36 162.823 224.307 162.95 224.214 163.044C224.12 163.137 223.993 163.19 223.86 163.19ZM1 162.19H223.36V88.8301H1V162.19Z" fill="#231F20"/>
<path d="M162.6 108.65H61.76C59.5398 108.65 57.74 110.45 57.74 112.67V139.64C57.74 141.86 59.5398 143.66 61.76 143.66H162.6C164.82 143.66 166.62 141.86 166.62 139.64V112.67C166.62 110.45 164.82 108.65 162.6 108.65Z" fill="white"/>
<path d="M162.6 144.15H61.76C60.562 144.147 59.4139 143.67 58.5668 142.823C57.7197 141.976 57.2426 140.828 57.24 139.63V112.63C57.24 112.037 57.3569 111.449 57.5841 110.9C57.8112 110.352 58.1442 109.854 58.5639 109.434C58.9836 109.014 59.4819 108.681 60.0303 108.454C60.5786 108.227 61.1664 108.11 61.76 108.11H162.6C163.194 108.11 163.781 108.227 164.33 108.454C164.878 108.681 165.376 109.014 165.796 109.434C166.216 109.854 166.549 110.352 166.776 110.9C167.003 111.449 167.12 112.037 167.12 112.63V139.63C167.117 140.828 166.64 141.976 165.793 142.823C164.946 143.67 163.798 144.147 162.6 144.15ZM61.76 109.15C60.8272 109.153 59.9335 109.524 59.2739 110.184C58.6143 110.844 58.2426 111.737 58.24 112.67V139.67C58.2426 140.603 58.6143 141.497 59.2739 142.156C59.9335 142.816 60.8272 143.187 61.76 143.19H162.6C163.533 143.187 164.427 142.816 165.086 142.156C165.746 141.497 166.117 140.603 166.12 139.67V112.67C166.117 111.737 165.746 110.844 165.086 110.184C164.427 109.524 163.533 109.153 162.6 109.15H61.76Z" fill="#D1D3D4"/>
<path d="M72.4499 113.1H64.6599V117.02H72.4499V113.1Z" fill="#D1D3D4"/>
<path d="M72.4499 117.52H64.6599C64.5281 117.518 64.4024 117.464 64.3092 117.371C64.216 117.278 64.1625 117.152 64.1599 117.02V113.1C64.1599 112.967 64.2126 112.84 64.3064 112.747C64.4001 112.653 64.5273 112.6 64.6599 112.6H72.4499C72.5825 112.6 72.7097 112.653 72.8035 112.747C72.8972 112.84 72.9499 112.967 72.9499 113.1V117.04C72.9448 117.169 72.8898 117.291 72.7966 117.381C72.7034 117.47 72.5791 117.52 72.4499 117.52ZM65.1599 116.52H71.9499V113.6H65.1799L65.1599 116.52Z" fill="#D1D3D4"/>
<path d="M72.4499 120.49H64.6599V124.41H72.4499V120.49Z" fill="white"/>
<path d="M72.4499 124.91H64.6599C64.5273 124.91 64.4001 124.857 64.3064 124.764C64.2126 124.67 64.1599 124.543 64.1599 124.41V120.49C64.1625 120.358 64.216 120.232 64.3092 120.139C64.4024 120.046 64.5281 119.993 64.6599 119.99H72.4499C72.5825 119.99 72.7097 120.043 72.8035 120.136C72.8972 120.23 72.9499 120.357 72.9499 120.49V124.41C72.9499 124.543 72.8972 124.67 72.8035 124.764C72.7097 124.857 72.5825 124.91 72.4499 124.91ZM65.1599 123.91H71.9499V121.04H65.1799L65.1599 123.91Z" fill="#D1D3D4"/>
<path d="M72.4499 127.89H64.6599V131.81H72.4499V127.89Z" fill="white"/>
<path d="M72.4499 132.3H64.6599C64.5273 132.3 64.4001 132.247 64.3064 132.153C64.2126 132.06 64.1599 131.932 64.1599 131.8V127.89C64.1599 127.757 64.2126 127.63 64.3064 127.536C64.4001 127.443 64.5273 127.39 64.6599 127.39H72.4499C72.5825 127.39 72.7097 127.443 72.8035 127.536C72.8972 127.63 72.9499 127.757 72.9499 127.89V131.8C72.9499 131.932 72.8972 132.06 72.8035 132.153C72.7097 132.247 72.5825 132.3 72.4499 132.3ZM65.1599 131.3H71.9499V128.39H65.1799L65.1599 131.3Z" fill="#D1D3D4"/>
<path d="M72.4499 135.28H64.6599V139.2H72.4499V135.28Z" fill="white"/>
<path d="M72.4499 139.7H64.6599C64.5273 139.7 64.4001 139.647 64.3064 139.554C64.2126 139.46 64.1599 139.333 64.1599 139.2V135.28C64.1599 135.147 64.2126 135.02 64.3064 134.926C64.4001 134.833 64.5273 134.78 64.6599 134.78H72.4499C72.5825 134.78 72.7097 134.833 72.8035 134.926C72.8972 135.02 72.9499 135.147 72.9499 135.28V139.2C72.9499 139.333 72.8972 139.46 72.8035 139.554C72.7097 139.647 72.5825 139.7 72.4499 139.7ZM65.1599 138.7H71.9499V135.78H65.1799L65.1599 138.7Z" fill="#D1D3D4"/>
<path d="M84.92 113.1H77.13V117.02H84.92V113.1Z" fill="white"/>
<path d="M84.9199 117.52H77.1799C77.0473 117.52 76.9202 117.467 76.8264 117.374C76.7326 117.28 76.6799 117.153 76.6799 117.02V113.1C76.6799 112.967 76.7326 112.84 76.8264 112.747C76.9202 112.653 77.0473 112.6 77.1799 112.6H84.9699C85.1025 112.6 85.2297 112.653 85.3235 112.747C85.4173 112.84 85.4699 112.967 85.4699 113.1V117.04C85.4661 117.108 85.4488 117.174 85.419 117.236C85.3891 117.297 85.3473 117.351 85.2961 117.396C85.2448 117.441 85.1851 117.475 85.1205 117.496C85.0559 117.517 84.9877 117.526 84.9199 117.52ZM77.6299 116.52H84.4199V113.6H77.6299V116.52Z" fill="#D1D3D4"/>
<path d="M84.92 120.49H77.13V124.41H84.92V120.49Z" fill="white"/>
<path d="M84.9199 124.91H77.1799C77.0473 124.91 76.9202 124.857 76.8264 124.764C76.7326 124.67 76.6799 124.543 76.6799 124.41V120.49C76.6799 120.357 76.7326 120.23 76.8264 120.136C76.9202 120.043 77.0473 119.99 77.1799 119.99H84.9699C85.1017 119.993 85.2274 120.046 85.3206 120.139C85.4139 120.232 85.4674 120.358 85.4699 120.49V124.41C85.4703 124.48 85.4559 124.549 85.4277 124.614C85.3995 124.678 85.3581 124.735 85.3063 124.782C85.2544 124.83 85.1932 124.865 85.1267 124.887C85.0601 124.909 84.9897 124.917 84.9199 124.91ZM77.6299 123.91H84.4199V121.04H77.6299V123.91Z" fill="#D1D3D4"/>
<path d="M84.92 127.89H77.13V131.81H84.92V127.89Z" fill="white"/>
<path d="M84.9199 132.3H77.1799C77.0473 132.3 76.9202 132.247 76.8264 132.153C76.7326 132.06 76.6799 131.932 76.6799 131.8V127.89C76.6799 127.757 76.7326 127.63 76.8264 127.536C76.9202 127.443 77.0473 127.39 77.1799 127.39H84.9699C85.1025 127.39 85.2297 127.443 85.3235 127.536C85.4173 127.63 85.4699 127.757 85.4699 127.89V131.8C85.4703 131.87 85.4559 131.939 85.4277 132.004C85.3995 132.068 85.3581 132.125 85.3063 132.172C85.2544 132.22 85.1932 132.255 85.1267 132.277C85.0601 132.299 84.9897 132.307 84.9199 132.3ZM77.6299 131.3H84.4199V128.39H77.6299V131.3Z" fill="#D1D3D4"/>
<path d="M84.92 135.28H77.13V139.2H84.92V135.28Z" fill="white"/>
<path d="M84.9199 139.7H77.1799C77.0473 139.7 76.9202 139.647 76.8264 139.554C76.7326 139.46 76.6799 139.333 76.6799 139.2V135.28C76.6799 135.147 76.7326 135.02 76.8264 134.926C76.9202 134.833 77.0473 134.78 77.1799 134.78H84.9699C85.1025 134.78 85.2297 134.833 85.3235 134.926C85.4173 135.02 85.4699 135.147 85.4699 135.28V139.2C85.4703 139.27 85.4559 139.339 85.4277 139.404C85.3995 139.468 85.3581 139.525 85.3063 139.572C85.2544 139.62 85.1932 139.655 85.1267 139.677C85.0601 139.699 84.9897 139.707 84.9199 139.7ZM77.6299 138.7H84.4199V135.78H77.6299V138.7Z" fill="#D1D3D4"/>
<path d="M97.3801 113.1H89.5901V117.02H97.3801V113.1Z" fill="white"/>
<path d="M97.3801 117.52H89.5901C89.4575 117.52 89.3303 117.467 89.2365 117.374C89.1428 117.28 89.0901 117.153 89.0901 117.02V113.1C89.0901 112.967 89.1428 112.84 89.2365 112.747C89.3303 112.653 89.4575 112.6 89.5901 112.6H97.3801C97.5127 112.6 97.6399 112.653 97.7336 112.747C97.8274 112.84 97.8801 112.967 97.8801 113.1V117.04C97.8749 117.169 97.82 117.291 97.7267 117.381C97.6335 117.47 97.5093 117.52 97.3801 117.52ZM90.0901 116.52H96.8801V113.6H90.0901V116.52Z" fill="#D1D3D4"/>
<path d="M97.3801 120.49H89.5901V124.41H97.3801V120.49Z" fill="white"/>
<path d="M97.3801 124.91H89.5901C89.4575 124.91 89.3303 124.857 89.2365 124.764C89.1428 124.67 89.0901 124.543 89.0901 124.41V120.49C89.0901 120.357 89.1428 120.23 89.2365 120.136C89.3303 120.043 89.4575 119.99 89.5901 119.99H97.3801C97.5127 119.99 97.6399 120.043 97.7336 120.136C97.8274 120.23 97.8801 120.357 97.8801 120.49V124.41C97.8801 124.543 97.8274 124.67 97.7336 124.764C97.6399 124.857 97.5127 124.91 97.3801 124.91ZM90.0901 123.91H96.8801V121.04H90.0901V123.91Z" fill="#D1D3D4"/>
<path d="M97.3801 127.89H89.5901V131.81H97.3801V127.89Z" fill="white"/>
<path d="M97.3801 132.3H89.5901C89.4575 132.3 89.3303 132.247 89.2365 132.153C89.1428 132.06 89.0901 131.932 89.0901 131.8V127.89C89.0901 127.757 89.1428 127.63 89.2365 127.536C89.3303 127.443 89.4575 127.39 89.5901 127.39H97.3801C97.5127 127.39 97.6399 127.443 97.7336 127.536C97.8274 127.63 97.8801 127.757 97.8801 127.89V131.8C97.8801 131.932 97.8274 132.06 97.7336 132.153C97.6399 132.247 97.5127 132.3 97.3801 132.3ZM90.0901 131.3H96.8801V128.39H90.0901V131.3Z" fill="#D1D3D4"/>
<path d="M134.77 135.28H89.5901V139.2H134.77V135.28Z" fill="#D1D3D4"/>
<path d="M134.77 139.7H89.5901C89.4575 139.7 89.3303 139.647 89.2365 139.554C89.1428 139.46 89.0901 139.333 89.0901 139.2V135.28C89.0901 135.147 89.1428 135.02 89.2365 134.926C89.3303 134.833 89.4575 134.78 89.5901 134.78H134.77C134.903 134.78 135.03 134.833 135.124 134.926C135.217 135.02 135.27 135.147 135.27 135.28V139.2C135.27 139.333 135.217 139.46 135.124 139.554C135.03 139.647 134.903 139.7 134.77 139.7ZM90.0901 138.7H134.27V135.78H90.0901V138.7Z" fill="#D1D3D4"/>
<path d="M109.84 113.1H102.05V117.02H109.84V113.1Z" fill="white"/>
<path d="M109.84 117.52H102.05C101.918 117.518 101.793 117.464 101.699 117.371C101.606 117.278 101.553 117.152 101.55 117.02V113.1C101.55 112.967 101.603 112.84 101.697 112.747C101.79 112.653 101.917 112.6 102.05 112.6H109.84C109.973 112.6 110.1 112.653 110.194 112.747C110.287 112.84 110.34 112.967 110.34 113.1V117.04C110.335 117.169 110.28 117.291 110.187 117.381C110.094 117.47 109.969 117.52 109.84 117.52ZM102.55 116.52H109.34V113.6H102.55V116.52Z" fill="#D1D3D4"/>
<path d="M109.84 120.49H102.05V124.41H109.84V120.49Z" fill="white"/>
<path d="M109.84 124.91H102.05C101.917 124.91 101.79 124.857 101.697 124.764C101.603 124.67 101.55 124.543 101.55 124.41V120.49C101.553 120.358 101.606 120.232 101.699 120.139C101.793 120.046 101.918 119.993 102.05 119.99H109.84C109.973 119.99 110.1 120.043 110.194 120.136C110.287 120.23 110.34 120.357 110.34 120.49V124.41C110.34 124.543 110.287 124.67 110.194 124.764C110.1 124.857 109.973 124.91 109.84 124.91ZM102.55 123.91H109.34V121.04H102.55V123.91Z" fill="#D1D3D4"/>
<path d="M109.84 127.89H102.05V131.81H109.84V127.89Z" fill="white"/>
<path d="M109.84 132.3H102.05C101.917 132.3 101.79 132.247 101.697 132.153C101.603 132.06 101.55 131.932 101.55 131.8V127.89C101.55 127.757 101.603 127.63 101.697 127.536C101.79 127.443 101.917 127.39 102.05 127.39H109.84C109.973 127.39 110.1 127.443 110.194 127.536C110.287 127.63 110.34 127.757 110.34 127.89V131.8C110.34 131.932 110.287 132.06 110.194 132.153C110.1 132.247 109.973 132.3 109.84 132.3ZM102.55 131.3H109.34V128.39H102.55V131.3Z" fill="#D1D3D4"/>
<path d="M122.31 113.1H114.52V117.02H122.31V113.1Z" fill="white"/>
<path d="M122.31 117.52H114.52C114.387 117.52 114.26 117.467 114.166 117.374C114.073 117.28 114.02 117.153 114.02 117.02V113.1C114.02 112.967 114.073 112.84 114.166 112.747C114.26 112.653 114.387 112.6 114.52 112.6H122.31C122.443 112.6 122.57 112.653 122.664 112.747C122.757 112.84 122.81 112.967 122.81 113.1V117.04C122.802 117.168 122.747 117.289 122.654 117.378C122.561 117.467 122.439 117.518 122.31 117.52ZM115.02 116.52H121.81V113.6H115.02V116.52Z" fill="#D1D3D4"/>
<path d="M122.31 120.49H114.52V124.41H122.31V120.49Z" fill="white"/>
<path d="M122.31 124.91H114.52C114.387 124.91 114.26 124.857 114.166 124.764C114.073 124.67 114.02 124.543 114.02 124.41V120.49C114.02 120.357 114.073 120.23 114.166 120.136C114.26 120.043 114.387 119.99 114.52 119.99H122.31C122.442 119.993 122.568 120.046 122.661 120.139C122.754 120.232 122.807 120.358 122.81 120.49V124.41C122.81 124.543 122.757 124.67 122.664 124.764C122.57 124.857 122.443 124.91 122.31 124.91ZM115.02 123.91H121.81V121.04H115.02V123.91Z" fill="#D1D3D4"/>
<path d="M122.31 127.89H114.52V131.81H122.31V127.89Z" fill="white"/>
<path d="M122.31 132.3H114.52C114.387 132.3 114.26 132.247 114.166 132.153C114.073 132.06 114.02 131.932 114.02 131.8V127.89C114.02 127.757 114.073 127.63 114.166 127.536C114.26 127.443 114.387 127.39 114.52 127.39H122.31C122.443 127.39 122.57 127.443 122.664 127.536C122.757 127.63 122.81 127.757 122.81 127.89V131.8C122.81 131.932 122.757 132.06 122.664 132.153C122.57 132.247 122.443 132.3 122.31 132.3ZM115.02 131.3H121.81V128.39H115.02V131.3Z" fill="#D1D3D4"/>
<path d="M134.77 113.1H126.98V117.02H134.77V113.1Z" fill="white"/>
<path d="M134.77 117.52H126.98C126.847 117.52 126.72 117.467 126.626 117.374C126.533 117.28 126.48 117.153 126.48 117.02V113.1C126.48 112.967 126.533 112.84 126.626 112.747C126.72 112.653 126.847 112.6 126.98 112.6H134.77C134.903 112.6 135.03 112.653 135.124 112.747C135.217 112.84 135.27 112.967 135.27 113.1V117.04C135.265 117.169 135.21 117.291 135.117 117.381C135.023 117.47 134.899 117.52 134.77 117.52ZM127.48 116.52H134.27V113.6H127.48V116.52Z" fill="#D1D3D4"/>
<path d="M134.77 120.49H126.98V124.41H134.77V120.49Z" fill="white"/>
<path d="M134.77 124.91H126.98C126.847 124.91 126.72 124.857 126.626 124.764C126.533 124.67 126.48 124.543 126.48 124.41V120.49C126.48 120.357 126.533 120.23 126.626 120.136C126.72 120.043 126.847 119.99 126.98 119.99H134.77C134.903 119.99 135.03 120.043 135.124 120.136C135.217 120.23 135.27 120.357 135.27 120.49V124.41C135.27 124.543 135.217 124.67 135.124 124.764C135.03 124.857 134.903 124.91 134.77 124.91ZM127.48 123.91H134.27V121.04H127.48V123.91Z" fill="#D1D3D4"/>
<path d="M134.77 127.89H126.98V131.81H134.77V127.89Z" fill="white"/>
<path d="M134.77 132.3H126.98C126.847 132.3 126.72 132.247 126.626 132.153C126.533 132.06 126.48 131.932 126.48 131.8V127.89C126.48 127.757 126.533 127.63 126.626 127.536C126.72 127.443 126.847 127.39 126.98 127.39H134.77C134.903 127.39 135.03 127.443 135.124 127.536C135.217 127.63 135.27 127.757 135.27 127.89V131.8C135.27 131.932 135.217 132.06 135.124 132.153C135.03 132.247 134.903 132.3 134.77 132.3ZM127.48 131.3H134.27V128.39H127.48V131.3Z" fill="#D1D3D4"/>
<path d="M147.23 113.1H139.44V117.02H147.23V113.1Z" fill="white"/>
<path d="M147.23 117.52H139.44C139.308 117.518 139.183 117.464 139.089 117.371C138.996 117.278 138.943 117.152 138.94 117.02V113.1C138.94 112.967 138.993 112.84 139.087 112.747C139.18 112.653 139.307 112.6 139.44 112.6H147.23C147.363 112.6 147.49 112.653 147.584 112.747C147.677 112.84 147.73 112.967 147.73 113.1V117.04C147.725 117.169 147.67 117.291 147.577 117.381C147.484 117.47 147.359 117.52 147.23 117.52ZM139.94 116.52H146.73V113.6H139.94V116.52Z" fill="#D1D3D4"/>
<path d="M147.23 120.49H139.44V124.41H147.23V120.49Z" fill="white"/>
<path d="M147.23 124.91H139.44C139.307 124.91 139.18 124.857 139.087 124.764C138.993 124.67 138.94 124.543 138.94 124.41V120.49C138.943 120.358 138.996 120.232 139.089 120.139C139.183 120.046 139.308 119.993 139.44 119.99H147.23C147.363 119.99 147.49 120.043 147.584 120.136C147.677 120.23 147.73 120.357 147.73 120.49V124.41C147.73 124.543 147.677 124.67 147.584 124.764C147.49 124.857 147.363 124.91 147.23 124.91ZM139.94 123.91H146.73V121.04H139.94V123.91Z" fill="#D1D3D4"/>
<path d="M147.23 127.89H139.44V131.81H147.23V127.89Z" fill="white"/>
<path d="M147.23 132.3H139.44C139.307 132.3 139.18 132.247 139.087 132.153C138.993 132.06 138.94 131.932 138.94 131.8V127.89C138.94 127.757 138.993 127.63 139.087 127.536C139.18 127.443 139.307 127.39 139.44 127.39H147.23C147.363 127.39 147.49 127.443 147.584 127.536C147.677 127.63 147.73 127.757 147.73 127.89V131.8C147.73 131.932 147.677 132.06 147.584 132.153C147.49 132.247 147.363 132.3 147.23 132.3ZM139.94 131.3H146.73V128.39H139.94V131.3Z" fill="#D1D3D4"/>
<path d="M147.23 135.28H139.44V139.2H147.23V135.28Z" fill="white"/>
<path d="M147.23 139.7H139.44C139.307 139.7 139.18 139.647 139.087 139.554C138.993 139.46 138.94 139.333 138.94 139.2V135.28C138.94 135.147 138.993 135.02 139.087 134.926C139.18 134.833 139.307 134.78 139.44 134.78H147.23C147.363 134.78 147.49 134.833 147.584 134.926C147.677 135.02 147.73 135.147 147.73 135.28V139.2C147.73 139.333 147.677 139.46 147.584 139.554C147.49 139.647 147.363 139.7 147.23 139.7ZM139.94 138.7H146.73V135.78H139.94V138.7Z" fill="#D1D3D4"/>
<path d="M159.7 113.1H151.91V117.02H159.7V113.1Z" fill="white"/>
<path d="M159.7 117.52H151.91C151.777 117.52 151.65 117.467 151.556 117.374C151.463 117.28 151.41 117.153 151.41 117.02V113.1C151.41 112.967 151.463 112.84 151.556 112.747C151.65 112.653 151.777 112.6 151.91 112.6H159.7C159.833 112.6 159.96 112.653 160.054 112.747C160.147 112.84 160.2 112.967 160.2 113.1V117.04C160.193 117.168 160.137 117.289 160.044 117.378C159.951 117.467 159.829 117.518 159.7 117.52ZM152.41 116.52H159.18V113.6H152.39L152.41 116.52Z" fill="#D1D3D4"/>
<path d="M159.7 120.49H151.91V124.41H159.7V120.49Z" fill="white"/>
<path d="M159.7 124.91H151.91C151.777 124.91 151.65 124.857 151.556 124.764C151.463 124.67 151.41 124.543 151.41 124.41V120.49C151.41 120.357 151.463 120.23 151.556 120.136C151.65 120.043 151.777 119.99 151.91 119.99H159.7C159.832 119.993 159.958 120.046 160.051 120.139C160.144 120.232 160.197 120.358 160.2 120.49V124.41C160.2 124.543 160.147 124.67 160.054 124.764C159.96 124.857 159.833 124.91 159.7 124.91ZM152.41 123.91H159.18V121.04H152.39L152.41 123.91Z" fill="#D1D3D4"/>
<path d="M159.7 127.89H151.91V131.81H159.7V127.89Z" fill="white"/>
<path d="M159.7 132.3H151.91C151.777 132.3 151.65 132.247 151.556 132.153C151.463 132.06 151.41 131.932 151.41 131.8V127.89C151.41 127.757 151.463 127.63 151.556 127.536C151.65 127.443 151.777 127.39 151.91 127.39H159.7C159.833 127.39 159.96 127.443 160.054 127.536C160.147 127.63 160.2 127.757 160.2 127.89V131.8C160.2 131.932 160.147 132.06 160.054 132.153C159.96 132.247 159.833 132.3 159.7 132.3ZM152.41 131.3H159.18V128.39H152.39L152.41 131.3Z" fill="#D1D3D4"/>
<path d="M159.7 135.28H151.91V139.2H159.7V135.28Z" fill="white"/>
<path d="M159.7 139.7H151.91C151.777 139.7 151.65 139.647 151.556 139.554C151.463 139.46 151.41 139.333 151.41 139.2V135.28C151.41 135.147 151.463 135.02 151.556 134.926C151.65 134.833 151.777 134.78 151.91 134.78H159.7C159.833 134.78 159.96 134.833 160.054 134.926C160.147 135.02 160.2 135.147 160.2 135.28V139.2C160.2 139.333 160.147 139.46 160.054 139.554C159.96 139.647 159.833 139.7 159.7 139.7ZM152.41 138.7H159.18V135.78H152.39L152.41 138.7Z" fill="#D1D3D4"/>
<path d="M134.91 136.18C134.91 136.18 125.91 130.05 126.67 128.74C127.43 127.43 133.59 130.28 133.59 130.28C133.59 130.28 132.18 124.35 131.37 123.18C130.56 122.01 128.71 120.12 128.71 119.46C128.71 118.8 129.33 117.86 129.92 118.16C130.51 118.46 133.66 121.05 133.85 121.67C134.04 122.29 134.5 123.55 134.5 123.55C134.5 123.55 134.81 119.95 133.78 119C132.75 118.05 131.36 116.8 131.38 116.31C131.4 115.82 132.38 114.58 132.96 114.87C134.266 115.753 135.415 116.848 136.36 118.11C136.857 119.753 137.264 121.422 137.58 123.11C137.58 123.11 138.17 119.3 137.72 118.38C137.27 117.46 135.56 115.89 136.83 114.71C138.1 113.53 140.24 119.98 140.47 121.61C140.47 120.26 140.52 118.9 140.59 117.54C140.66 116.34 141.04 115.64 142.08 116.79C142.59 117.475 142.867 118.306 142.87 119.16C143.11 122.32 142.42 125.45 142.17 128.58C141.85 132.5 143.23 136.08 144.23 139.84C145.39 144.22 146.523 148.61 147.63 153.01C148.63 157.17 149.69 161.34 150.57 165.54C151.01 167.63 151.94 170.36 151.57 172.54C150.94 176.36 136.9 185.54 136.9 185.54L134.91 136.18Z" fill="white"/>
<path d="M136.92 186.04C136.841 186.039 136.762 186.022 136.69 185.99C136.612 185.947 136.546 185.886 136.499 185.81C136.452 185.735 136.424 185.649 136.42 185.56L134.42 136.46C130.17 133.56 125.42 129.88 126.23 128.46C127.04 127.04 130.62 128.46 132.85 129.38C132.412 127.346 131.776 125.36 130.95 123.45C130.68 123.06 130.27 122.57 129.88 122.09C128.88 120.83 128.2 120.02 128.2 119.44C128.206 119.11 128.289 118.786 128.444 118.494C128.599 118.202 128.82 117.95 129.09 117.76C129.244 117.659 129.422 117.599 129.606 117.587C129.79 117.575 129.974 117.61 130.14 117.69C131.526 118.637 132.807 119.73 133.96 120.95C133.945 120.376 133.761 119.819 133.43 119.35L133.16 119.09C131.58 117.63 130.84 116.88 130.87 116.26C130.948 115.897 131.099 115.554 131.314 115.252C131.529 114.949 131.803 114.694 132.12 114.5C132.274 114.395 132.452 114.331 132.638 114.316C132.824 114.3 133.01 114.332 133.18 114.41C134.584 115.341 135.811 116.516 136.8 117.88C137.042 118.532 137.236 119.2 137.38 119.88C137.417 119.443 137.376 119.003 137.26 118.58C137.136 118.35 136.996 118.13 136.84 117.92C136.22 117.02 135.18 115.53 136.48 114.33C136.607 114.2 136.769 114.109 136.947 114.07C137.125 114.031 137.31 114.045 137.48 114.11C138.48 114.45 139.39 116.45 140.05 118.32C140.05 118.04 140.05 117.77 140.05 117.5C140.05 116.85 140.2 115.97 140.86 115.73C141.52 115.49 142.19 116.2 142.4 116.43C142.988 117.196 143.308 118.134 143.31 119.1C143.409 121.29 143.285 123.485 142.94 125.65C142.82 126.65 142.7 127.65 142.62 128.65C142.37 131.72 143.19 134.57 144.05 137.58C144.26 138.3 144.47 139.02 144.66 139.74C145.94 144.53 147.05 148.84 148.07 152.92C149.23 157.57 150.17 161.48 151.01 165.46C151.11 165.93 151.23 166.46 151.36 166.96C151.943 168.793 152.171 170.721 152.03 172.64C151.39 176.56 138.6 185.06 137.14 186.02C137.069 186.043 136.994 186.05 136.92 186.04ZM127.53 128.88C127.29 128.88 127.14 128.88 127.09 129C127.14 129.76 131.31 133.14 135.2 135.77C135.264 135.813 135.316 135.872 135.353 135.939C135.389 136.007 135.409 136.083 135.41 136.16L137.41 184.63C141.68 181.76 150.67 175.2 151.12 172.42C151.236 170.635 151.015 168.844 150.47 167.14C150.34 166.61 150.21 166.14 150.11 165.61C149.28 161.61 148.34 157.74 147.18 153.1C146.18 149.03 145.05 144.73 143.78 139.94C143.58 139.22 143.38 138.51 143.17 137.79C142.32 134.79 141.44 131.79 141.7 128.51C141.78 127.51 141.91 126.51 142.03 125.51C142.363 123.411 142.487 121.284 142.4 119.16C142.404 118.415 142.173 117.687 141.74 117.08C141.606 116.912 141.439 116.773 141.25 116.67C141.187 116.953 141.143 117.241 141.12 117.53C141.12 118.43 141.05 119.34 141.03 120.24V121.59C141.027 121.715 140.977 121.834 140.89 121.923C140.803 122.013 140.685 122.065 140.56 122.07C140.436 122.079 140.314 122.04 140.217 121.962C140.121 121.885 140.057 121.773 140.04 121.65C139.77 119.77 138.04 115.16 137.21 115.03C136.66 115.56 136.93 116.17 137.73 117.33C137.915 117.582 138.082 117.846 138.23 118.12C138.73 119.12 138.23 122.48 138.13 123.12C138.111 123.235 138.053 123.34 137.966 123.417C137.878 123.493 137.766 123.537 137.65 123.54C137.532 123.547 137.416 123.509 137.323 123.436C137.231 123.362 137.169 123.257 137.15 123.14C136.849 121.502 136.455 119.883 135.97 118.29C135.074 117.133 134.005 116.121 132.8 115.29C132.58 115.29 131.97 116.04 131.94 116.29C132.534 117.025 133.205 117.696 133.94 118.29L134.21 118.54C135.36 119.61 135.15 122.86 135.09 123.54C135.08 123.654 135.032 123.761 134.954 123.844C134.876 123.928 134.773 123.983 134.66 124C134.546 124.012 134.432 123.986 134.334 123.927C134.236 123.867 134.161 123.777 134.12 123.67C134.12 123.67 133.65 122.4 133.46 121.77C132.367 120.559 131.136 119.482 129.79 118.56C129.79 118.56 129.72 118.56 129.64 118.65C129.438 118.854 129.317 119.124 129.3 119.41C129.703 120.132 130.189 120.803 130.75 121.41C131.18 121.92 131.58 122.41 131.87 122.83C132.71 124.04 134.02 129.48 134.16 130.09C134.183 130.182 134.179 130.28 134.149 130.37C134.119 130.46 134.064 130.54 133.99 130.6C133.918 130.658 133.831 130.695 133.739 130.705C133.647 130.716 133.553 130.7 133.47 130.66C131.603 129.739 129.595 129.137 127.53 128.88Z" fill="#231F20"/>
<path d="M87.3599 166.98L95.8799 133.04C95.8799 133.04 101.41 130.95 102.01 128.41C102.61 125.87 97.6799 128.41 97.6799 128.41L99.4699 122.41C99.4699 122.41 101.06 125.54 102.06 123.9C103.06 122.26 100.06 116.13 98.8699 116.28C97.6799 116.43 90.8099 118.82 90.3599 120.02C89.9099 121.22 88.7099 129.88 88.7099 129.88C88.7099 129.88 70.9399 161.88 70.9399 164.08C70.9399 166.28 87.3599 166.98 87.3599 166.98Z" fill="white"/>
<path d="M87.36 167.48C81.05 167.24 70.46 166.48 70.46 164.11C70.46 161.74 86.18 133.4 88.23 129.74C88.4 128.5 89.45 121.05 89.89 119.87C90.48 118.31 97.74 115.95 98.81 115.82C99.37 115.74 100.01 116.26 100.74 117.38C101.8 119.01 103.4 122.69 102.49 124.19C102.381 124.403 102.217 124.582 102.015 124.709C101.812 124.836 101.579 124.905 101.34 124.91C100.983 124.832 100.646 124.679 100.351 124.462C100.056 124.245 99.8107 123.968 99.63 123.65L98.48 127.49C99.65 126.99 101.34 126.49 102.13 127.07C102.333 127.247 102.476 127.482 102.54 127.743C102.605 128.004 102.587 128.279 102.49 128.53C101.91 131.01 97.49 132.93 96.31 133.41L87.84 167.1C87.8119 167.207 87.7499 167.302 87.6633 167.37C87.5768 167.439 87.4703 167.477 87.36 167.48ZM98.9 116.81C97.63 116.97 91.22 119.35 90.83 120.23C90.44 121.11 89.54 127.58 89.21 129.97C89.2005 130.033 89.1802 130.094 89.15 130.15C82.33 142.41 71.49 162.48 71.44 164.15C71.73 165.09 78.8 166.15 86.97 166.5L95.4 132.96C95.4192 132.881 95.4575 132.808 95.5115 132.747C95.5656 132.686 95.6337 132.639 95.71 132.61C97.18 132.06 101.08 130.2 101.52 128.34C101.52 128.11 101.52 127.94 101.52 127.9C101.13 127.59 99.31 128.18 97.92 128.9C97.8326 128.945 97.7337 128.964 97.6359 128.953C97.5381 128.942 97.4456 128.903 97.37 128.84C97.293 128.778 97.2365 128.694 97.2079 128.6C97.1794 128.505 97.1801 128.404 97.21 128.31L99 122.31C99.0298 122.216 99.0869 122.133 99.164 122.071C99.2411 122.009 99.3348 121.972 99.4333 121.963C99.5317 121.954 99.6305 121.975 99.7171 122.023C99.8037 122.07 99.8743 122.142 99.92 122.23C100.33 123.02 101.03 123.91 101.39 123.93C101.47 123.93 101.59 123.78 101.64 123.69C101.9 123.26 101.79 121.88 100.93 119.88C100.07 117.88 99.18 116.87 98.9 116.81Z" fill="#231F20"/>
<path d="M134.85 164.57L132.11 171.04C132.11 171.04 105.63 167.39 90.5501 173.15L89.8801 163.61L70.3801 160.04C69.5901 162.21 69.8001 191.68 74.2801 203.04C78.7601 214.4 93.6101 224.04 124.02 218.36C124.02 218.36 146.65 209.36 151.6 197.61C154.77 190.08 154.6 171.61 153.96 161.48L134.85 164.57Z" fill="#87D147"/>
<path d="M89.0801 192.98C89.1149 194.012 89.3386 195.029 89.7401 195.98C89.8579 196.312 90.0614 196.608 90.3301 196.836C90.5988 197.064 90.9231 197.217 91.2701 197.28C92.2701 197.35 92.9101 196.28 93.2701 195.37C94.2701 192.58 95.8401 186.86 92.3201 185.13C88.2401 183.16 88.9201 190.76 89.0801 192.98Z" fill="white"/>
<path d="M91.35 197.82H91.23C90.7949 197.754 90.3854 197.573 90.0441 197.295C89.7029 197.017 89.4425 196.653 89.29 196.24C88.8583 195.223 88.6176 194.134 88.58 193.03V192.82C88.32 189.43 88.3 185.82 89.98 184.67C90.3633 184.434 90.8047 184.309 91.255 184.309C91.7053 184.309 92.1467 184.434 92.53 184.67C96.53 186.67 94.69 192.92 93.73 195.53C93.18 197.04 92.33 197.82 91.35 197.82ZM89.58 192.95C89.6103 193.93 89.8204 194.896 90.2 195.8C90.3 196.03 90.7 196.8 91.3 196.8C92.1 196.85 92.64 195.59 92.78 195.21C93.65 192.85 95.32 187.21 92.08 185.59C91.08 185.1 90.67 185.38 90.53 185.47C89.1 186.47 89.45 191.16 89.53 192.72L89.58 192.95Z" fill="#231F20"/>
<path d="M126.61 191.26C126.649 192.291 126.873 193.307 127.27 194.26C127.388 194.592 127.591 194.888 127.86 195.116C128.129 195.344 128.453 195.497 128.8 195.56C129.8 195.63 130.44 194.56 130.8 193.65C131.8 190.85 133.37 185.14 129.85 183.41C125.77 181.44 126.45 189.04 126.61 191.26Z" fill="white"/>
<path d="M128.88 196.1H128.77C128.323 196.045 127.899 195.867 127.546 195.586C127.193 195.306 126.925 194.933 126.77 194.51C126.337 193.497 126.096 192.411 126.06 191.31V191.1C125.81 187.71 125.78 184.1 127.46 182.95C127.843 182.714 128.285 182.589 128.735 182.589C129.185 182.589 129.627 182.714 130.01 182.95C134.01 184.95 132.17 191.2 131.21 193.81C130.72 195.29 129.86 196.1 128.88 196.1ZM128.61 183.6C128.412 183.591 128.218 183.651 128.06 183.77C126.63 184.77 126.98 189.46 127.06 191.02V191.22C127.089 192.203 127.299 193.173 127.68 194.08C127.78 194.3 128.18 195.08 128.78 195.08C129.59 195.08 130.12 193.88 130.26 193.49C131.13 191.13 132.8 185.49 129.56 183.87C129.266 183.715 128.942 183.623 128.61 183.6Z" fill="#231F20"/>
<path d="M129.76 189.67C129.76 189.67 127.24 179.61 120.76 174.58C114.28 169.55 105.36 170.18 101.59 172.85C97.8199 175.52 90.8999 183.54 92.3099 196.42C93.7199 209.3 129.76 189.67 129.76 189.67Z" fill="white"/>
<path d="M98.6601 201.3C97.2134 201.356 95.7741 201.068 94.4601 200.46C93.7143 200.079 93.0817 199.51 92.6254 198.808C92.1691 198.106 91.9052 197.296 91.8601 196.46C90.4701 183.77 97.1601 175.38 101.34 172.46C105.1 169.8 114.34 168.89 121.11 174.21C127.61 179.28 130.11 189.15 130.24 189.57C130.269 189.677 130.261 189.79 130.218 189.892C130.174 189.994 130.097 190.078 130 190.13C129.04 190.63 109.35 201.3 98.6601 201.3ZM109.49 171.3C106.825 171.211 104.193 171.906 101.92 173.3C97.9201 176.13 91.5101 184.18 92.8501 196.41C92.8818 197.079 93.09 197.727 93.4536 198.289C93.8172 198.851 94.3232 199.307 94.9201 199.61C102.33 203.48 126.01 191.14 129.17 189.46C128.64 187.6 126.03 179.34 120.49 175.01C117.339 172.582 113.468 171.273 109.49 171.29V171.3Z" fill="#231F20"/>
<path d="M119.18 186.5C116.74 187.25 114.44 188.31 112.06 189.19C112.56 187.06 115.32 184.58 116.8 183.04C111.14 181.67 104.39 183.72 99.8 187.12L101.8 182.95C98.9082 184.017 96.2823 185.699 94.1035 187.88C91.9247 190.06 90.2449 192.687 89.18 195.58C85.26 206.02 90.09 218.74 100.38 223.14C108.99 226.81 120.16 225.59 127.26 219.41C131.028 215.946 133.436 211.251 134.05 206.17C134.78 201.03 134.4 194.71 131.88 190.17C130.61 187.85 128.66 185.71 125.88 185.42C124.187 185.328 122.491 185.552 120.88 186.08L119.18 186.5Z" fill="white"/>
<path d="M110.73 225.72C107.107 225.728 103.519 225.007 100.18 223.6C89.87 219.19 84.62 206.29 88.7 195.41C89.8006 192.431 91.5401 189.729 93.7962 187.493C96.0524 185.258 98.7706 183.543 101.76 182.47C101.854 182.437 101.956 182.433 102.053 182.459C102.15 182.484 102.236 182.538 102.302 182.614C102.368 182.689 102.409 182.782 102.421 182.881C102.433 182.981 102.416 183.081 102.37 183.17L101.16 185.64C106.08 182.58 112.11 181.38 116.98 182.56C117.066 182.581 117.145 182.624 117.208 182.685C117.272 182.747 117.317 182.825 117.34 182.91C117.363 182.994 117.365 183.082 117.344 183.166C117.322 183.25 117.28 183.327 117.22 183.39L116.44 184.18C115.106 185.396 113.946 186.789 112.99 188.32L114.56 187.7C116.03 187.11 117.56 186.5 119.09 186.02L120.71 185.55C122.391 184.995 124.163 184.765 125.93 184.87C128.45 185.13 130.66 186.87 132.31 189.87C134.57 194 135.41 200.12 134.54 206.23C133.902 211.439 131.419 216.246 127.54 219.78C122.823 223.699 116.862 225.806 110.73 225.72ZM100.88 183.86C98.2931 184.978 95.9599 186.609 94.0211 188.655C92.0823 190.7 90.5783 193.117 89.6 195.76C85.7 206.15 90.7 218.48 100.53 222.68C109.29 226.42 120.12 224.92 126.88 219.04C130.57 215.657 132.923 211.062 133.51 206.09C134.35 200.19 133.51 194.31 131.39 190.36C130.39 188.47 128.54 186.15 125.78 185.87C124.141 185.776 122.498 185.993 120.94 186.51L119.35 186.98C117.83 187.45 116.35 188.04 114.9 188.62C114.02 188.98 113.14 189.33 112.25 189.62C112.165 189.649 112.074 189.655 111.987 189.637C111.899 189.619 111.817 189.579 111.75 189.52C111.681 189.461 111.63 189.384 111.602 189.297C111.574 189.211 111.57 189.119 111.59 189.03C112.04 187.1 114.15 184.98 115.69 183.43L115.82 183.31C110.21 182.31 103.98 184.62 100.14 187.48C100.051 187.548 99.942 187.585 99.83 187.585C99.7179 187.585 99.609 187.548 99.52 187.48C99.4347 187.409 99.3756 187.311 99.352 187.202C99.3285 187.094 99.3419 186.98 99.39 186.88L100.88 183.86Z" fill="#231F20"/>
<path d="M106.93 177.37C106.93 177.37 108.07 170.23 109.36 169.37C110.65 168.51 111.88 172.68 111.88 172.68" fill="white"/>
<path d="M106.93 177.87H106.85C106.785 177.86 106.723 177.838 106.667 177.804C106.611 177.77 106.563 177.725 106.525 177.672C106.486 177.619 106.459 177.558 106.445 177.494C106.43 177.431 106.429 177.365 106.44 177.3C106.71 175.57 107.71 169.87 109.09 168.99C109.237 168.897 109.404 168.838 109.577 168.819C109.751 168.8 109.926 168.821 110.09 168.88C111.32 169.34 112.17 172.05 112.33 172.58C112.35 172.643 112.357 172.71 112.35 172.775C112.344 172.841 112.324 172.905 112.292 172.963C112.26 173.021 112.217 173.071 112.165 173.112C112.113 173.153 112.054 173.183 111.99 173.2C111.864 173.238 111.728 173.224 111.612 173.162C111.496 173.101 111.409 172.996 111.37 172.87C110.98 171.55 110.24 170.01 109.74 169.87C109.72 169.855 109.695 169.848 109.67 169.848C109.645 169.848 109.62 169.855 109.6 169.87C108.92 170.3 107.92 174.16 107.39 177.49C107.364 177.594 107.306 177.688 107.223 177.756C107.14 177.825 107.037 177.865 106.93 177.87Z" fill="#231F20"/>
<path d="M116.63 176.45C117.199 176.45 117.66 175.989 117.66 175.42C117.66 174.851 117.199 174.39 116.63 174.39C116.061 174.39 115.6 174.851 115.6 175.42C115.6 175.989 116.061 176.45 116.63 176.45Z" fill="#231F20"/>
<path d="M101.66 177.75C102.229 177.75 102.69 177.289 102.69 176.72C102.69 176.151 102.229 175.69 101.66 175.69C101.091 175.69 100.63 176.151 100.63 176.72C100.63 177.289 101.091 177.75 101.66 177.75Z" fill="#231F20"/>
<path d="M139.49 176.4C139.405 176.401 139.321 176.38 139.246 176.34C139.171 176.3 139.107 176.241 139.06 176.17C137.31 173.33 131.75 172.17 131.69 172.17C131.557 172.144 131.441 172.065 131.366 171.953C131.291 171.84 131.264 171.703 131.29 171.57C131.317 171.437 131.395 171.321 131.507 171.246C131.62 171.171 131.757 171.144 131.89 171.17C132.13 171.22 137.89 172.43 139.89 175.63C139.926 175.685 139.951 175.748 139.963 175.813C139.974 175.878 139.972 175.945 139.958 176.009C139.943 176.074 139.915 176.135 139.876 176.188C139.837 176.241 139.787 176.286 139.73 176.32C139.659 176.368 139.576 176.395 139.49 176.4Z" fill="#231F20"/>
<path d="M82.65 175.16C82.547 175.156 82.4475 175.121 82.3647 175.06C82.2819 174.999 82.2196 174.914 82.186 174.816C82.1524 174.719 82.1492 174.614 82.1767 174.514C82.2042 174.415 82.2611 174.326 82.34 174.26C85.79 171.56 90.46 172.6 90.66 172.65C90.7242 172.664 90.785 172.691 90.8386 172.729C90.8923 172.767 90.9378 172.815 90.9723 172.871C91.0068 172.927 91.0297 172.99 91.0396 173.055C91.0495 173.12 91.0463 173.186 91.03 173.25C90.9991 173.378 90.9187 173.489 90.8063 173.559C90.6938 173.628 90.5586 173.65 90.43 173.62C90.43 173.62 86.03 172.62 82.96 175.05C82.8716 175.12 82.7626 175.159 82.65 175.16Z" fill="#231F20"/>
<path d="M89.8401 172.33C89.7684 172.329 89.6977 172.314 89.6323 172.285C89.5669 172.255 89.5083 172.213 89.46 172.16C89.46 172.11 85.0801 167.16 80.0901 167.5C80.0244 167.504 79.9585 167.495 79.8963 167.474C79.8341 167.452 79.7767 167.419 79.7275 167.375C79.6782 167.331 79.6381 167.278 79.6094 167.219C79.5806 167.16 79.5639 167.096 79.5601 167.03C79.5546 166.965 79.5623 166.899 79.5826 166.837C79.6029 166.775 79.6354 166.717 79.6783 166.668C79.7212 166.619 79.7735 166.578 79.8322 166.549C79.8909 166.521 79.9548 166.504 80.02 166.5C85.51 166.13 90.02 171.28 90.22 171.5C90.3123 171.595 90.3639 171.722 90.3639 171.855C90.3639 171.987 90.3123 172.115 90.22 172.21C90.1677 172.254 90.1072 172.287 90.042 172.308C89.9768 172.328 89.9082 172.336 89.8401 172.33Z" fill="#231F20"/>
<path d="M147.75 173.04H147.65C147.54 173.04 136.04 170.73 132.79 171.57C132.724 171.586 132.656 171.59 132.589 171.58C132.522 171.57 132.458 171.547 132.4 171.512C132.342 171.477 132.291 171.431 132.251 171.377C132.211 171.322 132.181 171.261 132.165 171.195C132.149 171.129 132.145 171.061 132.155 170.994C132.165 170.927 132.188 170.863 132.223 170.805C132.258 170.747 132.304 170.696 132.358 170.656C132.412 170.616 132.474 170.586 132.54 170.57C136.01 169.68 147.37 171.93 147.85 172.03C147.983 172.043 148.104 172.109 148.189 172.212C148.273 172.315 148.313 172.447 148.3 172.58C148.287 172.713 148.221 172.834 148.118 172.919C148.015 173.003 147.883 173.043 147.75 173.03V173.04Z" fill="#231F20"/>
<path d="M30.8201 139.72C38.0053 139.72 43.8301 133.895 43.8301 126.71C43.8301 119.525 38.0053 113.7 30.8201 113.7C23.6348 113.7 17.8101 119.525 17.8101 126.71C17.8101 133.895 23.6348 139.72 30.8201 139.72Z" fill="white"/>
<path d="M30.8201 140.22C28.148 140.22 25.536 139.428 23.3143 137.943C21.0926 136.459 19.361 134.349 18.3385 131.88C17.3159 129.411 17.0484 126.695 17.5697 124.074C18.0909 121.454 19.3777 119.046 21.2671 117.157C23.1565 115.268 25.5637 113.981 28.1844 113.46C30.8051 112.938 33.5215 113.206 35.9901 114.228C38.4587 115.251 40.5687 116.982 42.0532 119.204C43.5377 121.426 44.3301 124.038 44.3301 126.71C44.3274 130.292 42.9032 133.727 40.3702 136.26C37.8371 138.793 34.4023 140.217 30.8201 140.22ZM30.8201 114.22C28.3458 114.22 25.9271 114.954 23.8699 116.328C21.8126 117.703 20.2092 119.657 19.2623 121.943C18.3155 124.228 18.0677 126.744 18.5504 129.171C19.0331 131.597 20.2246 133.826 21.9742 135.576C23.7237 137.325 25.9528 138.517 28.3795 139C30.8062 139.482 33.3215 139.235 35.6074 138.288C37.8933 137.341 39.8471 135.737 41.2218 133.68C42.5964 131.623 43.3301 129.204 43.3301 126.73C43.3314 125.086 43.0088 123.458 42.3809 121.938C41.7529 120.419 40.8318 119.038 39.6701 117.874C38.5085 116.711 37.129 115.787 35.6105 115.157C34.092 114.526 32.4642 114.201 30.8201 114.2V114.22Z" fill="#D1D3D4"/>
<path d="M34.7937 135.739C35.1485 136.351 35.9318 136.559 36.5432 136.204C37.1547 135.849 37.3628 135.066 37.0081 134.455L35.4424 131.756C35.0877 131.144 34.3044 130.936 33.6929 131.291C33.0815 131.646 32.8733 132.429 33.2281 133.041L34.7937 135.739Z" fill="white"/>
<path d="M35.8899 136.88C35.7347 136.88 35.5801 136.86 35.4299 136.82C35.2044 136.762 34.9927 136.66 34.8073 136.519C34.6218 136.378 34.4663 136.202 34.3499 136L32.7799 133.29C32.5652 132.883 32.5164 132.409 32.6439 131.966C32.7713 131.524 33.0651 131.149 33.4636 130.918C33.862 130.688 34.3342 130.621 34.781 130.731C35.2278 130.842 35.6145 131.121 35.8599 131.51L37.4299 134.21C37.548 134.412 37.6248 134.635 37.656 134.867C37.6872 135.099 37.6721 135.335 37.6117 135.561C37.5512 135.787 37.4466 135.998 37.3039 136.184C37.1611 136.369 36.983 136.524 36.7799 136.64C36.51 136.798 36.2027 136.881 35.8899 136.88ZM34.3199 131.62C34.1477 131.617 33.9797 131.673 33.8434 131.779C33.7071 131.884 33.6107 132.033 33.5699 132.2C33.5404 132.298 33.5323 132.402 33.5461 132.504C33.5599 132.606 33.5953 132.703 33.6499 132.79L35.2099 135.49C35.3183 135.669 35.4895 135.801 35.6899 135.86C35.8896 135.909 36.1005 135.881 36.2799 135.78C36.4584 135.674 36.5877 135.501 36.6399 135.3C36.6694 135.202 36.6776 135.098 36.6638 134.996C36.65 134.895 36.6146 134.797 36.5599 134.71L34.9999 132.01C34.9303 131.892 34.831 131.793 34.7117 131.725C34.5924 131.656 34.4574 131.62 34.3199 131.62Z" fill="#D1D3D4"/>
<path d="M30.82 134.53C35.3322 134.53 38.99 130.872 38.99 126.36C38.99 121.848 35.3322 118.19 30.82 118.19C26.3079 118.19 22.65 121.848 22.65 126.36C22.65 130.872 26.3079 134.53 30.82 134.53Z" fill="white"/>
<path d="M30.83 135.04C29.3107 135.041 27.8177 134.643 26.4999 133.887C25.1822 133.131 24.0858 132.042 23.32 130.73C22.4562 129.249 22.051 127.545 22.1556 125.833C22.2601 124.122 22.8698 122.48 23.9075 121.115C24.9453 119.75 26.3644 118.723 27.9855 118.165C29.6066 117.606 31.357 117.541 33.0152 117.977C34.6734 118.414 36.165 119.332 37.3015 120.616C38.4379 121.9 39.1682 123.492 39.3999 125.19C39.6316 126.889 39.3544 128.619 38.6032 130.16C37.8521 131.702 36.6608 132.986 35.18 133.85C33.8624 134.628 32.3603 135.039 30.83 135.04ZM24.18 130.2C24.9392 131.514 26.0713 132.573 27.4328 133.244C28.7944 133.914 30.3242 134.166 31.8288 133.966C33.3333 133.767 34.7449 133.126 35.8848 132.124C37.0248 131.122 37.8418 129.804 38.2326 128.338C38.6234 126.871 38.5704 125.322 38.0801 123.886C37.5899 122.449 36.6846 121.191 35.4788 120.269C34.273 119.347 32.8208 118.804 31.3062 118.708C29.7916 118.612 28.2825 118.968 26.97 119.73C26.0962 120.231 25.3303 120.9 24.7165 121.699C24.1027 122.498 23.6532 123.41 23.3938 124.384C23.1344 125.357 23.0703 126.372 23.2053 127.37C23.3402 128.369 23.6715 129.33 24.18 130.2Z" fill="#D1D3D4"/>
<path d="M31.18 133.68C34.8803 133.68 37.88 130.68 37.88 126.98C37.88 123.28 34.8803 120.28 31.18 120.28C27.4797 120.28 24.48 123.28 24.48 126.98C24.48 130.68 27.4797 133.68 31.18 133.68Z" fill="#D1D3D4"/>
<path d="M198.17 129.92C198.17 125.844 194.866 122.54 190.79 122.54C186.714 122.54 183.41 125.844 183.41 129.92V135.95C183.41 140.026 186.714 143.33 190.79 143.33C194.866 143.33 198.17 140.026 198.17 135.95V129.92Z" fill="white"/>
<path d="M190.79 143.83C188.702 143.825 186.7 142.993 185.224 141.516C183.747 140.04 182.915 138.038 182.91 135.95V129.95C182.91 127.86 183.74 125.856 185.218 124.378C186.696 122.9 188.7 122.07 190.79 122.07C192.88 122.07 194.884 122.9 196.362 124.378C197.84 125.856 198.67 127.86 198.67 129.95V135.95C198.667 138.039 197.836 140.042 196.359 141.519C194.882 142.996 192.879 143.827 190.79 143.83ZM190.79 123.04C188.966 123.043 187.218 123.768 185.928 125.058C184.638 126.348 183.913 128.096 183.91 129.92V135.92C183.91 137.745 184.635 139.495 185.925 140.785C187.215 142.075 188.965 142.8 190.79 142.8C192.615 142.8 194.365 142.075 195.655 140.785C196.945 139.495 197.67 137.745 197.67 135.92V129.92C197.667 128.096 196.942 126.348 195.652 125.058C194.362 123.768 192.614 123.043 190.79 123.04Z" fill="#D1D3D4"/>
<path d="M198.18 130.42H183.41C183.277 130.42 183.15 130.367 183.056 130.273C182.963 130.18 182.91 130.053 182.91 129.92C182.91 129.787 182.963 129.66 183.056 129.566C183.15 129.473 183.277 129.42 183.41 129.42H198.18C198.313 129.42 198.44 129.473 198.534 129.566C198.627 129.66 198.68 129.787 198.68 129.92C198.68 130.053 198.627 130.18 198.534 130.273C198.44 130.367 198.313 130.42 198.18 130.42Z" fill="#D1D3D4"/>
<path d="M190.79 128.28C190.657 128.28 190.53 128.227 190.436 128.134C190.343 128.04 190.29 127.913 190.29 127.78V122.54C190.29 122.407 190.343 122.28 190.436 122.186C190.53 122.093 190.657 122.04 190.79 122.04C190.923 122.04 191.05 122.093 191.143 122.186C191.237 122.28 191.29 122.407 191.29 122.54V127.78C191.29 127.913 191.237 128.04 191.143 128.134C191.05 128.227 190.923 128.28 190.79 128.28Z" fill="#D1D3D4"/>
<path d="M112.18 218.56C112.114 218.556 112.05 218.539 111.991 218.511C111.932 218.482 111.879 218.442 111.835 218.393C111.791 218.343 111.758 218.286 111.736 218.224C111.715 218.162 111.706 218.096 111.71 218.03C111.71 217.83 112.1 213.03 118.16 208.92C118.271 208.849 118.406 208.822 118.536 208.846C118.666 208.871 118.782 208.943 118.86 209.05C118.933 209.162 118.959 209.298 118.933 209.429C118.907 209.559 118.83 209.675 118.72 209.75C113.09 213.58 112.72 218.05 112.72 218.1C112.715 218.166 112.697 218.23 112.667 218.289C112.637 218.347 112.596 218.4 112.546 218.442C112.495 218.485 112.437 218.517 112.375 218.538C112.312 218.558 112.246 218.565 112.18 218.56Z" fill="#D1D3D4"/>
<path d="M109.41 218.57H109.31C109.24 218.57 101.97 217.11 101.16 210.82C101.143 210.689 101.179 210.556 101.259 210.451C101.34 210.346 101.459 210.277 101.59 210.26C101.721 210.243 101.854 210.279 101.959 210.359C102.064 210.44 102.132 210.559 102.15 210.69C102.87 216.26 109.43 217.57 109.5 217.58C109.633 217.592 109.755 217.656 109.84 217.758C109.926 217.86 109.967 217.992 109.955 218.125C109.943 218.258 109.879 218.38 109.777 218.465C109.674 218.551 109.543 218.592 109.41 218.58V218.57Z" fill="#D1D3D4"/>
<path d="M203.89 0.5H20.47V102.74H203.89V0.5Z" fill="white"/>
<path d="M203.89 103.24H20.47C20.3374 103.24 20.2102 103.187 20.1164 103.094C20.0226 103 19.97 102.873 19.97 102.74V0.5C19.97 0.367392 20.0226 0.240214 20.1164 0.146446C20.2102 0.052678 20.3374 0 20.47 0H203.89C204.023 0 204.15 0.052678 204.244 0.146446C204.337 0.240214 204.39 0.367392 204.39 0.5V102.74C204.39 102.873 204.337 103 204.244 103.094C204.15 103.187 204.023 103.24 203.89 103.24ZM20.97 102.24H203.39V1.04H20.97V102.24Z" fill="#231F20"/>
<path d="M202.5 11.27H21.86C21.7274 11.27 21.6002 11.2173 21.5064 11.1236C21.4127 11.0298 21.36 10.9026 21.36 10.77C21.36 10.6374 21.4127 10.5102 21.5064 10.4165C21.6002 10.3227 21.7274 10.27 21.86 10.27H202.5C202.633 10.27 202.76 10.3227 202.854 10.4165C202.947 10.5102 203 10.6374 203 10.77C203 10.9026 202.947 11.0298 202.854 11.1236C202.76 11.2173 202.633 11.27 202.5 11.27Z" fill="#D1D3D4"/>
<path d="M26.64 6.91997C27.5237 6.91997 28.24 6.20362 28.24 5.31997C28.24 4.43631 27.5237 3.71997 26.64 3.71997C25.7564 3.71997 25.04 4.43631 25.04 5.31997C25.04 6.20362 25.7564 6.91997 26.64 6.91997Z" fill="#D1D3D4"/>
<path d="M33.21 6.91997C34.0936 6.91997 34.81 6.20362 34.81 5.31997C34.81 4.43631 34.0936 3.71997 33.21 3.71997C32.3263 3.71997 31.61 4.43631 31.61 5.31997C31.61 6.20362 32.3263 6.91997 33.21 6.91997Z" fill="#D1D3D4"/>
<path d="M39.7799 6.91997C40.6636 6.91997 41.3799 6.20362 41.3799 5.31997C41.3799 4.43631 40.6636 3.71997 39.7799 3.71997C38.8963 3.71997 38.1799 4.43631 38.1799 5.31997C38.1799 6.20362 38.8963 6.91997 39.7799 6.91997Z" fill="#D1D3D4"/>
<path d="M54.9901 20.3401H43.8C43.6674 20.3401 43.5403 20.2874 43.4465 20.1936C43.3527 20.0999 43.3 19.9727 43.3 19.8401C43.3 19.7075 43.3527 19.5803 43.4465 19.4865C43.5403 19.3928 43.6674 19.3401 43.8 19.3401H54.9901C55.1227 19.3401 55.2498 19.3928 55.3436 19.4865C55.4374 19.5803 55.4901 19.7075 55.4901 19.8401C55.4901 19.9727 55.4374 20.0999 55.3436 20.1936C55.2498 20.2874 55.1227 20.3401 54.9901 20.3401Z" fill="#231F20"/>
<path d="M83.18 20.3401H60.87C60.7374 20.3401 60.6102 20.2874 60.5164 20.1936C60.4227 20.0999 60.37 19.9727 60.37 19.8401C60.37 19.7075 60.4227 19.5803 60.5164 19.4865C60.6102 19.3928 60.7374 19.3401 60.87 19.3401H83.18C83.3126 19.3401 83.4398 19.3928 83.5335 19.4865C83.6273 19.5803 83.68 19.7075 83.68 19.8401C83.68 19.9727 83.6273 20.0999 83.5335 20.1936C83.4398 20.2874 83.3126 20.3401 83.18 20.3401Z" fill="#87D147"/>
<path d="M89.9001 27.77H67.5901C67.4575 27.77 67.3303 27.7173 67.2365 27.6236C67.1428 27.5298 67.0901 27.4026 67.0901 27.27C67.0901 27.1374 67.1428 27.0102 67.2365 26.9165C67.3303 26.8227 67.4575 26.77 67.5901 26.77H89.9001C90.0327 26.77 90.1599 26.8227 90.2536 26.9165C90.3474 27.0102 90.4001 27.1374 90.4001 27.27C90.4001 27.4026 90.3474 27.5298 90.2536 27.6236C90.1599 27.7173 90.0327 27.77 89.9001 27.77Z" fill="#87D147"/>
<path d="M57.6099 27.77H46.4299C46.2973 27.77 46.1702 27.7173 46.0764 27.6236C45.9826 27.5298 45.9299 27.4026 45.9299 27.27C45.9299 27.1374 45.9826 27.0102 46.0764 26.9165C46.1702 26.8227 46.2973 26.77 46.4299 26.77H57.6099C57.7425 26.77 57.8697 26.8227 57.9635 26.9165C58.0573 27.0102 58.1099 27.1374 58.1099 27.27C58.1099 27.4026 58.0573 27.5298 57.9635 27.6236C57.8697 27.7173 57.7425 27.77 57.6099 27.77Z" fill="#231F20"/>
<path d="M58.04 35.2H49.04C48.9074 35.2 48.7802 35.1473 48.6865 35.0535C48.5927 34.9597 48.54 34.8326 48.54 34.7C48.54 34.5673 48.5927 34.4402 48.6865 34.3464C48.7802 34.2526 48.9074 34.2 49.04 34.2H58.04C58.1726 34.2 58.2998 34.2526 58.3936 34.3464C58.4874 34.4402 58.54 34.5673 58.54 34.7C58.54 34.8326 58.4874 34.9597 58.3936 35.0535C58.2998 35.1473 58.1726 35.2 58.04 35.2Z" fill="#231F20"/>
<path d="M93.89 35.2H65.96C65.8274 35.2 65.7002 35.1473 65.6064 35.0535C65.5126 34.9597 65.46 34.8326 65.46 34.7C65.46 34.5673 65.5126 34.4402 65.6064 34.3464C65.7002 34.2526 65.8274 34.2 65.96 34.2H93.89C94.0226 34.2 94.1497 34.2526 94.2435 34.3464C94.3373 34.4402 94.39 34.5673 94.39 34.7C94.39 34.8326 94.3373 34.9597 94.2435 35.0535C94.1497 35.1473 94.0226 35.2 93.89 35.2Z" fill="#87D147"/>
<path d="M62.8599 42.6299H51.6799C51.5473 42.6299 51.4202 42.5772 51.3264 42.4834C51.2326 42.3897 51.1799 42.2625 51.1799 42.1299C51.1799 41.9973 51.2326 41.8701 51.3264 41.7763C51.4202 41.6826 51.5473 41.6299 51.6799 41.6299H62.8599C62.9925 41.6299 63.1197 41.6826 63.2135 41.7763C63.3073 41.8701 63.3599 41.9973 63.3599 42.1299C63.3599 42.2625 63.3073 42.3897 63.2135 42.4834C63.1197 42.5772 62.9925 42.6299 62.8599 42.6299Z" fill="#231F20"/>
<path d="M99.66 42.6299H66.46C66.3274 42.6299 66.2002 42.5772 66.1064 42.4834C66.0126 42.3897 65.96 42.2625 65.96 42.1299C65.96 41.9973 66.0126 41.8701 66.1064 41.7763C66.2002 41.6826 66.3274 41.6299 66.46 41.6299H99.66C99.7926 41.6299 99.9198 41.6826 100.014 41.7763C100.107 41.8701 100.16 41.9973 100.16 42.1299C100.16 42.2625 100.107 42.3897 100.014 42.4834C99.9198 42.5772 99.7926 42.6299 99.66 42.6299Z" fill="#87D147"/>
<path d="M59.89 50.04H48.71C48.5774 50.04 48.4502 49.9874 48.3564 49.8936C48.2626 49.7998 48.21 49.6726 48.21 49.54C48.21 49.4074 48.2626 49.2803 48.3564 49.1865C48.4502 49.0927 48.5774 49.04 48.71 49.04H59.89C60.0226 49.04 60.1497 49.0927 60.2435 49.1865C60.3373 49.2803 60.39 49.4074 60.39 49.54C60.39 49.6726 60.3373 49.7998 60.2435 49.8936C60.1497 49.9874 60.0226 50.04 59.89 50.04Z" fill="#231F20"/>
<path d="M82.1799 50.04H64.1799C64.0473 50.04 63.9202 49.9874 63.8264 49.8936C63.7326 49.7998 63.6799 49.6726 63.6799 49.54C63.6799 49.4074 63.7326 49.2803 63.8264 49.1865C63.9202 49.0927 64.0473 49.04 64.1799 49.04H82.1799C82.3125 49.04 82.4397 49.0927 82.5335 49.1865C82.6272 49.2803 82.6799 49.4074 82.6799 49.54C82.6799 49.6726 82.6272 49.7998 82.5335 49.8936C82.4397 49.9874 82.3125 50.04 82.1799 50.04Z" fill="#87D147"/>
<path d="M107.07 50.04H89.0701C88.9375 50.04 88.8103 49.9874 88.7165 49.8936C88.6228 49.7998 88.5701 49.6726 88.5701 49.54C88.5701 49.4074 88.6228 49.2803 88.7165 49.1865C88.8103 49.0927 88.9375 49.04 89.0701 49.04H107.07C107.203 49.04 107.33 49.0927 107.424 49.1865C107.517 49.2803 107.57 49.4074 107.57 49.54C107.57 49.6726 107.517 49.7998 107.424 49.8936C107.33 49.9874 107.203 50.04 107.07 50.04Z" fill="#87D147"/>
<path d="M52.56 57.49H48.71C48.5774 57.49 48.4502 57.4373 48.3564 57.3435C48.2626 57.2498 48.21 57.1226 48.21 56.99C48.21 56.8574 48.2626 56.7302 48.3564 56.6364C48.4502 56.5427 48.5774 56.49 48.71 56.49H52.56C52.6926 56.49 52.8197 56.5427 52.9135 56.6364C53.0073 56.7302 53.06 56.8574 53.06 56.99C53.06 57.1226 53.0073 57.2498 52.9135 57.3435C52.8197 57.4373 52.6926 57.49 52.56 57.49Z" fill="#231F20"/>
<path d="M82.1799 57.49H59.1799C59.0473 57.49 58.9202 57.4373 58.8264 57.3435C58.7326 57.2498 58.6799 57.1226 58.6799 56.99C58.6799 56.8574 58.7326 56.7302 58.8264 56.6364C58.9202 56.5427 59.0473 56.49 59.1799 56.49H82.1799C82.3125 56.49 82.4397 56.5427 82.5335 56.6364C82.6272 56.7302 82.6799 56.8574 82.6799 56.99C82.6799 57.1226 82.6272 57.2498 82.5335 57.3435C82.4397 57.4373 82.3125 57.49 82.1799 57.49Z" fill="#87D147"/>
<path d="M91.2601 57.49H84.8301C84.6975 57.49 84.5703 57.4373 84.4765 57.3435C84.3828 57.2498 84.3301 57.1226 84.3301 56.99C84.3301 56.8574 84.3828 56.7302 84.4765 56.6364C84.5703 56.5427 84.6975 56.49 84.8301 56.49H91.2601C91.3927 56.49 91.5199 56.5427 91.6136 56.6364C91.7074 56.7302 91.7601 56.8574 91.7601 56.99C91.7601 57.1226 91.7074 57.2498 91.6136 57.3435C91.5199 57.4373 91.3927 57.49 91.2601 57.49Z" fill="#87D147"/>
<path d="M54.76 64.9199H48.71C48.5774 64.9199 48.4502 64.8672 48.3564 64.7735C48.2626 64.6797 48.21 64.5525 48.21 64.4199C48.21 64.2873 48.2626 64.1601 48.3564 64.0664C48.4502 63.9726 48.5774 63.9199 48.71 63.9199H54.76C54.8926 63.9199 55.0197 63.9726 55.1135 64.0664C55.2073 64.1601 55.26 64.2873 55.26 64.4199C55.26 64.5525 55.2073 64.6797 55.1135 64.7735C55.0197 64.8672 54.8926 64.9199 54.76 64.9199Z" fill="#231F20"/>
<path d="M87.83 64.9199H60.46C60.3274 64.9199 60.2002 64.8672 60.1064 64.7735C60.0126 64.6797 59.96 64.5525 59.96 64.4199C59.96 64.2873 60.0126 64.1601 60.1064 64.0664C60.2002 63.9726 60.3274 63.9199 60.46 63.9199H87.83C87.9626 63.9199 88.0897 63.9726 88.1835 64.0664C88.2773 64.1601 88.33 64.2873 88.33 64.4199C88.33 64.5525 88.2773 64.6797 88.1835 64.7735C88.0897 64.8672 87.9626 64.9199 87.83 64.9199Z" fill="#87D147"/>
<path d="M101.71 64.9199H90.53C90.3974 64.9199 90.2702 64.8672 90.1765 64.7735C90.0827 64.6797 90.03 64.5525 90.03 64.4199C90.03 64.2873 90.0827 64.1601 90.1765 64.0664C90.2702 63.9726 90.3974 63.9199 90.53 63.9199H101.71C101.843 63.9199 101.97 63.9726 102.064 64.0664C102.157 64.1601 102.21 64.2873 102.21 64.4199C102.21 64.5525 102.157 64.6797 102.064 64.7735C101.97 64.8672 101.843 64.9199 101.71 64.9199Z" fill="#87D147"/>
<path d="M52.0201 72.3501H46.0901C45.9575 72.3501 45.8303 72.2974 45.7365 72.2037C45.6428 72.1099 45.5901 71.9827 45.5901 71.8501C45.5901 71.7175 45.6428 71.5903 45.7365 71.4965C45.8303 71.4028 45.9575 71.3501 46.0901 71.3501H52.0201C52.1527 71.3501 52.2799 71.4028 52.3736 71.4965C52.4674 71.5903 52.5201 71.7175 52.5201 71.8501C52.5201 71.9827 52.4674 72.1099 52.3736 72.2037C52.2799 72.2974 52.1527 72.3501 52.0201 72.3501Z" fill="#231F20"/>
<path d="M84.8299 72.3501H58.9299C58.7973 72.3501 58.6702 72.2974 58.5764 72.2037C58.4826 72.1099 58.4299 71.9827 58.4299 71.8501C58.4299 71.7175 58.4826 71.5903 58.5764 71.4965C58.6702 71.4028 58.7973 71.3501 58.9299 71.3501H84.8299C84.9625 71.3501 85.0897 71.4028 85.1835 71.4965C85.2773 71.5903 85.3299 71.7175 85.3299 71.8501C85.3299 71.9827 85.2773 72.1099 85.1835 72.2037C85.0897 72.2974 84.9625 72.3501 84.8299 72.3501Z" fill="#87D147"/>
<path d="M57.2701 79.78H46.0901C45.9575 79.78 45.8303 79.7274 45.7365 79.6336C45.6428 79.5398 45.5901 79.4126 45.5901 79.28C45.5901 79.1474 45.6428 79.0202 45.7365 78.9265C45.8303 78.8327 45.9575 78.78 46.0901 78.78H57.2701C57.4027 78.78 57.5299 78.8327 57.6236 78.9265C57.7174 79.0202 57.7701 79.1474 57.7701 79.28C57.7701 79.4126 57.7174 79.5398 57.6236 79.6336C57.5299 79.7274 57.4027 79.78 57.2701 79.78Z" fill="#231F20"/>
<path d="M70.05 87.21H47.74C47.6074 87.21 47.4802 87.1573 47.3864 87.0635C47.2927 86.9697 47.24 86.8426 47.24 86.71C47.24 86.5774 47.2927 86.4502 47.3864 86.3564C47.4802 86.2626 47.6074 86.21 47.74 86.21H70.05C70.1826 86.21 70.3098 86.2626 70.4035 86.3564C70.4973 86.4502 70.55 86.5774 70.55 86.71C70.55 86.8426 70.4973 86.9697 70.4035 87.0635C70.3098 87.1573 70.1826 87.21 70.05 87.21Z" fill="#231F20"/>
<path d="M91.26 87.21H75.75C75.6174 87.21 75.4902 87.1573 75.3964 87.0635C75.3027 86.9697 75.25 86.8426 75.25 86.71C75.25 86.5774 75.3027 86.4502 75.3964 86.3564C75.4902 86.2626 75.6174 86.21 75.75 86.21H91.26C91.3926 86.21 91.5198 86.2626 91.6135 86.3564C91.7073 86.4502 91.76 86.5774 91.76 86.71C91.76 86.8426 91.7073 86.9697 91.6135 87.0635C91.5198 87.1573 91.3926 87.21 91.26 87.21Z" fill="#87D147"/>
<path d="M112.68 87.21H93.48C93.3474 87.21 93.2202 87.1573 93.1264 87.0635C93.0327 86.9697 92.98 86.8426 92.98 86.71C92.98 86.5774 93.0327 86.4502 93.1264 86.3564C93.2202 86.2626 93.3474 86.21 93.48 86.21H112.68C112.813 86.21 112.94 86.2626 113.034 86.3564C113.127 86.4502 113.18 86.5774 113.18 86.71C113.18 86.8426 113.127 86.9697 113.034 87.0635C112.94 87.1573 112.813 87.21 112.68 87.21Z" fill="#87D147"/>
<path d="M81.23 94.6399H48.71C48.5774 94.6399 48.4502 94.5872 48.3564 94.4934C48.2626 94.3997 48.21 94.2725 48.21 94.1399C48.21 94.0073 48.2626 93.8801 48.3564 93.7863C48.4502 93.6926 48.5774 93.6399 48.71 93.6399H81.23C81.3626 93.6399 81.4897 93.6926 81.5835 93.7863C81.6773 93.8801 81.73 94.0073 81.73 94.1399C81.73 94.2725 81.6773 94.3997 81.5835 94.4934C81.4897 94.5872 81.3626 94.6399 81.23 94.6399Z" fill="#231F20"/>
<path d="M100.08 94.6399H85.45C85.3173 94.6399 85.1902 94.5872 85.0964 94.4934C85.0026 94.3997 84.95 94.2725 84.95 94.1399C84.95 94.0073 85.0026 93.8801 85.0964 93.7863C85.1902 93.6926 85.3173 93.6399 85.45 93.6399H100.08C100.213 93.6399 100.34 93.6926 100.434 93.7863C100.527 93.8801 100.58 94.0073 100.58 94.1399C100.58 94.2725 100.527 94.3997 100.434 94.4934C100.34 94.5872 100.213 94.6399 100.08 94.6399Z" fill="#87D147"/>
<path d="M146.07 94.6399H111.74C111.607 94.6399 111.48 94.5872 111.386 94.4934C111.293 94.3997 111.24 94.2725 111.24 94.1399C111.24 94.0073 111.293 93.8801 111.386 93.7863C111.48 93.6926 111.607 93.6399 111.74 93.6399H146.07C146.203 93.6399 146.33 93.6926 146.424 93.7863C146.517 93.8801 146.57 94.0073 146.57 94.1399C146.57 94.2725 146.517 94.3997 146.424 94.4934C146.33 94.5872 146.203 94.6399 146.07 94.6399Z" fill="#87D147"/>
<path d="M119.3 42.6299H104.18C104.047 42.6299 103.92 42.5772 103.826 42.4834C103.733 42.3897 103.68 42.2625 103.68 42.1299C103.68 41.9973 103.733 41.8701 103.826 41.7763C103.92 41.6826 104.047 41.6299 104.18 41.6299H119.3C119.433 41.6299 119.56 41.6826 119.653 41.7763C119.747 41.8701 119.8 41.9973 119.8 42.1299C119.8 42.2625 119.747 42.3897 119.653 42.4834C119.56 42.5772 119.433 42.6299 119.3 42.6299Z" fill="#87D147"/>
<path d="M130.53 42.71C125.3 42.71 125.14 42.62 125.05 42.57C124.991 42.5394 124.939 42.4975 124.897 42.4467C124.854 42.3959 124.822 42.3371 124.803 42.2739C124.783 42.2106 124.777 42.1441 124.783 42.0782C124.789 42.0123 124.809 41.9483 124.84 41.89C124.893 41.7884 124.981 41.7088 125.087 41.6649C125.193 41.6211 125.311 41.6158 125.42 41.65C126.21 41.75 136.04 41.65 142.49 41.65C142.623 41.65 142.75 41.7027 142.844 41.7964C142.937 41.8902 142.99 42.0174 142.99 42.15C142.99 42.2826 142.937 42.4098 142.844 42.5035C142.75 42.5973 142.623 42.65 142.49 42.65C136.89 42.68 133.1 42.71 130.53 42.71Z" fill="#87D147"/>
<path d="M116.88 27.77H94.9399C94.8073 27.77 94.6802 27.7173 94.5864 27.6236C94.4926 27.5298 94.4399 27.4026 94.4399 27.27C94.4399 27.1374 94.4926 27.0102 94.5864 26.9165C94.6802 26.8227 94.8073 26.77 94.9399 26.77H116.88C117.013 26.77 117.14 26.8227 117.234 26.9165C117.327 27.0102 117.38 27.1374 117.38 27.27C117.38 27.4026 117.327 27.5298 117.234 27.6236C117.14 27.7173 117.013 27.77 116.88 27.77Z" fill="#87D147"/>
<path d="M143.18 27.77H121.29C121.157 27.77 121.03 27.7173 120.936 27.6236C120.843 27.5298 120.79 27.4026 120.79 27.27C120.79 27.1374 120.843 27.0102 120.936 26.9165C121.03 26.8227 121.157 26.77 121.29 26.77H143.18C143.313 26.77 143.44 26.8227 143.534 26.9165C143.627 27.0102 143.68 27.1374 143.68 27.27C143.68 27.4026 143.627 27.5298 143.534 27.6236C143.44 27.7173 143.313 27.77 143.18 27.77Z" fill="#87D147"/>
<path d="M96.7301 20.38C91.6801 20.38 89.0701 20.38 88.9301 20.32C88.8665 20.3039 88.8068 20.2751 88.7546 20.2354C88.7024 20.1957 88.6587 20.146 88.626 20.0891C88.5934 20.0322 88.5725 19.9693 88.5646 19.9042C88.5567 19.8391 88.562 19.7731 88.58 19.71C88.6128 19.591 88.6876 19.488 88.7906 19.4199C88.8936 19.3519 89.0177 19.3235 89.1401 19.34C89.9601 19.41 107.6 19.34 114.36 19.34C114.493 19.34 114.62 19.3927 114.714 19.4865C114.807 19.5803 114.86 19.7074 114.86 19.84C114.86 19.9727 114.807 20.0998 114.714 20.1936C114.62 20.2874 114.493 20.34 114.36 20.34L96.7301 20.38Z" fill="#87D147"/>
<path d="M120.35 20.34C120.275 20.3404 120.2 20.3235 120.133 20.2905C120.065 20.2576 120.006 20.2095 119.96 20.15C119.918 20.0993 119.887 20.0406 119.868 19.9776C119.85 19.9145 119.844 19.8484 119.852 19.7831C119.859 19.7178 119.88 19.6546 119.912 19.5974C119.944 19.5402 119.988 19.4901 120.04 19.45C120.21 19.31 120.49 19.09 135.37 19.34C135.436 19.34 135.501 19.3533 135.562 19.3792C135.623 19.405 135.678 19.4429 135.724 19.4906C135.77 19.5382 135.805 19.5946 135.829 19.6564C135.852 19.7181 135.863 19.784 135.86 19.85C135.862 19.9165 135.849 19.9826 135.824 20.044C135.798 20.1055 135.761 20.161 135.713 20.2071C135.665 20.2532 135.608 20.2888 135.545 20.3117C135.483 20.3345 135.416 20.3442 135.35 20.34C130.03 20.25 121.35 20.16 120.53 20.34C120.471 20.3541 120.409 20.3541 120.35 20.34Z" fill="#231F20"/>
<path d="M99.1801 72.3501H87.8301C87.6975 72.3501 87.5703 72.2974 87.4765 72.2037C87.3828 72.1099 87.3301 71.9827 87.3301 71.8501C87.3301 71.7175 87.3828 71.5903 87.4765 71.4965C87.5703 71.4028 87.6975 71.3501 87.8301 71.3501H99.1801C99.3127 71.3501 99.4399 71.4028 99.5336 71.4965C99.6274 71.5903 99.6801 71.7175 99.6801 71.8501C99.6801 71.9827 99.6274 72.1099 99.5336 72.2037C99.4399 72.2974 99.3127 72.3501 99.1801 72.3501Z" fill="#87D147"/>
<path d="M73.18 79.78H64.86C64.7274 79.78 64.6002 79.7274 64.5064 79.6336C64.4127 79.5398 64.36 79.4126 64.36 79.28C64.36 79.1474 64.4127 79.0202 64.5064 78.9265C64.6002 78.8327 64.7274 78.78 64.86 78.78H73.18C73.3126 78.78 73.4398 78.8327 73.5335 78.9265C73.6273 79.0202 73.68 79.1474 73.68 79.28C73.68 79.4126 73.6273 79.5398 73.5335 79.6336C73.4398 79.7274 73.3126 79.78 73.18 79.78Z" fill="#87D147"/>
<path d="M96.1201 79.78H76.3401C76.2075 79.78 76.0803 79.7274 75.9865 79.6336C75.8928 79.5398 75.8401 79.4126 75.8401 79.28C75.8401 79.1474 75.8928 79.0202 75.9865 78.9265C76.0803 78.8327 76.2075 78.78 76.3401 78.78H96.1201C96.2527 78.78 96.3799 78.8327 96.4736 78.9265C96.5674 79.0202 96.6201 79.1474 96.6201 79.28C96.6201 79.4126 96.5674 79.5398 96.4736 79.6336C96.3799 79.7274 96.2527 79.78 96.1201 79.78Z" fill="#231F20"/>
<path d="M138.41 79.78H100.08C99.9475 79.78 99.8203 79.7274 99.7265 79.6336C99.6328 79.5398 99.5801 79.4126 99.5801 79.28C99.5801 79.1474 99.6328 79.0202 99.7265 78.9265C99.8203 78.8327 99.9475 78.78 100.08 78.78H138.41C138.543 78.78 138.67 78.8327 138.764 78.9265C138.857 79.0202 138.91 79.1474 138.91 79.28C138.91 79.4126 138.857 79.5398 138.764 79.6336C138.67 79.7274 138.543 79.78 138.41 79.78Z" fill="#87D147"/>
<path d="M164.02 98.72C163.887 98.72 163.76 98.6673 163.666 98.5736C163.573 98.4798 163.52 98.3526 163.52 98.22V10.77C163.52 10.6374 163.573 10.5102 163.666 10.4165C163.76 10.3227 163.887 10.27 164.02 10.27C164.153 10.27 164.28 10.3227 164.374 10.4165C164.467 10.5102 164.52 10.6374 164.52 10.77V98.22C164.517 98.3518 164.464 98.4775 164.371 98.5707C164.278 98.664 164.152 98.7175 164.02 98.72Z" fill="#D1D3D4"/>
<path d="M195.01 19.04H171.36C171.228 19.0375 171.102 18.984 171.009 18.8908C170.916 18.7975 170.863 18.6718 170.86 18.54C170.86 18.4074 170.913 18.2803 171.006 18.1865C171.1 18.0927 171.227 18.04 171.36 18.04H195.01C195.143 18.04 195.27 18.0927 195.364 18.1865C195.457 18.2803 195.51 18.4074 195.51 18.54C195.51 18.6726 195.457 18.7998 195.364 18.8936C195.27 18.9874 195.143 19.04 195.01 19.04Z" fill="#87D147"/>
<path d="M195.01 27.4399H171.36C171.228 27.4374 171.102 27.3839 171.009 27.2907C170.916 27.1974 170.863 27.0717 170.86 26.9399C170.86 26.8073 170.913 26.6802 171.006 26.5864C171.1 26.4926 171.227 26.4399 171.36 26.4399H195.01C195.143 26.4399 195.27 26.4926 195.364 26.5864C195.457 26.6802 195.51 26.8073 195.51 26.9399C195.51 27.0725 195.457 27.1997 195.364 27.2935C195.27 27.3873 195.143 27.4399 195.01 27.4399Z" fill="#87D147"/>
<path d="M187.04 35.8401H171.36C171.228 35.8375 171.102 35.784 171.009 35.6908C170.916 35.5976 170.863 35.4719 170.86 35.3401C170.86 35.2075 170.913 35.0803 171.006 34.9865C171.1 34.8928 171.227 34.8401 171.36 34.8401H187.04C187.173 34.8401 187.3 34.8928 187.394 34.9865C187.487 35.0803 187.54 35.2075 187.54 35.3401C187.537 35.4719 187.484 35.5976 187.391 35.6908C187.297 35.784 187.172 35.8375 187.04 35.8401Z" fill="#231F20"/>
<path d="M195.01 44.24H178.59C178.457 44.24 178.33 44.1873 178.236 44.0935C178.143 43.9998 178.09 43.8726 178.09 43.74C178.09 43.6074 178.143 43.4802 178.236 43.3864C178.33 43.2927 178.457 43.24 178.59 43.24H195.01C195.143 43.24 195.27 43.2927 195.364 43.3864C195.457 43.4802 195.51 43.6074 195.51 43.74C195.51 43.8057 195.497 43.8707 195.472 43.9313C195.447 43.992 195.41 44.0471 195.364 44.0935C195.317 44.14 195.262 44.1768 195.201 44.2019C195.141 44.2271 195.076 44.24 195.01 44.24Z" fill="#87D147"/>
<path d="M188.73 52.6399H171.36C171.228 52.6373 171.102 52.5838 171.009 52.4906C170.916 52.3974 170.863 52.2717 170.86 52.1399C170.86 52.0073 170.913 51.8801 171.006 51.7863C171.1 51.6926 171.227 51.6399 171.36 51.6399H188.73C188.863 51.6399 188.99 51.6926 189.084 51.7863C189.177 51.8801 189.23 52.0073 189.23 52.1399C189.227 52.2717 189.174 52.3974 189.081 52.4906C188.987 52.5838 188.862 52.6373 188.73 52.6399Z" fill="#231F20"/>
<path d="M180.05 61.04H171.36C171.228 61.0375 171.102 60.984 171.009 60.8908C170.916 60.7975 170.863 60.6718 170.86 60.54C170.86 60.4074 170.913 60.2803 171.006 60.1865C171.1 60.0927 171.227 60.04 171.36 60.04H180.05C180.183 60.04 180.31 60.0927 180.404 60.1865C180.497 60.2803 180.55 60.4074 180.55 60.54C180.547 60.6718 180.494 60.7975 180.401 60.8908C180.308 60.984 180.182 61.0375 180.05 61.04Z" fill="#87D147"/>
<path d="M190.65 69.4399H171.36C171.228 69.4374 171.102 69.3839 171.009 69.2907C170.916 69.1974 170.863 69.0717 170.86 68.9399C170.86 68.8073 170.913 68.6802 171.006 68.5864C171.1 68.4926 171.227 68.4399 171.36 68.4399H190.65C190.783 68.4399 190.91 68.4926 191.004 68.5864C191.097 68.6802 191.15 68.8073 191.15 68.9399C191.15 69.0725 191.097 69.1997 191.004 69.2935C190.91 69.3873 190.783 69.4399 190.65 69.4399Z" fill="#87D147"/>
<path d="M195.01 77.8401H178.59C178.457 77.8401 178.33 77.7874 178.236 77.6936C178.143 77.5999 178.09 77.4727 178.09 77.3401C178.09 77.2075 178.143 77.0803 178.236 76.9865C178.33 76.8928 178.457 76.8401 178.59 76.8401H195.01C195.143 76.8401 195.27 76.8928 195.364 76.9865C195.457 77.0803 195.51 77.2075 195.51 77.3401C195.51 77.4057 195.497 77.4708 195.472 77.5314C195.447 77.5921 195.41 77.6472 195.364 77.6936C195.317 77.7401 195.262 77.7769 195.201 77.802C195.141 77.8272 195.076 77.8401 195.01 77.8401Z" fill="#231F20"/>
<path d="M190.65 86.24H171.36C171.228 86.2374 171.102 86.1839 171.009 86.0907C170.916 85.9975 170.863 85.8718 170.86 85.74C170.86 85.6074 170.913 85.4802 171.006 85.3864C171.1 85.2927 171.227 85.24 171.36 85.24H190.65C190.783 85.24 190.91 85.2927 191.004 85.3864C191.097 85.4802 191.15 85.6074 191.15 85.74C191.15 85.8726 191.097 85.9998 191.004 86.0935C190.91 86.1873 190.783 86.24 190.65 86.24Z" fill="#87D147"/>
<path d="M179.18 94.6399H171.34C171.207 94.6399 171.08 94.5872 170.986 94.4934C170.893 94.3997 170.84 94.2725 170.84 94.1399C170.84 94.0073 170.893 93.8801 170.986 93.7863C171.08 93.6926 171.207 93.6399 171.34 93.6399H179.18C179.313 93.6399 179.44 93.6926 179.534 93.7863C179.627 93.8801 179.68 94.0073 179.68 94.1399C179.68 94.2725 179.627 94.3997 179.534 94.4934C179.44 94.5872 179.313 94.6399 179.18 94.6399Z" fill="#231F20"/>
</svg>
