<svg width="488" height="366" viewBox="0 0 488 366" fill="none" xmlns="http://www.w3.org/2000/svg">
<path d="M207.693 317.432C267.694 317.432 316.334 313.461 316.334 308.562C316.334 303.664 267.694 299.693 207.693 299.693C147.692 299.693 99.0518 303.664 99.0518 308.562C99.0518 313.461 147.692 317.432 207.693 317.432Z" fill="#E6E7E8"/>
<path d="M388.948 225.297H311.698V288.237H388.948V225.297Z" fill="white"/>
<path d="M388.948 288.859H311.698C311.536 288.859 311.381 288.795 311.266 288.681C311.152 288.566 311.088 288.411 311.088 288.249V225.297C311.088 225.136 311.152 224.98 311.266 224.866C311.381 224.752 311.536 224.687 311.698 224.687H388.948C389.109 224.691 389.262 224.756 389.376 224.869C389.49 224.983 389.555 225.137 389.558 225.297V288.249C389.555 288.41 389.49 288.564 389.376 288.677C389.262 288.791 389.109 288.856 388.948 288.859ZM312.308 287.639H388.338V225.907H312.32L312.308 287.639Z" fill="#D1D3D4"/>
<path d="M388.948 233.996H311.698C311.536 233.996 311.381 233.932 311.266 233.817C311.152 233.703 311.088 233.548 311.088 233.386C311.088 233.224 311.152 233.069 311.266 232.955C311.381 232.84 311.536 232.776 311.698 232.776H388.948C389.11 232.776 389.265 232.84 389.379 232.955C389.494 233.069 389.558 233.224 389.558 233.386C389.555 233.547 389.49 233.7 389.376 233.814C389.262 233.928 389.109 233.993 388.948 233.996Z" fill="#D1D3D4"/>
<path d="M176.095 107.702C174.429 107.814 172.766 107.435 171.313 106.612C169.86 105.789 168.681 104.558 167.92 103.072C167.159 101.585 166.851 99.9082 167.033 98.2484C167.215 96.5885 167.88 95.0185 168.946 93.7326C164.285 91.5854 161.821 86.071 162.162 80.9592C162.504 75.8474 165.2 71.1992 168.567 67.2708C171.337 64.0622 174.814 61.1708 178.974 60.3778C179.761 60.2994 180.529 60.0847 181.243 59.7434C181.805 59.3483 182.292 58.8567 182.683 58.2916C185.721 54.412 189.466 50.8496 194.151 49.288C198.836 47.7264 204.57 48.617 207.705 52.4356C209.272 51.075 211.216 50.2223 213.278 49.9905C215.341 49.7586 217.425 50.1584 219.255 51.137C221.086 52.1156 222.576 53.6269 223.528 55.4709C224.481 57.3149 224.851 59.4046 224.59 61.4636C227.891 61.9509 230.986 63.3636 233.516 65.538C236.047 67.7124 237.909 70.5594 238.888 73.749C240.633 80.1662 237.668 87.7058 231.751 90.7436C231.068 91.0974 230.251 91.561 230.275 92.3174C230.342 92.774 230.547 93.1994 230.861 93.5374C232.764 96.258 231.812 100.199 229.641 102.663C227.469 105.127 224.224 106.433 221.101 107.677C221.795 108.374 222.258 109.268 222.426 110.237C222.595 111.207 222.46 112.204 222.04 113.094C221.135 114.875 219.727 116.352 217.99 117.34C211.206 121.719 202.813 120.353 195.212 120.512C188.197 120.658 181.231 116.181 176.583 111.105C175.68 110.142 174.96 108.385 176.095 107.702Z" fill="white"/>
<path d="M203.618 121.207C202.398 121.207 201.178 121.207 200.056 121.207C198.47 121.207 196.81 121.134 195.249 121.207C188.88 121.317 181.829 117.742 176.144 111.606C175.744 111.204 175.429 110.726 175.219 110.2C175.01 109.673 174.909 109.11 174.924 108.543C174.917 108.499 174.917 108.454 174.924 108.409C173.281 108.33 171.691 107.808 170.321 106.897C168.952 105.987 167.855 104.722 167.147 103.238C166.438 101.754 166.145 100.106 166.299 98.4688C166.452 96.8315 167.047 95.2665 168.018 93.9399C163.809 91.6219 161.186 86.3882 161.552 80.9226C161.857 76.25 164.066 71.5286 168.104 66.8682C171.617 62.8178 175.131 60.4998 178.864 59.78L179.279 59.7067C179.866 59.6837 180.438 59.5128 180.941 59.21C181.444 58.9071 181.863 58.4821 182.158 57.9744C185.989 53.0944 189.832 50.0932 193.956 48.7146C199.043 47.0188 204.618 48.2022 207.778 51.5816C209.441 50.2977 211.441 49.5232 213.534 49.3518C215.628 49.1804 217.727 49.6195 219.577 50.616C221.426 51.6124 222.947 53.1234 223.956 54.9663C224.965 56.8092 225.418 58.9049 225.261 61C228.557 61.5957 231.627 63.0847 234.135 65.3048C236.643 67.5248 238.494 70.3908 239.486 73.5903C241.34 80.4101 238.059 88.2304 232.032 91.2925C231.422 91.5975 230.873 91.9392 230.885 92.3052C230.946 92.5583 231.067 92.7928 231.239 92.9883L231.349 93.1469C233.52 96.2213 232.288 100.528 230.031 103.017C227.798 105.208 225.106 106.875 222.15 107.897C222.684 108.696 223.007 109.618 223.088 110.576C223.169 111.534 223.006 112.497 222.613 113.375C221.68 115.255 220.206 116.814 218.38 117.852C213.854 120.78 208.73 121.207 203.618 121.207ZM196.603 119.889C197.762 119.889 198.933 119.889 200.08 119.889C206.18 120.011 212.463 120.146 217.672 116.778C219.314 115.864 220.644 114.479 221.491 112.801C221.87 112.024 221.997 111.148 221.854 110.295C221.712 109.443 221.308 108.656 220.698 108.043C220.618 107.975 220.557 107.888 220.521 107.79C220.484 107.691 220.474 107.585 220.491 107.482C220.508 107.377 220.551 107.278 220.618 107.195C220.684 107.111 220.77 107.046 220.869 107.006C223.724 105.859 226.969 104.566 229.128 102.126C231.068 99.9911 232.154 96.3312 230.348 93.7691L230.238 93.6349C229.906 93.2515 229.701 92.7738 229.653 92.2685C229.653 91.0485 230.812 90.4629 231.458 90.1335C236.997 87.2787 239.998 80.1296 238.29 73.8344C237.325 70.7749 235.518 68.0491 233.075 65.9691C230.633 63.8891 227.654 62.5391 224.48 62.0736C224.322 62.0494 224.18 61.9643 224.084 61.8366C223.988 61.7088 223.947 61.5486 223.968 61.3904C224.207 59.4577 223.857 57.4977 222.964 55.7673C222.07 54.037 220.674 52.6171 218.96 51.6938C217.245 50.7705 215.291 50.3869 213.355 50.5933C211.418 50.7997 209.589 51.5864 208.108 52.8504C208.046 52.9043 207.975 52.9451 207.897 52.9703C207.819 52.9954 207.737 53.0045 207.656 52.9968C207.576 52.9907 207.497 52.9681 207.426 52.9303C207.354 52.8925 207.292 52.8404 207.241 52.7772C204.496 49.4344 199.189 48.2144 194.358 49.837C190.466 51.1302 186.806 54.0094 183.171 58.6332C182.74 59.259 182.198 59.8007 181.573 60.2313C180.928 60.5742 180.224 60.7896 179.499 60.8658L179.108 60.939C175.656 61.61 172.362 63.7938 169.031 67.6246C165.176 72.0776 163.077 76.5672 162.785 80.9591C162.431 86.2295 165.066 91.2315 169.214 93.1591C169.298 93.1984 169.373 93.256 169.432 93.3278C169.491 93.3996 169.533 93.4837 169.556 93.5739C169.575 93.6658 169.573 93.761 169.55 93.852C169.527 93.9429 169.483 94.0273 169.421 94.0985C168.415 95.2874 167.783 96.7473 167.605 98.2945C167.427 99.8417 167.711 101.407 168.42 102.793C169.13 104.18 170.233 105.325 171.593 106.086C172.952 106.846 174.505 107.188 176.058 107.067C176.197 107.053 176.337 107.088 176.453 107.166C176.568 107.244 176.653 107.36 176.693 107.494C176.734 107.625 176.73 107.766 176.681 107.895C176.633 108.023 176.542 108.131 176.424 108.202C176.349 108.244 176.285 108.303 176.238 108.376C176.191 108.448 176.163 108.531 176.156 108.617C176.177 109.395 176.5 110.135 177.059 110.678C182.451 116.559 189.259 119.999 195.224 119.877L196.603 119.889Z" fill="#231F20"/>
<path d="M263.227 286.371C266.021 286.371 286.846 288.628 296.594 293.471C306.342 298.314 308.453 298.693 306.476 305.232C304.5 311.771 287.334 313.381 274.268 310.917C265.853 309.187 257.735 306.236 250.173 302.157L263.227 286.371Z" fill="white"/>
<path d="M286.59 312.662C282.421 312.645 278.263 312.237 274.171 311.442C265.698 309.698 257.523 306.731 249.905 302.633C249.834 302.59 249.773 302.534 249.724 302.467C249.676 302.4 249.642 302.323 249.624 302.243C249.61 302.163 249.614 302.081 249.635 302.003C249.656 301.925 249.694 301.853 249.746 301.791L262.8 286.005C262.848 285.94 262.911 285.887 262.983 285.851C263.055 285.815 263.134 285.797 263.215 285.797H263.337C266.741 285.797 287.078 288.115 296.838 292.959L299.034 294.044C306.854 297.875 308.965 298.924 307.013 305.39C305.781 309.49 297.753 312.662 286.59 312.662ZM251.039 301.987C258.386 305.865 266.243 308.686 274.378 310.368C287.493 312.808 304.134 311.076 305.952 305.073C307.623 299.51 306.415 298.912 298.546 295.057L296.35 293.971C287.042 289.347 267.131 286.993 263.483 286.92L251.039 301.987Z" fill="#231F20"/>
<path d="M266.021 286.31C267.863 286.761 269.466 287.892 270.51 289.476C271.553 291.059 271.958 292.979 271.645 294.85C270.73 301.791 256.054 302.084 255.212 302.17C254.37 302.255 266.021 286.31 266.021 286.31Z" fill="white"/>
<path d="M255.212 302.56C255.103 302.557 254.996 302.526 254.903 302.47C254.809 302.415 254.73 302.337 254.675 302.243C254.492 301.877 254.199 301.316 265.57 285.931C265.635 285.842 265.726 285.774 265.83 285.737C265.935 285.7 266.048 285.695 266.155 285.724C266.216 285.724 273.17 287.469 272.255 294.825C271.328 301.889 257.957 302.511 255.285 302.56H255.212ZM266.192 286.907C262.617 291.787 257.298 299.107 255.968 301.425C259.311 301.267 270.303 300.327 271.047 294.679C271.334 293.026 271.002 291.325 270.116 289.901C269.23 288.477 267.85 287.429 266.241 286.956L266.192 286.907Z" fill="#231F20"/>
<path d="M157.246 302.206C156.819 302.426 152.829 307.611 135.432 309.685C118.035 311.759 111.581 315.504 107.702 306.366C103.822 297.229 106.482 291.324 115.022 288.713C123.562 286.102 147.217 283.943 151.853 288.31C156.489 292.678 157.246 302.206 157.246 302.206Z" fill="white"/>
<path d="M116.29 312.784C111.984 312.784 109.214 311.344 107.189 306.586C105.164 301.828 104.859 297.741 106.335 294.581C107.702 291.653 110.581 289.494 114.875 288.188C122.903 285.748 147.291 283.235 152.244 287.908C156.99 292.373 157.746 301.767 157.783 302.157C157.788 302.261 157.766 302.364 157.719 302.456C157.672 302.548 157.601 302.626 157.514 302.682L157.343 302.828C152.329 307.391 142.703 309.38 135.481 310.234C131.736 310.685 128.515 311.21 125.721 311.673C122.609 312.276 119.457 312.647 116.29 312.784ZM138.812 286.358C130.455 286.358 120.329 287.688 115.229 289.25C111.227 290.47 108.568 292.422 107.348 295.057C106.006 297.912 106.299 301.645 108.214 306.147C111.081 312.918 115.314 312.247 125.514 310.575C128.368 310.112 131.614 309.587 135.371 309.136C142.423 308.294 151.829 306.366 156.624 301.999C156.453 300.401 155.404 292.507 151.463 288.75C149.706 287.017 144.692 286.358 138.812 286.358Z" fill="#231F20"/>
<path d="M162.797 298.473C162.797 298.473 154.903 305.061 149.645 304.28C144.387 303.499 137.116 300.62 140.044 294.947C142.972 289.274 161.821 285.858 161.821 285.858L162.797 298.473Z" fill="white"/>
<path d="M150.548 304.902C150.217 304.903 149.887 304.878 149.56 304.829C145.619 304.244 140.861 302.56 139.336 299.571C138.96 298.805 138.781 297.957 138.818 297.105C138.854 296.252 139.103 295.422 139.544 294.691C142.569 288.811 160.942 285.456 161.723 285.309C161.8 285.296 161.879 285.299 161.954 285.318C162.03 285.337 162.101 285.371 162.162 285.419C162.224 285.468 162.275 285.529 162.313 285.598C162.351 285.667 162.374 285.743 162.382 285.822L163.358 298.424C163.365 298.513 163.351 298.603 163.317 298.685C163.283 298.768 163.23 298.841 163.163 298.9C162.846 299.156 155.904 304.902 150.548 304.902ZM161.321 286.529C158.088 287.164 143.021 290.372 140.581 295.203C140.221 295.777 140.012 296.433 139.973 297.109C139.935 297.785 140.068 298.46 140.361 299.071C141.703 301.669 146.095 303.182 149.767 303.731C154.245 304.402 160.967 299.254 162.26 298.229L161.321 286.529Z" fill="#231F20"/>
<path d="M257.615 243.134C257.615 243.134 249.295 275.586 218.929 281.783C188.563 287.981 172.85 286.346 162.089 265.85C151.329 245.354 158.429 232.813 158.429 232.813L254.26 230.909L257.615 243.134Z" fill="#231F20"/>
<path d="M193.882 285.578C179.242 285.578 169.08 280.478 161.54 266.131C150.755 245.574 157.624 233.032 157.88 232.508C157.933 232.415 158.01 232.339 158.102 232.285C158.194 232.232 158.298 232.203 158.405 232.203L254.236 230.299C254.374 230.292 254.51 230.334 254.622 230.416C254.733 230.498 254.812 230.617 254.846 230.751L258.164 242.951C258.189 243.055 258.189 243.164 258.164 243.268C258.079 243.597 249.405 276.208 219.002 282.369C209.401 284.358 201.093 285.578 193.882 285.578ZM158.832 233.41C157.88 235.423 153.073 247.355 162.626 265.57C173.545 286.31 189.466 287.188 218.746 281.186C247.331 275.354 256.249 245.525 256.92 243.134L253.76 231.532L158.832 233.41Z" fill="#231F20"/>
<path d="M151.28 243.427C151.28 243.427 135.579 192.675 137.64 160.869C139.702 129.064 151.524 127.929 167.652 126.136C174.814 125.331 212.963 119.682 227.249 136.494C241.536 153.305 266.68 232.044 266.68 232.044L151.28 243.427Z" fill="#87D147"/>
<path d="M207.949 126.221L205.509 143.204C205.509 143.204 200.165 151.975 189.466 147.535C178.767 143.094 178.559 134.908 178.559 134.908L183.634 103.529C183.634 103.529 194.919 93.4032 199.665 74.054C199.665 74.054 209.12 90.5484 222.845 94.2572C222.845 94.2572 221.93 107.958 219.478 116.449C217.038 124.66 208.12 126.124 207.949 126.221Z" fill="white"/>
<path d="M195.2 149.389C193.125 149.364 191.076 148.924 189.173 148.096C178.193 143.557 177.9 135.274 177.888 134.92L183 103.432C183.025 103.292 183.093 103.164 183.195 103.066C183.305 102.968 194.395 92.842 199.055 73.9076C199.089 73.7913 199.155 73.6871 199.245 73.6071C199.336 73.5271 199.448 73.4747 199.568 73.4562C199.687 73.4393 199.808 73.4582 199.917 73.5103C200.025 73.5624 200.116 73.6454 200.178 73.749C200.275 73.9198 209.681 90.0726 222.967 93.6594C223.105 93.696 223.225 93.7794 223.307 93.8952C223.39 94.011 223.429 94.152 223.419 94.2938C223.419 94.428 222.467 108.165 220.027 116.62C218.014 123.586 211.487 125.977 208.51 126.709L206.07 143.289C206.059 143.37 206.034 143.448 205.997 143.521C204.795 145.288 203.188 146.743 201.31 147.763C199.432 148.784 197.337 149.341 195.2 149.389ZM184.22 103.822L179.169 135.005C179.169 135.2 179.535 142.74 189.71 146.973C199.214 150.914 204.35 143.899 204.936 142.984L207.376 126.136C207.387 126.043 207.421 125.955 207.474 125.878C207.527 125.802 207.598 125.74 207.681 125.697C207.793 125.631 207.918 125.59 208.047 125.575C210.67 124.952 216.989 122.793 218.868 116.278C221.015 108.848 221.991 97.234 222.174 94.7086C210.706 91.3414 202.386 79.5196 199.897 75.6034C195.261 92.781 185.538 102.48 184.22 103.822Z" fill="#231F20"/>
<path d="M190.21 104.005C190.073 102.418 189.422 100.919 188.356 99.735C187.319 98.6716 186.105 97.7965 184.769 97.1486C184.076 96.72 183.297 96.4493 182.488 96.3556C181.915 96.3612 181.348 96.4729 180.816 96.685C179.517 97.0993 178.409 97.9648 177.693 99.125C177.221 100.109 176.999 101.194 177.046 102.285C176.998 103.465 177.105 104.646 177.364 105.798C177.65 106.949 178.164 108.031 178.874 108.98C179.584 109.93 180.476 110.728 181.499 111.328C182.522 111.928 183.654 112.318 184.829 112.474C186.005 112.631 187.2 112.551 188.344 112.24" fill="white"/>
<path d="M186.026 113.106C183.903 113.108 181.84 112.401 180.164 111.097C178.489 109.793 177.297 107.967 176.778 105.908C176.495 104.71 176.38 103.478 176.436 102.248C176.393 101.06 176.64 99.8791 177.156 98.8078C177.933 97.5324 179.14 96.5763 180.56 96.1116C181.167 95.8757 181.812 95.7517 182.463 95.7456C183.367 95.8408 184.238 96.1367 185.013 96.6118C186.408 97.2927 187.675 98.2089 188.758 99.3202C189.916 100.606 190.622 102.233 190.771 103.956C190.782 104.117 190.729 104.276 190.624 104.399C190.519 104.522 190.371 104.599 190.21 104.615C190.05 104.622 189.892 104.568 189.77 104.464C189.648 104.36 189.57 104.213 189.551 104.054C189.432 102.602 188.845 101.228 187.88 100.138C186.888 99.1305 185.728 98.3047 184.452 97.6976C183.843 97.3075 183.156 97.0575 182.439 96.9656C181.945 96.9697 181.456 97.0691 180.999 97.2584C179.847 97.6142 178.855 98.3605 178.193 99.369C177.779 100.27 177.586 101.257 177.632 102.248C177.573 103.375 177.676 104.505 177.937 105.603C178.205 106.671 178.683 107.675 179.343 108.557C180.003 109.438 180.832 110.18 181.781 110.738C182.73 111.297 183.78 111.661 184.871 111.81C185.962 111.959 187.072 111.889 188.136 111.606C188.291 111.564 188.457 111.586 188.596 111.666C188.735 111.746 188.838 111.878 188.88 112.033C188.901 112.11 188.905 112.191 188.894 112.271C188.883 112.35 188.856 112.427 188.815 112.496C188.774 112.565 188.72 112.625 188.656 112.674C188.592 112.722 188.519 112.757 188.441 112.777C187.654 112.994 186.842 113.105 186.026 113.106Z" fill="#231F20"/>
<path d="M205.546 99.1616C205.546 99.1616 210.34 108.617 208.766 109.971C207.193 111.325 203.411 109.837 203.411 109.837" fill="white"/>
<path d="M206.802 111.154C205.549 111.116 204.311 110.864 203.142 110.41C203.068 110.38 203 110.336 202.942 110.281C202.885 110.225 202.839 110.158 202.807 110.084C202.775 110.011 202.758 109.932 202.757 109.851C202.756 109.771 202.771 109.692 202.801 109.617C202.863 109.469 202.98 109.35 203.128 109.286C203.276 109.223 203.443 109.219 203.594 109.275C204.484 109.617 207.254 110.41 208.315 109.507C208.962 108.97 207.351 104.164 204.96 99.4301C204.923 99.359 204.9 99.2812 204.893 99.2012C204.886 99.1212 204.896 99.0406 204.921 98.9644C204.946 98.8881 204.986 98.8176 205.039 98.7572C205.092 98.6968 205.156 98.6476 205.228 98.6127C205.373 98.5435 205.539 98.5328 205.691 98.5828C205.843 98.6328 205.97 98.7396 206.046 98.8811C207.546 101.858 210.865 108.934 209.12 110.434C208.452 110.931 207.634 111.185 206.802 111.154Z" fill="#231F20"/>
<path d="M199.59 97.0245C199.682 95.8963 199.103 94.9284 198.297 94.8628C197.491 94.7971 196.763 95.6584 196.671 96.7866C196.579 97.9149 197.158 98.8827 197.964 98.9484C198.77 99.0141 199.498 98.1527 199.59 97.0245Z" fill="#231F20"/>
<path d="M214.704 99.1129C214.788 97.984 214.203 97.0203 213.397 96.9602C212.59 96.9001 211.868 97.7665 211.784 98.8954C211.7 100.024 212.286 100.988 213.092 101.048C213.898 101.108 214.62 100.242 214.704 99.1129Z" fill="#231F20"/>
<path d="M204.301 118.718C202.436 118.751 200.59 118.332 198.921 117.498C196.005 115.973 194.139 113.057 193.37 108.836C193.356 108.757 193.358 108.675 193.375 108.597C193.393 108.518 193.426 108.444 193.473 108.378C193.519 108.312 193.578 108.256 193.646 108.214C193.715 108.171 193.791 108.142 193.87 108.129C194.028 108.103 194.19 108.14 194.322 108.231C194.454 108.322 194.545 108.46 194.578 108.617C195.261 112.447 196.92 115.07 199.458 116.412C204.582 119.096 211.792 115.851 211.865 115.815C212.012 115.749 212.18 115.744 212.331 115.801C212.482 115.858 212.604 115.973 212.67 116.12C212.705 116.192 212.724 116.271 212.727 116.351C212.731 116.432 212.718 116.512 212.689 116.587C212.661 116.662 212.617 116.731 212.562 116.789C212.506 116.847 212.439 116.893 212.365 116.925C209.817 118.035 207.079 118.644 204.301 118.718Z" fill="#231F20"/>
<path d="M207.949 126.221C207.949 126.221 196.969 127.124 191.308 122.659C191.308 122.659 196.127 137.909 206.253 137.86L207.949 126.221Z" fill="#231F20"/>
<path d="M206.18 138.47C195.761 138.47 190.906 123.476 190.698 122.842C190.662 122.717 190.667 122.583 190.71 122.461C190.754 122.338 190.835 122.233 190.942 122.159C191.045 122.078 191.172 122.035 191.302 122.035C191.432 122.035 191.559 122.078 191.662 122.159C197.115 126.416 207.766 125.599 207.876 125.587C207.967 125.58 208.058 125.594 208.142 125.628C208.227 125.661 208.303 125.713 208.365 125.78C208.427 125.847 208.474 125.926 208.501 126.013C208.528 126.1 208.535 126.192 208.522 126.282L206.827 137.933C206.8 138.085 206.721 138.223 206.602 138.321C206.484 138.419 206.334 138.472 206.18 138.47ZM192.516 124.196C194.065 128.015 198.457 136.86 205.704 137.238L207.205 126.88C204.862 126.978 197.64 127.051 192.54 124.196H192.516Z" fill="#231F20"/>
<path d="M155.562 128.966C133.029 126.16 111.874 221.82 124.172 230.909C143.35 245.098 201.886 225.724 201.886 225.724L196.03 200.483C196.03 200.483 153.781 202.496 153.012 193.821C152.244 185.147 176.619 144.485 173.203 138.555C169.787 132.626 155.562 128.966 155.562 128.966Z" fill="#87D147"/>
<path d="M234.24 201.19C234.105 201.194 233.974 201.147 233.873 201.059C233.771 200.971 233.706 200.848 233.691 200.714C230.787 180.316 224.419 146.156 222.357 144.155C222.257 144.05 222.201 143.911 222.202 143.765C222.202 143.62 222.259 143.481 222.36 143.377C222.461 143.272 222.598 143.211 222.744 143.206C222.889 143.201 223.03 143.253 223.138 143.35C225.785 145.924 232.593 185.111 234.789 200.556C234.81 200.703 234.772 200.852 234.682 200.971C234.593 201.09 234.46 201.169 234.313 201.19H234.24Z" fill="#231F20"/>
<path d="M212.683 249.453L173.789 238.559L245.22 225.127L283.882 241.328L212.683 249.453Z" fill="white"/>
<path d="M212.683 250.1C212.63 250.112 212.576 250.112 212.524 250.1L173.63 239.12C173.469 239.12 173.313 239.056 173.199 238.941C173.085 238.827 173.02 238.672 173.02 238.51C173.02 238.348 173.085 238.193 173.199 238.079C173.313 237.964 173.469 237.9 173.63 237.9L245.061 224.48C245.172 224.444 245.292 224.444 245.403 224.48L284.065 240.682C284.188 240.734 284.291 240.826 284.358 240.943C284.424 241.06 284.449 241.195 284.431 241.328C284.413 241.463 284.35 241.588 284.253 241.683C284.155 241.778 284.029 241.838 283.894 241.853L212.756 250.1H212.683ZM176.473 238.717L212.731 248.88L281.491 241.035L245.147 225.81L176.473 238.717Z" fill="#231F20"/>
<path d="M189.734 209.206C198.274 210.145 206.192 210.755 214.134 214.086C218.673 215.992 222.959 218.45 226.896 221.406C228.902 222.829 230.776 224.429 232.495 226.188C233.862 227.676 233.423 229.128 231.129 228.408C228.462 227.573 225.936 226.339 223.638 224.748C229.133 229.232 234.004 234.43 238.12 240.206C238.583 240.865 239.035 241.804 238.486 242.39C237.937 242.975 236.717 242.39 236.046 241.78L223.98 230.336C227.174 233.092 229.891 236.356 232.02 239.998C232.325 240.523 232.617 241.218 232.3 241.694C231.763 242.585 230.397 241.914 229.665 241.17C226.051 237.52 222.765 233.56 219.844 229.336L226.359 239.096C226.297 239.276 226.2 239.442 226.074 239.584C225.948 239.726 225.795 239.842 225.623 239.925C225.452 240.008 225.266 240.056 225.076 240.066C224.886 240.077 224.696 240.05 224.517 239.986C223.799 239.69 223.178 239.2 222.723 238.571L214.83 229.506L219.49 235.924C220.222 236.924 220.954 238.364 220.112 239.303C219.271 240.242 217.367 239.303 216.294 238.351C211.975 234.411 207.233 230.961 202.154 228.067C200.312 226.981 198.738 225.505 196.701 224.883C193.773 223.98 190.113 224.102 187.063 223.76" fill="white"/>
<path d="M237.9 243.219C237.085 243.127 236.326 242.757 235.753 242.17L231.849 238.51C232.105 238.913 232.361 239.327 232.593 239.73C232.84 240.048 232.996 240.426 233.046 240.826C233.095 241.225 233.036 241.631 232.874 241.999C232.764 242.187 232.612 242.347 232.43 242.466C232.248 242.584 232.041 242.658 231.824 242.682C231.363 242.676 230.908 242.575 230.488 242.384C230.068 242.193 229.692 241.916 229.384 241.572C228.579 240.767 227.798 239.95 227.03 239.132C227.035 239.177 227.035 239.222 227.03 239.266C226.984 239.492 226.89 239.706 226.756 239.893C226.621 240.08 226.448 240.236 226.249 240.352C225.986 240.51 225.693 240.612 225.389 240.651C225.084 240.691 224.775 240.668 224.48 240.584C223.659 240.262 222.948 239.712 222.43 238.998L220.991 237.351C221.17 237.748 221.234 238.189 221.173 238.62C221.113 239.052 220.931 239.458 220.649 239.791C220.473 239.988 220.26 240.146 220.02 240.258C219.781 240.369 219.522 240.43 219.258 240.438C217.984 240.299 216.805 239.7 215.94 238.754C211.664 234.835 206.957 231.413 201.91 228.555C201.288 228.189 200.69 227.774 200.104 227.335C199.039 226.504 197.849 225.845 196.579 225.383C194.451 224.845 192.27 224.55 190.076 224.504C189.027 224.443 188.002 224.382 187.038 224.285C186.891 224.266 186.757 224.191 186.666 224.074C186.575 223.958 186.533 223.81 186.55 223.663C186.558 223.59 186.58 223.52 186.614 223.457C186.649 223.393 186.697 223.337 186.753 223.291C186.81 223.246 186.875 223.212 186.945 223.192C187.015 223.172 187.088 223.166 187.16 223.175C188.112 223.272 189.112 223.333 190.137 223.394C192.422 223.438 194.694 223.745 196.908 224.309C198.283 224.812 199.575 225.519 200.739 226.408C201.3 226.81 201.873 227.201 202.471 227.554C207.588 230.462 212.363 233.932 216.709 237.9C217.369 238.571 218.222 239.019 219.149 239.181C219.262 239.177 219.373 239.15 219.476 239.102C219.579 239.054 219.671 238.985 219.746 238.9C220.405 238.181 219.502 236.778 219.088 236.204L214.427 229.799C214.384 229.743 214.352 229.679 214.333 229.611C214.314 229.542 214.309 229.471 214.318 229.401C214.327 229.33 214.35 229.262 214.386 229.201C214.421 229.14 214.468 229.086 214.525 229.043C214.627 228.942 214.765 228.886 214.909 228.886C215.053 228.886 215.191 228.942 215.293 229.043L223.199 238.107C223.585 238.647 224.113 239.07 224.724 239.327C224.868 239.368 225.019 239.379 225.168 239.36C225.317 239.341 225.46 239.293 225.59 239.218C225.668 239.177 225.735 239.119 225.785 239.047L219.429 229.494C219.347 229.373 219.316 229.224 219.343 229.08C219.371 228.935 219.454 228.808 219.576 228.726C219.697 228.643 219.846 228.612 219.99 228.64C220.134 228.667 220.262 228.751 220.344 228.872C223.252 233.067 226.517 237.002 230.104 240.633C230.501 241.069 231.043 241.346 231.629 241.414C231.677 241.412 231.724 241.398 231.765 241.372C231.806 241.346 231.839 241.31 231.861 241.267C231.995 241.06 231.861 240.669 231.58 240.133C230.112 237.619 228.355 235.285 226.347 233.179L223.626 230.592C223.538 230.488 223.491 230.354 223.494 230.218C223.498 230.081 223.551 229.95 223.644 229.85C223.736 229.749 223.863 229.686 223.999 229.673C224.135 229.659 224.271 229.695 224.382 229.775C225.346 230.604 226.261 231.471 227.14 232.386L236.46 241.231C236.823 241.642 237.32 241.911 237.863 241.987C237.913 241.989 237.962 241.979 238.007 241.958C238.051 241.936 238.09 241.905 238.12 241.865C238.4 241.572 238.12 240.913 237.717 240.377C233.631 234.643 228.798 229.482 223.345 225.029C223.246 224.934 223.184 224.806 223.173 224.668C223.161 224.531 223.201 224.395 223.284 224.285C223.367 224.174 223.487 224.099 223.622 224.072C223.757 224.045 223.898 224.069 224.016 224.138C226.26 225.7 228.728 226.909 231.336 227.725C232.19 227.994 232.642 227.884 232.727 227.725C232.813 227.567 232.727 227.03 232.129 226.395C230.436 224.658 228.586 223.082 226.603 221.686C222.705 218.762 218.459 216.332 213.964 214.452C206.802 211.463 199.641 210.694 192.004 209.877L189.625 209.608C189.552 209.601 189.482 209.579 189.419 209.544C189.355 209.509 189.299 209.462 189.253 209.405C189.208 209.348 189.174 209.283 189.154 209.213C189.134 209.144 189.128 209.07 189.137 208.998C189.144 208.926 189.166 208.856 189.201 208.792C189.236 208.728 189.283 208.672 189.34 208.627C189.396 208.581 189.462 208.548 189.531 208.528C189.601 208.508 189.674 208.502 189.747 208.51L192.187 208.766C199.86 209.596 207.095 210.377 214.403 213.427C218.984 215.324 223.311 217.783 227.286 220.747C229.325 222.197 231.228 223.831 232.971 225.627C233.85 226.578 234.118 227.615 233.679 228.311C233.423 228.701 232.739 229.287 231.019 228.75C230.026 228.447 229.053 228.084 228.103 227.664C232.004 231.314 235.531 235.344 238.632 239.693C239.474 240.913 239.584 241.902 238.961 242.585C238.828 242.732 238.666 242.849 238.486 242.931C238.306 243.013 238.11 243.057 237.912 243.061L237.9 243.219Z" fill="#231F20"/>
<path d="M283.882 241.328L301.682 193.687L228.982 195.127L212.683 249.453L283.882 241.328Z" fill="white"/>
<path d="M212.683 250.1C212.594 250.101 212.506 250.082 212.425 250.044C212.345 250.006 212.275 249.95 212.219 249.88C212.155 249.804 212.111 249.712 212.089 249.615C212.068 249.517 212.071 249.416 212.097 249.319L228.396 194.993C228.436 194.87 228.512 194.762 228.614 194.683C228.717 194.605 228.841 194.56 228.97 194.553L301.669 193.114C301.769 193.112 301.868 193.135 301.957 193.179C302.046 193.224 302.123 193.289 302.182 193.37C302.235 193.452 302.269 193.545 302.282 193.642C302.294 193.739 302.285 193.838 302.255 193.931L284.455 241.511C284.415 241.619 284.346 241.714 284.256 241.785C284.166 241.856 284.057 241.901 283.943 241.914L212.756 250.1H212.683ZM229.445 195.761L213.585 248.782L283.491 240.804L300.84 194.346L229.445 195.761Z" fill="#231F20"/>
<path d="M280.002 241.767C280.002 241.767 299.73 257.786 292.8 272.475C285.87 287.164 159.82 303.951 159.82 303.951L154.147 284.748C154.147 284.748 253.028 234.24 280.002 241.767Z" fill="#231F20"/>
<path d="M159.82 304.561C159.689 304.559 159.561 304.515 159.456 304.436C159.351 304.358 159.273 304.247 159.234 304.122L153.561 284.919C153.518 284.784 153.525 284.638 153.581 284.508C153.637 284.378 153.739 284.272 153.866 284.211C154.11 284.077 178.913 271.45 206.705 259.884C244.098 244.329 268.803 238.034 280.124 241.182C280.209 241.205 280.289 241.247 280.356 241.304C283.799 244.229 286.857 247.578 289.457 251.271C294.898 259.104 296.216 266.521 293.264 272.743C286.212 287.554 165.054 303.865 159.905 304.549L159.82 304.561ZM154.867 285.041L160.259 303.243C169.068 302.023 285.614 285.944 292.166 272.194C298.607 258.628 281.186 243.536 279.673 242.304C254.028 235.46 162.26 281.381 154.94 285.065L154.867 285.041Z" fill="#231F20"/>
<path d="M147.62 234.411C147.62 234.411 245.501 273.988 269.766 284.431L255.663 306.22C255.663 306.22 165.286 304.451 139.373 281.747C113.46 259.043 115.18 221.247 147.62 234.411Z" fill="#231F20"/>
<path d="M255.663 306.854C255.444 306.854 232.739 306.379 207.168 303.133C172.764 298.754 149.828 291.726 138.982 282.223C125.416 270.34 115.912 249.478 123.379 237.363C125.819 233.337 132.333 227.542 147.876 233.837C148.852 234.24 246.037 273.548 270.035 283.857C270.117 283.891 270.19 283.942 270.249 284.007C270.308 284.073 270.352 284.151 270.376 284.236C270.401 284.321 270.407 284.411 270.394 284.5C270.382 284.588 270.351 284.673 270.303 284.748L256.2 306.574C256.143 306.663 256.063 306.736 255.969 306.785C255.875 306.835 255.769 306.858 255.663 306.854ZM135.603 232.288C130.589 232.288 126.746 234.216 124.403 237.998C118.645 247.355 123.44 266.997 139.775 281.308C164.432 302.914 249.246 305.476 255.334 305.622L268.876 284.699C243.817 273.963 148.376 235.362 147.4 234.972C143.674 233.336 139.67 232.425 135.603 232.288Z" fill="#231F20"/>
<path d="M284.26 222.308C284.365 222.871 284.608 223.4 284.968 223.846L286.871 226.688C286.801 226.395 286.668 226.12 286.481 225.883C286.293 225.646 286.056 225.454 285.786 225.319C285.516 225.184 285.22 225.11 284.918 225.102C284.617 225.094 284.317 225.152 284.04 225.273C283.5 225.565 283.051 226.002 282.743 226.534C282.435 227.065 282.28 227.672 282.296 228.286C282.35 229.514 282.64 230.719 283.15 231.837C284.504 235.35 287.566 240.486 291.995 237.827C294.996 236.021 295.826 229.653 296.253 226.481C297.094 220.234 295.179 212.207 287.151 213.427C287.383 216.503 288.53 219.439 290.445 221.857C289.14 220.588 283.857 218.624 284.26 222.308Z" fill="white"/>
<path d="M289.543 239.12C289.052 239.123 288.565 239.041 288.103 238.876C285.212 237.888 283.406 234.167 282.589 232.032C282.056 230.847 281.754 229.572 281.698 228.274C281.678 227.553 281.864 226.841 282.233 226.221C282.602 225.601 283.14 225.099 283.784 224.773C284.083 224.637 284.407 224.566 284.736 224.565L284.467 224.163C284.051 223.639 283.774 223.017 283.662 222.357C283.565 221.873 283.632 221.37 283.853 220.928C284.074 220.486 284.436 220.13 284.882 219.917C286.133 219.531 287.484 219.631 288.664 220.198C287.492 218.15 286.792 215.865 286.615 213.512C286.607 213.372 286.651 213.233 286.738 213.123C286.826 213.012 286.951 212.938 287.09 212.914C288.311 212.647 289.579 212.681 290.784 213.012C291.989 213.344 293.095 213.964 294.008 214.818C296.875 217.648 297.351 222.748 296.826 226.591C296.35 230.104 295.496 236.412 292.3 238.339C291.473 238.855 290.517 239.125 289.543 239.12ZM284.809 225.7C284.612 225.697 284.417 225.735 284.236 225.81C283.792 226.058 283.425 226.424 283.175 226.868C282.925 227.311 282.803 227.815 282.82 228.323C282.868 229.479 283.142 230.615 283.626 231.666C284.236 233.227 285.919 236.973 288.506 237.851C289.039 238.022 289.605 238.068 290.159 237.985C290.713 237.903 291.241 237.694 291.702 237.375C294.447 235.728 295.277 229.531 295.679 226.554C296.179 222.894 295.777 218.136 293.239 215.574C292.519 214.896 291.653 214.393 290.707 214.103C289.762 213.813 288.762 213.745 287.786 213.903C288.1 216.679 289.186 219.313 290.921 221.503C291.01 221.613 291.054 221.753 291.042 221.894C291.031 222.035 290.966 222.166 290.86 222.26C290.756 222.357 290.619 222.412 290.476 222.412C290.333 222.412 290.196 222.357 290.092 222.26C289.274 221.454 286.578 220.308 285.37 220.893C285.102 221.015 284.76 221.296 284.846 222.247C284.952 222.718 285.16 223.159 285.456 223.541L286.48 225.053C286.749 225.228 286.976 225.459 287.145 225.731C287.313 226.003 287.42 226.309 287.456 226.627C287.469 226.752 287.44 226.877 287.374 226.983C287.308 227.089 287.208 227.17 287.09 227.213C286.974 227.255 286.846 227.256 286.729 227.216C286.611 227.176 286.511 227.097 286.444 226.993L285.687 225.871C285.414 225.738 285.112 225.68 284.809 225.7Z" fill="#231F20"/>
<path d="M256.773 279.917C256.697 279.928 256.618 279.928 256.542 279.917C254.407 279.087 203.947 259.555 192.577 252.589C192.436 252.501 192.335 252.36 192.296 252.198C192.257 252.036 192.283 251.865 192.37 251.723C192.412 251.651 192.469 251.589 192.535 251.54C192.602 251.491 192.678 251.456 192.759 251.436C192.84 251.417 192.924 251.414 193.005 251.428C193.087 251.441 193.166 251.471 193.236 251.515C204.509 258.42 256.468 278.538 256.993 278.733C257.15 278.793 257.276 278.913 257.345 279.066C257.413 279.22 257.419 279.394 257.359 279.551C257.308 279.663 257.226 279.757 257.122 279.822C257.017 279.888 256.896 279.92 256.773 279.917Z" fill="white"/>
<path d="M197.921 200.251C209.045 200.251 218.063 191.714 218.063 181.182C218.063 170.651 209.045 162.114 197.921 162.114C186.796 162.114 177.778 170.651 177.778 181.182C177.778 191.714 186.796 200.251 197.921 200.251Z" fill="#231F20"/>
<path d="M197.921 200.849C186.477 200.849 177.181 192.028 177.181 181.182C177.181 170.336 186.489 161.504 197.921 161.504C209.352 161.504 218.661 170.336 218.661 181.182C218.661 192.028 209.364 200.849 197.921 200.849ZM197.921 162.724C187.148 162.724 178.401 171.007 178.401 181.182C178.401 191.357 187.16 199.629 197.921 199.629C208.681 199.629 217.441 191.357 217.441 181.182C217.441 171.007 208.693 162.724 197.921 162.724Z" fill="#231F20"/>
<path d="M187.294 187.38L182.414 184.525V180.755L187.294 177.9C188.921 176.965 190.548 176.014 192.174 175.046V179.608C191.308 180.145 190.442 180.67 189.576 181.17C188.71 181.67 187.856 182.183 186.977 182.732L189.576 184.171L192.174 185.623V190.235L187.294 187.38Z" fill="white"/>
<path d="M193.553 191.442L199.299 169.58L202.3 170.934L196.53 192.76L193.553 191.442Z" fill="white"/>
<path d="M208.62 177.9L213.5 180.755V184.525L208.62 187.38L203.74 190.235V185.623L206.339 184.171L208.937 182.732C208.071 182.183 207.205 181.658 206.339 181.17C205.472 180.682 204.618 180.145 203.74 179.608V175.046L208.62 177.9Z" fill="white"/>
<path d="M156.16 234.24C155.998 234.25 155.839 234.195 155.718 234.087C155.597 233.98 155.523 233.828 155.513 233.667C155.504 233.505 155.559 233.346 155.666 233.225C155.774 233.103 155.925 233.03 156.087 233.02L185.367 229.47L190.015 206.034L152.5 202.862C152.41 202.856 152.323 202.829 152.245 202.785C152.167 202.741 152.1 202.679 152.049 202.605C151.994 202.533 151.956 202.45 151.94 202.361C151.923 202.272 151.927 202.18 151.951 202.093L167.372 144.68C167.414 144.518 167.518 144.38 167.663 144.295C167.807 144.21 167.979 144.186 168.14 144.228C168.302 144.27 168.441 144.375 168.525 144.519C168.61 144.663 168.634 144.835 168.592 144.997L153.354 201.715L190.771 204.814C190.857 204.823 190.94 204.849 191.016 204.891C191.091 204.933 191.157 204.99 191.211 205.058C191.262 205.127 191.298 205.206 191.317 205.29C191.336 205.374 191.337 205.461 191.32 205.546L186.44 230.08C186.414 230.205 186.349 230.32 186.255 230.407C186.161 230.494 186.043 230.55 185.916 230.568L156.16 234.167V234.24Z" fill="#231F20"/>
<path d="M317.395 68.564H256.566V74.8592H317.395V68.564Z" fill="#E6E7E8"/>
<path d="M385.3 68.564H324.471V74.8592H385.3V68.564Z" fill="#E6E7E8"/>
<path d="M317.395 79.3488H281.686V85.644H317.395V79.3488Z" fill="#87D147"/>
<path d="M378.505 79.3488H324.471V85.644H378.505V79.3488Z" fill="#E6E7E8"/>
<path d="M317.395 90.1458H272.389V96.441H317.395V90.1458Z" fill="#E6E7E8"/>
<path d="M349.847 90.1458H324.471V96.441H349.847V90.1458Z" fill="#E6E7E8"/>
<path d="M317.408 100.931H291.153V107.226H317.408V100.931Z" fill="#E6E7E8"/>
<path d="M374.174 100.931H324.471V107.226H374.174V100.931Z" fill="#87D147"/>
<path d="M317.395 111.728H309.038V118.023H317.395V111.728Z" fill="#87D147"/>
<path d="M357.863 111.728H324.471V118.023H357.863V111.728Z" fill="#E6E7E8"/>
<path d="M316.346 156.087H260.446V163.297H316.346V156.087Z" fill="#87D147"/>
<path d="M359.656 156.087H325.325V163.297H359.656V156.087Z" fill="#E6E7E8"/>
<path d="M316.334 168.433H270.95V175.643H316.334V168.433Z" fill="#E6E7E8"/>
<path d="M375.309 168.433H325.325V175.643H375.309V168.433Z" fill="#E6E7E8"/>
<path d="M316.334 180.792H293.642V188.002H316.334V180.792Z" fill="#E6E7E8"/>
<path d="M384.764 180.792H325.325V188.002H384.764V180.792Z" fill="#E6E7E8"/>
<path d="M316.334 193.15H307.83V200.361H316.334V193.15Z" fill="#E6E7E8"/>
<path d="M388.497 193.15H325.325V200.361H388.497V193.15Z" fill="#87D147"/>
<path d="M367.757 205.497H325.325V212.707H367.757V205.497Z" fill="#E6E7E8"/>
<path d="M346.834 140.446L342.247 138.616V136.176L346.834 134.346L351.421 132.516V135.42C350.591 135.774 349.774 136.103 348.981 136.42C348.188 136.738 347.346 137.067 346.541 137.421L348.981 138.348L351.421 139.275V142.228L346.834 140.446Z" fill="#E6E7E8"/>
<path d="M352.775 143.045L358.216 129.052L361.071 129.906L355.593 143.96L352.775 143.045Z" fill="#E6E7E8"/>
<path d="M367 134.383C368.525 134.993 370.063 135.603 371.588 136.213V138.653L367 140.483L362.413 142.313V139.324L364.853 138.397L367.293 137.47C366.464 137.116 365.646 136.786 364.853 136.469C364.06 136.152 363.218 135.823 362.413 135.469V132.553L367 134.383Z" fill="#E6E7E8"/>
<path d="M258.164 53.558C258.162 53.2752 258.225 52.9957 258.347 52.7406C258.454 52.4807 258.616 52.2475 258.823 52.0574C259.026 51.8696 259.262 51.7208 259.518 51.6182C259.793 51.5054 260.087 51.4474 260.385 51.4474C260.666 51.45 260.943 51.508 261.202 51.6182C261.454 51.7237 261.685 51.8723 261.885 52.0574C262.08 52.2547 262.238 52.4863 262.349 52.7406C262.462 52.9983 262.52 53.2767 262.52 53.558C262.52 53.8433 262.462 54.1255 262.349 54.3876C262.234 54.6291 262.077 54.8482 261.885 55.0342C261.477 55.4152 260.943 55.6324 260.385 55.6442C260.087 55.6442 259.793 55.5862 259.518 55.4734C259.259 55.3755 259.023 55.2261 258.823 55.0342C258.62 54.8552 258.458 54.6347 258.347 54.3876C258.225 54.1282 258.162 53.8447 258.164 53.558ZM258.164 60.7072C258.17 60.4278 258.231 60.1524 258.344 59.8969C258.457 59.6414 258.62 59.4109 258.823 59.2188C259.022 59.0231 259.259 58.8695 259.518 58.7674C259.794 58.6588 260.088 58.6049 260.385 58.6088C260.665 58.6072 260.943 58.6611 261.202 58.7674C261.457 58.8726 261.689 59.0259 261.885 59.2188C262.08 59.4115 262.238 59.6391 262.349 59.8898C262.461 60.1498 262.519 60.43 262.519 60.7133C262.519 60.9966 262.461 61.2768 262.349 61.5368C262.237 61.7838 262.08 62.0074 261.885 62.1956C261.685 62.3807 261.454 62.5293 261.202 62.6348C260.943 62.7411 260.665 62.795 260.385 62.7934C260.088 62.7973 259.794 62.7434 259.518 62.6348C259.262 62.5322 259.026 62.3833 258.823 62.1956C258.617 62.0144 258.454 61.7893 258.347 61.5368C258.224 61.2779 258.161 60.9941 258.164 60.7072Z" fill="#E6E7E8"/>
<path d="M329.4 258.835C329.882 258.86 330.359 258.723 330.754 258.445C331.096 258.189 331.254 257.652 331.254 256.822V253.04C331.253 252.414 331.336 251.79 331.498 251.186C331.65 250.622 331.907 250.093 332.255 249.624C332.61 249.174 333.06 248.807 333.572 248.551C334.183 248.266 334.851 248.128 335.524 248.148H338.269V252.076H337.306C337.086 252.055 336.864 252.093 336.664 252.188C336.464 252.282 336.294 252.429 336.171 252.613C335.96 252.984 335.855 253.406 335.866 253.833V257.688C335.88 258.177 335.793 258.663 335.61 259.116C335.463 259.466 335.257 259.788 335 260.067C334.775 260.308 334.506 260.503 334.207 260.641C333.968 260.767 333.707 260.846 333.438 260.873C333.704 260.922 333.962 261.004 334.207 261.117C334.505 261.245 334.775 261.432 335 261.666C335.587 262.316 335.898 263.169 335.866 264.045V267.912C335.851 268.339 335.956 268.762 336.171 269.132C336.292 269.318 336.462 269.468 336.662 269.564C336.862 269.661 337.084 269.701 337.306 269.681H338.269V273.609H335.524C334.851 273.629 334.183 273.491 333.572 273.207C333.06 272.95 332.61 272.583 332.255 272.133C331.909 271.663 331.653 271.134 331.498 270.572C331.336 269.963 331.254 269.335 331.254 268.705V264.923C331.297 264.634 331.274 264.34 331.187 264.061C331.101 263.782 330.953 263.527 330.754 263.313C330.359 263.035 329.882 262.897 329.4 262.922V258.835Z" fill="#E6E7E8"/>
<path d="M371.539 262.898C371.053 262.873 370.572 263.01 370.172 263.288C369.976 263.504 369.83 263.759 369.743 264.038C369.657 264.316 369.633 264.61 369.672 264.899V268.681C369.672 269.311 369.59 269.938 369.428 270.547C369.279 271.112 369.022 271.642 368.672 272.109C368.323 272.565 367.872 272.933 367.354 273.182C366.744 273.467 366.075 273.605 365.402 273.585H362.657V269.62H363.633C363.852 269.638 364.072 269.597 364.27 269.5C364.468 269.403 364.635 269.255 364.756 269.071C364.97 268.701 365.076 268.278 365.061 267.851V263.984C365.048 263.499 365.135 263.018 365.317 262.568C365.466 262.213 365.677 261.887 365.939 261.605C366.161 261.372 366.426 261.185 366.72 261.056C366.97 260.944 367.232 260.862 367.501 260.812C367.228 260.783 366.964 260.705 366.72 260.58C366.424 260.443 366.158 260.248 365.939 260.006C365.674 259.731 365.463 259.408 365.317 259.055C365.134 258.602 365.047 258.116 365.061 257.627V253.76C365.072 253.333 364.967 252.911 364.756 252.54C364.634 252.358 364.465 252.212 364.268 252.118C364.07 252.023 363.851 251.984 363.633 252.003H362.657V248.148H365.402C366.075 248.128 366.744 248.266 367.354 248.551C367.872 248.8 368.323 249.168 368.672 249.624C369.024 250.09 369.282 250.62 369.428 251.186C369.591 251.79 369.673 252.414 369.672 253.04V256.822C369.632 257.113 369.655 257.409 369.742 257.689C369.828 257.97 369.975 258.228 370.172 258.445C370.572 258.723 371.053 258.86 371.539 258.835V262.898Z" fill="#E6E7E8"/>
</svg>
