<svg width="248" height="228" viewBox="0 0 248 228" fill="none" xmlns="http://www.w3.org/2000/svg">
<path d="M75.9933 93.9494C75.9206 93.9632 75.846 93.9632 75.7733 93.9494L12.9933 63.0794C12.9266 63.0559 12.8657 63.0185 12.8145 62.9697C12.7633 62.9208 12.7231 62.8617 12.6965 62.7962C12.6699 62.7307 12.6574 62.6603 12.66 62.5897C12.6626 62.519 12.6801 62.4497 12.7115 62.3863C12.7428 62.3229 12.7872 62.2669 12.8418 62.222C12.8964 62.177 12.9599 62.1441 13.0281 62.1255C13.0963 62.1069 13.1677 62.103 13.2375 62.114C13.3074 62.125 13.3741 62.1507 13.4333 62.1894L76.2233 92.9994C76.2824 93.0282 76.3354 93.0684 76.379 93.1177C76.4226 93.167 76.456 93.2244 76.4774 93.2866C76.4988 93.3489 76.5076 93.4148 76.5035 93.4804C76.4993 93.5461 76.4823 93.6103 76.4533 93.6694C76.4095 93.7536 76.3434 93.8242 76.2623 93.8736C76.1813 93.923 76.0882 93.9492 75.9933 93.9494Z" fill="#E6E7E8"/>
<path d="M190.993 75.4191C190.993 75.4191 193.993 69.5391 193.523 67.1491C193.053 64.7591 192.283 57.5791 192.283 57.5791L211.993 59.4091L205.653 82.2791" fill="white"/>
<path d="M205.633 82.7995H205.493C205.363 82.7622 205.252 82.6754 205.185 82.5577C205.118 82.44 205.099 82.3008 205.133 82.1695L211.303 59.8795L192.863 58.1695C193.083 59.9695 193.693 65.1695 194.033 67.0795C194.483 69.6095 191.583 75.4195 191.453 75.6695C191.391 75.7905 191.284 75.8823 191.155 75.9252C191.026 75.9682 190.885 75.959 190.763 75.8995C190.702 75.8698 190.648 75.8282 190.603 75.7773C190.559 75.7263 190.525 75.667 190.503 75.6028C190.482 75.5385 190.474 75.4707 190.479 75.4032C190.484 75.3357 190.502 75.2698 190.533 75.2095C191.333 73.6095 193.343 69.0795 193.023 67.2095C192.603 64.8295 191.803 57.8995 191.773 57.5995C191.764 57.5236 191.772 57.4465 191.796 57.3739C191.82 57.3013 191.86 57.2349 191.913 57.1795C191.968 57.1255 192.034 57.0841 192.107 57.0582C192.179 57.0323 192.256 57.0225 192.333 57.0295L211.993 58.8795C212.068 58.8882 212.141 58.9121 212.206 58.95C212.271 58.9878 212.328 59.0387 212.373 59.0995C212.416 59.1616 212.444 59.2323 212.456 59.3067C212.468 59.381 212.464 59.4572 212.443 59.5295L206.113 82.4095C206.087 82.5182 206.026 82.6151 205.939 82.6856C205.852 82.7561 205.745 82.7961 205.633 82.7995Z" fill="#231F20"/>
<path d="M53.1732 104.219C53.1732 104.219 53.3532 92.5791 53.1732 89.9591C52.9932 87.3391 56.9232 72.7591 55.9832 70.4691C55.0432 68.1791 52.4232 67.2891 51.4832 69.9891C50.5432 72.6891 48.8532 78.6891 48.8532 78.6891C48.8532 78.6891 38.5332 72.3291 36.4632 76.6891C34.3932 81.0491 32.4632 89.1591 34.6432 91.2291C35.9687 92.4626 37.6615 93.2283 39.4632 93.4091L38.9032 108.179L53.1732 104.219Z" fill="white"/>
<path d="M38.9031 108.73C38.7874 108.728 38.6752 108.69 38.583 108.62C38.5194 108.57 38.4687 108.507 38.4356 108.433C38.4024 108.36 38.3878 108.28 38.3931 108.2L38.9331 93.9095C37.1969 93.6316 35.5822 92.8451 34.2931 91.6495C31.6731 89.1895 34.1531 80.4395 35.9931 76.5095C36.1818 76.1024 36.4595 75.7429 36.8056 75.4573C37.1517 75.1718 37.5575 74.9675 37.9931 74.8595C41.1831 73.8595 46.753 76.8595 48.583 77.8595C49.043 76.2295 50.2831 71.9295 51.0331 69.7695C51.1611 69.2349 51.454 68.7541 51.8703 68.3952C52.2867 68.0362 52.8054 67.8174 53.3531 67.7695C54.0624 67.8225 54.7402 68.0844 55.3008 68.5222C55.8614 68.9601 56.2798 69.5542 56.503 70.2295C57.063 71.6095 56.2731 75.8795 54.9831 82.2295C54.3778 84.7388 53.9567 87.2889 53.723 89.8595C53.913 92.4795 53.723 103.69 53.723 104.17C53.7246 104.281 53.6891 104.389 53.6221 104.478C53.5551 104.567 53.4604 104.631 53.3531 104.66L39.083 108.66C39.0311 108.7 38.9686 108.724 38.9031 108.73ZM39.4031 75.7295C39.0146 75.7256 38.6275 75.7761 38.2531 75.8795C37.9642 75.9543 37.6957 76.0929 37.4673 76.2849C37.2389 76.477 37.0563 76.7178 36.9331 76.9895C34.9331 81.3395 33.0731 89.1195 34.9931 90.9295C36.2361 92.0671 37.8157 92.7691 39.4931 92.9295C39.6292 92.9373 39.7569 92.9982 39.8486 93.0993C39.9402 93.2003 39.9885 93.3332 39.983 93.4695L39.443 107.53L52.663 103.83C52.663 101.83 52.823 92.2995 52.663 89.9895C52.8761 87.3227 53.3042 84.6774 53.943 82.0795C54.813 77.7595 56.003 71.8495 55.523 70.6595C55.3727 70.1807 55.0885 69.755 54.704 69.4325C54.3194 69.11 53.8507 68.9042 53.3531 68.8395C52.583 68.8395 52.183 69.5695 51.983 70.1595C51.053 72.8095 49.3731 78.7695 49.3631 78.8295C49.3403 78.9059 49.3005 78.9761 49.2469 79.0349C49.1932 79.0938 49.1269 79.1398 49.053 79.1695C48.982 79.2064 48.9031 79.2256 48.8231 79.2256C48.743 79.2256 48.6641 79.2064 48.593 79.1695C48.523 79.0895 42.9931 75.6895 39.4031 75.6895V75.7295Z" fill="#231F20"/>
<path d="M92.9732 174.129L79.0432 227.299L113.903 224.999L121.623 198.749L133.793 224.02H165.023L145.963 151.479L92.9732 174.129Z" fill="#231F20"/>
<path d="M142.473 167.24L90.7932 176.88L103.643 100.55C103.643 100.55 129.953 95.2695 136.313 95.2695C141.673 95.2295 142.473 167.24 142.473 167.24Z" fill="white"/>
<path d="M90.7933 177.339C90.6628 177.34 90.5372 177.29 90.4433 177.199C90.3859 177.143 90.3424 177.074 90.3164 176.997C90.2903 176.921 90.2824 176.839 90.2933 176.759L103.143 100.419C103.163 100.321 103.212 100.23 103.283 100.159C103.354 100.088 103.445 100.039 103.543 100.019C104.613 99.7995 129.973 94.7295 136.313 94.7295C137.453 94.7295 140.133 94.7895 141.893 131.209C142.753 149.009 142.963 167.049 142.973 167.209C142.973 167.327 142.932 167.442 142.858 167.533C142.783 167.624 142.679 167.686 142.563 167.709L90.8733 177.309L90.7933 177.339ZM104.073 100.929L91.4033 176.219L141.973 166.819C141.513 126.919 139.033 95.7295 136.313 95.7295C130.463 95.7295 107.163 100.309 104.073 100.929Z" fill="#231F20"/>
<path d="M112.393 95.2293C111.623 95.7293 113.873 106.839 114.003 107.839C115.128 117.916 115.676 128.05 115.643 138.189C115.561 149.504 113.339 160.701 109.093 171.189C107.183 176.039 104.963 180.779 102.633 185.439C100.303 190.099 95.7232 190.899 90.8432 190.549C85.622 190.171 80.4597 189.208 75.4532 187.679C73.6571 187.295 72.0168 186.383 70.7432 185.059C68.7432 182.509 70.9232 179.059 72.0632 176.619C73.6832 173.149 75.2332 169.619 76.6832 166.099C78.9932 160.409 85.2232 146.769 86.8132 140.839C88.8832 133.129 85.8132 133.109 86.1732 125.139C86.3232 121.919 86.3632 118.699 86.4932 115.479C86.5632 113.549 85.9832 107.479 87.2432 106.019C96.8732 94.9293 112.393 95.2293 112.393 95.2293Z" fill="#87D147"/>
<path d="M150.993 93.4496C151.313 93.5096 149.743 119.37 149.853 120.66C150.683 130.47 165.053 169.05 165.053 169.05C165.053 172.6 129.223 193.85 126.933 187.48C137.553 131.48 130.233 95.2495 129.983 95.2295C129.993 95.2295 142.743 91.8795 150.993 93.4496Z" fill="#87D147"/>
<path d="M124.733 108.879L120.803 112.699L123.983 114.899C123.983 114.899 120.633 139.819 108.853 143.359C97.0732 146.899 92.4932 145.679 92.4932 145.679L85.9932 154.129C85.9932 154.129 96.0932 157.019 96.8132 157.259C97.5332 157.499 118.933 152.509 122.303 139.259C124.312 131.444 125.631 123.466 126.243 115.419L128.373 112.739L124.733 108.879Z" fill="#231F20"/>
<path d="M109.993 133.59C109.916 133.589 109.839 133.57 109.77 133.536C109.701 133.501 109.64 133.451 109.593 133.39L99.613 119.88C99.5363 119.791 99.4941 119.677 99.4941 119.56C99.4941 119.442 99.5363 119.328 99.613 119.24L105.823 112.82L98.033 110.82C97.9496 110.799 97.8731 110.757 97.8116 110.697C97.75 110.638 97.7056 110.562 97.683 110.48C97.6597 110.396 97.6584 110.308 97.6795 110.224C97.7005 110.139 97.7431 110.062 97.803 110L106.913 100.23C107.005 100.133 107.131 100.076 107.264 100.072C107.397 100.069 107.526 100.118 107.623 100.21C107.72 100.301 107.776 100.427 107.78 100.56C107.784 100.694 107.735 100.823 107.643 100.92L99.103 110.07L106.913 112.07C106.996 112.093 107.072 112.138 107.133 112.199C107.195 112.26 107.239 112.336 107.263 112.42C107.287 112.503 107.289 112.591 107.268 112.676C107.247 112.76 107.204 112.837 107.143 112.9L100.623 119.63L110.333 132.84C110.408 132.946 110.439 133.078 110.419 133.207C110.398 133.336 110.328 133.452 110.223 133.53C110.153 133.569 110.074 133.59 109.993 133.59Z" fill="#231F20"/>
<path d="M134.993 132.129C134.927 132.139 134.859 132.139 134.793 132.129C134.673 132.075 134.578 131.975 134.53 131.852C134.481 131.729 134.482 131.592 134.533 131.469L141.863 114.369L134.343 110.599C134.224 110.531 134.135 110.42 134.093 110.289C134.074 110.223 134.068 110.153 134.077 110.084C134.085 110.016 134.108 109.949 134.143 109.889L139.763 100.759L132.383 97.3495C132.264 97.2909 132.171 97.1889 132.125 97.0643C132.078 96.9396 132.081 96.8019 132.133 96.6795C132.161 96.6194 132.2 96.5655 132.249 96.5209C132.298 96.4762 132.356 96.4417 132.418 96.4194C132.48 96.3971 132.546 96.3874 132.612 96.3908C132.679 96.3943 132.743 96.4108 132.803 96.4395L140.693 100.089C140.758 100.118 140.816 100.161 140.862 100.215C140.909 100.268 140.943 100.331 140.963 100.399C140.983 100.468 140.988 100.539 140.98 100.61C140.971 100.68 140.948 100.748 140.913 100.809L135.253 109.879L142.703 113.619C142.817 113.676 142.905 113.773 142.949 113.892C142.994 114.011 142.992 114.142 142.943 114.259L135.423 131.789C135.391 131.881 135.334 131.962 135.258 132.022C135.181 132.082 135.09 132.12 134.993 132.129Z" fill="#231F20"/>
<path d="M196.903 0.459473L208.833 24.6295L235.503 28.5095L216.203 47.3195L220.763 73.8895L196.903 61.3495L173.043 73.8895L177.603 47.3195L158.303 28.5095L184.973 24.6295L196.903 0.459473Z" fill="white"/>
<path d="M220.763 74.3894C220.682 74.3899 220.603 74.3692 220.533 74.3294L196.903 61.8794L173.273 74.2994C173.196 74.3506 173.106 74.3779 173.013 74.3779C172.921 74.3779 172.83 74.3506 172.753 74.2994C172.676 74.2455 172.617 74.1706 172.581 74.0837C172.546 73.9969 172.536 73.9017 172.553 73.8094L177.063 47.5094L157.993 28.8794C157.925 28.8156 157.877 28.7337 157.854 28.6434C157.831 28.553 157.834 28.458 157.863 28.3694C157.893 28.2818 157.946 28.2039 158.016 28.144C158.086 28.0841 158.172 28.0445 158.263 28.0294L184.683 24.1894L196.493 0.259426C196.539 0.180532 196.604 0.115033 196.683 0.0695C196.762 0.0239674 196.852 0 196.943 0C197.034 0 197.124 0.0239674 197.203 0.0695C197.282 0.115033 197.347 0.180532 197.393 0.259426L209.203 24.1894L235.623 28.0294C235.714 28.0445 235.8 28.0841 235.87 28.144C235.941 28.2039 235.993 28.2818 236.023 28.3694C236.052 28.458 236.055 28.553 236.032 28.6434C236.009 28.7337 235.961 28.8156 235.893 28.8794L216.743 47.4994L221.253 73.7994C221.27 73.8917 221.26 73.9869 221.225 74.0737C221.189 74.1606 221.13 74.2355 221.053 74.2894C220.971 74.3557 220.868 74.3911 220.763 74.3894ZM196.903 60.8794C196.979 60.86 197.058 60.86 197.133 60.8794L220.133 72.9594L215.743 47.3894C215.73 47.3087 215.736 47.2261 215.76 47.148C215.785 47.0699 215.827 46.9986 215.883 46.9394L234.433 28.8794L208.763 25.1494C208.682 25.136 208.606 25.1037 208.539 25.055C208.473 25.0064 208.42 24.9428 208.383 24.8694L196.903 1.58942L185.423 24.8794C185.386 24.9528 185.333 25.0164 185.267 25.065C185.201 25.1137 185.124 25.146 185.043 25.1594L159.373 28.8794L177.993 46.9594C178.05 47.0186 178.092 47.0899 178.116 47.168C178.14 47.2461 178.146 47.3287 178.133 47.4094L173.743 72.9794L196.743 60.8994C196.795 60.8834 196.849 60.8766 196.903 60.8794Z" fill="#231F20"/>
<path d="M150.993 93.4494C150.993 93.4494 169.743 99.7494 174.553 98.3394C179.363 96.9294 189.093 73.8794 189.093 73.8794L208.803 76.3294C208.803 76.3294 200.583 125.089 184.943 127.709C169.303 130.329 148.513 123.359 148.513 123.359L150.993 93.4494Z" fill="#87D147"/>
<path d="M105.373 75.4197C104.573 71.7997 103.493 68.2197 103.173 64.5297C102.853 60.8397 103.353 56.9297 105.443 53.8797C107.693 50.5997 110.563 50.9797 114.023 50.5297C118.613 49.9297 122.713 47.6297 126.973 45.9697C127.783 45.6497 129.043 45.5797 129.193 46.4397C129.217 46.7086 129.165 46.9789 129.043 47.2197C128.493 48.5805 127.726 49.8435 126.773 50.9597C130.105 50.2032 133.302 48.942 136.253 47.2197C136.567 48.8512 136.51 50.5325 136.086 52.139C135.662 53.7455 134.882 55.2359 133.803 56.4997L139.433 53.6797C139.852 56.0545 139.352 58.4998 138.033 60.5188C136.714 62.5378 134.676 63.9791 132.333 64.5497" fill="white"/>
<path d="M105.373 75.9295C105.256 75.9319 105.142 75.8932 105.051 75.8201C104.959 75.747 104.896 75.6442 104.873 75.5295C104.663 74.5895 104.433 73.6495 104.203 72.6995C103.485 70.0356 102.971 67.3212 102.663 64.5795C102.393 61.5195 102.583 57.1395 105.023 53.5795C107.023 50.6795 109.543 50.4395 112.233 50.1995L113.963 50.0195C117.215 49.4316 120.369 48.3915 123.333 46.9295C124.463 46.4395 125.623 45.9295 126.783 45.4895C127.143 45.3338 127.531 45.2534 127.923 45.2534C128.315 45.2534 128.703 45.3338 129.063 45.4895C129.231 45.5783 129.377 45.7049 129.488 45.8593C129.599 46.0137 129.672 46.1918 129.703 46.3795C129.75 46.7429 129.687 47.112 129.523 47.4395C129.141 48.3854 128.658 49.2873 128.083 50.1295C130.854 49.3614 133.513 48.2353 135.993 46.7795C136.065 46.7402 136.146 46.7195 136.228 46.7195C136.31 46.7195 136.391 46.7402 136.463 46.7795C136.537 46.8141 136.602 46.8656 136.652 46.9299C136.703 46.9942 136.737 47.0694 136.753 47.1495C137.286 49.8905 136.81 52.7319 135.413 55.1495L139.193 53.2595C139.265 53.225 139.343 53.207 139.423 53.207C139.503 53.207 139.581 53.225 139.653 53.2595C139.724 53.2937 139.787 53.344 139.835 53.4065C139.884 53.469 139.917 53.5419 139.933 53.6195C140.381 56.1285 139.855 58.7139 138.461 60.8475C137.067 62.9812 134.911 64.5021 132.433 65.0995C132.367 65.1141 132.298 65.1153 132.231 65.103C132.164 65.0907 132.101 65.0652 132.044 65.0279C131.987 64.9907 131.938 64.9424 131.9 64.886C131.862 64.8296 131.836 64.7662 131.823 64.6995C131.799 64.5646 131.829 64.4257 131.905 64.3119C131.982 64.1982 132.099 64.1185 132.233 64.0895C134.455 63.5836 136.387 62.2171 137.603 60.2895C138.739 58.567 139.231 56.4991 138.993 54.4495L133.993 56.9595C133.886 57.0081 133.767 57.0192 133.653 56.9911C133.539 56.963 133.438 56.8974 133.366 56.8048C133.295 56.7123 133.256 56.5982 133.258 56.481C133.259 56.3639 133.299 56.2506 133.373 56.1595C134.319 55.048 135.025 53.7529 135.446 52.3555C135.868 50.9582 135.996 49.4888 135.823 48.0395C133.001 49.6015 129.97 50.7531 126.823 51.4595C126.717 51.4823 126.607 51.4716 126.508 51.4288C126.409 51.3861 126.325 51.3135 126.269 51.2211C126.213 51.1287 126.187 51.0211 126.195 50.9133C126.203 50.8055 126.244 50.7028 126.313 50.6195C127.237 49.5504 127.98 48.3378 128.513 47.0295C128.587 46.8734 128.625 46.7024 128.623 46.5295C128.619 46.4932 128.607 46.4584 128.586 46.4286C128.564 46.3988 128.536 46.375 128.503 46.3595C128.041 46.2195 127.543 46.2515 127.103 46.4495C125.963 46.8895 124.803 47.4495 123.693 47.8795C120.636 49.3769 117.384 50.4405 114.033 51.0395C113.423 51.1195 112.833 51.1695 112.263 51.2295C109.623 51.4695 107.533 51.6595 105.813 54.1695C103.553 57.4695 103.373 61.5995 103.623 64.4895C103.932 67.19 104.44 69.8639 105.143 72.4895C105.373 73.4895 105.603 74.3895 105.823 75.3395C105.85 75.4734 105.823 75.6123 105.748 75.7264C105.673 75.8406 105.556 75.9207 105.423 75.9495L105.373 75.9295Z" fill="#231F20"/>
<path d="M129.993 90.8792L131.183 98.6392C131.183 98.6392 129.963 109.929 121.433 107.949C112.903 105.969 109.503 98.2792 109.503 98.2792L108.413 77.7792C108.413 77.7792 114.703 74.3492 112.713 60.6592C119.704 63.5898 127.356 64.5812 134.863 63.5292C134.863 63.5292 137.863 77.6292 136.943 84.2292C136.789 85.9924 135.999 87.6395 134.721 88.8631C133.442 90.0867 131.761 90.8033 129.993 90.8792Z" fill="white"/>
<path d="M123.323 108.729C122.65 108.722 121.979 108.642 121.323 108.489C118.671 107.818 116.198 106.575 114.077 104.848C111.956 103.12 110.238 100.95 109.043 98.4893C109.029 98.4301 109.029 98.3685 109.043 98.3093L107.873 77.8793C107.866 77.7816 107.888 77.6841 107.936 77.5988C107.984 77.5134 108.056 77.4441 108.143 77.3993C108.203 77.3993 114.073 73.9193 112.143 60.8093C112.133 60.7164 112.147 60.6225 112.183 60.5366C112.22 60.4507 112.279 60.3758 112.353 60.3193C112.427 60.2608 112.517 60.2249 112.611 60.216C112.705 60.2072 112.799 60.2257 112.883 60.2693C119.79 63.1348 127.335 64.1082 134.743 63.0893C134.872 63.074 135.002 63.1077 135.108 63.1836C135.213 63.2594 135.286 63.3721 135.313 63.4993C135.433 64.0693 138.363 77.7593 137.393 84.3793C137.224 86.1567 136.449 87.8219 135.198 89.0962C133.947 90.3705 132.297 91.1765 130.523 91.3793L131.633 98.5893C131.638 98.6358 131.638 98.6828 131.633 98.7293C131.633 98.9693 130.923 104.869 127.213 107.499C126.078 108.309 124.717 108.739 123.323 108.729ZM109.993 98.1793C110.383 98.9993 113.823 105.689 121.523 107.479C122.387 107.729 123.296 107.785 124.185 107.643C125.073 107.501 125.919 107.165 126.663 106.659C129.803 104.439 130.563 99.3093 130.663 98.6593L129.483 90.9693C129.472 90.8963 129.476 90.8217 129.497 90.7508C129.518 90.6799 129.554 90.6145 129.603 90.5593C129.648 90.5012 129.705 90.4546 129.771 90.4233C129.837 90.392 129.91 90.3769 129.983 90.3793C131.631 90.3111 133.198 89.6418 134.386 88.4976C135.574 87.3535 136.303 85.8138 136.433 84.1693C137.273 78.3993 134.973 66.5993 134.433 64.1693C127.289 65.0351 120.041 64.1391 113.323 61.5593C114.753 73.2293 110.143 77.2593 108.923 78.1093L109.993 98.1793Z" fill="#231F20"/>
<path d="M125.583 71.8193C125.583 71.8193 129.583 79.2493 128.413 80.3693C127.243 81.4893 124.133 80.3693 124.133 80.3693" fill="white"/>
<path d="M126.713 81.3695C125.786 81.3488 124.869 81.1835 123.993 80.8795C123.926 80.8623 123.863 80.8313 123.809 80.7885C123.754 80.7458 123.709 80.6921 123.676 80.631C123.644 80.5699 123.624 80.5026 123.619 80.4335C123.613 80.3644 123.622 80.295 123.645 80.2296C123.668 80.1642 123.705 80.1043 123.752 80.0536C123.799 80.003 123.857 79.9628 123.92 79.9355C123.984 79.9082 124.053 79.8945 124.122 79.8952C124.191 79.8959 124.26 79.911 124.323 79.9395C125.043 80.1995 127.323 80.7595 128.093 80.0195C128.583 79.5695 127.183 75.7895 125.163 72.0795C125.131 72.0218 125.111 71.9583 125.104 71.8929C125.097 71.8274 125.103 71.7611 125.122 71.698C125.14 71.6348 125.171 71.5759 125.213 71.5247C125.254 71.4734 125.305 71.4309 125.363 71.3995C125.421 71.3678 125.484 71.3479 125.55 71.3408C125.615 71.3337 125.681 71.3396 125.745 71.3582C125.808 71.3768 125.867 71.4077 125.918 71.4491C125.969 71.4905 126.012 71.5416 126.043 71.5995C127.323 73.9395 130.133 79.5095 128.763 80.7595C128.178 81.2078 127.448 81.425 126.713 81.3695Z" fill="#231F20"/>
<path d="M118.385 72.4126C118.849 72.3931 119.189 71.5184 119.144 70.459C119.099 69.3995 118.688 68.5565 118.224 68.576C117.761 68.5955 117.421 69.4702 117.466 70.5296C117.51 71.5891 117.922 72.4321 118.385 72.4126Z" fill="#231F20"/>
<path d="M131.774 72.4097C132.237 72.3902 132.577 71.5155 132.532 70.4561C132.488 69.3966 132.076 68.5536 131.612 68.5731C131.149 68.5926 130.809 69.4673 130.854 70.5267C130.898 71.5862 131.31 72.4292 131.774 72.4097Z" fill="#231F20"/>
<path d="M113.863 74.2792C113.102 72.994 112.104 71.8641 110.923 70.9492C110.316 70.4007 109.555 70.0517 108.743 69.9492C108.076 69.9561 107.425 70.1502 106.863 70.5092C106.023 71.0011 105.296 71.6653 104.731 72.4581C104.165 73.251 103.774 74.1544 103.583 75.1092C103.396 75.9939 103.43 76.911 103.683 77.7792C104.167 79.1251 105.108 80.258 106.343 80.9792C107.567 81.6868 108.869 82.2505 110.223 82.6592" fill="white"/>
<path d="M110.223 83.2095H110.053C108.656 82.7891 107.313 82.2051 106.053 81.4695C104.717 80.6883 103.7 79.459 103.183 77.9995C102.902 77.0478 102.86 76.041 103.063 75.0695C103.268 74.0338 103.689 73.0531 104.299 72.1915C104.91 71.3299 105.695 70.6068 106.603 70.0695C107.245 69.6589 107.991 69.4404 108.753 69.4395C109.669 69.5363 110.534 69.9094 111.233 70.5095C112.463 71.4672 113.501 72.6478 114.293 73.9895C114.363 74.1076 114.383 74.2485 114.35 74.3815C114.316 74.5145 114.231 74.6288 114.113 74.6995C113.994 74.7683 113.852 74.787 113.719 74.7514C113.586 74.7158 113.472 74.6287 113.403 74.5095C112.683 73.2791 111.733 72.1993 110.603 71.3295C110.072 70.8644 109.414 70.5685 108.713 70.4795C108.146 70.4874 107.592 70.6537 107.113 70.9595C106.344 71.4214 105.68 72.0389 105.163 72.7725C104.647 73.5061 104.289 74.3396 104.113 75.2195C103.951 76.0218 103.981 76.8514 104.203 77.6395C104.65 78.8658 105.514 79.8959 106.643 80.5495C107.835 81.2386 109.104 81.7857 110.423 82.1795C110.487 82.2009 110.546 82.2347 110.597 82.279C110.648 82.3234 110.689 82.3773 110.719 82.4378C110.749 82.4982 110.766 82.5639 110.77 82.6312C110.774 82.6984 110.765 82.7658 110.743 82.8295C110.715 82.9439 110.648 83.0448 110.553 83.1143C110.457 83.1839 110.341 83.2175 110.223 83.2095Z" fill="#231F20"/>
<path d="M129.993 90.8795C125.09 91.636 120.074 90.8093 115.673 88.5195C115.673 88.5195 122.973 99.7395 131.113 98.1595L129.993 90.8795Z" fill="#231F20"/>
<path d="M129.473 98.8793C121.833 98.8793 115.473 89.2993 115.223 88.8793C115.164 88.786 115.137 88.676 115.146 88.566C115.155 88.456 115.2 88.3519 115.273 88.2693C115.346 88.1859 115.445 88.1296 115.554 88.1096C115.663 88.0896 115.775 88.1072 115.873 88.1593C120.18 90.3856 125.08 91.1941 129.873 90.4693C130.009 90.4454 130.148 90.474 130.263 90.5493C130.319 90.589 130.367 90.6395 130.403 90.6979C130.439 90.7563 130.463 90.8215 130.473 90.8894L131.593 98.1593C131.617 98.2866 131.589 98.4179 131.516 98.5247C131.443 98.6315 131.33 98.7051 131.203 98.7294C130.633 98.8341 130.053 98.8843 129.473 98.8793ZM117.183 89.8793C119.433 92.7493 124.793 98.5993 130.513 97.8793L129.513 91.5893C125.318 92.1032 121.062 91.4888 117.183 89.8093V89.8793Z" fill="#231F20"/>
<path d="M119.133 77.2495C117.792 77.2495 116.481 76.8518 115.366 76.1068C114.251 75.3618 113.382 74.3029 112.869 73.064C112.356 71.8252 112.222 70.4619 112.483 69.1467C112.745 67.8316 113.391 66.6235 114.339 65.6753C115.287 64.7271 116.495 64.0813 117.81 63.8197C119.126 63.5581 120.489 63.6924 121.728 64.2056C122.966 64.7187 124.025 65.5877 124.77 66.7027C125.515 67.8177 125.913 69.1285 125.913 70.4695C125.91 72.2668 125.195 73.9898 123.924 75.2607C122.653 76.5316 120.93 77.2468 119.133 77.2495ZM119.133 64.7195C117.996 64.7195 116.884 65.0567 115.938 65.6885C114.993 66.3203 114.256 67.2184 113.821 68.269C113.386 69.3197 113.272 70.4758 113.494 71.5912C113.715 72.7066 114.263 73.7312 115.067 74.5353C115.871 75.3395 116.896 75.8871 118.011 76.109C119.127 76.3308 120.283 76.217 121.333 75.7818C122.384 75.3466 123.282 74.6096 123.914 73.664C124.546 72.7184 124.883 71.6067 124.883 70.4695C124.88 68.9453 124.274 67.4843 123.196 66.4065C122.118 65.3287 120.657 64.7221 119.133 64.7195Z" fill="#231F20"/>
<path d="M132.653 77.2495C131.312 77.2495 130.001 76.8518 128.886 76.1068C127.771 75.3618 126.902 74.3029 126.389 73.064C125.876 71.8252 125.742 70.4619 126.003 69.1467C126.265 67.8316 126.911 66.6235 127.859 65.6753C128.807 64.7271 130.015 64.0813 131.33 63.8197C132.646 63.5581 134.009 63.6924 135.248 64.2056C136.487 64.7187 137.545 65.5877 138.29 66.7027C139.035 67.8177 139.433 69.1285 139.433 70.4695C139.43 72.2668 138.715 73.9898 137.444 75.2607C136.173 76.5316 134.45 77.2468 132.653 77.2495ZM132.653 64.7195C131.516 64.7195 130.404 65.0567 129.459 65.6885C128.513 66.3203 127.776 67.2184 127.341 68.269C126.906 69.3197 126.792 70.4758 127.014 71.5912C127.235 72.7066 127.783 73.7312 128.587 74.5353C129.391 75.3395 130.416 75.8871 131.531 76.109C132.647 76.3308 133.803 76.217 134.853 75.7818C135.904 75.3466 136.802 74.6096 137.434 73.664C138.066 72.7184 138.403 71.6067 138.403 70.4695C138.4 68.9453 137.794 67.4843 136.716 66.4065C135.638 65.3287 134.177 64.7221 132.653 64.7195Z" fill="#231F20"/>
<path d="M125.623 85.5095C122.463 85.5095 119.413 83.5895 116.543 79.8595C116.493 79.8088 116.455 79.7482 116.431 79.6815C116.406 79.6149 116.396 79.5438 116.401 79.473C116.406 79.4022 116.427 79.3333 116.46 79.2709C116.494 79.2085 116.541 79.154 116.597 79.1111C116.654 79.0682 116.719 79.0378 116.788 79.0219C116.857 79.0061 116.929 79.0051 116.999 79.0192C117.068 79.0332 117.134 79.0619 117.192 79.1033C117.249 79.1448 117.298 79.198 117.333 79.2595C120.003 82.7195 122.793 84.4895 125.623 84.5095C129.533 84.5095 132.243 81.1295 132.273 81.0995C132.357 81.0037 132.474 80.9436 132.601 80.9312C132.727 80.9189 132.854 80.9553 132.955 81.0331C133.056 81.1109 133.123 81.2242 133.143 81.3499C133.163 81.4755 133.134 81.6042 133.063 81.7095C132.923 81.8795 129.993 85.5095 125.623 85.5095Z" fill="#231F20"/>
<path d="M90.7931 102.619C87.2431 106.029 60.9531 132.619 58.9831 127.719C57.0131 122.819 55.6131 100.329 55.6131 100.329L37.6131 102.999C37.6131 102.999 27.2331 153.639 45.2831 159.219C63.3331 164.799 90.7931 138.219 90.7931 138.219V102.619Z" fill="#87D147"/>
<path d="M75.9931 168.21C75.9049 168.21 75.8182 168.186 75.7431 168.14C75.6859 168.108 75.6357 168.064 75.5956 168.012C75.5554 167.961 75.526 167.901 75.5092 167.838C75.4924 167.774 75.4886 167.708 75.4978 167.643C75.5071 167.578 75.5293 167.516 75.5631 167.46C75.6731 167.26 87.1931 146.7 90.9331 114.04C90.9529 113.909 91.0219 113.791 91.126 113.709C91.23 113.627 91.3613 113.588 91.4931 113.6C91.6242 113.615 91.744 113.681 91.8264 113.784C91.9088 113.887 91.9472 114.019 91.9331 114.15C88.1631 147.03 76.5431 167.75 76.4231 167.96C76.3795 168.035 76.3168 168.098 76.2414 168.142C76.166 168.186 76.0804 168.209 75.9931 168.21Z" fill="#231F20"/>
<path d="M181.093 128.229C167.643 128.229 142.623 122.599 142.373 122.539C142.309 122.525 142.248 122.498 142.193 122.461C142.139 122.423 142.093 122.374 142.058 122.319C142.023 122.263 141.999 122.201 141.988 122.135C141.976 122.07 141.978 122.004 141.993 121.939C142.006 121.874 142.032 121.813 142.07 121.758C142.107 121.704 142.156 121.658 142.212 121.623C142.269 121.588 142.331 121.566 142.397 121.556C142.463 121.547 142.529 121.552 142.593 121.569C142.843 121.619 167.753 127.229 181.083 127.229H182.083C182.215 127.229 182.342 127.28 182.437 127.372C182.532 127.463 182.588 127.588 182.593 127.719C182.594 127.785 182.583 127.85 182.559 127.912C182.535 127.973 182.499 128.029 182.454 128.076C182.408 128.123 182.354 128.161 182.294 128.188C182.234 128.214 182.169 128.228 182.103 128.229H181.093Z" fill="#231F20"/>
<path d="M45.083 76.7295C45.083 76.7295 48.243 80.0995 46.693 86.0095C45.143 91.9195 42.533 93.0095 38.103 90.3795" fill="white"/>
<path d="M41.9931 92.2591C40.5026 92.1598 39.066 91.6625 37.8331 90.8191C37.7753 90.7843 37.725 90.7384 37.6849 90.6842C37.6448 90.6299 37.6159 90.5683 37.5996 90.5028C37.5834 90.4373 37.5802 90.3693 37.5902 90.3026C37.6002 90.2359 37.6233 90.1718 37.6581 90.1141C37.6929 90.0563 37.7388 90.0059 37.793 89.9659C37.8473 89.9258 37.9089 89.8968 37.9744 89.8806C38.0398 89.8643 38.1079 89.8611 38.1746 89.8711C38.2413 89.8812 38.3053 89.9043 38.3631 89.9391C40.3631 91.1491 41.9031 91.4991 43.0631 91.0291C44.4031 90.4891 45.4231 88.8091 46.1831 85.8791C47.6331 80.3391 44.8131 77.2191 44.6931 77.0891C44.5972 76.9918 44.5435 76.8607 44.5435 76.7241C44.5435 76.5875 44.5972 76.4564 44.6931 76.3591C44.7397 76.3107 44.7957 76.2722 44.8575 76.2459C44.9194 76.2196 44.9859 76.2061 45.0531 76.2061C45.1203 76.2061 45.1868 76.2196 45.2487 76.2459C45.3105 76.2722 45.3665 76.3107 45.4131 76.3591C45.5531 76.5091 48.7531 80.0091 47.1531 86.1191C46.2831 89.4291 45.1531 91.2891 43.4231 91.9691C42.9689 92.1546 42.4838 92.253 41.9931 92.2591Z" fill="#231F20"/>
<path d="M193.523 67.1496C193.523 67.1496 187.753 57.4396 189.163 56.4496C190.573 55.4596 193.853 59.2396 195.663 61.7996C195.663 61.7996 201.213 62.7996 200.283 68.9796" fill="white"/>
<path d="M200.283 69.4994H200.203C200.068 69.4773 199.948 69.403 199.867 69.2926C199.787 69.1822 199.753 69.0446 199.773 68.9094C200.623 63.2894 195.773 62.3494 195.573 62.3194C195.44 62.2941 195.322 62.219 195.243 62.1094C192.863 58.7394 190.243 56.3494 189.463 56.8794C189.093 57.5494 191.153 62.1494 193.973 66.8794C194.04 66.9967 194.058 67.1352 194.025 67.2658C193.991 67.3964 193.908 67.5089 193.793 67.5794C193.735 67.6153 193.67 67.6391 193.603 67.6495C193.535 67.6599 193.466 67.6565 193.4 67.6398C193.334 67.623 193.272 67.593 193.217 67.5518C193.163 67.5105 193.117 67.4587 193.083 67.3994C190.343 62.7794 187.383 57.0594 188.873 56.0194C190.873 54.5994 194.683 59.5194 195.973 61.3294C197.043 61.6094 201.683 63.1694 200.793 69.0494C200.776 69.1732 200.716 69.2868 200.622 69.3694C200.528 69.452 200.408 69.4982 200.283 69.4994Z" fill="#231F20"/>
<path d="M16.6132 215.559C16.5114 215.558 16.4124 215.526 16.3293 215.468C16.2462 215.409 16.1831 215.326 16.1483 215.23C16.1135 215.135 16.1087 215.031 16.1346 214.932C16.1605 214.834 16.2159 214.746 16.2932 214.679L65.2932 173.749C65.3953 173.665 65.527 173.624 65.6592 173.636C65.7246 173.642 65.7883 173.661 65.8465 173.691C65.9046 173.722 65.9562 173.764 65.9982 173.814C66.0403 173.865 66.0719 173.923 66.0914 173.986C66.1109 174.049 66.1178 174.115 66.1117 174.18C66.1057 174.246 66.0868 174.309 66.0562 174.368C66.0256 174.426 65.9838 174.477 65.9332 174.519L16.9332 215.449C16.8426 215.522 16.7294 215.561 16.6132 215.559Z" fill="#E6E7E8"/>
<path d="M242.043 198.24C241.935 198.241 241.829 198.205 241.743 198.14L166.663 141.24C166.602 141.204 166.548 141.156 166.507 141.099C166.466 141.041 166.437 140.975 166.423 140.906C166.409 140.836 166.41 140.764 166.426 140.695C166.441 140.626 166.472 140.561 166.515 140.504C166.558 140.448 166.612 140.401 166.675 140.367C166.737 140.333 166.806 140.313 166.877 140.308C166.947 140.303 167.019 140.313 167.085 140.337C167.152 140.362 167.213 140.4 167.263 140.45L242.343 197.34C242.449 197.419 242.519 197.538 242.538 197.669C242.557 197.8 242.523 197.934 242.443 198.04C242.396 198.101 242.336 198.151 242.266 198.186C242.197 198.221 242.121 198.239 242.043 198.24Z" fill="#E6E7E8"/>
<path d="M83.7432 72.3197C83.6731 72.3189 83.6039 72.3034 83.5401 72.2741C83.4764 72.2448 83.4195 72.2024 83.3732 72.1497L46.7432 31.1997C46.651 31.1045 46.5994 30.9772 46.5994 30.8447C46.5994 30.7122 46.651 30.5849 46.7432 30.4897C46.7897 30.4428 46.845 30.4056 46.9059 30.3803C46.9668 30.3549 47.0322 30.3418 47.0982 30.3418C47.1642 30.3418 47.2296 30.3549 47.2905 30.3803C47.3514 30.4056 47.4067 30.4428 47.4532 30.4897L84.0732 71.4397C84.1201 71.4862 84.1573 71.5415 84.1827 71.6024C84.208 71.6633 84.2211 71.7287 84.2211 71.7947C84.2211 71.8607 84.208 71.9261 84.1827 71.987C84.1573 72.0479 84.1201 72.1032 84.0732 72.1497C83.9885 72.2458 83.8707 72.3065 83.7432 72.3197Z" fill="#E6E7E8"/>
<path d="M208.823 103.27C208.691 103.294 208.554 103.264 208.443 103.187C208.333 103.11 208.257 102.992 208.233 102.86C208.209 102.727 208.239 102.59 208.316 102.48C208.393 102.369 208.511 102.294 208.643 102.27L247.303 87.1897C247.426 87.1407 247.564 87.1426 247.686 87.1951C247.808 87.2476 247.904 87.3464 247.953 87.4697C248.002 87.5931 248 87.7308 247.948 87.8527C247.895 87.9746 247.796 88.0707 247.673 88.1197L208.993 103.23C208.94 103.256 208.882 103.269 208.823 103.27Z" fill="#E6E7E8"/>
<path d="M148.513 68.8192C148.441 68.8378 148.365 68.8378 148.293 68.8192C148.234 68.7904 148.181 68.7502 148.137 68.7009C148.094 68.6516 148.06 68.5942 148.039 68.5319C148.018 68.4697 148.009 68.4038 148.013 68.3382C148.017 68.2725 148.034 68.2082 148.063 68.1492L161.853 40.2692C161.912 40.1498 162.015 40.0586 162.141 40.0154C162.266 39.9723 162.404 39.9808 162.523 40.0392C162.643 40.0975 162.734 40.2009 162.777 40.3265C162.82 40.4522 162.812 40.5898 162.753 40.7092L148.993 68.5492C148.947 68.6354 148.878 68.7067 148.793 68.7545C148.708 68.8024 148.611 68.8248 148.513 68.8192Z" fill="#E6E7E8"/>
<path d="M242.043 136.529H241.993L196.853 130.649C196.787 130.641 196.724 130.62 196.666 130.588C196.609 130.556 196.558 130.512 196.517 130.46C196.476 130.408 196.446 130.349 196.428 130.285C196.41 130.221 196.405 130.155 196.413 130.089C196.421 130.023 196.442 129.96 196.474 129.902C196.507 129.845 196.55 129.794 196.602 129.753C196.654 129.712 196.714 129.682 196.777 129.664C196.841 129.646 196.907 129.641 196.973 129.649L242.123 135.529C242.254 135.547 242.373 135.615 242.454 135.72C242.534 135.825 242.57 135.958 242.553 136.089C242.536 136.212 242.475 136.324 242.381 136.405C242.287 136.486 242.167 136.53 242.043 136.529Z" fill="#E6E7E8"/>
<path d="M158.303 85.5095C158.228 85.5107 158.153 85.4941 158.085 85.4611C158.018 85.4281 157.959 85.3796 157.913 85.3195C157.871 85.2694 157.839 85.2112 157.82 85.1486C157.8 85.0859 157.794 85.02 157.8 84.9547C157.807 84.8894 157.826 84.8261 157.858 84.7685C157.889 84.7109 157.932 84.6602 157.983 84.6195L164.713 79.1695C164.817 79.0877 164.949 79.0503 165.08 79.0652C165.211 79.0802 165.331 79.1465 165.413 79.2495C165.496 79.3519 165.535 79.4828 165.522 79.6139C165.509 79.7449 165.445 79.8656 165.343 79.9495L158.613 85.3995C158.525 85.4694 158.416 85.5081 158.303 85.5095Z" fill="#E6E7E8"/>
<path d="M201.483 215.559C201.397 215.561 201.311 215.539 201.236 215.497C201.16 215.455 201.097 215.394 201.053 215.319L175.163 171.519C175.098 171.405 175.08 171.27 175.113 171.142C175.147 171.015 175.23 170.906 175.343 170.839C175.458 170.772 175.594 170.753 175.723 170.784C175.851 170.816 175.963 170.897 176.033 171.009L201.913 214.809C201.947 214.865 201.969 214.928 201.978 214.993C201.988 215.058 201.984 215.124 201.967 215.187C201.95 215.251 201.921 215.31 201.881 215.362C201.841 215.414 201.79 215.457 201.733 215.489C201.658 215.537 201.572 215.561 201.483 215.559Z" fill="#E6E7E8"/>
<path d="M59.403 218.049C59.3224 218.05 59.2431 218.029 59.173 217.989C59.057 217.928 58.9699 217.823 58.9306 217.697C58.8913 217.572 58.9029 217.436 58.963 217.319L69.473 197.499C69.5044 197.442 69.5469 197.39 69.5981 197.349C69.6494 197.308 69.7083 197.277 69.7714 197.258C69.8346 197.24 69.9009 197.234 69.9663 197.241C70.0318 197.248 70.0953 197.268 70.153 197.299C70.2105 197.33 70.2615 197.371 70.3028 197.422C70.3441 197.472 70.3749 197.53 70.3935 197.592C70.4122 197.655 70.4182 197.72 70.4112 197.785C70.4042 197.85 70.3845 197.912 70.353 197.969L59.853 217.789C59.8074 217.868 59.7418 217.934 59.6628 217.98C59.5838 218.025 59.4942 218.049 59.403 218.049Z" fill="#E6E7E8"/>
<path d="M0.493138 155.639C0.381873 155.64 0.273728 155.603 0.18649 155.534C0.0992513 155.464 0.0381113 155.368 0.0131345 155.259C-0.016938 155.131 0.00509873 154.995 0.0744214 154.883C0.143744 154.771 0.254724 154.69 0.383137 154.659L32.6131 147.329C32.7457 147.3 32.8845 147.325 32.9989 147.398C33.1133 147.471 33.194 147.587 33.2231 147.719C33.2523 147.852 33.2276 147.991 33.1545 148.105C33.0813 148.22 32.9657 148.3 32.8331 148.329L0.603138 155.649L0.493138 155.639Z" fill="#E6E7E8"/>
<path d="M103.083 37.6696C102.974 37.6712 102.868 37.6368 102.781 37.5716C102.695 37.5065 102.632 37.4143 102.603 37.3096L94.993 10.7296C94.959 10.601 94.9766 10.4642 95.042 10.3484C95.1073 10.2326 95.2154 10.1469 95.3431 10.1096C95.4054 10.0913 95.4708 10.0857 95.5354 10.0929C95.6 10.1002 95.6625 10.1202 95.7192 10.1518C95.776 10.1835 95.8259 10.2261 95.8661 10.2772C95.9062 10.3283 95.9358 10.3869 95.9531 10.4496L103.593 37.0396C103.611 37.1019 103.617 37.1673 103.61 37.2319C103.602 37.2965 103.582 37.359 103.551 37.4158C103.519 37.4725 103.477 37.5224 103.425 37.5626C103.374 37.6027 103.316 37.6323 103.253 37.6496C103.199 37.6706 103.14 37.6775 103.083 37.6696Z" fill="#E6E7E8"/>
<path d="M137.103 29.1095H136.993C136.929 29.0953 136.868 29.0685 136.814 29.0306C136.76 28.9927 136.714 28.9445 136.678 28.8887C136.643 28.8329 136.619 28.7707 136.608 28.7056C136.597 28.6405 136.598 28.5739 136.613 28.5095L141.993 4.8795C142.022 4.74689 142.103 4.6313 142.217 4.55816C142.332 4.48502 142.471 4.46032 142.603 4.4895C142.736 4.51867 142.851 4.59933 142.925 4.71373C142.998 4.82812 143.022 4.96689 142.993 5.0995L137.593 28.7195C137.567 28.8297 137.504 28.9279 137.415 28.9986C137.326 29.0692 137.217 29.1082 137.103 29.1095Z" fill="#E6E7E8"/>
<path d="M29.9332 106.449H10.0432C9.9106 106.449 9.78343 106.397 9.68966 106.303C9.59589 106.209 9.54321 106.082 9.54321 105.949C9.54321 105.817 9.59589 105.689 9.68966 105.596C9.78343 105.502 9.9106 105.449 10.0432 105.449H29.9332C30.0658 105.449 30.193 105.502 30.2868 105.596C30.3805 105.689 30.4332 105.817 30.4332 105.949C30.4332 106.082 30.3805 106.209 30.2868 106.303C30.193 106.397 30.0658 106.449 29.9332 106.449Z" fill="#E6E7E8"/>
</svg>
