<svg width="116" height="26" viewBox="0 0 116 26" fill="none" xmlns="http://www.w3.org/2000/svg">
<path d="M8.06 19.1C6.47333 19.1 5.09333 18.8133 3.92 18.24C2.74667 17.6533 1.84667 16.8267 1.22 15.76C0.593333 14.6933 0.28 13.4533 0.28 12.04C0.28 10.08 0.646667 8.34 1.38 6.82C2.12667 5.3 3.13333 4.12667 4.4 3.3C5.66667 2.46 7.07333 2.04 8.62 2.04C10.06 2.04 11.1533 2.41333 11.9 3.16C12.6467 3.89333 13.02 4.86667 13.02 6.08C13.02 6.89333 12.8733 7.54667 12.58 8.04C12.3 8.53333 11.8933 8.78 11.36 8.78C10.9867 8.78 10.6933 8.69333 10.48 8.52C10.2667 8.34667 10.16 8.09333 10.16 7.76C10.16 7.64 10.1867 7.42 10.24 7.1C10.32 6.7 10.36 6.38 10.36 6.14C10.36 4.92667 9.71333 4.32 8.42 4.32C7.54 4.32 6.7 4.60667 5.9 5.18C5.1 5.75333 4.45333 6.6 3.96 7.72C3.46667 8.82667 3.22 10.1467 3.22 11.68C3.22 13.28 3.66667 14.52 4.56 15.4C5.45333 16.2667 6.77333 16.7 8.52 16.7C9.38667 16.7 10.26 16.5933 11.14 16.38C12.0333 16.1533 13.02 15.8133 14.1 15.36C14.3 15.28 14.4667 15.24 14.6 15.24C14.8133 15.24 14.9733 15.32 15.08 15.48C15.1867 15.64 15.24 15.8467 15.24 16.1C15.24 16.9133 14.8 17.5133 13.92 17.9C12.9733 18.3133 11.9867 18.62 10.96 18.82C9.94667 19.0067 8.98 19.1 8.06 19.1ZM23.6756 12.86C23.849 12.86 23.9823 12.9467 24.0756 13.12C24.169 13.2933 24.2156 13.5133 24.2156 13.78C24.2156 14.42 24.0223 14.8 23.6356 14.92C22.8356 15.2 21.9556 15.36 20.9956 15.4C20.7423 16.52 20.2423 17.42 19.4956 18.1C18.749 18.7667 17.9023 19.1 16.9556 19.1C16.1556 19.1 15.469 18.9067 14.8956 18.52C14.3356 18.1333 13.909 17.62 13.6156 16.98C13.3223 16.34 13.1756 15.6467 13.1756 14.9C13.1756 13.8867 13.369 12.9867 13.7556 12.2C14.1423 11.4 14.6756 10.78 15.3556 10.34C16.0356 9.88667 16.789 9.66 17.6156 9.66C18.629 9.66 19.4423 10.0133 20.0556 10.72C20.6823 11.4133 21.049 12.2733 21.1556 13.3C21.7823 13.26 22.529 13.1267 23.3956 12.9C23.5023 12.8733 23.5956 12.86 23.6756 12.86ZM17.1156 16.98C17.5423 16.98 17.909 16.8067 18.2156 16.46C18.5356 16.1133 18.749 15.6133 18.8556 14.96C18.4423 14.68 18.1223 14.3133 17.8956 13.86C17.6823 13.4067 17.5756 12.9267 17.5756 12.42C17.5756 12.2067 17.5956 11.9933 17.6356 11.78H17.5356C17.0023 11.78 16.5556 12.04 16.1956 12.56C15.849 13.0667 15.6756 13.7867 15.6756 14.72C15.6756 15.4533 15.8156 16.0133 16.0956 16.4C16.389 16.7867 16.729 16.98 17.1156 16.98ZM36.7391 13.4C37.1124 13.4 37.2991 13.68 37.2991 14.24C37.2991 15.3067 36.4457 15.84 34.7391 15.84C34.6724 15.84 34.2991 15.82 33.6191 15.78C33.7657 16.4867 33.8791 17.2933 33.9591 18.2C34.0524 19.0933 34.0991 19.9867 34.0991 20.88C34.0991 22.32 33.8524 23.42 33.3591 24.18C32.8791 24.94 32.2591 25.32 31.4991 25.32C30.5391 25.32 29.8524 24.64 29.4391 23.28C29.0391 21.92 28.8391 19.8667 28.8391 17.12C28.8391 16.4133 28.8591 15.7 28.8991 14.98C28.7791 14.9933 28.5857 15 28.3191 15C27.9591 15 27.6657 15.0067 27.4391 15.02C27.5724 16.0067 27.6724 16.9533 27.7391 17.86C27.8191 18.7667 27.8591 19.7733 27.8591 20.88C27.8591 22.32 27.6124 23.42 27.1191 24.18C26.6391 24.94 26.0191 25.32 25.2591 25.32C24.2991 25.32 23.6124 24.64 23.1991 23.28C22.7991 21.92 22.5991 19.8667 22.5991 17.12C22.5991 14.5467 22.8524 11.9467 23.3591 9.32C23.8791 6.68 24.5991 4.5 25.5191 2.78C26.4391 1.06 27.4791 0.199999 28.6391 0.199999C29.2391 0.199999 29.7057 0.453332 30.0391 0.959999C30.3857 1.45333 30.5591 2.16667 30.5591 3.1C30.5591 4.55333 30.1657 6.17333 29.3791 7.96C28.6057 9.73333 27.2324 11.6 25.2591 13.56C25.1391 14.7333 25.0791 15.8733 25.0791 16.98C25.0791 18.3533 25.1257 19.76 25.2191 21.2C25.3124 22.6533 25.4657 23.38 25.6791 23.38C25.8791 23.38 26.0391 23.2133 26.1591 22.88C26.2791 22.5467 26.3391 22.02 26.3391 21.3C26.3391 19.9933 26.2857 18.84 26.1791 17.84C26.0857 16.8267 25.9724 16.0133 25.8391 15.4C25.8124 15.3067 25.7991 15.1667 25.7991 14.98C25.7991 14.4067 26.0257 13.9333 26.4791 13.56C26.9457 13.1867 27.5591 12.9933 28.3191 12.98H28.7991H29.0791C29.3324 10.7667 29.7457 8.68667 30.3191 6.74C30.9057 4.78 31.6124 3.2 32.4391 2C33.2791 0.799999 34.1791 0.199999 35.1391 0.199999C35.7657 0.199999 36.2524 0.479999 36.5991 1.04C36.9591 1.6 37.1391 2.35333 37.1391 3.3C37.1391 4.47333 36.9191 5.78667 36.4791 7.24C36.0391 8.69333 35.3857 10.06 34.5191 11.34C33.6657 12.6067 32.6457 13.56 31.4591 14.2C31.3657 15.0933 31.3191 16.02 31.3191 16.98C31.3191 18.3533 31.3657 19.76 31.4591 21.2C31.5524 22.6533 31.7057 23.38 31.9191 23.38C32.1191 23.38 32.2791 23.2133 32.3991 22.88C32.5191 22.5467 32.5791 22.02 32.5791 21.3C32.5791 20.26 32.5257 19.2667 32.4191 18.32C32.3124 17.3733 32.1991 16.6 32.0791 16C32.0524 15.8933 32.0391 15.7467 32.0391 15.56C32.0391 15.0133 32.2257 14.5533 32.5991 14.18C32.9724 13.7933 33.3991 13.6 33.8791 13.6C34.3324 13.6 34.7457 13.5867 35.1191 13.56C35.5057 13.52 35.7524 13.4933 35.8591 13.48C36.3124 13.4267 36.6057 13.4 36.7391 13.4ZM28.2191 2.18C27.9791 2.18 27.6924 2.58667 27.3591 3.4C27.0391 4.21333 26.7191 5.29333 26.3991 6.64C26.0791 7.98667 25.8057 9.42 25.5791 10.94C26.5924 9.74 27.3524 8.44 27.8591 7.04C28.3791 5.62667 28.6391 4.34667 28.6391 3.2C28.6391 2.86667 28.5991 2.61333 28.5191 2.44C28.4391 2.26667 28.3391 2.18 28.2191 2.18ZM34.7191 2.18C34.4524 2.18 34.1257 2.64667 33.7391 3.58C33.3657 4.51333 32.9924 5.73333 32.6191 7.24C32.2591 8.74667 31.9591 10.3067 31.7191 11.92C32.4791 11.32 33.1191 10.52 33.6391 9.52C34.1724 8.52 34.5657 7.47333 34.8191 6.38C35.0857 5.28667 35.2191 4.29333 35.2191 3.4C35.2191 2.58667 35.0524 2.18 34.7191 2.18ZM44.7003 14.54C44.8736 14.54 45.007 14.62 45.1003 14.78C45.207 14.94 45.2603 15.16 45.2603 15.44C45.2603 15.9733 45.1336 16.3867 44.8803 16.68C44.387 17.28 43.687 17.8333 42.7803 18.34C41.887 18.8467 40.927 19.1 39.9003 19.1C38.5003 19.1 37.4136 18.72 36.6403 17.96C35.867 17.2 35.4803 16.16 35.4803 14.84C35.4803 13.92 35.6736 13.0667 36.0603 12.28C36.447 11.48 36.9803 10.8467 37.6603 10.38C38.3536 9.91333 39.1336 9.68 40.0003 9.68C40.7736 9.68 41.3936 9.91333 41.8603 10.38C42.327 10.8333 42.5603 11.4533 42.5603 12.24C42.5603 13.16 42.227 13.9533 41.5603 14.62C40.907 15.2733 39.7936 15.7933 38.2203 16.18C38.5536 16.7933 39.187 17.1 40.1203 17.1C40.7203 17.1 41.4003 16.8933 42.1603 16.48C42.9336 16.0533 43.6003 15.5 44.1603 14.82C44.3203 14.6333 44.5003 14.54 44.7003 14.54ZM39.6603 11.64C39.167 11.64 38.747 11.9267 38.4003 12.5C38.067 13.0733 37.9003 13.7667 37.9003 14.58V14.62C38.687 14.4333 39.307 14.1533 39.7603 13.78C40.2136 13.4067 40.4403 12.9733 40.4403 12.48C40.4403 12.2267 40.367 12.0267 40.2203 11.88C40.087 11.72 39.9003 11.64 39.6603 11.64ZM50.7919 15.14C50.9652 15.14 51.0985 15.22 51.1919 15.38C51.2985 15.54 51.3519 15.76 51.3519 16.04C51.3519 16.52 51.2385 16.9333 51.0119 17.28C50.6385 17.8533 50.1452 18.3 49.5319 18.62C48.9319 18.94 48.2119 19.1 47.3719 19.1C46.0919 19.1 45.0985 18.72 44.3919 17.96C43.6852 17.1867 43.3319 16.1467 43.3319 14.84C43.3319 13.92 43.5252 13.0667 43.9119 12.28C44.2985 11.48 44.8319 10.8467 45.5119 10.38C46.2052 9.91333 46.9852 9.68 47.8519 9.68C48.6252 9.68 49.2452 9.91333 49.7119 10.38C50.1785 10.8333 50.4119 11.4533 50.4119 12.24C50.4119 13.16 50.0785 13.9533 49.4119 14.62C48.7585 15.2733 47.6385 15.7933 46.0519 16.18C46.3719 16.7933 46.9119 17.1 47.6719 17.1C48.2185 17.1 48.6652 16.9733 49.0119 16.72C49.3719 16.4667 49.7852 16.04 50.2519 15.44C50.4119 15.24 50.5919 15.14 50.7919 15.14ZM47.5119 11.64C47.0185 11.64 46.5985 11.9267 46.2519 12.5C45.9185 13.0733 45.7519 13.7667 45.7519 14.58V14.62C46.5385 14.4333 47.1585 14.1533 47.6119 13.78C48.0652 13.4067 48.2919 12.9733 48.2919 12.48C48.2919 12.2267 48.2185 12.0267 48.0719 11.88C47.9385 11.72 47.7519 11.64 47.5119 11.64ZM65.2475 19.1C63.6608 19.1 62.2808 18.8133 61.1075 18.24C59.9342 17.6533 59.0342 16.8267 58.4075 15.76C57.7808 14.6933 57.4675 13.4533 57.4675 12.04C57.4675 10.08 57.8342 8.34 58.5675 6.82C59.3142 5.3 60.3208 4.12667 61.5875 3.3C62.8542 2.46 64.2608 2.04 65.8075 2.04C67.2475 2.04 68.3408 2.41333 69.0875 3.16C69.8342 3.89333 70.2075 4.86667 70.2075 6.08C70.2075 6.89333 70.0608 7.54667 69.7675 8.04C69.4875 8.53333 69.0808 8.78 68.5475 8.78C68.1742 8.78 67.8808 8.69333 67.6675 8.52C67.4542 8.34667 67.3475 8.09333 67.3475 7.76C67.3475 7.64 67.3742 7.42 67.4275 7.1C67.5075 6.7 67.5475 6.38 67.5475 6.14C67.5475 4.92667 66.9008 4.32 65.6075 4.32C64.7275 4.32 63.8875 4.60667 63.0875 5.18C62.2875 5.75333 61.6408 6.6 61.1475 7.72C60.6542 8.82667 60.4075 10.1467 60.4075 11.68C60.4075 13.28 60.8542 14.52 61.7475 15.4C62.6408 16.2667 63.9608 16.7 65.7075 16.7C66.5742 16.7 67.4475 16.5933 68.3275 16.38C69.2208 16.1533 70.2075 15.8133 71.2875 15.36C71.4875 15.28 71.6542 15.24 71.7875 15.24C72.0008 15.24 72.1608 15.32 72.2675 15.48C72.3742 15.64 72.4275 15.8467 72.4275 16.1C72.4275 16.9133 71.9875 17.5133 71.1075 17.9C70.1608 18.3133 69.1742 18.62 68.1475 18.82C67.1342 19.0067 66.1675 19.1 65.2475 19.1ZM74.0431 19.1C73.2565 19.1 72.5831 18.9067 72.0231 18.52C71.4765 18.12 71.0631 17.6 70.7831 16.96C70.5031 16.32 70.3631 15.6333 70.3631 14.9C70.3631 13.8867 70.5498 12.9867 70.9231 12.2C71.3098 11.4 71.8298 10.78 72.4831 10.34C73.1365 9.88667 73.8698 9.66 74.6831 9.66C75.4698 9.66 76.1431 9.86 76.7031 10.26C77.2631 10.6467 77.6831 11.16 77.9631 11.8C78.2431 12.44 78.3831 13.1267 78.3831 13.86C78.3831 14.8733 78.1898 15.78 77.8031 16.58C77.4165 17.3667 76.8898 17.9867 76.2231 18.44C75.5698 18.88 74.8431 19.1 74.0431 19.1ZM74.2631 16.94C74.7165 16.94 75.0965 16.6933 75.4031 16.2C75.7231 15.7067 75.8831 14.9867 75.8831 14.04C75.8831 13.3067 75.7498 12.7533 75.4831 12.38C75.2165 12.0067 74.8965 11.82 74.5231 11.82C74.0431 11.82 73.6431 12.0667 73.3231 12.56C73.0165 13.04 72.8631 13.76 72.8631 14.72C72.8631 15.48 72.9965 16.04 73.2631 16.4C73.5298 16.76 73.8631 16.94 74.2631 16.94ZM83.348 19.54C82.6546 19.54 82.1213 19.38 81.748 19.06C81.388 18.74 81.208 18.38 81.208 17.98C81.208 17.6333 81.3346 17.3333 81.588 17.08C81.8413 16.8267 82.2146 16.7 82.708 16.7C82.8813 16.7 83.0813 16.72 83.308 16.76C83.548 16.7867 83.728 16.8067 83.848 16.82C83.8346 16.4733 83.7546 16.1467 83.608 15.84C83.4746 15.5333 83.3013 15.24 83.088 14.96C82.8746 14.6667 82.6746 14.4133 82.488 14.2C82.0746 14.9867 81.6613 15.64 81.248 16.16C80.848 16.68 80.408 17.1733 79.928 17.64C79.688 17.88 79.4346 18 79.168 18C78.9546 18 78.7813 17.9267 78.648 17.78C78.5146 17.62 78.448 17.4267 78.448 17.2C78.448 16.9333 78.5413 16.6867 78.728 16.46L78.988 16.14C79.7213 15.2333 80.2746 14.4867 80.648 13.9C80.8746 13.5133 81.1413 13 81.448 12.36C81.7546 11.7067 82.0546 11.0333 82.348 10.34C82.6013 9.75333 83.128 9.46 83.928 9.46C84.3013 9.46 84.5613 9.49333 84.708 9.56C84.8546 9.62667 84.928 9.73333 84.928 9.88C84.928 9.96 84.9013 10.0867 84.848 10.26C84.7946 10.4333 84.7213 10.6067 84.628 10.78C84.388 11.26 84.268 11.6667 84.268 12C84.268 12.2 84.3346 12.42 84.468 12.66C84.6146 12.9 84.8346 13.2 85.128 13.56C85.5546 14.12 85.8746 14.6 86.088 15C86.3146 15.3867 86.428 15.8133 86.428 16.28C86.428 16.4133 86.4146 16.6 86.388 16.84C87.0413 16.5867 87.808 15.9133 88.688 14.82C88.848 14.6333 89.028 14.54 89.228 14.54C89.4013 14.54 89.5346 14.62 89.628 14.78C89.7346 14.94 89.788 15.16 89.788 15.44C89.788 15.9467 89.6613 16.36 89.408 16.68C88.7413 17.5067 88.1013 18.0733 87.488 18.38C86.888 18.6733 86.1413 18.8333 85.248 18.86C84.7146 19.3133 84.0813 19.54 83.348 19.54ZM89.5831 19.1C89.0765 19.1 88.7165 18.8333 88.5031 18.3C88.3031 17.7667 88.2031 16.9133 88.2031 15.74C88.2031 14.0067 88.4498 12.36 88.9431 10.8C89.0631 10.4133 89.2565 10.1333 89.5231 9.96C89.8031 9.77333 90.1898 9.68 90.6831 9.68C90.9498 9.68 91.1365 9.71333 91.2431 9.78C91.3498 9.84667 91.4031 9.97333 91.4031 10.16C91.4031 10.3733 91.3031 10.8533 91.1031 11.6C90.9698 12.1333 90.8631 12.6 90.7831 13C90.7031 13.3867 90.6365 13.8733 90.5831 14.46C90.9431 13.42 91.3698 12.54 91.8631 11.82C92.3698 11.1 92.8831 10.5667 93.4031 10.22C93.9365 9.86 94.4365 9.68 94.9031 9.68C95.3698 9.68 95.6965 9.78667 95.8831 10C96.0831 10.2133 96.1831 10.54 96.1831 10.98C96.1831 11.4067 96.0565 12.18 95.8031 13.3C95.6965 13.78 95.6231 14.14 95.5831 14.38C96.2498 12.74 96.9898 11.5467 97.8031 10.8C98.6165 10.0533 99.3765 9.68 100.083 9.68C100.95 9.68 101.383 10.1133 101.383 10.98C101.383 11.5 101.236 12.44 100.943 13.8C100.69 14.96 100.563 15.7267 100.563 16.1C100.563 16.6333 100.756 16.9 101.143 16.9C101.41 16.9 101.723 16.74 102.083 16.42C102.456 16.0867 102.95 15.5533 103.563 14.82C103.723 14.6333 103.903 14.54 104.103 14.54C104.276 14.54 104.41 14.62 104.503 14.78C104.61 14.94 104.663 15.16 104.663 15.44C104.663 15.9733 104.536 16.3867 104.283 16.68C103.71 17.3867 103.09 17.9667 102.423 18.42C101.77 18.8733 101.023 19.1 100.183 19.1C99.5031 19.1 98.9898 18.9067 98.6431 18.52C98.2965 18.12 98.1231 17.5467 98.1231 16.8C98.1231 16.4267 98.2165 15.76 98.4031 14.8C98.5765 13.96 98.6631 13.38 98.6631 13.06C98.6631 12.8467 98.5898 12.74 98.4431 12.74C98.2698 12.74 98.0231 12.9667 97.7031 13.42C97.3831 13.86 97.0631 14.4467 96.7431 15.18C96.4231 15.9133 96.1631 16.6867 95.9631 17.5C95.8165 18.14 95.6431 18.5667 95.4431 18.78C95.2565 18.9933 94.9498 19.1 94.5231 19.1C94.0831 19.1 93.7498 18.8933 93.5231 18.48C93.3098 18.0533 93.2031 17.54 93.2031 16.94C93.2031 16.4333 93.2698 15.7 93.4031 14.74C93.5098 13.8867 93.5631 13.3267 93.5631 13.06C93.5631 12.8467 93.4898 12.74 93.3431 12.74C93.1431 12.74 92.8898 12.98 92.5831 13.46C92.2765 13.94 91.9765 14.5533 91.6831 15.3C91.4031 16.0467 91.1765 16.78 91.0031 17.5C90.8565 18.1267 90.6831 18.5533 90.4831 18.78C90.2965 18.9933 89.9965 19.1 89.5831 19.1ZM105.666 8.36C105.106 8.36 104.686 8.23333 104.406 7.98C104.126 7.71333 103.986 7.34667 103.986 6.88C103.986 6.41333 104.166 6.02667 104.526 5.72C104.899 5.4 105.359 5.24 105.906 5.24C106.399 5.24 106.799 5.36 107.106 5.6C107.413 5.84 107.566 6.18 107.566 6.62C107.566 7.15333 107.393 7.58 107.046 7.9C106.699 8.20667 106.239 8.36 105.666 8.36ZM105.506 19.1C104.639 19.1 104.006 18.7933 103.606 18.18C103.219 17.5667 103.026 16.7533 103.026 15.74C103.026 15.14 103.099 14.3733 103.246 13.44C103.406 12.4933 103.606 11.6133 103.846 10.8C103.966 10.3733 104.126 10.08 104.326 9.92C104.526 9.76 104.846 9.68 105.286 9.68C105.966 9.68 106.306 9.90667 106.306 10.36C106.306 10.6933 106.179 11.4667 105.926 12.68C105.606 14.1467 105.446 15.14 105.446 15.66C105.446 16.06 105.499 16.3667 105.606 16.58C105.713 16.7933 105.893 16.9 106.146 16.9C106.386 16.9 106.686 16.7333 107.046 16.4C107.406 16.0667 107.886 15.54 108.486 14.82C108.646 14.6333 108.826 14.54 109.026 14.54C109.199 14.54 109.333 14.62 109.426 14.78C109.533 14.94 109.586 15.16 109.586 15.44C109.586 15.9733 109.459 16.3867 109.206 16.68C107.886 18.2933 106.653 19.1 105.506 19.1ZM111.688 19.1C110.421 19.1 109.428 18.7333 108.708 18C108.001 17.2533 107.648 16.2733 107.648 15.06C107.648 13.98 107.861 13.0333 108.288 12.22C108.714 11.4067 109.268 10.78 109.948 10.34C110.628 9.9 111.341 9.68 112.088 9.68C112.821 9.68 113.388 9.9 113.788 10.34C114.201 10.7667 114.408 11.32 114.408 12C114.408 12.56 114.281 13.0333 114.028 13.42C113.788 13.8067 113.468 14 113.068 14C112.814 14 112.608 13.94 112.448 13.82C112.301 13.7 112.228 13.5333 112.228 13.32C112.228 13.2267 112.241 13.12 112.268 13C112.294 12.88 112.314 12.7933 112.328 12.74C112.394 12.54 112.428 12.3533 112.428 12.18C112.428 12.0067 112.381 11.8733 112.288 11.78C112.208 11.6867 112.088 11.64 111.928 11.64C111.621 11.64 111.334 11.78 111.068 12.06C110.801 12.3267 110.588 12.6933 110.428 13.16C110.268 13.6267 110.188 14.14 110.188 14.7C110.188 15.46 110.341 16.04 110.648 16.44C110.968 16.8267 111.414 17.02 111.988 17.02C112.441 17.02 112.854 16.8867 113.228 16.62C113.614 16.3533 113.994 15.96 114.368 15.44C114.528 15.24 114.708 15.14 114.908 15.14C115.081 15.14 115.214 15.22 115.308 15.38C115.414 15.54 115.468 15.76 115.468 16.04C115.468 16.52 115.354 16.9333 115.128 17.28C114.768 17.84 114.294 18.2867 113.708 18.62C113.121 18.94 112.448 19.1 111.688 19.1Z" fill="#FFBC0E"/>
</svg>
