<svg width="201" height="66" viewBox="0 0 201 66" fill="none" xmlns="http://www.w3.org/2000/svg">
<path d="M24.3002 36.3034C22.6186 38.0095 22.0602 39.1234 21.1002 41.1034C20.1402 43.0835 19.7725 37.4156 20.1402 34.0634C21.1002 28.8011 22.4982 26.8096 26.2202 24.1434C33.12 19.2011 36.9946 18.8343 42.5402 22.2234C40.4624 26.7817 38.2957 29.0215 31.6602 32.1434L26.8602 34.3834L24.3002 36.3034Z" fill="#FFBC0E" stroke="#FFBC0E"/>
<path d="M40.8343 29.0779C42.5045 27.3607 43.0554 26.243 44.0022 24.2567C44.949 22.2703 45.3545 27.9355 45.0091 31.2901C44.0842 36.5588 42.6996 38.5595 38.9954 41.2504C32.1288 46.2387 28.2567 46.6314 22.6886 43.2792C24.1599 38.5599 26.7199 36.6399 32.7999 34.3999L38.2871 31.0149L40.8343 29.0779Z" fill="#FFBC0E" stroke="#FFBC0E"/>
<path d="M63.101 40.4419V39.4419H62.3175L62.13 40.2026L63.101 40.4419ZM62.9077 24.8139L61.943 25.0774L62.1442 25.8139H62.9077V24.8139ZM63.9434 24.8139V25.8139H65.2414L64.9103 24.5588L63.9434 24.8139ZM64.1301 40.4419L65.1029 40.6735L65.3963 39.4419H64.1301V40.4419ZM33 65C48.0264 65 60.6315 54.6439 64.0719 40.6811L62.13 40.2026C58.9045 53.2929 47.0846 63 33 63V65ZM1 33C1 50.6731 15.3269 65 33 65V63C16.4315 63 3 49.5685 3 33H1ZM33 1C15.3269 1 1 15.3269 1 33H3C3 16.4315 16.4315 3 33 3V1ZM63.8724 24.5505C60.1661 10.9781 47.7496 1 33 1V3C46.825 3 58.4681 12.3524 61.943 25.0774L63.8724 24.5505ZM62.9077 25.8139H63.9434V23.8139H62.9077V25.8139ZM64.9103 24.5588C61.1807 10.4235 48.3089 0 33 0V2C47.3784 2 59.4728 11.7898 62.9765 25.0691L64.9103 24.5588ZM33 0C14.7746 0 0 14.7746 0 33H2C2 15.8792 15.8792 2 33 2V0ZM0 33C0 51.2254 14.7746 66 33 66V64C15.8792 64 2 50.1208 2 33H0ZM33 66C48.5845 66 61.6437 55.1978 65.1029 40.6735L63.1574 40.2102C59.9077 53.8541 47.6375 64 33 64V66ZM64.1301 39.4419H63.101V41.4419H64.1301V39.4419Z" fill="#FFBC0E"/>
<ellipse cx="32.5" cy="33" rx="22.5" ry="22" stroke="#FFBC0E" stroke-width="5"/>
<rect x="57" y="30" width="15" height="5" fill="#FFBC0E"/>
<path d="M93.06 41.1C91.4733 41.1 90.0933 40.8133 88.92 40.24C87.7467 39.6533 86.8467 38.8267 86.22 37.76C85.5933 36.6933 85.28 35.4533 85.28 34.04C85.28 32.08 85.6467 30.34 86.38 28.82C87.1267 27.3 88.1333 26.1267 89.4 25.3C90.6667 24.46 92.0733 24.04 93.62 24.04C95.06 24.04 96.1533 24.4133 96.9 25.16C97.6467 25.8933 98.02 26.8667 98.02 28.08C98.02 28.8933 97.8733 29.5467 97.58 30.04C97.3 30.5333 96.8933 30.78 96.36 30.78C95.9867 30.78 95.6933 30.6933 95.48 30.52C95.2667 30.3467 95.16 30.0933 95.16 29.76C95.16 29.64 95.1867 29.42 95.24 29.1C95.32 28.7 95.36 28.38 95.36 28.14C95.36 26.9267 94.7133 26.32 93.42 26.32C92.54 26.32 91.7 26.6067 90.9 27.18C90.1 27.7533 89.4533 28.6 88.96 29.72C88.4667 30.8267 88.22 32.1467 88.22 33.68C88.22 35.28 88.6667 36.52 89.56 37.4C90.4533 38.2667 91.7733 38.7 93.52 38.7C94.3867 38.7 95.26 38.5933 96.14 38.38C97.0333 38.1533 98.02 37.8133 99.1 37.36C99.3 37.28 99.4667 37.24 99.6 37.24C99.8133 37.24 99.9733 37.32 100.08 37.48C100.187 37.64 100.24 37.8467 100.24 38.1C100.24 38.9133 99.8 39.5133 98.92 39.9C97.9733 40.3133 96.9867 40.62 95.96 40.82C94.9467 41.0067 93.98 41.1 93.06 41.1ZM108.676 34.86C108.849 34.86 108.982 34.9467 109.076 35.12C109.169 35.2933 109.216 35.5133 109.216 35.78C109.216 36.42 109.022 36.8 108.636 36.92C107.836 37.2 106.956 37.36 105.996 37.4C105.742 38.52 105.242 39.42 104.496 40.1C103.749 40.7667 102.902 41.1 101.956 41.1C101.156 41.1 100.469 40.9067 99.8956 40.52C99.3356 40.1333 98.909 39.62 98.6156 38.98C98.3223 38.34 98.1756 37.6467 98.1756 36.9C98.1756 35.8867 98.369 34.9867 98.7556 34.2C99.1423 33.4 99.6756 32.78 100.356 32.34C101.036 31.8867 101.789 31.66 102.616 31.66C103.629 31.66 104.442 32.0133 105.056 32.72C105.682 33.4133 106.049 34.2733 106.156 35.3C106.782 35.26 107.529 35.1267 108.396 34.9C108.502 34.8733 108.596 34.86 108.676 34.86ZM102.116 38.98C102.542 38.98 102.909 38.8067 103.216 38.46C103.536 38.1133 103.749 37.6133 103.856 36.96C103.442 36.68 103.122 36.3133 102.896 35.86C102.682 35.4067 102.576 34.9267 102.576 34.42C102.576 34.2067 102.596 33.9933 102.636 33.78H102.536C102.002 33.78 101.556 34.04 101.196 34.56C100.849 35.0667 100.676 35.7867 100.676 36.72C100.676 37.4533 100.816 38.0133 101.096 38.4C101.389 38.7867 101.729 38.98 102.116 38.98ZM121.739 35.4C122.112 35.4 122.299 35.68 122.299 36.24C122.299 37.3067 121.446 37.84 119.739 37.84C119.672 37.84 119.299 37.82 118.619 37.78C118.766 38.4867 118.879 39.2933 118.959 40.2C119.052 41.0933 119.099 41.9867 119.099 42.88C119.099 44.32 118.852 45.42 118.359 46.18C117.879 46.94 117.259 47.32 116.499 47.32C115.539 47.32 114.852 46.64 114.439 45.28C114.039 43.92 113.839 41.8667 113.839 39.12C113.839 38.4133 113.859 37.7 113.899 36.98C113.779 36.9933 113.586 37 113.319 37C112.959 37 112.666 37.0067 112.439 37.02C112.572 38.0067 112.672 38.9533 112.739 39.86C112.819 40.7667 112.859 41.7733 112.859 42.88C112.859 44.32 112.612 45.42 112.119 46.18C111.639 46.94 111.019 47.32 110.259 47.32C109.299 47.32 108.612 46.64 108.199 45.28C107.799 43.92 107.599 41.8667 107.599 39.12C107.599 36.5467 107.852 33.9467 108.359 31.32C108.879 28.68 109.599 26.5 110.519 24.78C111.439 23.06 112.479 22.2 113.639 22.2C114.239 22.2 114.706 22.4533 115.039 22.96C115.386 23.4533 115.559 24.1667 115.559 25.1C115.559 26.5533 115.166 28.1733 114.379 29.96C113.606 31.7333 112.232 33.6 110.259 35.56C110.139 36.7333 110.079 37.8733 110.079 38.98C110.079 40.3533 110.126 41.76 110.219 43.2C110.312 44.6533 110.466 45.38 110.679 45.38C110.879 45.38 111.039 45.2133 111.159 44.88C111.279 44.5467 111.339 44.02 111.339 43.3C111.339 41.9933 111.286 40.84 111.179 39.84C111.086 38.8267 110.972 38.0133 110.839 37.4C110.812 37.3067 110.799 37.1667 110.799 36.98C110.799 36.4067 111.026 35.9333 111.479 35.56C111.946 35.1867 112.559 34.9933 113.319 34.98H113.799H114.079C114.332 32.7667 114.746 30.6867 115.319 28.74C115.906 26.78 116.612 25.2 117.439 24C118.279 22.8 119.179 22.2 120.139 22.2C120.766 22.2 121.252 22.48 121.599 23.04C121.959 23.6 122.139 24.3533 122.139 25.3C122.139 26.4733 121.919 27.7867 121.479 29.24C121.039 30.6933 120.386 32.06 119.519 33.34C118.666 34.6067 117.646 35.56 116.459 36.2C116.366 37.0933 116.319 38.02 116.319 38.98C116.319 40.3533 116.366 41.76 116.459 43.2C116.552 44.6533 116.706 45.38 116.919 45.38C117.119 45.38 117.279 45.2133 117.399 44.88C117.519 44.5467 117.579 44.02 117.579 43.3C117.579 42.26 117.526 41.2667 117.419 40.32C117.312 39.3733 117.199 38.6 117.079 38C117.052 37.8933 117.039 37.7467 117.039 37.56C117.039 37.0133 117.226 36.5533 117.599 36.18C117.972 35.7933 118.399 35.6 118.879 35.6C119.332 35.6 119.746 35.5867 120.119 35.56C120.506 35.52 120.752 35.4933 120.859 35.48C121.312 35.4267 121.606 35.4 121.739 35.4ZM113.219 24.18C112.979 24.18 112.692 24.5867 112.359 25.4C112.039 26.2133 111.719 27.2933 111.399 28.64C111.079 29.9867 110.806 31.42 110.579 32.94C111.592 31.74 112.352 30.44 112.859 29.04C113.379 27.6267 113.639 26.3467 113.639 25.2C113.639 24.8667 113.599 24.6133 113.519 24.44C113.439 24.2667 113.339 24.18 113.219 24.18ZM119.719 24.18C119.452 24.18 119.126 24.6467 118.739 25.58C118.366 26.5133 117.992 27.7333 117.619 29.24C117.259 30.7467 116.959 32.3067 116.719 33.92C117.479 33.32 118.119 32.52 118.639 31.52C119.172 30.52 119.566 29.4733 119.819 28.38C120.086 27.2867 120.219 26.2933 120.219 25.4C120.219 24.5867 120.052 24.18 119.719 24.18ZM129.7 36.54C129.874 36.54 130.007 36.62 130.1 36.78C130.207 36.94 130.26 37.16 130.26 37.44C130.26 37.9733 130.134 38.3867 129.88 38.68C129.387 39.28 128.687 39.8333 127.78 40.34C126.887 40.8467 125.927 41.1 124.9 41.1C123.5 41.1 122.414 40.72 121.64 39.96C120.867 39.2 120.48 38.16 120.48 36.84C120.48 35.92 120.674 35.0667 121.06 34.28C121.447 33.48 121.98 32.8467 122.66 32.38C123.354 31.9133 124.134 31.68 125 31.68C125.774 31.68 126.394 31.9133 126.86 32.38C127.327 32.8333 127.56 33.4533 127.56 34.24C127.56 35.16 127.227 35.9533 126.56 36.62C125.907 37.2733 124.794 37.7933 123.22 38.18C123.554 38.7933 124.187 39.1 125.12 39.1C125.72 39.1 126.4 38.8933 127.16 38.48C127.934 38.0533 128.6 37.5 129.16 36.82C129.32 36.6333 129.5 36.54 129.7 36.54ZM124.66 33.64C124.167 33.64 123.747 33.9267 123.4 34.5C123.067 35.0733 122.9 35.7667 122.9 36.58V36.62C123.687 36.4333 124.307 36.1533 124.76 35.78C125.214 35.4067 125.44 34.9733 125.44 34.48C125.44 34.2267 125.367 34.0267 125.22 33.88C125.087 33.72 124.9 33.64 124.66 33.64ZM135.792 37.14C135.965 37.14 136.099 37.22 136.192 37.38C136.299 37.54 136.352 37.76 136.352 38.04C136.352 38.52 136.239 38.9333 136.012 39.28C135.639 39.8533 135.145 40.3 134.532 40.62C133.932 40.94 133.212 41.1 132.372 41.1C131.092 41.1 130.099 40.72 129.392 39.96C128.685 39.1867 128.332 38.1467 128.332 36.84C128.332 35.92 128.525 35.0667 128.912 34.28C129.299 33.48 129.832 32.8467 130.512 32.38C131.205 31.9133 131.985 31.68 132.852 31.68C133.625 31.68 134.245 31.9133 134.712 32.38C135.179 32.8333 135.412 33.4533 135.412 34.24C135.412 35.16 135.079 35.9533 134.412 36.62C133.759 37.2733 132.639 37.7933 131.052 38.18C131.372 38.7933 131.912 39.1 132.672 39.1C133.219 39.1 133.665 38.9733 134.012 38.72C134.372 38.4667 134.785 38.04 135.252 37.44C135.412 37.24 135.592 37.14 135.792 37.14ZM132.512 33.64C132.019 33.64 131.599 33.9267 131.252 34.5C130.919 35.0733 130.752 35.7667 130.752 36.58V36.62C131.539 36.4333 132.159 36.1533 132.612 35.78C133.065 35.4067 133.292 34.9733 133.292 34.48C133.292 34.2267 133.219 34.0267 133.072 33.88C132.939 33.72 132.752 33.64 132.512 33.64ZM150.248 41.1C148.661 41.1 147.281 40.8133 146.108 40.24C144.934 39.6533 144.034 38.8267 143.408 37.76C142.781 36.6933 142.468 35.4533 142.468 34.04C142.468 32.08 142.834 30.34 143.568 28.82C144.314 27.3 145.321 26.1267 146.588 25.3C147.854 24.46 149.261 24.04 150.808 24.04C152.248 24.04 153.341 24.4133 154.088 25.16C154.834 25.8933 155.208 26.8667 155.208 28.08C155.208 28.8933 155.061 29.5467 154.768 30.04C154.488 30.5333 154.081 30.78 153.548 30.78C153.174 30.78 152.881 30.6933 152.668 30.52C152.454 30.3467 152.348 30.0933 152.348 29.76C152.348 29.64 152.374 29.42 152.428 29.1C152.508 28.7 152.548 28.38 152.548 28.14C152.548 26.9267 151.901 26.32 150.608 26.32C149.728 26.32 148.888 26.6067 148.088 27.18C147.288 27.7533 146.641 28.6 146.148 29.72C145.654 30.8267 145.408 32.1467 145.408 33.68C145.408 35.28 145.854 36.52 146.748 37.4C147.641 38.2667 148.961 38.7 150.708 38.7C151.574 38.7 152.448 38.5933 153.328 38.38C154.221 38.1533 155.208 37.8133 156.288 37.36C156.488 37.28 156.654 37.24 156.788 37.24C157.001 37.24 157.161 37.32 157.268 37.48C157.374 37.64 157.428 37.8467 157.428 38.1C157.428 38.9133 156.988 39.5133 156.108 39.9C155.161 40.3133 154.174 40.62 153.148 40.82C152.134 41.0067 151.168 41.1 150.248 41.1ZM159.043 41.1C158.256 41.1 157.583 40.9067 157.023 40.52C156.476 40.12 156.063 39.6 155.783 38.96C155.503 38.32 155.363 37.6333 155.363 36.9C155.363 35.8867 155.55 34.9867 155.923 34.2C156.31 33.4 156.83 32.78 157.483 32.34C158.136 31.8867 158.87 31.66 159.683 31.66C160.47 31.66 161.143 31.86 161.703 32.26C162.263 32.6467 162.683 33.16 162.963 33.8C163.243 34.44 163.383 35.1267 163.383 35.86C163.383 36.8733 163.19 37.78 162.803 38.58C162.416 39.3667 161.89 39.9867 161.223 40.44C160.57 40.88 159.843 41.1 159.043 41.1ZM159.263 38.94C159.716 38.94 160.096 38.6933 160.403 38.2C160.723 37.7067 160.883 36.9867 160.883 36.04C160.883 35.3067 160.75 34.7533 160.483 34.38C160.216 34.0067 159.896 33.82 159.523 33.82C159.043 33.82 158.643 34.0667 158.323 34.56C158.016 35.04 157.863 35.76 157.863 36.72C157.863 37.48 157.996 38.04 158.263 38.4C158.53 38.76 158.863 38.94 159.263 38.94ZM168.348 41.54C167.655 41.54 167.121 41.38 166.748 41.06C166.388 40.74 166.208 40.38 166.208 39.98C166.208 39.6333 166.335 39.3333 166.588 39.08C166.841 38.8267 167.215 38.7 167.708 38.7C167.881 38.7 168.081 38.72 168.308 38.76C168.548 38.7867 168.728 38.8067 168.848 38.82C168.835 38.4733 168.755 38.1467 168.608 37.84C168.475 37.5333 168.301 37.24 168.088 36.96C167.875 36.6667 167.675 36.4133 167.488 36.2C167.075 36.9867 166.661 37.64 166.248 38.16C165.848 38.68 165.408 39.1733 164.928 39.64C164.688 39.88 164.435 40 164.168 40C163.955 40 163.781 39.9267 163.648 39.78C163.515 39.62 163.448 39.4267 163.448 39.2C163.448 38.9333 163.541 38.6867 163.728 38.46L163.988 38.14C164.721 37.2333 165.275 36.4867 165.648 35.9C165.875 35.5133 166.141 35 166.448 34.36C166.755 33.7067 167.055 33.0333 167.348 32.34C167.601 31.7533 168.128 31.46 168.928 31.46C169.301 31.46 169.561 31.4933 169.708 31.56C169.855 31.6267 169.928 31.7333 169.928 31.88C169.928 31.96 169.901 32.0867 169.848 32.26C169.795 32.4333 169.721 32.6067 169.628 32.78C169.388 33.26 169.268 33.6667 169.268 34C169.268 34.2 169.335 34.42 169.468 34.66C169.615 34.9 169.835 35.2 170.128 35.56C170.555 36.12 170.875 36.6 171.088 37C171.315 37.3867 171.428 37.8133 171.428 38.28C171.428 38.4133 171.415 38.6 171.388 38.84C172.041 38.5867 172.808 37.9133 173.688 36.82C173.848 36.6333 174.028 36.54 174.228 36.54C174.401 36.54 174.535 36.62 174.628 36.78C174.735 36.94 174.788 37.16 174.788 37.44C174.788 37.9467 174.661 38.36 174.408 38.68C173.741 39.5067 173.101 40.0733 172.488 40.38C171.888 40.6733 171.141 40.8333 170.248 40.86C169.715 41.3133 169.081 41.54 168.348 41.54ZM174.583 41.1C174.076 41.1 173.716 40.8333 173.503 40.3C173.303 39.7667 173.203 38.9133 173.203 37.74C173.203 36.0067 173.45 34.36 173.943 32.8C174.063 32.4133 174.256 32.1333 174.523 31.96C174.803 31.7733 175.19 31.68 175.683 31.68C175.95 31.68 176.136 31.7133 176.243 31.78C176.35 31.8467 176.403 31.9733 176.403 32.16C176.403 32.3733 176.303 32.8533 176.103 33.6C175.97 34.1333 175.863 34.6 175.783 35C175.703 35.3867 175.636 35.8733 175.583 36.46C175.943 35.42 176.37 34.54 176.863 33.82C177.37 33.1 177.883 32.5667 178.403 32.22C178.936 31.86 179.436 31.68 179.903 31.68C180.37 31.68 180.696 31.7867 180.883 32C181.083 32.2133 181.183 32.54 181.183 32.98C181.183 33.4067 181.056 34.18 180.803 35.3C180.696 35.78 180.623 36.14 180.583 36.38C181.25 34.74 181.99 33.5467 182.803 32.8C183.616 32.0533 184.376 31.68 185.083 31.68C185.95 31.68 186.383 32.1133 186.383 32.98C186.383 33.5 186.236 34.44 185.943 35.8C185.69 36.96 185.563 37.7267 185.563 38.1C185.563 38.6333 185.756 38.9 186.143 38.9C186.41 38.9 186.723 38.74 187.083 38.42C187.456 38.0867 187.95 37.5533 188.563 36.82C188.723 36.6333 188.903 36.54 189.103 36.54C189.276 36.54 189.41 36.62 189.503 36.78C189.61 36.94 189.663 37.16 189.663 37.44C189.663 37.9733 189.536 38.3867 189.283 38.68C188.71 39.3867 188.09 39.9667 187.423 40.42C186.77 40.8733 186.023 41.1 185.183 41.1C184.503 41.1 183.99 40.9067 183.643 40.52C183.296 40.12 183.123 39.5467 183.123 38.8C183.123 38.4267 183.216 37.76 183.403 36.8C183.576 35.96 183.663 35.38 183.663 35.06C183.663 34.8467 183.59 34.74 183.443 34.74C183.27 34.74 183.023 34.9667 182.703 35.42C182.383 35.86 182.063 36.4467 181.743 37.18C181.423 37.9133 181.163 38.6867 180.963 39.5C180.816 40.14 180.643 40.5667 180.443 40.78C180.256 40.9933 179.95 41.1 179.523 41.1C179.083 41.1 178.75 40.8933 178.523 40.48C178.31 40.0533 178.203 39.54 178.203 38.94C178.203 38.4333 178.27 37.7 178.403 36.74C178.51 35.8867 178.563 35.3267 178.563 35.06C178.563 34.8467 178.49 34.74 178.343 34.74C178.143 34.74 177.89 34.98 177.583 35.46C177.276 35.94 176.976 36.5533 176.683 37.3C176.403 38.0467 176.176 38.78 176.003 39.5C175.856 40.1267 175.683 40.5533 175.483 40.78C175.296 40.9933 174.996 41.1 174.583 41.1ZM190.666 30.36C190.106 30.36 189.686 30.2333 189.406 29.98C189.126 29.7133 188.986 29.3467 188.986 28.88C188.986 28.4133 189.166 28.0267 189.526 27.72C189.899 27.4 190.359 27.24 190.906 27.24C191.399 27.24 191.799 27.36 192.106 27.6C192.413 27.84 192.566 28.18 192.566 28.62C192.566 29.1533 192.393 29.58 192.046 29.9C191.699 30.2067 191.239 30.36 190.666 30.36ZM190.506 41.1C189.639 41.1 189.006 40.7933 188.606 40.18C188.219 39.5667 188.026 38.7533 188.026 37.74C188.026 37.14 188.099 36.3733 188.246 35.44C188.406 34.4933 188.606 33.6133 188.846 32.8C188.966 32.3733 189.126 32.08 189.326 31.92C189.526 31.76 189.846 31.68 190.286 31.68C190.966 31.68 191.306 31.9067 191.306 32.36C191.306 32.6933 191.179 33.4667 190.926 34.68C190.606 36.1467 190.446 37.14 190.446 37.66C190.446 38.06 190.499 38.3667 190.606 38.58C190.713 38.7933 190.893 38.9 191.146 38.9C191.386 38.9 191.686 38.7333 192.046 38.4C192.406 38.0667 192.886 37.54 193.486 36.82C193.646 36.6333 193.826 36.54 194.026 36.54C194.199 36.54 194.333 36.62 194.426 36.78C194.533 36.94 194.586 37.16 194.586 37.44C194.586 37.9733 194.459 38.3867 194.206 38.68C192.886 40.2933 191.653 41.1 190.506 41.1ZM196.688 41.1C195.421 41.1 194.428 40.7333 193.708 40C193.001 39.2533 192.648 38.2733 192.648 37.06C192.648 35.98 192.861 35.0333 193.288 34.22C193.714 33.4067 194.268 32.78 194.948 32.34C195.628 31.9 196.341 31.68 197.088 31.68C197.821 31.68 198.388 31.9 198.788 32.34C199.201 32.7667 199.408 33.32 199.408 34C199.408 34.56 199.281 35.0333 199.028 35.42C198.788 35.8067 198.468 36 198.068 36C197.814 36 197.608 35.94 197.448 35.82C197.301 35.7 197.228 35.5333 197.228 35.32C197.228 35.2267 197.241 35.12 197.268 35C197.294 34.88 197.314 34.7933 197.328 34.74C197.394 34.54 197.428 34.3533 197.428 34.18C197.428 34.0067 197.381 33.8733 197.288 33.78C197.208 33.6867 197.088 33.64 196.928 33.64C196.621 33.64 196.334 33.78 196.068 34.06C195.801 34.3267 195.588 34.6933 195.428 35.16C195.268 35.6267 195.188 36.14 195.188 36.7C195.188 37.46 195.341 38.04 195.648 38.44C195.968 38.8267 196.414 39.02 196.988 39.02C197.441 39.02 197.854 38.8867 198.228 38.62C198.614 38.3533 198.994 37.96 199.368 37.44C199.528 37.24 199.708 37.14 199.908 37.14C200.081 37.14 200.214 37.22 200.308 37.38C200.414 37.54 200.468 37.76 200.468 38.04C200.468 38.52 200.354 38.9333 200.128 39.28C199.768 39.84 199.294 40.2867 198.708 40.62C198.121 40.94 197.448 41.1 196.688 41.1Z" fill="#FFBC0E"/>
</svg>
