<svg width="51" height="48" viewBox="0 0 51 48" fill="none" xmlns="http://www.w3.org/2000/svg">
<path d="M17.4087 25.8616C16.2245 27.063 15.8312 27.8475 15.1552 29.2419C14.4791 30.6362 14.2201 26.6448 14.4791 24.2841C15.1552 20.5782 16.1396 19.1758 18.7608 17.2982C23.6198 13.8176 26.3484 13.5593 30.2538 15.9461C28.7905 19.1561 27.2647 20.7334 22.5918 22.932L19.2115 24.5095L17.4087 25.8616Z" fill="#FFBC0E" stroke="#FFBC0E"/>
<path d="M29.0524 20.7732C30.2286 19.5639 30.6166 18.7768 31.2833 17.378C31.95 15.9791 32.2356 19.9687 31.9924 22.3311C31.3411 26.0414 30.366 27.4504 27.7574 29.3454C22.9217 32.8583 20.195 33.1348 16.2737 30.7741C17.3099 27.4507 19.1127 26.0986 23.3944 24.5211L27.2586 22.1373L29.0524 20.7732Z" fill="#FFBC0E" stroke="#FFBC0E"/>
<path d="M44.4283 28.7759V27.7759H43.6475L43.4581 28.5334L44.4283 28.7759ZM44.2901 17.7704L43.3265 18.0375L43.5296 18.7704H44.2901V17.7704ZM45.3263 17.7704V18.7704H46.6244L46.2932 17.5153L45.3263 17.7704ZM45.4579 28.7759L46.4306 29.0076L46.724 27.7759H45.4579V28.7759ZM23.5352 46.0704C34.0909 46.0704 42.9492 38.8139 45.3984 29.0185L43.4581 28.5334C41.2263 37.4596 33.1515 44.0704 23.5352 44.0704V46.0704ZM1 23.5352C1 35.9811 11.0894 46.0704 23.5352 46.0704V44.0704C12.1939 44.0704 3 34.8765 3 23.5352H1ZM23.5352 1C11.0894 1 1 11.0894 1 23.5352H3C3 12.1939 12.1939 3 23.5352 3V1ZM45.2538 17.5033C42.6164 7.98711 33.893 1 23.5352 1V3C32.971 3 40.9228 9.36497 43.3265 18.0375L45.2538 17.5033ZM44.2901 18.7704H45.3263V16.7704H44.2901V18.7704ZM46.2932 17.5153C43.6334 7.43417 34.4537 0 23.5352 0V2C33.5232 2 41.9254 8.80052 44.3594 18.0255L46.2932 17.5153ZM23.5352 0C10.5371 0 0 10.5371 0 23.5352H2C2 11.6416 11.6416 2 23.5352 2V0ZM0 23.5352C0 36.5333 10.5371 47.0704 23.5352 47.0704V45.0704C11.6416 45.0704 2 35.4288 2 23.5352H0ZM23.5352 47.0704C34.6503 47.0704 43.9635 39.3662 46.4306 29.0076L44.4851 28.5443C42.2276 38.0225 33.7032 45.0704 23.5352 45.0704V47.0704ZM45.4579 27.7759H44.4283V29.7759H45.4579V27.7759Z" fill="#FFBC0E"/>
<ellipse cx="23.1832" cy="23.5352" rx="15.8451" ry="15.493" stroke="#FFBC0E" stroke-width="5"/>
<rect x="40.4365" y="21.4225" width="10.5634" height="3.52113" fill="#FFBC0E"/>
</svg>
